<svg width="299" height="165" viewBox="0 0 299 165" fill="none" xmlns="http://www.w3.org/2000/svg">
<ellipse cx="154" cy="143" rx="135" ry="22" fill="#ECECEC"/>
<path d="M253.909 30.5814L252.267 30.7031L260.852 146.502L262.493 146.38L253.909 30.5814Z" fill="#6F8FE4"/>
<path d="M250.465 30.5449L241.885 146.344L243.527 146.465L252.106 30.6665L250.465 30.5449Z" fill="#B3C0EC"/>
<path d="M176.181 30.5566L167.601 146.355L169.242 146.477L177.822 30.6782L176.181 30.5566Z" fill="#B3C0EC"/>
<path d="M176.141 30.5815L174.5 30.7031L183.084 146.502L184.725 146.38L176.141 30.5815Z" fill="#6F8FE4"/>
<path d="M169.508 84.984L174.254 30.6172H253.884L249.138 84.984H169.508Z" fill="#B3C0EC"/>
<path d="M246.861 82.5427H172.196L176.53 33.0859H251.195L246.861 82.5427Z" fill="white"/>
<path d="M237.946 34.918C241.293 34.918 243.707 37.6336 243.35 40.9526C242.994 44.2991 240.004 46.9873 236.657 46.9873C233.311 46.9873 230.897 44.2717 231.253 40.9526C231.61 37.6336 234.6 34.918 237.946 34.918Z" fill="#6F8FE4"/>
<path d="M213.232 40.9368H219.239L219.87 34.957C219.897 34.957 219.897 34.957 219.925 34.957C223.271 34.957 225.685 37.6726 225.328 40.9917C224.972 44.3382 221.982 47.0264 218.635 47.0264C215.289 47.0264 212.875 44.3108 213.232 40.9917C213.232 40.9643 213.232 40.9368 213.232 40.9368Z" fill="url(#paint0_linear_936_9778)"/>
<path d="M205.03 35.8516L204.975 36.2356H188.928L188.983 35.8516H205.03Z" fill="#B3C0EC"/>
<path d="M204.811 37.793L204.783 38.2044H188.737L188.764 37.793H204.811Z" fill="#B3C0EC"/>
<path d="M204.618 39.7812L204.563 40.1653H188.517L188.571 39.7812H204.618Z" fill="#B3C0EC"/>
<path d="M204.4 41.7188L204.372 42.1028H188.325L188.353 41.7188H204.4Z" fill="#B3C0EC"/>
<path d="M204.207 43.6719L204.152 44.0833H188.106L188.161 43.6719H204.207Z" fill="#B3C0EC"/>
<path d="M203.989 45.6367L203.961 46.0207H187.915L187.942 45.6367H203.989Z" fill="#B3C0EC"/>
<path d="M242.363 51.7227L242.335 52.1067H226.288L226.316 51.7227H242.363Z" fill="#B3C0EC"/>
<path d="M242.199 53.2812L242.171 53.6653H226.125L226.152 53.2812H242.199Z" fill="#B3C0EC"/>
<path d="M242.034 54.8438L242.007 55.2278H225.96L225.988 54.8438H242.034Z" fill="#B3C0EC"/>
<path d="M241.87 56.418L241.843 56.802H225.796L225.823 56.418H241.87Z" fill="#B3C0EC"/>
<path d="M241.732 57.9609L241.677 58.345H225.631L225.658 57.9609H241.732Z" fill="#B3C0EC"/>
<path d="M212.711 51.7227L212.656 52.1067H205.167L205.195 51.7227H212.711Z" fill="#B3C0EC"/>
<path d="M212.547 53.2812L212.492 53.6653H205.004L205.031 53.2812H212.547Z" fill="#B3C0EC"/>
<path d="M212.382 54.8438L212.327 55.2278H204.838L204.866 54.8438H212.382Z" fill="#B3C0EC"/>
<path d="M187.749 56.6977L193.976 52.3363L201.217 59.4956H209.145L216.331 68.0539H182.236L184.265 48.4961L187.749 56.6977Z" fill="#B3C0EC"/>
<path d="M187.256 61.4993L189.779 58.9757L197.35 63.1176H205.579L216.332 68.0551H182.236L183.415 56.7812L187.256 61.4993Z" fill="#E2E9FB"/>
<path d="M241.979 64.7031L240.278 80.887H239.894L241.595 64.7031H241.979Z" fill="#B3C0EC"/>
<path d="M234.655 64.7031L232.981 80.887H232.597L234.271 64.7031H234.655Z" fill="#B3C0EC"/>
<path d="M227.359 64.7031L225.658 80.887H225.274L226.975 64.7031H227.359Z" fill="#B3C0EC"/>
<path d="M220.062 64.7031L218.362 80.887H217.978L219.678 64.7031H220.062Z" fill="#B3C0EC"/>
<path d="M242.5 65.4297L242.445 65.8137H218.965L218.992 65.4297H242.5Z" fill="#B3C0EC"/>
<path d="M241.979 70.2305L241.951 70.6145H218.444L218.498 70.2305H241.979Z" fill="#B3C0EC"/>
<path d="M241.486 75.0234L241.431 75.4075H217.951L218.006 75.0234H241.486Z" fill="#B3C0EC"/>
<path d="M240.991 79.8203L240.936 80.2318H217.456L217.483 79.8203H240.991Z" fill="#B3C0EC"/>
<path d="M203.823 75.2251C203.631 77.0081 204.948 78.4893 206.731 78.4893C208.514 78.4893 210.132 77.0355 210.324 75.2251C210.516 73.4422 209.199 71.9609 207.416 71.9609C205.606 71.9884 203.988 73.4422 203.823 75.2251ZM205.743 75.2251C205.825 74.512 206.456 73.9085 207.197 73.9085C207.91 73.9085 208.459 74.4845 208.376 75.2251C208.294 75.9383 207.663 76.5418 206.923 76.5418C206.209 76.5418 205.688 75.9658 205.743 75.2251Z" fill="#D3DDF8"/>
<path d="M194.579 75.2173C194.387 77.0003 195.704 78.4815 197.487 78.4815C199.27 78.4815 200.888 77.0277 201.08 75.2173C201.272 73.4344 199.956 71.9531 198.173 71.9531C196.39 71.9806 194.771 73.4344 194.579 75.2173ZM196.527 75.2173C196.609 74.5041 197.24 73.9007 197.981 73.9007C198.694 73.9007 199.243 74.4767 199.16 75.2173C199.078 75.9305 198.447 76.534 197.706 76.534C196.993 76.534 196.445 75.9579 196.527 75.2173Z" fill="#E2E9FB"/>
<path d="M185.362 75.2251C185.17 77.0081 186.487 78.4893 188.27 78.4893C190.053 78.4893 191.671 77.0355 191.863 75.2251C192.055 73.4422 190.738 71.9609 188.955 71.9609C187.173 71.9884 185.554 73.4422 185.362 75.2251ZM187.31 75.2251C187.392 74.512 188.023 73.9085 188.763 73.9085C189.477 73.9085 190.025 74.4845 189.943 75.2251C189.861 75.9383 189.23 76.5418 188.489 76.5418C187.776 76.5418 187.227 75.9658 187.31 75.2251Z" fill="url(#paint1_linear_936_9778)"/>
<path d="M226.508 70.0571C227.77 72.4984 229.059 75.0219 233.475 75.0219C239.702 75.0219 240.113 80.1514 240.141 80.2063L239.757 80.2337C239.757 80.0417 239.345 75.406 233.503 75.406C228.84 75.406 227.413 72.6629 226.179 70.2217C225.054 68.0272 224.012 65.97 220.775 65.97V65.5859C224.231 65.6134 225.411 67.8626 226.508 70.0571Z" fill="url(#paint2_linear_936_9778)"/>
<path d="M225.439 74.3365C226.783 75.7355 228.182 77.1893 233.009 77.1893C239.675 77.1893 240.141 80.0969 240.141 80.234L239.757 80.2889C239.757 80.2615 239.291 77.6007 233.009 77.6007C228.017 77.6007 226.563 76.0921 225.164 74.6383C223.957 73.3765 222.833 72.197 219.294 72.197V71.8129C222.997 71.7855 224.177 73.0199 225.439 74.3365Z" fill="#D3DDF8"/>
<path d="M169.399 53.5971C168.521 51.2381 157.686 36.5629 154.97 34.3959C154.038 33.6553 150.005 39.9642 151.377 43.0364C152.145 44.7371 163.666 58.4248 165.86 59.2751C168.466 60.2901 170.523 56.6418 169.399 53.5971Z" fill="url(#paint3_linear_936_9778)"/>
<path d="M168.439 58.6974C167.753 59.3557 166.848 59.63 165.86 59.246C163.666 58.3682 152.118 44.7079 151.377 43.0073C150.938 42.0472 151.048 40.758 151.405 39.4688C160.786 51.7301 166.436 60.3432 168.439 58.6974Z" fill="url(#paint4_linear_936_9778)"/>
<path d="M189.78 58.7295C192.221 59.909 193.976 62.0485 195.595 60.7045C196.994 59.525 197.213 58.0986 197.103 56.5625C197.076 56.2882 201.767 56.7819 201.684 56.0687C201.575 55.0813 196.692 55.1087 196.253 54.9715C195.293 54.6698 193.538 54.8344 191.453 55.1361C188.408 55.575 174.967 53.0788 170.469 53.1337C165.998 53.1886 163.693 58.7295 166.711 59.1135C171.127 59.6347 187.338 57.55 189.78 58.7295Z" fill="#FBBCBE"/>
<path d="M195.266 58.6194C195.128 59.0583 194.964 59.4972 194.991 59.9635C195.019 60.1829 195.101 60.3475 195.156 60.5395C195.156 60.5944 195.211 60.759 195.238 60.9236C193.73 61.7465 192.056 59.7989 189.78 58.7291C188.737 58.2354 185.665 58.3451 182.099 58.6194C182.867 58.2902 187.997 57.6319 190.081 58.2902C191.727 58.8114 192.468 55.1906 194.031 55.026C197.35 54.6969 195.622 57.5771 195.266 58.6194Z" fill="#DA91A7"/>
<path d="M188.189 54.1741C187.914 54.8599 186.79 56.9446 186.872 59.2487C181.825 59.2762 169.646 60.1814 166.244 59.3859C163.309 58.7001 164.873 52.3912 169.317 52.3363C172.745 52.3089 183.032 53.7901 188.189 54.1741Z" fill="url(#paint5_linear_936_9778)"/>
<path d="M196.664 56.1491C195.869 55.4908 194.442 55.7651 194.058 55.9297C193.153 56.3411 192.961 57.7401 192.879 58.5081C192.605 60.538 195.348 60.5928 195.348 60.5928C195.348 60.5928 197.46 56.8074 196.664 56.1491Z" fill="#FBBCBE"/>
<path d="M125.977 53.9284C125.977 51.4048 132.148 36.1261 134.233 33.3282C136.812 29.8994 142.188 34.2334 141.996 37.5799C141.886 39.4452 133.547 54.8061 131.792 56.3971C129.707 58.2623 125.977 57.1651 125.977 53.9284Z" fill="url(#paint6_linear_936_9778)"/>
<path d="M125.099 72.9096C123.727 75.2411 121.423 76.8047 122.63 78.5328C123.672 80.014 125.071 80.3706 126.635 80.398C126.909 80.398 128.116 80.1237 128.308 79.6848C128.692 78.7522 128.665 76.9967 128.555 74.8845C128.363 71.8124 131.901 61.4163 132.231 56.9177C132.56 52.474 127.238 49.6761 126.607 52.6386C125.675 57 126.47 70.5506 125.099 72.9096Z" fill="#FBBCBE"/>
<path d="M124.715 78.3694C124.276 78.1774 123.864 77.9854 123.398 77.9854C123.179 77.9854 123.014 78.0402 122.822 78.1225C122.767 78.1225 122.603 78.15 122.438 78.1774C121.752 76.5864 123.837 75.0778 125.099 72.9108C125.675 71.9233 125.812 68.8237 125.867 65.2852C126.141 66.0806 126.333 71.2375 125.51 73.2674C124.852 74.8583 128.39 75.9007 128.418 77.4642C128.445 80.7833 125.757 78.8083 124.715 78.3694Z" fill="#DA91A7"/>
<path d="M129.762 71.7008C129.076 71.3442 127.129 70.0824 124.824 69.9452C125.208 64.8981 125.236 55.4895 126.333 52.1704C127.266 49.2902 133.41 51.4024 133.081 55.8461C132.834 59.2474 130.612 66.5987 129.762 71.7008Z" fill="url(#paint7_linear_936_9778)"/>
<path d="M127.074 79.9863C127.787 79.2731 127.65 77.8193 127.513 77.4079C127.184 76.4752 125.785 76.1735 125.044 76.0089C123.042 75.57 122.767 78.2856 122.767 78.2856C122.767 78.2856 126.361 80.6995 127.074 79.9863Z" fill="#FBBCBE"/>
<path d="M141.886 38.0188C140.405 36.8393 134.919 35.0289 131.024 39.6646C132.286 36.757 133.52 34.2883 134.233 33.3282C136.812 29.8994 142.188 34.2334 141.996 37.5799C141.969 37.6896 141.941 37.8268 141.886 38.0188Z" fill="url(#paint8_linear_936_9778)"/>
<path d="M176.202 142.527C172.718 141.348 171.401 135.643 170.798 132.57L166.958 133.997C166.958 133.997 168.411 139.592 167.945 143.158C167.479 146.724 168.521 146.395 168.521 146.395H180.645C180.673 146.395 179.685 143.707 176.202 142.527Z" fill="#FBBCBE"/>
<path d="M176.201 142.528C175.159 142.171 174.309 141.403 173.596 140.416C173.157 139.73 170.688 140.498 170.194 141.842C170.194 141.842 169.179 142.555 168.027 142.446C168 142.692 168 142.939 167.972 143.159C167.506 146.725 168.548 146.396 168.548 146.396H180.673C180.673 146.396 179.685 143.707 176.201 142.528Z" fill="#0C1540"/>
<path d="M125.565 142.801C131.929 142.801 132.779 139.153 132.203 135.23H136.455C136.4 136.959 136.428 139.702 136.894 142.115C137.607 145.736 135.797 146.367 135.797 146.367H120.299C120.353 146.395 122.575 142.801 125.565 142.801Z" fill="#FBBCBE"/>
<path d="M131.709 143.051C131.106 142.146 132.916 140.418 131.572 140.363C130.667 141.845 128.857 142.805 125.565 142.805C122.575 142.805 120.326 146.398 120.326 146.398H135.824C135.824 146.398 137.525 145.822 136.976 142.475C135.358 142.475 132.615 144.423 131.709 143.051Z" fill="#0C1540"/>
<path d="M132.587 96.1972C133.026 89.6688 141.173 98.7483 141.118 100.504C141.036 102.698 140.981 103.713 141.173 111.366C141.365 119.019 139.966 122.859 138.704 126.425C137.443 129.991 137.525 137.919 137.525 137.919C133.081 138.33 131.134 137.151 131.134 137.151C131.134 137.151 131.902 125.602 131.6 118.992C131.326 112.381 132.478 97.7333 132.587 96.1972Z" fill="#2647C8"/>
<path d="M136.098 137.975C136.126 135.424 136.318 129.938 137.278 127.085C138.54 123.3 138.073 115.702 137.881 107.527C137.689 99.3533 139.582 101.795 139.664 99.463C139.692 98.7224 138.403 96.7474 136.839 95.1016C139.006 96.7474 141.146 99.6001 141.118 100.505C141.036 102.7 140.981 103.715 141.173 111.368C141.365 119.021 139.966 122.861 138.704 126.427C137.442 129.993 137.525 137.92 137.525 137.92C137.031 137.948 136.537 137.975 136.098 137.975Z" fill="#0C1540"/>
<path d="M131.655 66.4052C132.834 61.0015 136.016 57.4081 137.113 56.4755C138.869 54.9668 143.806 55.1314 145.809 59.2185C147.811 63.333 148.552 65.8018 147.976 73.1805C147.427 80.5592 140.761 98.0598 140.734 103.601C140.734 109.142 131.901 109.498 132.505 101.571C133.136 93.6709 130.31 72.6593 131.655 66.4052Z" fill="#2647C8"/>
<path d="M137.854 107.527C138.265 106.595 143.834 83.3886 143.943 82.2639C144.218 79.6855 136.153 79.8501 131.38 75.9275C131.216 71.8678 131.216 68.3842 131.655 66.3818C132.834 60.978 136.016 57.3847 137.113 56.452C138.869 54.9434 143.806 55.1079 145.809 59.1951C147.811 63.3096 148.552 65.7783 147.976 73.1571C147.427 80.5358 140.734 98.0363 140.734 103.577C140.761 107.088 137.772 107.719 137.854 107.527Z" fill="#0C1540"/>
<path d="M164.708 102.807C164.187 101.326 163.913 100.229 163.529 98.6927C161.856 92.1643 155.272 98.775 155.684 100.503C156.177 102.698 156.973 103.712 158.262 111.365C159.551 119.019 161.664 122.859 163.611 126.425C165.559 129.991 166.985 136.766 166.985 136.766C170.716 136.985 172.224 135.148 172.224 135.148C172.224 135.148 170.222 125.629 169.262 119.019C168.274 112.38 165.915 106.263 164.708 102.807Z" fill="#2647C8"/>
<path d="M166.656 120.69C165.668 114.08 164.434 110.239 163.227 106.756C162.706 105.275 161.307 101.928 160.923 100.392C160.237 97.7312 158.728 97.2649 157.22 97.7586C159.167 95.8111 162.404 94.4122 163.529 98.6913C163.913 100.227 164.214 101.325 164.708 102.806C165.915 106.289 168.274 112.379 169.262 118.99C170.249 125.6 172.224 135.119 172.224 135.119C172.224 135.119 171.429 136.079 169.563 136.545C169.234 134.899 167.534 126.615 166.656 120.69Z" fill="#0C1540"/>
<path d="M159.112 66.4052C156.918 61.0015 153.023 57.4081 151.761 56.4755C149.704 54.9668 144.794 55.1314 143.587 59.2185C142.38 63.333 142.106 65.8018 144.081 73.1805C146.056 80.5592 155.519 98.0598 156.589 103.601C157.659 109.142 166.189 109.196 164.05 101.269C161.938 93.3418 161.663 72.6593 159.112 66.4052Z" fill="#2647C8"/>
<path d="M158.975 81.001C158.92 78.9163 157.384 77.2156 155.437 76.667C154.504 76.3927 150.499 77.1607 147.921 77.627C146.686 77.8465 145.452 77.1607 145.013 75.9538C144.602 74.8292 144.163 73.5948 144.081 73.2382C142.106 65.8595 142.352 63.3633 143.587 59.2762C144.794 55.1617 149.704 55.0245 151.761 56.5332C153.023 57.4384 156.918 61.0592 159.112 66.4629C161.663 72.717 161.938 93.3994 164.077 101.327C164.818 104.07 164.297 105.853 163.227 106.785C163.227 106.621 159.03 83.4148 158.975 81.001Z" fill="#0C1540"/>
<path d="M149.539 10.0664C147.372 10.0664 145.589 11.8219 145.589 14.0164C145.589 16.1834 147.345 17.9663 149.539 17.9663C151.706 17.9663 153.489 16.2108 153.489 14.0164C153.489 11.8219 151.734 10.0664 149.539 10.0664Z" fill="url(#paint9_linear_936_9778)"/>
<path d="M149.978 25.4001C150.774 21.6147 154.23 21.9987 152.145 17.2807C150.033 12.5901 147.866 13.4953 145.589 12.7547C139.829 10.9169 135.221 18.5974 137.36 23.7268C139.335 28.4997 149.128 29.4597 149.978 25.4001Z" fill="url(#paint10_linear_936_9778)"/>
<path d="M149.896 47.7291C150.088 46.0558 150.691 44.5197 152.2 38.7868C152.803 36.5375 153.709 35.2757 153.133 34.2608C152.419 32.999 149.978 32.3133 148.387 32.3133C145.507 32.3133 146.906 25.3734 146.906 25.3734C146.467 23.9196 141.667 24.1665 141.886 28.8022C142.106 33.4379 137.525 31.3532 136.455 32.2036C134.974 33.3831 135.083 35.9066 134.782 37.2782C134.48 38.6497 132.45 40.2681 132.724 42.7916C132.999 45.3152 135.385 45.2329 135.385 45.2329C136.235 46.2204 137.031 47.976 137.113 49.2378C137.305 52.1728 135.851 55.0804 135.851 55.0804C144.3 58.7835 151.487 55.5467 151.487 55.5467C151.487 55.5467 149.32 52.7488 149.896 47.7291Z" fill="#FBBCBE"/>
<path d="M148.414 32.3392C145.534 32.3392 146.933 25.3993 146.933 25.3993C146.686 24.6039 145.095 24.3296 143.779 25.0153C144.684 25.2347 146.796 29.1847 145.534 34.9176C145.178 36.5634 143.395 37.5235 141.776 37.8252C141.776 37.8252 152.008 39.6356 152.227 38.7853C152.803 36.5635 150.005 32.3392 148.414 32.3392Z" fill="#DA91A7"/>
<path d="M156.726 40.2413C157 37.9371 156.753 35.0295 153.818 33.7128C152.611 33.1917 149.951 32.3962 148.415 32.3413C145.946 35.4135 142.243 36.1816 142.243 36.1816C142.243 36.1816 139.417 33.3563 139.061 31.9573C138.375 31.9299 136.784 31.9299 136.482 32.1768C135.001 33.3563 134.837 35.7427 134.535 37.1142C134.233 38.4857 132.286 40.4058 132.587 42.9294C132.862 45.453 135.056 46.7148 135.056 46.7148C135.056 55.6296 130.585 65.8063 130.585 74.3919C132.862 75.3794 136.126 75.8183 139.692 75.9006L142.106 72.3072L145.013 75.8457C153.215 76.1749 161.389 73.9531 161.389 73.9531C159.963 64.325 154.669 57.056 156.726 40.2413Z" fill="url(#paint11_linear_936_9778)"/>
<path d="M136.208 48.9647C136.208 47.5657 137.799 47.4834 139.253 47.648C140.624 47.8126 144.3 47.9223 144.547 47.9498C145.233 48.0321 145.918 48.1143 146.604 48.1966C149.183 48.4709 151.404 47.4286 152.172 44.7678C152.803 42.5734 151.185 41.7231 149.429 40.6807C147.564 39.5835 156.314 42.4911 156.287 47.1817C156.205 59.251 160.21 65.7246 161.362 73.8988C161.362 73.8988 153.187 76.1207 144.986 75.7915L142.051 72.3078L139.637 75.9012C138.594 75.8738 137.58 75.8189 136.619 75.7366C137.031 74.8314 145.425 68.3305 145.918 67.9464C146.659 67.3704 153.681 72.2804 155.437 70.5249C157.22 68.7693 151.98 54.2862 150.828 52.7226C149.347 50.6105 136.208 49.0195 136.208 48.9647Z" fill="url(#paint12_linear_936_9778)"/>
<path d="M147.125 21.5313C147.125 21.5313 145.315 15.6064 143.395 15.3595C141.475 15.1126 139.911 15.1949 138.896 17.2796C138.896 17.2796 137.689 19.1175 138.019 21.3667C138.019 21.3667 135.358 23.5337 137.964 27.0174C140.57 30.4736 145.288 28.3889 146.933 25.3716C146.933 25.3716 149.484 26.3042 149.923 23.9178C150.362 21.5313 148.771 21.3393 147.125 21.5313Z" fill="#FBBCBE"/>
<path d="M147.125 21.533C147.125 21.533 145.315 15.6081 143.395 15.3612C141.859 15.1692 140.569 15.1966 139.555 16.2664C140.871 15.9921 145.205 21.3135 145.123 24.3857C145.013 27.5128 141.612 29.2958 139.006 27.8145C138.704 27.6499 138.402 27.4305 138.128 27.1836C140.761 30.3655 145.315 28.3083 146.933 25.3458C146.933 25.3458 149.484 26.2784 149.923 23.892C150.362 21.533 148.771 21.341 147.125 21.533Z" fill="#DA91A7"/>
<path d="M136.839 17.4727C136.839 17.4727 139.911 17.3081 141.694 15.964C143.45 14.6474 144.355 14.9491 144.355 14.9491C138.32 11.6026 136.839 17.4727 136.839 17.4727Z" fill="url(#paint13_linear_936_9778)"/>
<path d="M143.258 15.0319C142.408 15.6628 142.133 17.6927 144.136 20.1065C146.165 22.493 145.343 25.2634 147.098 23.8096C148.854 22.3558 148.881 22.109 149.155 20.0243C149.402 17.9396 145.151 13.633 143.258 15.0319Z" fill="url(#paint14_linear_936_9778)"/>
<path d="M142.682 38.1543C142.682 38.4834 142.407 38.7577 142.078 38.7577C141.749 38.7577 141.475 38.4834 141.475 38.1543C141.475 37.8251 141.749 37.5508 142.078 37.5508C142.407 37.5508 142.682 37.7977 142.682 38.1543Z" fill="#6F8FE4"/>
<path d="M140.515 42.2128C140.515 42.542 140.24 42.8163 139.911 42.8163C139.582 42.8163 139.308 42.542 139.308 42.2128C139.308 41.8837 139.582 41.6094 139.911 41.6094C140.24 41.6094 140.515 41.8837 140.515 42.2128Z" fill="#6F8FE4"/>
<path d="M141.338 47.0683C141.338 47.3975 141.063 47.6718 140.734 47.6718C140.405 47.6718 140.131 47.3975 140.131 47.0683C140.131 46.7391 140.405 46.4648 140.734 46.4648C141.091 46.4648 141.338 46.7391 141.338 47.0683Z" fill="#6F8FE4"/>
<path d="M141.585 52.9121C141.585 53.2412 141.31 53.5155 140.981 53.5155C140.652 53.5155 140.378 53.2412 140.378 52.9121C140.378 52.5829 140.652 52.3086 140.981 52.3086C141.31 52.3086 141.585 52.5829 141.585 52.9121Z" fill="#6F8FE4"/>
<path d="M141.941 58.8925C141.941 59.2217 141.667 59.496 141.338 59.496C141.008 59.496 140.734 59.2217 140.734 58.8925C140.734 58.5634 141.008 58.2891 141.338 58.2891C141.694 58.2891 141.941 58.5634 141.941 58.8925Z" fill="#6F8FE4"/>
<path d="M142.325 64.873C142.325 65.2022 142.051 65.4765 141.722 65.4765C141.392 65.4765 141.118 65.2022 141.118 64.873C141.118 64.5438 141.392 64.2695 141.722 64.2695C142.051 64.2695 142.325 64.5438 142.325 64.873Z" fill="#6F8FE4"/>
<path d="M82.7736 111.148H95.3092C96.5436 111.148 97.6957 112.191 97.8603 113.453L102.057 146.369H100.987L96.8179 113.59C96.7082 112.849 96.0224 112.218 95.2818 112.218H82.7462C82.033 112.218 81.3198 112.849 81.2101 113.59L77.0407 146.369H75.9709L80.1677 113.453C80.3872 112.191 81.5118 111.148 82.7736 111.148Z" fill="#2647C8"/>
<path d="M81.2647 111.148L92.9226 111.203C94.1569 111.203 96.9274 112.191 97.1194 113.453L101.042 146.396H99.5058L95.3364 113.617C95.2267 112.877 93.3889 112.246 92.6757 112.246H81.539C80.7984 112.246 80.771 112.986 80.6612 113.754L76.6564 146.396H74.5168L78.6863 113.453C78.8783 112.163 80.0303 111.148 81.2647 111.148Z" fill="#1D3599"/>
<path d="M56.578 111.066H70.8692C72.1036 111.066 73.7219 112.136 73.8865 113.453L77.8091 146.369H76.273L72.1036 113.617C71.9938 112.849 71.2806 112.191 70.5675 112.191H56.8798C56.1391 112.191 56.4957 112.685 56.386 113.453L50.3514 146.369H48.4038L53.9996 113.453C54.1916 112.136 55.3437 111.066 56.578 111.066Z" fill="#1D3599"/>
<path d="M58.0593 111.066H72.0487C73.2831 111.066 74.4352 112.136 74.6272 113.453L78.7966 146.369H77.7268L73.5574 113.617C73.4477 112.849 72.7619 112.191 72.0213 112.191H58.0319C57.2912 112.191 56.5506 112.849 56.4135 113.617L50.9274 146.369H49.8851L55.426 113.398C55.6454 112.109 56.8523 111.066 58.0593 111.066Z" fill="#2647C8"/>
<path d="M55.7553 109.936H54.3564C53.4786 107.906 51.9151 100.116 51.1744 94.1909C51.0922 93.4777 51.0099 92.9291 50.9824 92.6273L50.9001 92.0787L51.9425 91.8867C52.8751 98.086 55.5359 109.689 55.7553 109.936Z" fill="#1D3599"/>
<path d="M56.5233 109.935H55.4261C54.4935 108.015 52.8751 100.142 52.1071 93.9976C52.0248 93.3119 51.9425 92.7633 51.915 92.4615L52.9574 92.2695C53.5883 100.471 56.2765 109.605 56.5233 109.935Z" fill="#2647C8"/>
<path d="M74.3253 93.8343C74.5447 95.5624 76.0534 103.682 76.5471 106.178C76.9586 108.208 77.3152 109.305 77.5621 109.936H76.4923C75.6145 107.769 74.051 99.9238 73.2555 93.9988C73.1732 93.3679 72.9812 92.0787 72.9812 92.0787L74.0235 91.8867C74.051 91.8867 74.243 93.2034 74.3253 93.8343Z" fill="#1D3599"/>
<path d="M78.5767 109.935H77.5069C76.6017 107.932 75.0107 100.115 74.2701 94.0251C74.1878 93.3119 74.1056 92.7633 74.0781 92.4615L75.1205 92.2695C76.1903 104.037 78.3024 109.496 78.5767 109.935Z" fill="#2647C8"/>
<path d="M46.9225 70.3867H67.8792C69.8542 70.3867 71.7195 71.8954 72.0212 73.7606L74.7642 92.8247C74.7642 92.8247 67.9889 94.1139 59.4581 94.1139C50.9273 94.1139 47.718 92.8247 47.718 92.8247L43.8503 73.7606C43.5486 71.9228 44.9475 70.3867 46.9225 70.3867Z" fill="#1D3599"/>
<path d="M48.7055 70.3867H69.6622C71.6372 70.3867 73.5024 71.8954 73.8042 73.7606L77.6718 92.8247C77.6718 92.8247 69.7719 94.1139 61.2411 94.1139C52.7103 94.1139 49.5009 92.8247 49.5009 92.8247L45.6333 73.7606C45.3315 71.9228 46.7305 70.3867 48.7055 70.3867Z" fill="#2647C8"/>
<path d="M78.4126 109.613C78.4126 109.668 78.4126 109.723 78.4126 109.778C78.4126 111.122 77.6446 112.219 76.7119 112.219H54.7952C53.8625 112.219 53.0945 111.122 53.0945 109.778C53.0945 109.723 53.0945 109.668 53.0945 109.613H78.4126Z" fill="#1D3599"/>
<path d="M99.8631 109.613C99.8631 109.668 99.8631 109.723 99.8631 109.778C99.8631 111.122 98.9853 112.219 97.9155 112.219H72.1585C71.0887 112.219 70.2109 111.122 70.2109 109.778C70.2109 109.723 70.2109 109.668 70.2109 109.613H99.8631Z" fill="#1D3599"/>
<path d="M74.4352 68.5768C76.1084 72.3347 87.7663 85.4738 90.5916 87.0099C93.8833 88.7929 96.7634 87.2842 95.968 83.444C95.1451 79.3294 83.2129 65.1205 81.4025 63.6942C78.1383 61.1157 72.3505 63.8588 74.4352 68.5768Z" fill="#FBBCBE"/>
<path d="M90.0155 82.1858C93.8284 78.6747 107.159 72.9143 108.641 70.1165C110.122 67.2911 110.259 63.9446 112.728 64.2189C115.251 64.5207 116.486 66.2488 117.556 68.3061C118.269 69.6776 115.91 71.0491 112.728 72.64C109.546 74.231 100.11 83.8864 95.8308 86.8215C91.6065 89.7565 87.4371 84.5722 90.0155 82.1858Z" fill="#FBBCBE"/>
<path d="M83.8437 82.5155C80.2229 78.6204 75.2855 70.5011 74.4351 68.581C72.3504 63.8629 78.1931 60.5987 81.4847 63.1772C82.4996 63.9727 88.1228 70.1719 91.9905 75.7403C91.9905 77.7701 87.8211 82.5155 83.8437 82.5155Z" fill="url(#paint15_linear_936_9778)"/>
<path d="M67.3856 53.7129C67.3856 53.7129 68.4005 60.2688 65.4929 60.2688C62.5853 60.2688 57.1815 60.8996 55.2614 63.4232C53.3413 65.9468 49.309 83.173 51.3389 99.6861C51.3389 99.6861 72.4327 100.893 82.2528 91.2101C82.2528 91.2101 85.6816 69.2385 82.8562 64.7399C80.4972 60.9819 74.5997 61.1465 74.5997 61.1465C74.5997 61.1465 72.9813 59.7201 73.6122 56.5931C75.2032 48.9675 67.3856 53.7129 67.3856 53.7129Z" fill="url(#paint16_linear_936_9778)"/>
<path d="M67.4952 54.5869C67.4404 54.0383 67.3855 53.6817 67.3855 53.6817C67.3855 53.6817 73.667 49.8689 73.8316 54.5869H67.4952Z" fill="url(#paint17_linear_936_9778)"/>
<path d="M55.2614 63.4221C55.6454 62.9009 56.194 62.4621 56.8249 62.1055L61.7624 84.5709L82.2528 91.209C72.4327 100.892 51.3389 99.6849 51.3389 99.6849C49.309 83.1719 53.3413 65.9457 55.2614 63.4221Z" fill="#0C1540"/>
<path d="M63.1614 60.375C65.3558 64.517 69.3332 66.8486 72.8991 65.7788C74.9564 65.1753 76.4925 63.5569 77.3703 61.4174C75.8067 61.0882 74.5724 61.1431 74.5724 61.1431C74.5724 61.1431 72.954 59.7167 73.5849 56.5896C75.1484 48.9915 67.3582 53.7095 67.3582 53.7095C67.3582 53.7095 68.3731 60.2653 65.4655 60.2653C64.8346 60.2653 64.0391 60.2927 63.1614 60.375Z" fill="#FBBCBE"/>
<path d="M63.1614 60.375C65.3558 64.517 69.3332 66.8486 72.8991 65.7788C74.9564 65.1753 76.4925 63.5569 77.3703 61.4174C75.8067 61.0882 74.5724 61.1431 74.5724 61.1431C74.5724 61.1431 72.954 59.7167 73.5849 56.5896C75.1484 48.9915 67.3582 53.7095 67.3582 53.7095C67.3582 53.7095 68.3731 60.2653 65.4655 60.2653C64.8346 60.2653 64.0391 60.2927 63.1614 60.375Z" fill="#FBBCBE"/>
<path d="M65.4929 60.2684C68.4005 60.2684 67.3855 53.7126 67.3855 53.7126C67.3855 53.7126 67.797 53.4657 68.4005 53.1914V56.2362C68.4005 60.4056 71.7744 63.8069 75.9712 63.8069C75.1483 64.767 74.1334 65.4527 72.9265 65.8093C69.3605 66.8791 65.3831 64.5201 63.1887 60.4056C64.0391 60.2958 64.8345 60.2684 65.4929 60.2684Z" fill="#DA91A7"/>
<path d="M78.9885 48.5547H76.6021V48.8016H78.9885V48.5547Z" fill="url(#paint18_linear_936_9778)"/>
<path d="M77.6446 44.0273V53.1616C77.6446 55.8498 75.3405 58.0442 72.5152 58.0442C69.6899 58.0442 67.3857 55.8498 67.3857 53.1616V52.9422C67.3857 52.9422 64.4507 52.7227 64.4507 49.7603C64.4507 46.7704 66.3982 48.0047 66.3982 48.0047V44.0548H77.6446V44.0273Z" fill="#FBBCBE"/>
<path d="M66.3706 47.9773V44.0273H70.3754C70.3754 44.0548 70.3754 44.0822 70.3754 44.1096V54.4508C70.3754 56.2612 72.0761 57.715 73.8316 57.6602C74.3802 57.6328 74.874 57.4956 75.3129 57.2487C74.5174 57.7425 73.5573 58.0442 72.515 58.0442C69.6897 58.0442 67.3855 55.8498 67.3855 53.1616V52.9422C67.3855 52.9422 64.4505 52.7227 64.4505 49.7603C64.4231 46.7429 66.3706 47.9773 66.3706 47.9773Z" fill="#DA91A7"/>
<path d="M66.4529 48.0609C66.7547 48.2804 67.221 51.7366 67.797 48.4998C68.3731 45.2631 69.4428 44.3853 73.0911 44.6322C76.7119 44.879 81.8413 43.5075 79.8663 39.0364C77.9462 34.6475 71.3904 38.3506 71.3904 38.3506C71.3904 38.3506 65.7123 37.0614 64.3957 41.4503C63.1613 45.6197 65.4655 47.3478 66.4529 48.0609Z" fill="url(#paint19_linear_936_9778)"/>
<path d="M55.6181 63.4744C52.3539 65.998 43.7956 79.8228 42.1224 82.4562C40.0925 85.6106 42.1224 89.2863 45.3317 88.0519C48.0747 86.9821 61.5704 71.1274 62.5305 69.0427C64.2586 65.2574 59.7052 60.3199 55.6181 63.4744Z" fill="#FBBCBE"/>
<path d="M47.7181 72.8861C50.7354 68.2778 54.4659 63.8341 56.194 62.5175C60.2811 59.363 65.4655 65.0685 63.7648 68.8539C63.3259 69.8139 60.3086 74.6417 56.7975 78.7836C52.4909 78.0156 48.1021 73.6267 47.7181 72.8861Z" fill="url(#paint20_linear_936_9778)"/>
<path d="M51.6404 99.7389C51.6404 107.502 59.7323 112.604 69.1135 109.998C78.4946 107.392 79.9759 100.178 94.4042 96.3375C94.4042 96.3375 102.606 86.3255 96.2969 85.5849C77.562 83.4179 51.6404 99.7389 51.6404 99.7389Z" fill="white"/>
<path d="M69.1138 109.998C69.1138 109.998 89.1379 109.476 95.4743 108.16C98.519 107.529 108.12 103.058 104.17 97.0505C100.22 91.0433 82.4997 98.4769 69.1138 109.998Z" fill="#D3DDF8"/>
<path d="M88.9733 100.593C88.9733 100.593 95.8583 100.675 97.559 100.346C99.0402 100.071 100.521 99.7422 102.003 99.3856C103.045 99.1387 104.005 98.8644 104.883 98.5078C106.556 103.747 98.2722 107.56 95.4743 108.163C89.1379 109.48 69.1138 110.001 69.1138 110.001C72.6797 106.929 76.5748 104.131 80.415 101.827C84.4473 101.772 88.9733 100.593 88.9733 100.593Z" fill="#BDC6ED"/>
<path d="M71.2259 51.4358C69.6349 51.4358 68.8943 49.7626 68.8943 48.6379C68.8943 47.5956 69.7172 47.0195 71.2259 47.0195C72.7345 47.0195 73.5574 47.5956 73.5574 48.6379C73.5574 49.7626 72.8168 51.4358 71.2259 51.4358ZM71.2259 47.2664C70.2658 47.2664 69.1412 47.5133 69.1412 48.6379C69.1412 49.6803 69.7995 51.1889 71.2259 51.1889C72.6522 51.1889 73.3106 49.6803 73.3106 48.6379C73.3106 47.5133 72.1585 47.2664 71.2259 47.2664Z" fill="url(#paint21_linear_936_9778)"/>
<path d="M76.794 51.4358C75.203 51.4358 74.4624 49.7626 74.4624 48.6379C74.4624 47.5956 75.2853 47.0195 76.794 47.0195C78.3026 47.0195 79.1255 47.5956 79.1255 48.6379C79.1255 49.7626 78.3849 51.4358 76.794 51.4358ZM76.794 47.2664C75.8339 47.2664 74.7093 47.5133 74.7093 48.6379C74.7093 49.6803 75.3676 51.1889 76.794 51.1889C78.2203 51.1889 78.8787 49.6803 78.8787 48.6379C78.8787 47.5133 77.754 47.2664 76.794 47.2664Z" fill="url(#paint22_linear_936_9778)"/>
<path d="M74.5997 48.2812H73.4202V48.5281H74.5997V48.2812Z" fill="url(#paint23_linear_936_9778)"/>
<path d="M69.0861 48.5547H66.6997V48.8016H69.0861V48.5547Z" fill="url(#paint24_linear_936_9778)"/>
<path d="M64.5054 86.5469V89.5368L72.0213 89.7014V86.9309L64.5054 86.5469Z" fill="#FFCF00"/>
<path d="M122.877 107.477L124.139 103.801C128.089 105.749 131.792 106.27 131.353 100.071C131.161 97.2179 134.535 96.2578 134.535 96.2578L135.55 111.098C135.55 111.098 135.056 112.606 131.435 110.714C127.513 108.656 122.877 107.477 122.877 107.477Z" fill="#FBBCBE"/>
<path d="M131.984 106.05C131.051 105.173 129.488 106.325 129.323 105.008C130.722 104.624 131.545 103.225 131.326 100.071C131.134 97.2179 134.507 96.2578 134.507 96.2578L135.522 111.098C135.522 111.098 135.056 112.524 131.737 110.878C131.655 109.342 133.383 107.367 131.984 106.05Z" fill="#0C1540"/>
<path d="M97.3943 86.0234C97.3943 86.0234 122.246 102.344 127.101 104.127C127.101 104.127 126.608 107.693 124.221 111.671C124.221 111.671 97.4766 102.454 94.377 100.397C87.9583 96.1452 97.3943 86.0234 97.3943 86.0234Z" fill="white"/>
<path d="M120.216 142.694C116.787 141.57 115.142 136.083 114.346 133.148L109.875 134.849C109.875 134.849 112.536 139.869 112.344 143.298C112.152 146.726 113.112 146.397 113.112 146.397H124.77C124.77 146.397 123.645 143.819 120.216 142.694Z" fill="#FBBCBE"/>
<path d="M120.216 142.693C119.174 142.363 118.324 141.623 117.583 140.663C117.117 140.004 114.785 140.745 114.401 142.034C114.401 142.034 113.468 142.72 112.344 142.61C112.344 142.857 112.344 143.077 112.344 143.296C112.152 146.725 113.112 146.396 113.112 146.396H124.77C124.77 146.396 123.645 143.817 120.216 142.693Z" fill="#0C1540"/>
<path d="M97.3669 96.2578C102.579 98.0682 108.915 120.369 116.678 135.319C116.678 135.319 112.399 138.062 109.162 137.87C109.162 137.87 90.2899 113.374 89.0555 106.654C87.4371 97.6293 91.7711 94.3377 97.3669 96.2578Z" fill="#D3DDF8"/>
<path d="M110.506 137.813C110.067 137.868 109.601 137.895 109.189 137.868C109.189 137.868 90.3172 113.372 89.0829 106.652C88.644 104.211 88.644 102.208 88.9732 100.59C89.028 100.754 105.239 133.232 110.506 137.813Z" fill="#BDC6ED"/>
<path d="M44.3167 81.4142C49.501 81.3867 64.2859 86.2419 67.3033 85.1447C70.2932 84.0475 72.6796 81.6611 74.298 83.5537C75.9438 85.4739 75.6969 87.586 75.0935 89.8353C74.7095 91.3165 72.0213 90.7679 68.6199 89.7804C65.1911 88.7929 49.9125 89.5884 44.7556 88.8752C39.6261 88.1895 40.8056 81.4416 44.3167 81.4142Z" fill="#FBBCBE"/>
<path d="M47.1967 91.0391H45.5508V146.393H47.1967V91.0391Z" fill="#02126A"/>
<path d="M142.242 146.393H140.569V118.25V91.0391H142.242V146.393Z" fill="#02126A"/>
<path d="M100.576 98.0352H76.2452V118.937H100.576V98.0352Z" fill="#6F8FE4"/>
<path d="M64.0662 87.2812H36.3616V89.6951H64.0662V87.2812Z" fill="#02126A"/>
<path d="M70.1285 89.6953H42.4239V91.0394H70.1285V89.6953Z" fill="#151618"/>
<path d="M190.794 87.2812H57.2909V89.6951H190.794V87.2812Z" fill="#1D3599"/>
<path d="M184.732 89.6953H70.1282V91.0394H184.732V89.6953Z" fill="#151618"/>
<path d="M100.466 99.8991C101.152 99.8991 102.085 99.2682 102.085 98.0339V91.0117H100.466V99.8991Z" fill="#02126A"/>
<path d="M47.1417 118.937H75.4223V98.0352H47.1417V118.937Z" fill="#1D3599"/>
<path d="M180.261 146.393H178.615V118.25V91.0391H180.261V146.393Z" fill="#1D3599"/>
<path d="M76.2452 91.0391H74.5994V146.393H76.2452V91.0391Z" fill="#1D3599"/>
<path d="M92.9228 102.504H83.8983V103.903H92.9228V102.504Z" fill="#E2E9FB"/>
<path d="M92.9228 107.801H83.8983V109.2H92.9228V107.801Z" fill="#E2E9FB"/>
<path d="M92.9228 113.094H83.8983V114.493H92.9228V113.094Z" fill="#E2E9FB"/>
<path d="M290.064 19.4453H289.214V36.5344H290.064V19.4453Z" fill="#D3DDF8"/>
<path d="M282.027 16.9805H280.683V146.424H282.027V16.9805Z" fill="#D3DDF8"/>
<path d="M274.978 0L264.115 20.4904H298.623L287.76 0H274.978Z" fill="#D3DDF8"/>
<path d="M289.625 35C288.775 35 288.089 35.6858 288.089 36.5361C288.089 37.3864 288.775 38.0722 289.625 38.0722C290.476 38.0722 291.162 37.3864 291.162 36.5361C291.162 35.6858 290.476 35 289.625 35Z" fill="#D3DDF8"/>
<path d="M101.152 87.2569C101.152 87.3391 101.07 87.4214 100.987 87.4214H73.6668C73.5022 87.4214 73.3376 87.2843 73.3376 87.0923V86.3242H101.125V87.2569H101.152Z" fill="#0C1540"/>
<path d="M76.9311 85.9925V86.3217H75.9436V85.8828H76.8214C76.8762 85.8828 76.9311 85.9377 76.9311 85.9925Z" fill="#0C1540"/>
<path d="M78.0556 85.9925V86.3217H77.0681V85.8828H77.9459C78.0008 85.8828 78.0556 85.9377 78.0556 85.9925Z" fill="#0C1540"/>
<path d="M79.1803 85.9925V86.3217H78.1928V85.8828H79.0706C79.1255 85.8828 79.1803 85.9377 79.1803 85.9925Z" fill="#0C1540"/>
<path d="M83.8983 85.9925V86.3217H82.9108V85.8828H83.7886C83.8434 85.8828 83.8983 85.9377 83.8983 85.9925Z" fill="#0C1540"/>
<path d="M85.023 85.9925V86.3217H84.0355V85.8828H84.9133C84.9956 85.8828 85.023 85.9377 85.023 85.9925Z" fill="#0C1540"/>
<path d="M98.2993 85.9925V86.3217H97.3392V85.8828H98.217C98.2718 85.8828 98.2993 85.9377 98.2993 85.9925Z" fill="#0C1540"/>
<path d="M99.4512 85.9925V86.3217H98.4637V85.8828H99.3415C99.3964 85.8828 99.4512 85.9377 99.4512 85.9925Z" fill="#0C1540"/>
<path d="M82.7462 85.9925V86.3217H79.3997V85.8828H82.6365C82.6914 85.8828 82.7462 85.9377 82.7462 85.9925Z" fill="#0C1540"/>
<path d="M103.127 85.9925V86.3217H99.7803V85.8828H103.017C103.072 85.8828 103.127 85.9377 103.127 85.9925Z" fill="#0C1540"/>
<path d="M97.0649 85.9925V86.3217H85.4344V85.8828H96.9826C97.0374 85.8828 97.0649 85.9377 97.0649 85.9925Z" fill="#0C1540"/>
<path d="M102.853 85.8828H105.212C105.349 85.8828 105.459 85.9925 105.459 86.1297V86.3217H102.743V85.9925C102.743 85.9377 102.798 85.8828 102.853 85.8828Z" fill="url(#paint25_linear_936_9778)"/>
<path d="M106.117 85.8828H108.476C108.613 85.8828 108.723 85.9925 108.723 86.1297V86.3217H106.007V85.9925C106.007 85.9377 106.062 85.8828 106.117 85.8828Z" fill="url(#paint26_linear_936_9778)"/>
<path d="M109.381 85.8828H111.74C111.877 85.8828 111.987 85.9925 111.987 86.1297V86.3217H109.271V85.9925C109.271 85.9377 109.326 85.8828 109.381 85.8828Z" fill="url(#paint27_linear_936_9778)"/>
<path d="M112.646 85.8828H115.005C115.142 85.8828 115.251 85.9925 115.251 86.1297V86.3217H112.536V85.9925C112.536 85.9377 112.591 85.8828 112.646 85.8828Z" fill="url(#paint28_linear_936_9778)"/>
<path d="M116.486 85.8828H117.72C117.857 85.8828 117.967 85.9925 117.967 86.1297V86.3217H116.376V85.9925C116.376 85.9377 116.431 85.8828 116.486 85.8828Z" fill="url(#paint29_linear_936_9778)"/>
<path d="M118.406 85.8828H119.64C119.777 85.8828 119.887 85.9925 119.887 86.1297V86.3217H118.296V85.9925C118.296 85.9377 118.351 85.8828 118.406 85.8828Z" fill="url(#paint30_linear_936_9778)"/>
<path d="M120.216 85.8828H121.45C121.588 85.8828 121.697 85.9925 121.697 86.1297V86.3217H120.106V85.9925C120.106 85.9377 120.161 85.8828 120.216 85.8828Z" fill="url(#paint31_linear_936_9778)"/>
<path d="M99.0122 65.7778C99.2591 64.9 99.89 64.4062 100.905 64.4062L94.7057 87.2831C94.7057 87.2831 93.4988 86.9265 93.8005 85.7744C94.0199 84.7869 97.723 70.4409 99.0122 65.7778Z" fill="#0C1540"/>
<path d="M101.015 64.4062H130.118C130.53 64.4062 130.832 64.7903 130.722 65.1743L125.373 86.323H94.7607L100.137 65.0646C100.247 64.6806 100.603 64.4062 101.015 64.4062Z" fill="#02126A"/>
<path d="M103.456 85.3657H96.2695L97.7233 79.6328L103.456 85.3657Z" fill="#1D3599"/>
<path d="M99.9448 70.7718L101.371 65.0938H103.428C110.204 71.869 116.952 78.6169 123.727 85.3922H114.565L99.9448 70.7718Z" fill="#1D3599"/>
<path d="M125.236 87.2569C125.236 87.3391 125.153 87.4214 125.071 87.4214H95.0623C94.8977 87.4214 94.7332 87.2843 94.7332 87.0923V86.3242H125.236V87.2569Z" fill="#1D3599"/>
<path d="M74.1608 84.8984C71.5274 84.8984 70.4028 87.3123 68.2358 86.3522C66.0414 85.3922 65.0265 85.447 65.1362 83.6092C65.2459 81.7988 66.6997 81.936 69.6896 81.936C72.5972 81.9634 78.0559 84.8984 74.1608 84.8984Z" fill="#FBBCBE"/>
<path d="M47.7722 142.42C42.3959 142.42 45.1664 137.016 50.2135 113.947L43.4382 113.398C37.7327 123.685 41.8199 138.141 39.0768 142.667C37.1293 145.876 39.406 146.397 39.406 146.397H52.2708C52.2708 146.397 52.2708 142.42 47.7722 142.42Z" fill="#FBBCBE"/>
<path d="M47.7725 142.416C44.618 142.416 44.2888 140.551 45.5506 134.407C44.8374 135.01 40.9149 134.983 40.1743 134.324C40.1743 138 40.092 141.017 39.0771 142.663C37.1295 145.872 39.4062 146.394 39.4062 146.394H52.271C52.271 146.394 52.271 142.416 47.7725 142.416Z" fill="white"/>
<path d="M47.7723 142.417C46.2362 142.417 45.4407 141.896 45.1116 141.073C44.1241 140.881 44.1515 141.457 43.4658 141.978C41.4359 143.459 39.3512 142.17 39.0495 142.664C37.1019 145.873 39.3787 146.394 39.3787 146.394H52.2435C52.2709 146.394 52.2709 142.417 47.7723 142.417Z" fill="#0C1540"/>
<path d="M71.2801 141.949C69.9635 141.538 68.784 140.66 67.7416 139.508C65.3003 136.875 58.5799 114.629 57.5101 112.16L48.6501 115.04C48.6501 120.142 61.8441 135.229 61.8441 141.867C61.8441 142.114 61.899 142.388 61.9264 142.663C62.3379 146.777 63.4351 146.393 63.4351 146.393H77.3971C77.4245 146.393 75.6141 143.294 71.2801 141.949Z" fill="#FBBCBE"/>
<path d="M71.2801 141.948C69.9634 141.537 68.7839 140.659 67.7416 139.507C66.9735 138.684 65.7666 135.913 64.4774 132.43C63.819 133.938 59.7319 134.898 59.4028 134.816C60.8566 137.559 61.8715 140.055 61.8715 141.893C61.8715 142.14 61.9264 142.414 61.9538 142.689C62.3652 146.803 63.4624 146.419 63.4624 146.419H77.4245C77.4245 146.392 75.6141 143.292 71.2801 141.948Z" fill="white"/>
<path d="M71.28 141.952C69.9634 141.541 68.7839 140.663 67.7415 139.511C67.4123 139.154 67.0832 140.663 66.6991 141.157C65.9585 142.144 62.8041 142.556 61.844 141.87C61.8989 142.144 61.8989 142.391 61.9263 142.665C62.3377 146.78 63.4349 146.396 63.4349 146.396H77.397C77.4244 146.396 75.614 143.296 71.28 141.952Z" fill="#0C1540"/>
<path d="M28.1326 106.867H26.3496L32.3843 146.394H34.1672L28.1326 106.867Z" fill="#B3C0EC"/>
<path d="M33.7283 54.7267C33.7283 54.7267 31.9179 54.9461 31.6984 56.2628C31.4516 57.5794 32.247 58.8412 32.247 58.8412C32.247 58.8412 28.4068 59.8561 24.978 58.5395C24.978 58.5395 26.7061 55.1107 26.7336 51.4625C26.7884 47.8417 33.7283 54.7267 33.7283 54.7267Z" fill="#FBBCBE"/>
<path d="M29.888 57.1377C29.9155 55.4096 31.287 54.1478 32.8779 53.9283C31.0127 52.2277 26.761 48.6343 26.7336 51.487C26.7061 55.1353 24.978 58.5641 24.978 58.5641C26.6513 59.2224 28.4617 59.3047 29.8332 59.2224C29.8332 58.5092 29.888 57.8234 29.888 57.1377Z" fill="#DA91A7"/>
<path d="M38.0072 43.8594C38.0072 43.8594 38.3912 46.2732 38.1992 48.2482C38.0072 50.2232 38.7478 52.8565 36.8552 55.1058C34.935 57.3551 30.5736 54.8589 29.5861 52.1433C28.5712 49.4277 29.4764 47.3156 30.8754 46.0538C32.2469 44.8194 38.0072 43.8594 38.0072 43.8594Z" fill="#FBBCBE"/>
<path d="M34.8804 52.393C34.9078 51.4055 36.0599 44.2188 36.0599 44.2188C34.2495 44.6028 31.7259 45.2611 30.8481 46.0291C29.4492 47.2635 28.5714 49.4031 29.5589 52.1187C30.519 54.6971 34.4689 57.0561 36.4988 55.4103C35.5113 54.7794 34.8255 53.5999 34.8804 52.393Z" fill="#DA91A7"/>
<path d="M11.0984 89.5586C11.0984 94.1669 7.25813 107.717 16.749 106.181C21.0007 105.496 31.2596 108.979 31.2596 119.348C52.6004 119.348 53.4507 116.248 59.7871 116.248L57.483 105.249C57.483 105.249 56.9344 101.299 54.1913 98.8026C51.4483 96.3339 34.9078 92.6856 32.878 90.1621C30.903 87.6385 11.0984 89.5586 11.0984 89.5586Z" fill="url(#paint32_linear_936_9778)"/>
<path d="M27.8856 103.33C10.6594 103.33 15.542 89.8339 15.3774 89.2305C12.8538 89.3951 11.0983 89.5871 11.0983 89.5871C11.0983 94.1954 6.18828 105.359 15.8163 105.277C22.7013 105.195 39.7904 105.222 48.9521 105.25C47.9097 104.975 30.2172 103.33 27.8856 103.33Z" fill="url(#paint33_linear_936_9778)"/>
<path d="M49.1987 106.867H47.4158L53.4504 146.394H55.2334L49.1987 106.867Z" fill="#B3C0EC"/>
<path d="M33.1521 58.6209C35.0723 58.7032 38.2267 61.2817 38.2267 65.1768C38.2267 70.3337 39.1045 74.5305 34.3865 78.6999C31.1497 81.5526 36.4986 89.5623 33.1521 90.7418C29.2022 92.1407 11.2079 92.5247 10.5222 89.8914C9.83641 87.2581 13.6218 69.3187 14.6916 65.7528C15.7613 62.2417 17.6815 59.6633 19.1353 59.0324C20.5891 58.4289 29.6685 58.4563 33.1521 58.6209Z" fill="url(#paint34_linear_936_9778)"/>
<path d="M13.1279 85.3367C13.0182 83.1149 12.8262 80.7284 13.32 78.534C16.7487 63.4474 20.5615 61.8564 22.0702 60.5398C23.8806 59.0037 26.0476 60.0186 28.434 59.9363C31.6708 59.8266 32.8777 58.6196 32.9052 58.6196C29.2295 58.4551 20.5341 58.4276 19.1352 59.0585C17.6814 59.6894 15.7613 62.2679 14.6915 65.7789C13.6217 69.3175 9.80888 87.2843 10.5221 89.9176C10.8238 91.0697 14.472 91.6731 18.7786 91.8651C15.7338 91.1245 13.2925 89.0124 13.1279 85.3367Z" fill="url(#paint35_linear_936_9778)"/>
<path d="M33.1523 58.6209C32.0002 58.0174 30.9579 58.4563 29.8881 57.414C27.968 55.5487 25.2249 55.6858 25.2249 55.6858L22.2625 58.6209C22.2625 58.6483 29.12 61.3913 33.1523 58.6209Z" fill="white"/>
<path d="M32.6309 59.2222C34.1945 57.8233 38.117 59.7434 40.8326 63.1996C43.5482 66.6558 49.1714 79.7401 50.5978 82.7026C51.9144 85.473 47.8822 90.3007 43.4933 85.857C39.1045 81.3859 35.758 74.5009 34.1944 69.6183C32.6035 64.7083 30.9303 60.7309 32.6309 59.2222Z" fill="url(#paint36_linear_936_9778)"/>
<path d="M30.2995 87.0916H3.28064C2.64974 87.0916 2.10114 86.6528 1.96399 86.0219L0.0438673 78.3688C-0.175575 77.4636 0.455321 76.6133 1.33309 76.6133H28.3519C28.9828 76.6133 29.5314 77.0522 29.6686 77.6831L31.5887 85.3361C31.8081 86.2139 31.1772 87.0916 30.2995 87.0916Z" fill="#6F8FE4"/>
<path d="M29.5313 87.093H3.25311C2.64964 87.093 2.12846 86.6815 1.99131 86.1055L0.263208 79.0559C0.0711962 78.233 0.67466 77.4375 1.525 77.4375H27.8032C28.4067 77.4375 28.9278 77.849 29.065 78.425L30.7931 85.4746C31.0125 86.2975 30.3816 87.093 29.5313 87.093Z" fill="#D3DDF8"/>
<path d="M55.2061 107.362H33.9751C33.399 107.362 32.9053 106.896 32.9053 106.292C32.9053 105.716 33.3716 105.223 33.9751 105.223H55.2061C55.7821 105.223 56.2759 105.689 56.2759 106.292C56.2759 106.896 55.8095 107.362 55.2061 107.362Z" fill="#2647C8"/>
<path d="M31.4516 106.867H33.262L27.2273 146.394H25.4443L31.4516 106.867Z" fill="white"/>
<path d="M10.385 106.867H12.1954L6.16074 146.394H4.35034L10.385 106.867Z" fill="white"/>
<path d="M34.606 107.362H9.34273C8.76669 107.362 8.27295 106.896 8.27295 106.292C8.27295 105.716 8.73926 105.223 9.34273 105.223H34.606C35.182 105.223 35.6758 105.689 35.6758 106.292C35.6484 106.896 35.182 107.362 34.606 107.362Z" fill="#6F8FE4"/>
<path d="M32.7679 106.676C32.4388 106.676 32.137 106.457 32.0548 106.127L25.6361 81.1111C25.5264 80.727 25.7732 80.3156 26.1572 80.2059C26.5413 80.0961 26.9527 80.343 27.0624 80.727L33.4811 105.743C33.5909 106.127 33.344 106.539 32.96 106.649C32.8777 106.676 32.8228 106.676 32.7679 106.676Z" fill="#B3C0EC"/>
<path d="M32.0274 106.676C31.6983 106.676 31.3965 106.457 31.3142 106.127L24.8956 81.1111C24.7858 80.727 25.0327 80.3156 25.4167 80.2059C25.8008 80.0961 26.2122 80.343 26.3219 80.727L32.7406 105.743C32.8503 106.127 32.6035 106.539 32.2195 106.649C32.1372 106.676 32.0823 106.676 32.0274 106.676Z" fill="white"/>
<path d="M11.839 106.676C11.5098 106.676 11.2081 106.457 11.1258 106.127L4.70712 81.1111C4.5974 80.727 4.84427 80.3156 5.22829 80.2059C5.61232 80.0961 6.02377 80.343 6.13349 80.727L12.5522 105.743C12.6619 106.127 12.415 106.539 12.031 106.649C11.9761 106.676 11.9213 106.676 11.839 106.676Z" fill="#B3C0EC"/>
<path d="M11.0985 106.676C10.7693 106.676 10.4676 106.457 10.3853 106.127L3.96661 81.1111C3.85689 80.727 4.10376 80.3156 4.48779 80.2059C4.87181 80.0961 5.28326 80.343 5.39299 80.727L11.8117 105.743C11.9214 106.127 11.6745 106.539 11.2905 106.649C11.2356 106.676 11.1808 106.676 11.0985 106.676Z" fill="white"/>
<path d="M46.8399 87.665C51.311 88.2136 58.5252 87.665 67.5772 87.3907C67.5772 87.3907 68.6469 83.9071 67.248 81.5481C67.248 81.5481 49.9944 80.588 48.1565 80.6429C46.3187 80.6978 42.1767 87.0616 46.8399 87.665Z" fill="url(#paint37_linear_936_9778)"/>
<path d="M38.4189 54.2013H35.5936C34.6884 54.2013 33.8381 53.7076 33.3992 52.8847L32.5763 51.3211C32.494 51.184 32.5488 51.0194 32.686 50.9371C32.8231 50.8548 32.9877 50.9097 33.07 51.0468L33.8929 52.6103C34.2221 53.2412 34.8804 53.6253 35.5936 53.6253H38.4189C38.5835 53.6253 38.6932 53.735 38.6932 53.8996C38.6932 54.0642 38.5561 54.2013 38.4189 54.2013Z" fill="#02126A"/>
<path d="M36.4986 39.9922C42.3686 44.0793 37.5135 49.6751 37.5135 49.6751C37.5135 49.6751 38.6655 45.7526 36.4986 45.7526C35.8128 45.7526 34.1395 48.2762 34.1395 51.4306C34.1395 55.2983 33.7281 59.0014 31.2594 59.0014C26.5688 59.0014 22.948 74.4172 16.9133 74.4172C20.397 65.9961 18.3123 59.358 18.3123 58.5076C18.3123 46.9595 22.564 42.4061 24.923 40.4311C27.3643 38.4835 32.8229 37.4138 36.4986 39.9922Z" fill="#151618"/>
<path d="M32.7407 45.0391C31.3418 45.0391 30.1897 46.5203 30.1897 48.3307C30.1897 50.1411 31.3418 51.6223 32.7407 51.6223C34.1397 51.6223 35.2917 50.1411 35.2917 48.3307C35.2643 46.4929 34.1397 45.0391 32.7407 45.0391Z" fill="#02126A"/>
<path d="M33.3167 45.6992C32.1921 45.6992 31.2869 46.8787 31.2869 48.3325C31.2869 49.7863 32.1921 50.9658 33.3167 50.9658C34.4413 50.9658 35.3465 49.7863 35.3465 48.3325C35.3465 46.8787 34.4413 45.6992 33.3167 45.6992Z" fill="#1D3597"/>
<path d="M33.9475 47.5078C33.5909 47.5078 33.3167 47.8644 33.3167 48.3307C33.3167 48.797 33.5909 49.1536 33.9475 49.1536C34.3041 49.1536 34.5784 48.797 34.5784 48.3307C34.5784 47.8644 34.3041 47.5078 33.9475 47.5078Z" fill="#2647C8"/>
<path d="M34.1396 47.7539C33.8927 47.7539 33.7007 48.0008 33.7007 48.3299C33.7007 48.6317 33.8927 48.906 34.1396 48.906C34.3864 48.906 34.5785 48.6591 34.5785 48.3299C34.5785 48.0008 34.3864 47.7539 34.1396 47.7539Z" fill="#6F8FE4"/>
<path d="M33.7282 48.195C33.783 47.2624 33.7007 46.2475 33.5087 45.2874C33.3441 44.3274 33.0424 43.3947 32.6309 42.517C32.1921 41.6392 31.6435 40.8437 30.9028 40.2128C30.1897 39.5545 29.3119 39.1156 28.3793 38.8139L28.5164 38.375C29.5039 38.6493 30.464 39.1156 31.2869 39.8014C32.1098 40.4597 32.7407 41.31 33.2344 42.2427C33.7007 43.1753 34.0573 44.1628 34.2768 45.1777C34.4962 46.1926 34.6059 47.2075 34.5785 48.2773L33.7282 48.195Z" fill="#6F8FE4"/>
<path d="M206.923 102.013C209.419 100.752 211.641 102.507 213.232 100.532C214.85 98.5847 215.838 98.1184 214.85 96.4452C213.863 94.7719 212.546 95.6222 209.721 97.0486C206.978 98.4476 203.22 103.879 206.923 102.013Z" fill="#FBBCBE"/>
<path d="M219.788 142.17C225.494 142.17 221.626 135.285 220.364 131.691L225.795 130.43C227.249 134.05 226.097 137.671 229.032 142.444C231.117 145.846 228.676 146.394 228.676 146.394H215.015C215.015 146.394 215.015 142.17 219.788 142.17Z" fill="#FBBCBE"/>
<path d="M219.788 142.17C221.407 142.17 222.257 141.622 222.614 140.744C223.656 140.525 223.628 141.155 224.342 141.704C226.481 143.295 228.703 141.923 229.005 142.445C231.09 145.846 228.648 146.395 228.648 146.395H215.015C215.015 146.395 215.015 142.17 219.788 142.17Z" fill="#0C1540"/>
<path d="M196.527 141.675C201.108 140.249 204.29 133.254 205.908 129.496L211.257 131.663C210.05 133.446 207.033 136.299 206.43 142.416C206.018 146.777 204.839 146.366 204.839 146.366H190.026C190.026 146.393 191.946 143.101 196.527 141.675Z" fill="#FBBCBE"/>
<path d="M196.527 141.676C197.899 141.237 199.161 140.304 200.285 139.097C200.614 138.713 200.998 140.332 201.382 140.853C202.178 141.895 205.524 142.334 206.539 141.621C206.485 141.923 206.457 142.17 206.43 142.444C206.018 146.805 204.839 146.394 204.839 146.394H190.026C190.026 146.394 191.946 143.102 196.527 141.676Z" fill="#0C1540"/>
<path d="M240.004 108.27H241.897L235.506 146.398H233.613L240.004 108.27Z" fill="#B3C0EC"/>
<path d="M217.649 108.27H219.541L213.15 146.398H211.257L217.649 108.27Z" fill="#B3C0EC"/>
<path d="M215.92 101.246C215.92 101.246 203.796 132.489 202.123 135.891C202.123 135.891 204.482 138.551 207.691 138.661C207.691 138.661 225.494 110.133 227.167 106.952C228.813 103.715 215.92 101.246 215.92 101.246Z" fill="url(#paint38_linear_936_9778)"/>
<path d="M211.257 105.798C211.257 105.798 221.297 135.011 222.421 138.632C222.421 138.632 225.96 138.934 228.346 136.822C228.346 136.822 224.698 111.147 223.711 107.691C222.696 104.18 211.257 105.798 211.257 105.798Z" fill="url(#paint39_linear_936_9778)"/>
<path d="M234.052 52.9383C234.052 52.9383 235.972 53.1851 236.219 54.5841C236.466 55.983 235.643 57.3271 235.643 57.3271C235.643 57.3271 239.702 58.3969 243.351 56.998C243.351 56.998 241.513 53.3772 241.485 49.5095C241.458 45.6418 234.052 52.9383 234.052 52.9383Z" fill="#FBBCBE"/>
<path d="M238.139 55.5192C238.112 53.7088 236.658 52.3648 234.957 52.0905C236.932 50.2801 241.458 46.4673 241.485 49.512C241.513 53.3797 243.351 57.0005 243.351 57.0005C241.568 57.6862 239.675 57.7685 238.194 57.6862C238.194 56.973 238.139 56.2324 238.139 55.5192Z" fill="#DA91A7"/>
<path d="M229.553 41.4219C229.553 41.4219 229.169 43.9729 229.361 46.085C229.553 48.1972 228.785 50.9676 230.788 53.354C232.818 55.7405 237.426 53.0797 238.496 50.1996C239.565 47.3194 238.633 45.0701 237.124 43.7534C235.643 42.4368 229.553 41.4219 229.553 41.4219Z" fill="#FBBCBE"/>
<path d="M232.845 50.5C232.818 49.4576 231.611 41.832 231.611 41.832C233.531 42.2435 236.219 42.9567 237.124 43.7522C238.605 45.0688 239.538 47.3181 238.496 50.1983C237.481 52.9139 233.284 55.4374 231.117 53.6819C232.187 53.0236 232.9 51.7618 232.845 50.5Z" fill="#DA91A7"/>
<path d="M231.803 43.1488C231.803 43.1488 232.626 43.9443 232.982 45.7547C233.339 47.5925 233.668 48.58 234.299 47.3731C234.93 46.1661 235.094 44.2186 236.658 45.3981C237.7 46.1661 237.673 47.6748 237.371 48.5251C237.042 49.3481 238.112 51.1859 240.279 50.5001C242.446 49.8144 243.872 43.9443 243.872 43.9443C243.872 43.9443 233.942 40.8447 231.803 43.1488Z" fill="#02126A"/>
<path d="M230.815 35.7968C230.815 35.7968 227.907 36.51 227.633 39.0062C227.386 41.2006 228.566 43.3402 232.461 43.1756C236.356 43.011 236.603 45.4249 238.66 46.0832C240.717 46.7415 242.775 46.1381 243.79 44.1082C244.804 41.9961 244.503 39.4451 241.979 37.3604C239.456 35.2482 231.089 32.2583 230.815 35.7968Z" fill="#151618"/>
<path d="M258.081 89.8892C258.081 94.7717 263.293 106.622 253.061 106.512C242.857 106.402 211.559 106.512 211.559 106.512C211.559 106.512 209.42 102.315 212.327 99.6818C215.235 97.0485 232.79 93.2082 234.93 90.5201C237.069 87.8593 258.081 89.8892 258.081 89.8892Z" fill="url(#paint40_linear_936_9778)"/>
<path d="M240.279 104.512C258.547 104.512 253.363 90.1934 253.555 89.5625C256.216 89.7545 258.081 89.9191 258.081 89.9191C258.081 94.8017 263.293 106.652 253.061 106.542C245.765 106.46 227.633 106.487 217.923 106.514C219.02 106.268 237.782 104.512 240.279 104.512Z" fill="url(#paint41_linear_936_9778)"/>
<path d="M234.655 57.0836C232.626 57.1933 229.279 59.9089 229.279 64.0235C229.279 69.4821 230.294 77.1351 232.735 80.9754C235.204 84.8431 230.513 89.4788 234.655 91.152C238.797 92.8253 257.944 93.0447 258.684 90.2468C259.425 87.4489 255.393 68.4123 254.241 64.6544C253.116 60.9239 251.086 58.1808 249.55 57.5225C248.014 56.8642 238.386 56.919 234.655 57.0836Z" fill="url(#paint42_linear_936_9778)"/>
<path d="M255.914 85.4188C256.023 83.0598 256.243 80.5088 255.722 78.2047C252.101 62.1854 248.041 60.5121 246.45 59.1132C244.53 57.4674 242.253 58.5646 239.702 58.4549C236.274 58.3451 234.984 57.0559 234.957 57.0559C238.852 56.8913 248.069 56.8639 249.577 57.5222C251.113 58.1806 253.143 60.9236 254.268 64.6541C255.42 68.4121 259.425 87.4487 258.712 90.2466C258.383 91.4809 254.515 92.1118 249.934 92.3038C253.171 91.5632 255.749 89.3139 255.914 85.4188Z" fill="#1D3599"/>
<path d="M234.655 57.0855C235.89 56.4546 236.959 56.921 238.111 55.8237C240.141 53.8488 243.351 54.2876 243.351 54.2876L244.942 56.9758C244.942 56.9758 238.962 60.0206 234.655 57.0855Z" fill="white"/>
<path d="M234.079 57.7983C231.94 57.2222 228.868 60.8705 227.99 65.4513C227.085 70.0322 228.045 85.0914 228.154 88.5751C228.237 91.8393 234.354 94.4726 236.383 88.1362C238.386 81.7998 238.249 73.7078 237.371 68.3041C236.493 62.9277 236.411 58.4292 234.079 57.7983Z" fill="url(#paint43_linear_936_9778)"/>
<path d="M237.7 87.2538H266.365C267.023 87.2538 267.599 86.7875 267.764 86.1017L269.794 78.0098C270.041 77.0772 269.355 76.1445 268.45 76.1445H239.785C239.127 76.1445 238.551 76.6108 238.386 77.2966L236.356 85.3885C236.109 86.3486 236.768 87.2538 237.7 87.2538Z" fill="#6F8FE4"/>
<path d="M238.523 87.2551H266.42C267.05 87.2551 267.627 86.8162 267.764 86.1853L269.601 78.6969C269.821 77.8191 269.163 76.9688 268.257 76.9688H240.361C239.73 76.9688 239.154 77.4076 239.017 78.0385L237.179 85.527C236.959 86.4322 237.618 87.2551 238.523 87.2551Z" fill="#D3DDF8"/>
<path d="M210.154 108.777H232.016V106.528H210.154V108.777Z" fill="url(#paint44_linear_936_9778)"/>
<path d="M236.466 108.27H234.573L240.964 146.398H242.857L236.466 108.27Z" fill="white"/>
<path d="M258.821 108.27H256.929L263.32 146.398H265.213L258.821 108.27Z" fill="white"/>
<path d="M232.02 108.777H261.069V106.528H232.02V108.777Z" fill="#6F8FE4"/>
<path d="M235.094 108.044C235.451 108.044 235.752 107.797 235.862 107.468L242.665 80.943C242.775 80.5316 242.528 80.0927 242.089 79.983C241.677 79.8733 241.238 80.1201 241.129 80.559L234.326 107.084C234.216 107.496 234.463 107.934 234.902 108.044C234.957 108.044 235.039 108.044 235.094 108.044Z" fill="#B3C0EC"/>
<path d="M235.89 108.044C236.246 108.044 236.548 107.797 236.658 107.468L243.46 80.943C243.57 80.5316 243.323 80.0927 242.884 79.983C242.473 79.8733 242.034 80.1201 241.924 80.559L235.122 107.084C235.012 107.496 235.259 107.934 235.698 108.044C235.753 108.044 235.807 108.044 235.89 108.044Z" fill="white"/>
<path d="M257.285 108.044C257.642 108.044 257.944 107.797 258.053 107.468L264.856 80.943C264.966 80.5316 264.719 80.0927 264.28 79.983C263.868 79.8733 263.43 80.1201 263.32 80.559L256.517 107.084C256.407 107.496 256.654 107.934 257.093 108.044C257.148 108.044 257.203 108.044 257.285 108.044Z" fill="#B3C0EC"/>
<path d="M258.053 108.044C258.41 108.044 258.712 107.797 258.821 107.468L265.624 80.943C265.734 80.5316 265.487 80.0927 265.048 79.983C264.637 79.8733 264.198 80.1201 264.088 80.559L257.285 107.084C257.176 107.496 257.422 107.934 257.861 108.044C257.944 108.044 257.999 108.044 258.053 108.044Z" fill="white"/>
<path d="M234.052 91.482C230.075 94.1702 222.998 97.1052 214.302 101.192C214.302 101.192 211.614 98.4219 211.806 95.5142C211.806 95.5142 227.661 86.3251 229.416 85.5022C231.199 84.6519 238.194 88.6841 234.052 91.482Z" fill="url(#paint45_linear_936_9778)"/>
<defs>
<linearGradient id="paint0_linear_936_9778" x1="213.172" y1="40.9851" x2="225.37" y2="40.5594" gradientUnits="userSpaceOnUse">
<stop offset="1.09e-06" stop-color="#FFD000"/>
<stop offset="1" stop-color="#FF7300"/>
</linearGradient>
<linearGradient id="paint1_linear_936_9778" x1="185.339" y1="75.2338" x2="191.899" y2="75.0048" gradientUnits="userSpaceOnUse">
<stop offset="1.09e-06" stop-color="#FFD000"/>
<stop offset="1" stop-color="#FF7300"/>
</linearGradient>
<linearGradient id="paint2_linear_936_9778" x1="221.004" y1="72.9229" x2="239.875" y2="72.2643" gradientUnits="userSpaceOnUse">
<stop offset="1.09e-06" stop-color="#FFD000"/>
<stop offset="1" stop-color="#FF7300"/>
</linearGradient>
<linearGradient id="paint3_linear_936_9778" x1="151.095" y1="34.3359" x2="176.152" y2="48.2262" gradientUnits="userSpaceOnUse">
<stop stop-color="#1100FF"/>
<stop offset="1" stop-color="#0086FF"/>
</linearGradient>
<linearGradient id="paint4_linear_936_9778" x1="151.09" y1="39.4687" x2="172.546" y2="53.4172" gradientUnits="userSpaceOnUse">
<stop stop-color="#1100FF"/>
<stop offset="1" stop-color="#0086FF"/>
</linearGradient>
<linearGradient id="paint5_linear_936_9778" x1="164.746" y1="52.3359" x2="170.952" y2="67.0817" gradientUnits="userSpaceOnUse">
<stop stop-color="#1100FF"/>
<stop offset="1" stop-color="#0086FF"/>
</linearGradient>
<linearGradient id="paint6_linear_936_9778" x1="125.977" y1="32.0742" x2="148.982" y2="42.999" gradientUnits="userSpaceOnUse">
<stop stop-color="#1100FF"/>
<stop offset="1" stop-color="#0086FF"/>
</linearGradient>
<linearGradient id="paint7_linear_936_9778" x1="124.824" y1="50.8516" x2="138.198" y2="54.8175" gradientUnits="userSpaceOnUse">
<stop stop-color="#1100FF"/>
<stop offset="1" stop-color="#0086FF"/>
</linearGradient>
<linearGradient id="paint8_linear_936_9778" x1="131.024" y1="32.0742" x2="139.927" y2="41.7015" gradientUnits="userSpaceOnUse">
<stop stop-color="#1100FF"/>
<stop offset="1" stop-color="#0086FF"/>
</linearGradient>
<linearGradient id="paint9_linear_936_9778" x1="153.496" y1="13.9994" x2="145.603" y2="13.9994" gradientUnits="userSpaceOnUse">
<stop offset="1.09e-06" stop-color="#FFD000"/>
<stop offset="1" stop-color="#FF7300"/>
</linearGradient>
<linearGradient id="paint10_linear_936_9778" x1="146.313" y1="13.9293" x2="144.187" y2="22.6228" gradientUnits="userSpaceOnUse">
<stop offset="1.09e-06" stop-color="#FFD000"/>
<stop offset="1" stop-color="#FF7300"/>
</linearGradient>
<linearGradient id="paint11_linear_936_9778" x1="130.585" y1="31.9453" x2="173.107" y2="54.2272" gradientUnits="userSpaceOnUse">
<stop stop-color="#1100FF"/>
<stop offset="1" stop-color="#0086FF"/>
</linearGradient>
<linearGradient id="paint12_linear_936_9778" x1="136.208" y1="40.4492" x2="170.744" y2="58.7711" gradientUnits="userSpaceOnUse">
<stop stop-color="#1100FF"/>
<stop offset="1" stop-color="#0086FF"/>
</linearGradient>
<linearGradient id="paint13_linear_936_9778" x1="141.439" y1="12.7372" x2="139.313" y2="21.4304" gradientUnits="userSpaceOnUse">
<stop offset="1.09e-06" stop-color="#FFD000"/>
<stop offset="1" stop-color="#FF7300"/>
</linearGradient>
<linearGradient id="paint14_linear_936_9778" x1="146.946" y1="14.0844" x2="144.82" y2="22.778" gradientUnits="userSpaceOnUse">
<stop offset="1.09e-06" stop-color="#FFD000"/>
<stop offset="1" stop-color="#FF7300"/>
</linearGradient>
<linearGradient id="paint15_linear_936_9778" x1="73.9963" y1="62.2695" x2="95.9573" y2="76.8637" gradientUnits="userSpaceOnUse">
<stop stop-color="#0E0FB5"/>
<stop offset="1" stop-color="#4B00E1"/>
</linearGradient>
<linearGradient id="paint16_linear_936_9778" x1="50.7822" y1="52.2539" x2="96.6481" y2="76.2271" gradientUnits="userSpaceOnUse">
<stop stop-color="#0E0FB5"/>
<stop offset="1" stop-color="#4B00E1"/>
</linearGradient>
<linearGradient id="paint17_linear_936_9778" x1="86.3411" y1="53.4246" x2="50.7159" y2="53.4246" gradientUnits="userSpaceOnUse">
<stop offset="1.09e-06" stop-color="#FFD000"/>
<stop offset="1" stop-color="#FF7300"/>
</linearGradient>
<linearGradient id="paint18_linear_936_9778" x1="76.6021" y1="48.5547" x2="76.6809" y2="49.1247" gradientUnits="userSpaceOnUse">
<stop stop-color="#0E0FB5"/>
<stop offset="1" stop-color="#4B00E1"/>
</linearGradient>
<linearGradient id="paint19_linear_936_9778" x1="75.9667" y1="37.7742" x2="66.1536" y2="47.5874" gradientUnits="userSpaceOnUse">
<stop offset="1.09e-06" stop-color="#FFD000"/>
<stop offset="1" stop-color="#FF7300"/>
</linearGradient>
<linearGradient id="paint20_linear_936_9778" x1="47.7181" y1="61.6016" x2="66.8274" y2="75.2218" gradientUnits="userSpaceOnUse">
<stop stop-color="#0E0FB5"/>
<stop offset="1" stop-color="#4B00E1"/>
</linearGradient>
<linearGradient id="paint21_linear_936_9778" x1="68.8943" y1="47.0195" x2="73.9484" y2="51.0098" gradientUnits="userSpaceOnUse">
<stop stop-color="#0E0FB5"/>
<stop offset="1" stop-color="#4B00E1"/>
</linearGradient>
<linearGradient id="paint22_linear_936_9778" x1="74.4624" y1="47.0195" x2="79.5165" y2="51.0098" gradientUnits="userSpaceOnUse">
<stop stop-color="#0E0FB5"/>
<stop offset="1" stop-color="#4B00E1"/>
</linearGradient>
<linearGradient id="paint23_linear_936_9778" x1="73.4202" y1="48.2812" x2="73.571" y2="48.8199" gradientUnits="userSpaceOnUse">
<stop stop-color="#0E0FB5"/>
<stop offset="1" stop-color="#4B00E1"/>
</linearGradient>
<linearGradient id="paint24_linear_936_9778" x1="66.6997" y1="48.5547" x2="66.7786" y2="49.1247" gradientUnits="userSpaceOnUse">
<stop stop-color="#0E0FB5"/>
<stop offset="1" stop-color="#4B00E1"/>
</linearGradient>
<linearGradient id="paint25_linear_936_9778" x1="105.452" y1="86.1087" x2="102.742" y2="86.1087" gradientUnits="userSpaceOnUse">
<stop stop-color="#AACEFF"/>
<stop offset="1" stop-color="#DBE9FF"/>
</linearGradient>
<linearGradient id="paint26_linear_936_9778" x1="108.717" y1="86.1087" x2="106.007" y2="86.1087" gradientUnits="userSpaceOnUse">
<stop stop-color="#AACEFF"/>
<stop offset="1" stop-color="#DBE9FF"/>
</linearGradient>
<linearGradient id="paint27_linear_936_9778" x1="111.983" y1="86.1087" x2="109.272" y2="86.1087" gradientUnits="userSpaceOnUse">
<stop stop-color="#AACEFF"/>
<stop offset="1" stop-color="#DBE9FF"/>
</linearGradient>
<linearGradient id="paint28_linear_936_9778" x1="115.248" y1="86.1087" x2="112.537" y2="86.1087" gradientUnits="userSpaceOnUse">
<stop stop-color="#AACEFF"/>
<stop offset="1" stop-color="#DBE9FF"/>
</linearGradient>
<linearGradient id="paint29_linear_936_9778" x1="117.966" y1="86.1087" x2="116.382" y2="86.1087" gradientUnits="userSpaceOnUse">
<stop stop-color="#AACEFF"/>
<stop offset="1" stop-color="#DBE9FF"/>
</linearGradient>
<linearGradient id="paint30_linear_936_9778" x1="119.891" y1="86.1087" x2="118.307" y2="86.1087" gradientUnits="userSpaceOnUse">
<stop stop-color="#AACEFF"/>
<stop offset="1" stop-color="#DBE9FF"/>
</linearGradient>
<linearGradient id="paint31_linear_936_9778" x1="121.703" y1="86.1087" x2="120.119" y2="86.1087" gradientUnits="userSpaceOnUse">
<stop stop-color="#AACEFF"/>
<stop offset="1" stop-color="#DBE9FF"/>
</linearGradient>
<linearGradient id="paint32_linear_936_9778" x1="8.73196" y1="59.2038" x2="40.1654" y2="113.871" gradientUnits="userSpaceOnUse">
<stop offset="1.09e-06" stop-color="#FFD000"/>
<stop offset="1" stop-color="#FF7300"/>
</linearGradient>
<linearGradient id="paint33_linear_936_9778" x1="13.4886" y1="96.8266" x2="33.0583" y2="102.635" gradientUnits="userSpaceOnUse">
<stop offset="1.09e-06" stop-color="white"/>
<stop offset="1" stop-color="#FF7300"/>
</linearGradient>
<linearGradient id="paint34_linear_936_9778" x1="16.4166" y1="62.7878" x2="39.9161" y2="103.656" gradientUnits="userSpaceOnUse">
<stop offset="1.09e-06" stop-color="#FFD000"/>
<stop offset="1" stop-color="#FF7300"/>
</linearGradient>
<linearGradient id="paint35_linear_936_9778" x1="21.6734" y1="63.502" x2="21.6734" y2="87.3146" gradientUnits="userSpaceOnUse">
<stop offset="1.09e-06" stop-color="white"/>
<stop offset="1" stop-color="#FF7300"/>
</linearGradient>
<linearGradient id="paint36_linear_936_9778" x1="30.3083" y1="54.7984" x2="53.8142" y2="95.6783" gradientUnits="userSpaceOnUse">
<stop offset="1.09e-06" stop-color="#FFD000"/>
<stop offset="1" stop-color="#FF7300"/>
</linearGradient>
<linearGradient id="paint37_linear_936_9778" x1="37.0389" y1="50.9258" x2="60.545" y2="91.806" gradientUnits="userSpaceOnUse">
<stop offset="1.09e-06" stop-color="#FFD000"/>
<stop offset="1" stop-color="#FF7300"/>
</linearGradient>
<linearGradient id="paint38_linear_936_9778" x1="204.862" y1="136.324" x2="215.229" y2="116.275" gradientUnits="userSpaceOnUse">
<stop offset="1.09e-06" stop-color="#FFD000"/>
<stop offset="1" stop-color="#FF7300"/>
</linearGradient>
<linearGradient id="paint39_linear_936_9778" x1="228.354" y1="122.029" x2="211.251" y2="122.029" gradientUnits="userSpaceOnUse">
<stop offset="1.09e-06" stop-color="#FFD000"/>
<stop offset="1" stop-color="#FF7300"/>
</linearGradient>
<linearGradient id="paint40_linear_936_9778" x1="259.398" y1="97.8447" x2="210.799" y2="97.8447" gradientUnits="userSpaceOnUse">
<stop offset="1.09e-06" stop-color="#FFD000"/>
<stop offset="1" stop-color="#FF7300"/>
</linearGradient>
<linearGradient id="paint41_linear_936_9778" x1="255.538" y1="97.6108" x2="234.78" y2="103.772" gradientUnits="userSpaceOnUse">
<stop offset="1.09e-06" stop-color="white"/>
<stop offset="1" stop-color="#FF7300"/>
</linearGradient>
<linearGradient id="paint42_linear_936_9778" x1="229.279" y1="56.9766" x2="266.67" y2="80.2647" gradientUnits="userSpaceOnUse">
<stop stop-color="#0E0FB5"/>
<stop offset="1" stop-color="#4B00E1"/>
</linearGradient>
<linearGradient id="paint43_linear_936_9778" x1="227.605" y1="57.7383" x2="244.971" y2="61.6709" gradientUnits="userSpaceOnUse">
<stop stop-color="#0E0FB5"/>
<stop offset="1" stop-color="#4B00E1"/>
</linearGradient>
<linearGradient id="paint44_linear_936_9778" x1="232.016" y1="108.777" x2="231.301" y2="103.583" gradientUnits="userSpaceOnUse">
<stop stop-color="#0E0FB5"/>
<stop offset="1" stop-color="#4B00E1"/>
</linearGradient>
<linearGradient id="paint45_linear_936_9778" x1="211.796" y1="85.3867" x2="230.284" y2="105.981" gradientUnits="userSpaceOnUse">
<stop stop-color="#0E0FB5"/>
<stop offset="1" stop-color="#4B00E1"/>
</linearGradient>
</defs>
</svg>
