<svg width="112" height="35" viewBox="0 0 112 35" fill="none" xmlns="http://www.w3.org/2000/svg">
<path d="M22.6239 16.759C22.4222 16.759 22.2205 16.759 22.0188 16.759C22.1197 17.0107 22.2709 17.2624 22.3718 17.5141C23.582 20.333 24.1871 23.3029 24.1871 26.4238C24.1871 27.9842 24.0358 29.5447 23.7333 31.0548L29.6836 27.6319C30.6921 27.0278 31.5493 25.5681 31.5493 24.4103V20.8867C29.3306 18.3698 26.1537 16.759 22.6239 16.759Z" fill="white"/>
<path d="M7.53341 24.1168C7.53341 22.2993 8.99964 20.8352 10.8198 20.8352C11.022 20.8352 11.2243 20.8352 11.4265 20.8857C11.9321 20.1789 12.4377 19.5226 13.095 18.8663C14.6118 17.3517 16.4319 16.241 18.4038 15.5847C15.2185 10.5361 9.85916 7.00216 3.69086 6.24487L1.97183 7.25458C0.859516 7.86041 0 9.32449 0 10.5361V24.3692C0 25.5808 0.859516 27.0449 1.87071 27.6003L9.60636 32.043C9.25244 30.8818 9.10076 29.6197 9.10076 28.408C9.10076 27.9032 9.15132 27.3983 9.20188 26.944C8.19068 26.3381 7.53341 25.3284 7.53341 24.1168Z" fill="white"/>
<path d="M29.623 7.33597L17.6093 0.452218C16.5955 -0.150739 14.872 -0.150739 13.8582 0.452218L7.06567 4.32119C8.07949 4.57242 9.0933 4.92415 10.0564 5.32612C12.7937 6.48178 15.2776 8.13991 17.3559 10.2C18.8259 11.6572 20.0425 13.265 21.0563 14.9734C21.5632 14.9232 22.0701 14.8729 22.577 14.8729C25.9226 14.8729 29.0147 16.0788 31.5492 18.2394V10.5517C31.4986 9.34583 30.6368 7.88868 29.623 7.33597Z" fill="white"/>
<path d="M12.9913 21.6895C13.6557 22.2945 14.0645 23.1516 14.0645 24.1095C14.0645 25.8741 12.6336 27.2857 10.8961 27.3866C10.845 27.7395 10.845 28.0924 10.845 28.4453C10.845 30.2603 11.2538 31.9744 12.0204 33.4869L13.9112 34.5457C14.9333 35.1507 16.6708 35.1507 17.6929 34.5457L20.4525 32.9828C21.168 30.9157 21.5257 28.7478 21.5257 26.4791C21.5257 23.1516 20.7081 20.0258 19.2771 17.2529C16.7219 17.9588 14.5245 19.5721 12.9913 21.6895Z" fill="white"/>
<path d="M40.6941 16.6417C40.5977 16.6417 40.5173 16.6095 40.4531 16.5453C40.3888 16.4703 40.3567 16.39 40.3567 16.3043C40.3567 16.2507 40.362 16.2025 40.3728 16.1597L44.1964 5.82953C44.2285 5.71172 44.2928 5.60997 44.3891 5.52429C44.4855 5.4386 44.6194 5.39576 44.7908 5.39576H46.8472C47.0185 5.39576 47.1524 5.4386 47.2488 5.52429C47.3452 5.60997 47.4095 5.71172 47.4416 5.82953L51.2652 16.1597C51.2759 16.2025 51.2813 16.2507 51.2813 16.3043C51.2813 16.39 51.2492 16.4703 51.1849 16.5453C51.1206 16.6095 51.0403 16.6417 50.9439 16.6417H49.2731C49.1124 16.6417 48.9946 16.6042 48.9196 16.5292C48.8447 16.4542 48.7965 16.3846 48.7751 16.3204L48.0842 14.521H43.5537L42.8629 16.3204C42.8415 16.3846 42.7933 16.4542 42.7183 16.5292C42.6434 16.6042 42.5255 16.6417 42.3649 16.6417H40.6941ZM44.1482 12.4486H47.4737L45.819 7.82167L44.1482 12.4486Z" fill="white"/>
<path d="M52.8895 16.6417C52.7717 16.6417 52.6753 16.6042 52.6003 16.5292C52.5253 16.4542 52.4878 16.3578 52.4878 16.24V5.63675C52.4878 5.51893 52.5253 5.42254 52.6003 5.34757C52.6753 5.27259 52.7717 5.23511 52.8895 5.23511H54.496C54.6031 5.23511 54.6942 5.27259 54.7691 5.34757C54.8441 5.42254 54.8816 5.51893 54.8816 5.63675V16.24C54.8816 16.3578 54.8441 16.4542 54.7691 16.5292C54.6942 16.6042 54.6031 16.6417 54.496 16.6417H52.8895Z" fill="white"/>
<path d="M59.3702 16.8023C58.8025 16.8023 58.2938 16.6952 57.8439 16.481C57.3941 16.2561 57.0353 15.9562 56.7675 15.5813C56.4998 15.2065 56.3659 14.7888 56.3659 14.3282C56.3659 13.5678 56.6712 12.968 57.2816 12.5289C57.9028 12.0898 58.7168 11.7899 59.7236 11.6292L61.8282 11.324V11.0348C61.8282 10.6171 61.7318 10.2958 61.539 10.0708C61.3462 9.84593 61.0089 9.73347 60.5269 9.73347C60.1735 9.73347 59.8896 9.80309 59.6754 9.94232C59.4612 10.0816 59.2952 10.2636 59.1774 10.4886C59.0917 10.6278 58.9685 10.6974 58.8079 10.6974H57.2816C57.1638 10.6974 57.0728 10.6653 57.0085 10.601C56.9443 10.526 56.9175 10.4404 56.9282 10.344C56.9282 10.1619 56.9978 9.94768 57.1371 9.70134C57.2763 9.455 57.4905 9.21402 57.7797 8.97839C58.0689 8.73205 58.4384 8.52855 58.8882 8.36789C59.338 8.20724 59.8896 8.12691 60.543 8.12691C61.2177 8.12691 61.7961 8.20724 62.278 8.36789C62.76 8.52855 63.1456 8.75347 63.4348 9.04265C63.7239 9.33183 63.9382 9.66921 64.0774 10.0548C64.2166 10.4296 64.2862 10.8366 64.2862 11.2758V16.24C64.2862 16.3578 64.2488 16.4542 64.1738 16.5292C64.0988 16.6042 64.0024 16.6417 63.8846 16.6417H62.3102C62.2031 16.6417 62.112 16.6042 62.0371 16.5292C61.9621 16.4542 61.9246 16.3578 61.9246 16.24V15.6456C61.7854 15.8491 61.5979 16.0419 61.3623 16.224C61.1267 16.3953 60.8428 16.5346 60.5108 16.6417C60.1895 16.7488 59.8093 16.8023 59.3702 16.8023ZM60.0128 15.1315C60.3662 15.1315 60.6822 15.0565 60.9607 14.9066C61.2391 14.7566 61.4587 14.5264 61.6194 14.2158C61.78 13.9052 61.8603 13.5142 61.8603 13.043V12.7699L60.3662 13.0108C59.7879 13.1072 59.3648 13.2518 59.0971 13.4446C58.8293 13.6374 58.6954 13.873 58.6954 14.1515C58.6954 14.355 58.7543 14.5317 58.8721 14.6817C59.0007 14.8316 59.1667 14.9441 59.3702 15.019C59.5737 15.094 59.7879 15.1315 60.0128 15.1315Z" fill="white"/>
<path d="M69.5249 16.8023C68.8608 16.8023 68.2878 16.7273 67.8059 16.5774C67.3346 16.4167 66.949 16.224 66.6491 15.999C66.36 15.7741 66.1404 15.5492 65.9904 15.3243C65.8512 15.0887 65.7762 14.8905 65.7655 14.7299C65.7548 14.612 65.7923 14.5157 65.878 14.4407C65.9637 14.3657 66.0494 14.3282 66.135 14.3282H67.6934C67.7255 14.3282 67.7577 14.3336 67.7898 14.3443C67.8219 14.355 67.854 14.3818 67.8862 14.4246C68.0254 14.521 68.17 14.6335 68.32 14.762C68.4699 14.8798 68.6413 14.9816 68.8341 15.0672C69.0375 15.1529 69.2892 15.1958 69.5891 15.1958C69.9426 15.1958 70.2425 15.1261 70.4888 14.9869C70.7351 14.837 70.8583 14.6281 70.8583 14.3604C70.8583 14.1676 70.7994 14.0069 70.6816 13.8784C70.5745 13.7499 70.3656 13.632 70.055 13.5249C69.7444 13.4178 69.2839 13.3 68.6734 13.1715C68.095 13.043 67.6024 12.8716 67.1954 12.6574C66.7884 12.4432 66.4831 12.1754 66.2796 11.8541C66.0761 11.5221 65.9744 11.1258 65.9744 10.6653C65.9744 10.2476 66.1029 9.84593 66.36 9.46035C66.6277 9.07478 67.0186 8.75882 67.5327 8.51248C68.0468 8.25544 68.6895 8.12691 69.4606 8.12691C70.0497 8.12691 70.5638 8.20188 71.0029 8.35183C71.4527 8.49106 71.8276 8.67314 72.1275 8.89806C72.4274 9.11227 72.6523 9.33718 72.8022 9.57281C72.9629 9.79773 73.0486 9.99587 73.0593 10.1672C73.07 10.2743 73.0379 10.3654 72.9629 10.4404C72.8879 10.5153 72.8022 10.5528 72.7059 10.5528H71.276C71.2225 10.5528 71.1743 10.5475 71.1314 10.5367C71.0886 10.5153 71.0511 10.4886 71.019 10.4564C70.8904 10.3707 70.7566 10.2743 70.6173 10.1672C70.4888 10.0494 70.3335 9.94768 70.1514 9.86199C69.9694 9.77631 69.7337 9.73347 69.4445 9.73347C69.0911 9.73347 68.818 9.8138 68.6252 9.97445C68.4431 10.1244 68.3521 10.3172 68.3521 10.5528C68.3521 10.7028 68.4003 10.842 68.4967 10.9705C68.5931 11.099 68.7912 11.2169 69.0911 11.324C69.391 11.4311 69.8462 11.5435 70.4567 11.6613C71.185 11.7899 71.7633 11.9826 72.1918 12.2397C72.6202 12.4967 72.9254 12.7966 73.1075 13.1394C73.3003 13.4714 73.3967 13.8302 73.3967 14.2158C73.3967 14.7192 73.2467 15.169 72.9468 15.5653C72.6469 15.9508 72.2078 16.2561 71.6295 16.481C71.0618 16.6952 70.3603 16.8023 69.5249 16.8023Z" fill="white"/>
<path d="M75.3244 16.6417C75.2173 16.6417 75.1263 16.6042 75.0513 16.5292C74.9763 16.4542 74.9388 16.3578 74.9388 16.24V8.68921C74.9388 8.57139 74.9763 8.475 75.0513 8.40003C75.1263 8.32505 75.2173 8.28757 75.3244 8.28757H76.8185C76.9256 8.28757 77.0167 8.32505 77.0916 8.40003C77.1773 8.475 77.2202 8.57139 77.2202 8.68921V9.23544C77.4344 8.93554 77.7289 8.6785 78.1038 8.46429C78.4893 8.25008 78.9445 8.13762 79.4693 8.12691C80.7117 8.10549 81.5632 8.57675 82.0238 9.54068C82.2701 9.12298 82.6235 8.7856 83.0841 8.52855C83.5553 8.26079 84.0694 8.12691 84.6264 8.12691C85.1833 8.12691 85.6867 8.25544 86.1365 8.51248C86.5864 8.75882 86.9398 9.1444 87.1969 9.66921C87.4646 10.1833 87.5985 10.8473 87.5985 11.6613V16.24C87.5985 16.3578 87.561 16.4542 87.4861 16.5292C87.4111 16.6042 87.32 16.6417 87.2129 16.6417H85.6225C85.5154 16.6417 85.4243 16.6042 85.3493 16.5292C85.2744 16.4542 85.2369 16.3578 85.2369 16.24V11.7899C85.2369 11.3507 85.1726 11.008 85.0441 10.7617C84.9156 10.5046 84.7442 10.3225 84.53 10.2154C84.3265 10.1083 84.0962 10.0548 83.8392 10.0548C83.6143 10.0548 83.3947 10.1083 83.1805 10.2154C82.977 10.3225 82.8056 10.5046 82.6664 10.7617C82.5379 11.008 82.4736 11.3507 82.4736 11.7899V16.24C82.4736 16.3578 82.4361 16.4542 82.3611 16.5292C82.2862 16.6042 82.1898 16.6417 82.072 16.6417H80.4975C80.3797 16.6417 80.2833 16.6042 80.2084 16.5292C80.1334 16.4542 80.0959 16.3578 80.0959 16.24V11.7899C80.0959 11.3507 80.0316 11.008 79.9031 10.7617C79.7746 10.5046 79.6032 10.3225 79.389 10.2154C79.1855 10.1083 78.9606 10.0548 78.7143 10.0548C78.4893 10.0548 78.2698 10.1137 78.0556 10.2315C77.8414 10.3386 77.6646 10.5153 77.5254 10.7617C77.3969 11.008 77.3326 11.3454 77.3326 11.7738V16.24C77.3326 16.3578 77.2951 16.4542 77.2202 16.5292C77.1452 16.6042 77.0541 16.6417 76.947 16.6417H75.3244Z" fill="white"/>
<path d="M92.0034 16.8023C91.4357 16.8023 90.927 16.6952 90.4771 16.481C90.0273 16.2561 89.6685 15.9562 89.4007 15.5813C89.133 15.2065 88.9991 14.7888 88.9991 14.3282C88.9991 13.5678 89.3044 12.968 89.9148 12.5289C90.536 12.0898 91.35 11.7899 92.3568 11.6292L94.4614 11.324V11.0348C94.4614 10.6171 94.365 10.2958 94.1722 10.0708C93.9794 9.84593 93.6421 9.73347 93.1601 9.73347C92.8067 9.73347 92.5228 9.80309 92.3086 9.94232C92.0944 10.0816 91.9284 10.2636 91.8106 10.4886C91.7249 10.6278 91.6017 10.6974 91.4411 10.6974H89.9148C89.797 10.6974 89.706 10.6653 89.6417 10.601C89.5775 10.526 89.5507 10.4404 89.5614 10.344C89.5614 10.1619 89.631 9.94768 89.7703 9.70134C89.9095 9.455 90.1237 9.21402 90.4129 8.97839C90.7021 8.73205 91.0716 8.52855 91.5214 8.36789C91.9712 8.20724 92.5228 8.12691 93.1762 8.12691C93.8509 8.12691 94.4293 8.20724 94.9112 8.36789C95.3932 8.52855 95.7788 8.75347 96.068 9.04265C96.3571 9.33183 96.5714 9.66921 96.7106 10.0548C96.8498 10.4296 96.9194 10.8366 96.9194 11.2758V16.24C96.9194 16.3578 96.882 16.4542 96.807 16.5292C96.732 16.6042 96.6356 16.6417 96.5178 16.6417H94.9434C94.8363 16.6417 94.7452 16.6042 94.6703 16.5292C94.5953 16.4542 94.5578 16.3578 94.5578 16.24V15.6456C94.4186 15.8491 94.2311 16.0419 93.9955 16.224C93.7599 16.3953 93.4761 16.5346 93.144 16.6417C92.8227 16.7488 92.4425 16.8023 92.0034 16.8023ZM92.646 15.1315C92.9994 15.1315 93.3154 15.0565 93.5939 14.9066C93.8723 14.7566 94.0919 14.5264 94.2526 14.2158C94.4132 13.9052 94.4935 13.5142 94.4935 13.043V12.7699L92.9994 13.0108C92.4211 13.1072 91.998 13.2518 91.7303 13.4446C91.4625 13.6374 91.3286 13.873 91.3286 14.1515C91.3286 14.355 91.3875 14.5317 91.5053 14.6817C91.6339 14.8316 91.7999 14.9441 92.0034 15.019C92.2069 15.094 92.4211 15.1315 92.646 15.1315Z" fill="white"/>
<path d="M99.2502 16.6417C99.1431 16.6417 99.0521 16.6042 98.9771 16.5292C98.9021 16.4542 98.8646 16.3578 98.8646 16.24V8.68921C98.8646 8.5821 98.9021 8.49106 98.9771 8.41609C99.0521 8.33041 99.1431 8.28757 99.2502 8.28757H100.825C100.932 8.28757 101.023 8.33041 101.098 8.41609C101.183 8.49106 101.226 8.5821 101.226 8.68921V9.33183C101.494 8.99981 101.821 8.74276 102.206 8.56068C102.603 8.3786 103.058 8.28757 103.572 8.28757H104.263C104.37 8.28757 104.461 8.32505 104.536 8.40003C104.611 8.475 104.648 8.57139 104.648 8.68921V10.0708C104.648 10.1887 104.611 10.2851 104.536 10.36C104.461 10.435 104.37 10.4725 104.263 10.4725H102.849C102.378 10.4725 102.008 10.6064 101.74 10.8741C101.473 11.1312 101.339 11.5007 101.339 11.9826V16.24C101.339 16.3578 101.301 16.4542 101.226 16.5292C101.151 16.6042 101.055 16.6417 100.937 16.6417H99.2502Z" fill="white"/>
<path d="M109.863 16.6417C109.199 16.6417 108.631 16.5346 108.16 16.3204C107.688 16.0954 107.33 15.7527 107.083 15.2922C106.848 14.8316 106.73 14.2533 106.73 13.5571V10.1833H105.477C105.359 10.1833 105.263 10.1458 105.188 10.0708C105.113 9.99587 105.075 9.89948 105.075 9.78167V8.68921C105.075 8.57139 105.113 8.475 105.188 8.40003C105.263 8.32505 105.359 8.28757 105.477 8.28757H106.73V5.63675C106.73 5.51893 106.767 5.42254 106.842 5.34757C106.928 5.27259 107.024 5.23511 107.131 5.23511H108.706C108.824 5.23511 108.92 5.27259 108.995 5.34757C109.07 5.42254 109.108 5.51893 109.108 5.63675V8.28757H111.116C111.223 8.28757 111.314 8.32505 111.389 8.40003C111.464 8.475 111.501 8.57139 111.501 8.68921V9.78167C111.501 9.89948 111.464 9.99587 111.389 10.0708C111.314 10.1458 111.223 10.1833 111.116 10.1833H109.108V13.3643C109.108 13.7713 109.177 14.0926 109.316 14.3282C109.466 14.5531 109.723 14.6656 110.088 14.6656H111.26C111.367 14.6656 111.458 14.7031 111.533 14.7781C111.608 14.853 111.646 14.9441 111.646 15.0512V16.24C111.646 16.3578 111.608 16.4542 111.533 16.5292C111.458 16.6042 111.367 16.6417 111.26 16.6417H109.863Z" fill="white"/>
<path d="M41.016 27.5433C40.9591 27.5433 40.9153 27.5278 40.8843 27.4968C40.8533 27.4607 40.8378 27.4168 40.8378 27.3652V22.3071C40.8378 22.2503 40.8533 22.2064 40.8843 22.1754C40.9153 22.1392 40.9591 22.1212 41.016 22.1212H42.7743C43.3062 22.1212 43.7348 22.2012 44.0601 22.3613C44.3854 22.5214 44.623 22.7589 44.7727 23.0739C44.9225 23.3838 44.9999 23.7659 45.0051 24.2203C45.0103 24.4527 45.0128 24.6567 45.0128 24.8322C45.0128 25.0078 45.0103 25.2092 45.0051 25.4364C44.9948 25.9115 44.9147 26.3065 44.765 26.6215C44.6204 26.9314 44.388 27.1638 44.0678 27.3187C43.7528 27.4684 43.3346 27.5433 42.813 27.5433H41.016ZM41.5969 26.8849H42.7743C43.1306 26.8849 43.4146 26.8358 43.6263 26.7377C43.838 26.6396 43.9904 26.4821 44.0833 26.2652C44.1814 26.0483 44.2331 25.7617 44.2382 25.4054C44.2486 25.2505 44.2537 25.1163 44.2537 25.0026C44.2537 24.8839 44.2537 24.7677 44.2537 24.6541C44.2537 24.5353 44.2486 24.4011 44.2382 24.2513C44.2279 23.7504 44.1091 23.3812 43.8819 23.1436C43.6547 22.9009 43.2726 22.7796 42.7355 22.7796H41.5969V26.8849Z" fill="white"/>
<path d="M46.2557 27.5433C46.2041 27.5433 46.1602 27.5278 46.124 27.4968C46.093 27.4607 46.0775 27.4168 46.0775 27.3652V23.6936C46.0775 23.642 46.093 23.6006 46.124 23.5697C46.1602 23.5335 46.2041 23.5154 46.2557 23.5154H46.6275C46.6791 23.5154 46.7204 23.5335 46.7514 23.5697C46.7824 23.6006 46.7979 23.642 46.7979 23.6936V27.3652C46.7979 27.4168 46.7824 27.4607 46.7514 27.4968C46.7204 27.5278 46.6791 27.5433 46.6275 27.5433H46.2557ZM46.1937 22.7641C46.1421 22.7641 46.0982 22.7486 46.062 22.7176C46.0311 22.6815 46.0156 22.6376 46.0156 22.5859V22.1677C46.0156 22.116 46.0311 22.0747 46.062 22.0437C46.0982 22.0076 46.1421 21.9895 46.1937 21.9895H46.6817C46.7334 21.9895 46.7747 22.0076 46.8057 22.0437C46.8418 22.0747 46.8599 22.116 46.8599 22.1677V22.5859C46.8599 22.6376 46.8418 22.6815 46.8057 22.7176C46.7747 22.7486 46.7334 22.7641 46.6817 22.7641H46.1937Z" fill="white"/>
<path d="M49.6034 29.2474C49.2522 29.2474 48.963 29.2009 48.7358 29.108C48.5138 29.015 48.3382 28.9014 48.2091 28.7672C48.0852 28.6381 47.9948 28.5064 47.938 28.3721C47.8864 28.243 47.858 28.1397 47.8528 28.0623C47.8476 28.0106 47.8631 27.9667 47.8993 27.9306C47.9406 27.8945 47.9845 27.8764 48.031 27.8764H48.4028C48.4492 27.8764 48.488 27.8867 48.5189 27.9074C48.5499 27.928 48.5758 27.9719 48.5964 28.039C48.6274 28.1165 48.6739 28.2017 48.7358 28.2947C48.7978 28.3928 48.8933 28.4754 49.0224 28.5425C49.1515 28.6148 49.3323 28.651 49.5646 28.651C49.8073 28.651 50.0113 28.6174 50.1766 28.5503C50.3418 28.4883 50.4657 28.3747 50.5484 28.2095C50.6362 28.0494 50.6801 27.8273 50.6801 27.5433V27.0166C50.5561 27.1767 50.3935 27.3109 50.1921 27.4194C49.9907 27.5226 49.7376 27.5743 49.433 27.5743C49.1438 27.5743 48.8959 27.5252 48.6894 27.4271C48.4828 27.3238 48.3124 27.187 48.1781 27.0166C48.049 26.841 47.9509 26.6422 47.8838 26.4202C47.8218 26.1981 47.7857 25.9657 47.7753 25.723C47.7702 25.5784 47.7702 25.4364 47.7753 25.297C47.7857 25.0543 47.8218 24.8219 47.8838 24.5999C47.9509 24.3778 48.049 24.179 48.1781 24.0034C48.3124 23.8279 48.4828 23.691 48.6894 23.5929C48.8959 23.4896 49.1438 23.438 49.433 23.438C49.7428 23.438 49.9984 23.4974 50.1998 23.6161C50.4064 23.7297 50.5742 23.8692 50.7033 24.0344V23.7013C50.7033 23.6497 50.7188 23.6058 50.7498 23.5697C50.7859 23.5335 50.8298 23.5154 50.8814 23.5154H51.2378C51.2894 23.5154 51.3333 23.5335 51.3694 23.5697C51.4056 23.6058 51.4237 23.6497 51.4237 23.7013V27.4581C51.4237 27.8041 51.3643 28.1113 51.2455 28.3799C51.1319 28.6484 50.9408 28.8601 50.6723 29.015C50.4089 29.1699 50.0526 29.2474 49.6034 29.2474ZM49.5879 26.9546C49.8461 26.9546 50.0526 26.8952 50.2076 26.7765C50.3676 26.6577 50.4838 26.5079 50.5561 26.3272C50.6336 26.1465 50.6749 25.9631 50.6801 25.7772C50.6852 25.7049 50.6878 25.6172 50.6878 25.5139C50.6878 25.4054 50.6852 25.3151 50.6801 25.2428C50.6749 25.0569 50.6336 24.8736 50.5561 24.6928C50.4838 24.5121 50.3676 24.3623 50.2076 24.2436C50.0526 24.1248 49.8461 24.0654 49.5879 24.0654C49.3297 24.0654 49.1231 24.1248 48.9682 24.2436C48.8133 24.3572 48.7023 24.5095 48.6351 24.7006C48.568 24.8865 48.5293 25.0879 48.5189 25.3047C48.5138 25.439 48.5138 25.5758 48.5189 25.7153C48.5293 25.9322 48.568 26.1361 48.6351 26.3272C48.7023 26.5131 48.8133 26.6654 48.9682 26.7842C49.1231 26.8978 49.3297 26.9546 49.5879 26.9546Z" fill="white"/>
<path d="M52.7535 27.5433C52.7018 27.5433 52.6579 27.5278 52.6218 27.4968C52.5908 27.4607 52.5753 27.4168 52.5753 27.3652V23.6936C52.5753 23.642 52.5908 23.6006 52.6218 23.5697C52.6579 23.5335 52.7018 23.5154 52.7535 23.5154H53.1253C53.1769 23.5154 53.2182 23.5335 53.2492 23.5697C53.2802 23.6006 53.2957 23.642 53.2957 23.6936V27.3652C53.2957 27.4168 53.2802 27.4607 53.2492 27.4968C53.2182 27.5278 53.1769 27.5433 53.1253 27.5433H52.7535ZM52.6915 22.7641C52.6399 22.7641 52.596 22.7486 52.5598 22.7176C52.5288 22.6815 52.5134 22.6376 52.5134 22.5859V22.1677C52.5134 22.116 52.5288 22.0747 52.5598 22.0437C52.596 22.0076 52.6399 21.9895 52.6915 21.9895H53.1795C53.2311 21.9895 53.2724 22.0076 53.3034 22.0437C53.3396 22.0747 53.3577 22.116 53.3577 22.1677V22.5859C53.3577 22.6376 53.3396 22.6815 53.3034 22.7176C53.2724 22.7486 53.2311 22.7641 53.1795 22.7641H52.6915Z" fill="white"/>
<path d="M56.0237 27.5433C55.7345 27.5433 55.4996 27.4891 55.3188 27.3806C55.1381 27.267 55.0064 27.1095 54.9238 26.9081C54.8412 26.7016 54.7998 26.4589 54.7998 26.18V24.1351H54.1957C54.144 24.1351 54.1001 24.1196 54.064 24.0886C54.033 24.0525 54.0175 24.0086 54.0175 23.957V23.6936C54.0175 23.642 54.033 23.6006 54.064 23.5697C54.1001 23.5335 54.144 23.5154 54.1957 23.5154H54.7998V22.2219C54.7998 22.1702 54.8153 22.1289 54.8463 22.0979C54.8825 22.0618 54.9264 22.0437 54.978 22.0437H55.3421C55.3937 22.0437 55.435 22.0618 55.466 22.0979C55.5021 22.1289 55.5202 22.1702 55.5202 22.2219V23.5154H56.4807C56.5323 23.5154 56.5737 23.5335 56.6046 23.5697C56.6408 23.6006 56.6589 23.642 56.6589 23.6936V23.957C56.6589 24.0086 56.6408 24.0525 56.6046 24.0886C56.5737 24.1196 56.5323 24.1351 56.4807 24.1351H55.5202V26.1258C55.5202 26.3685 55.5615 26.5596 55.6441 26.699C55.7268 26.8384 55.8739 26.9081 56.0857 26.9081H56.5582C56.6098 26.9081 56.6511 26.9262 56.6821 26.9624C56.7182 26.9933 56.7363 27.0347 56.7363 27.0863V27.3652C56.7363 27.4168 56.7182 27.4607 56.6821 27.4968C56.6511 27.5278 56.6098 27.5433 56.5582 27.5433H56.0237Z" fill="white"/>
<path d="M58.6002 27.6208C58.342 27.6208 58.107 27.5691 57.8953 27.4658C57.6836 27.3626 57.5132 27.2231 57.3841 27.0476C57.255 26.872 57.1904 26.6732 57.1904 26.4511C57.1904 26.0948 57.335 25.8108 57.6242 25.5991C57.9134 25.3874 58.2903 25.2479 58.7551 25.1808L59.9092 25.0181V24.7935C59.9092 24.5456 59.8369 24.352 59.6924 24.2126C59.5529 24.0731 59.3231 24.0034 59.003 24.0034C58.7706 24.0034 58.5821 24.0499 58.4375 24.1429C58.2981 24.2358 58.2 24.3546 58.1432 24.4992C58.1122 24.5766 58.058 24.6154 57.9805 24.6154H57.6319C57.5751 24.6154 57.5312 24.5999 57.5003 24.5689C57.4744 24.5327 57.4615 24.4914 57.4615 24.4449C57.4615 24.3675 57.4899 24.272 57.5467 24.1583C57.6087 24.0447 57.7017 23.9337 57.8256 23.8253C57.9495 23.7168 58.107 23.6265 58.2981 23.5542C58.4943 23.4767 58.7319 23.438 59.0107 23.438C59.3205 23.438 59.5813 23.4793 59.793 23.5619C60.0048 23.6394 60.17 23.7452 60.2888 23.8795C60.4127 24.0138 60.5005 24.1661 60.5521 24.3365C60.6089 24.5069 60.6374 24.6799 60.6374 24.8555V27.3652C60.6374 27.4168 60.6193 27.4607 60.5831 27.4968C60.5521 27.5278 60.5108 27.5433 60.4592 27.5433H60.1029C60.0461 27.5433 60.0022 27.5278 59.9712 27.4968C59.9402 27.4607 59.9247 27.4168 59.9247 27.3652V27.0321C59.8576 27.125 59.7672 27.218 59.6536 27.3109C59.54 27.3987 59.398 27.4736 59.2276 27.5356C59.0572 27.5924 58.848 27.6208 58.6002 27.6208ZM58.7628 27.0398C58.9746 27.0398 59.1682 26.9959 59.3438 26.9081C59.5194 26.8152 59.6562 26.6732 59.7543 26.4821C59.8576 26.2911 59.9092 26.0509 59.9092 25.7617V25.5449L59.0107 25.6765C58.6441 25.7282 58.3678 25.816 58.1819 25.9399C57.996 26.0587 57.903 26.211 57.903 26.3969C57.903 26.5415 57.9444 26.6629 58.027 26.761C58.1148 26.8539 58.2232 26.9236 58.3523 26.9701C58.4866 27.0166 58.6234 27.0398 58.7628 27.0398Z" fill="white"/>
<path d="M61.9368 27.5433C61.8851 27.5433 61.8413 27.5278 61.8051 27.4968C61.7741 27.4607 61.7586 27.4168 61.7586 27.3652V22.2219C61.7586 22.1702 61.7741 22.1289 61.8051 22.0979C61.8413 22.0618 61.8851 22.0437 61.9368 22.0437H62.3008C62.3576 22.0437 62.4015 22.0618 62.4325 22.0979C62.4635 22.1289 62.479 22.1702 62.479 22.2219V27.3652C62.479 27.4168 62.4635 27.4607 62.4325 27.4968C62.4015 27.5278 62.3576 27.5433 62.3008 27.5433H61.9368Z" fill="white"/>
<path d="M65.8119 27.5433C65.7603 27.5433 65.7164 27.5278 65.6802 27.4968C65.6493 27.4607 65.6338 27.4168 65.6338 27.3652V22.3071C65.6338 22.2503 65.6493 22.2064 65.6802 22.1754C65.7164 22.1392 65.7603 22.1212 65.8119 22.1212H66.1992C66.2612 22.1212 66.3077 22.1367 66.3386 22.1677C66.3696 22.1986 66.3877 22.2245 66.3929 22.2451L68.035 25.3745L69.6849 22.2451C69.6952 22.2245 69.7133 22.1986 69.7391 22.1677C69.7701 22.1367 69.8165 22.1212 69.8785 22.1212H70.2581C70.3149 22.1212 70.3588 22.1392 70.3897 22.1754C70.4259 22.2064 70.444 22.2503 70.444 22.3071V27.3652C70.444 27.4168 70.4259 27.4607 70.3897 27.4968C70.3588 27.5278 70.3149 27.5433 70.2581 27.5433H69.8785C69.8269 27.5433 69.783 27.5278 69.7468 27.4968C69.7159 27.4607 69.7004 27.4168 69.7004 27.3652V23.5542L68.4068 26.0793C68.3861 26.131 68.3552 26.1723 68.3138 26.2033C68.2725 26.2291 68.2209 26.242 68.1589 26.242H67.9188C67.8517 26.242 67.7974 26.2291 67.7561 26.2033C67.72 26.1723 67.689 26.131 67.6632 26.0793L66.3696 23.5542V27.3652C66.3696 27.4168 66.3515 27.4607 66.3154 27.4968C66.2844 27.5278 66.2431 27.5433 66.1915 27.5433H65.8119Z" fill="white"/>
<path d="M72.806 27.6208C72.5478 27.6208 72.3129 27.5691 72.1012 27.4658C71.8894 27.3626 71.719 27.2231 71.5899 27.0476C71.4608 26.872 71.3963 26.6732 71.3963 26.4511C71.3963 26.0948 71.5409 25.8108 71.8301 25.5991C72.1192 25.3874 72.4962 25.2479 72.961 25.1808L74.1151 25.0181V24.7935C74.1151 24.5456 74.0428 24.352 73.8982 24.2126C73.7588 24.0731 73.529 24.0034 73.2088 24.0034C72.9765 24.0034 72.788 24.0499 72.6434 24.1429C72.504 24.2358 72.4058 24.3546 72.349 24.4992C72.3181 24.5766 72.2638 24.6154 72.1864 24.6154H71.8378C71.781 24.6154 71.7371 24.5999 71.7061 24.5689C71.6803 24.5327 71.6674 24.4914 71.6674 24.4449C71.6674 24.3675 71.6958 24.272 71.7526 24.1583C71.8146 24.0447 71.9075 23.9337 72.0315 23.8253C72.1554 23.7168 72.3129 23.6265 72.504 23.5542C72.7002 23.4767 72.9377 23.438 73.2166 23.438C73.5264 23.438 73.7872 23.4793 73.9989 23.5619C74.2106 23.6394 74.3759 23.7452 74.4947 23.8795C74.6186 24.0138 74.7064 24.1661 74.758 24.3365C74.8148 24.5069 74.8432 24.6799 74.8432 24.8555V27.3652C74.8432 27.4168 74.8251 27.4607 74.789 27.4968C74.758 27.5278 74.7167 27.5433 74.6651 27.5433H74.3087C74.2519 27.5433 74.208 27.5278 74.1771 27.4968C74.1461 27.4607 74.1306 27.4168 74.1306 27.3652V27.0321C74.0635 27.125 73.9731 27.218 73.8595 27.3109C73.7459 27.3987 73.6039 27.4736 73.4335 27.5356C73.2631 27.5924 73.0539 27.6208 72.806 27.6208ZM72.9687 27.0398C73.1804 27.0398 73.3741 26.9959 73.5496 26.9081C73.7252 26.8152 73.8621 26.6732 73.9602 26.4821C74.0635 26.2911 74.1151 26.0509 74.1151 25.7617V25.5449L73.2166 25.6765C72.8499 25.7282 72.5737 25.816 72.3878 25.9399C72.2019 26.0587 72.1089 26.211 72.1089 26.3969C72.1089 26.5415 72.1502 26.6629 72.2328 26.761C72.3206 26.8539 72.4291 26.9236 72.5582 26.9701C72.6924 27.0166 72.8293 27.0398 72.9687 27.0398Z" fill="white"/>
<path d="M76.1349 27.5433C76.0833 27.5433 76.0394 27.5278 76.0032 27.4968C75.9722 27.4607 75.9567 27.4168 75.9567 27.3652V23.7013C75.9567 23.6497 75.9722 23.6058 76.0032 23.5697C76.0394 23.5335 76.0833 23.5154 76.1349 23.5154H76.4912C76.5429 23.5154 76.5868 23.5335 76.6229 23.5697C76.659 23.6058 76.6771 23.6497 76.6771 23.7013V24.0422C76.7804 23.8666 76.9224 23.7349 77.1031 23.6471C77.2839 23.5593 77.5008 23.5154 77.7538 23.5154H78.0636C78.1153 23.5154 78.1566 23.5335 78.1876 23.5697C78.2186 23.6006 78.234 23.642 78.234 23.6936V24.0112C78.234 24.0628 78.2186 24.1041 78.1876 24.1351C78.1566 24.1661 78.1153 24.1816 78.0636 24.1816H77.5989C77.32 24.1816 77.1006 24.2642 76.9405 24.4295C76.7804 24.5895 76.7004 24.809 76.7004 25.0879V27.3652C76.7004 27.4168 76.6823 27.4607 76.6461 27.4968C76.61 27.5278 76.5661 27.5433 76.5145 27.5433H76.1349Z" fill="white"/>
<path d="M79.0852 27.5433C79.0335 27.5433 78.9897 27.5278 78.9535 27.4968C78.9225 27.4607 78.907 27.4168 78.907 27.3652V22.2219C78.907 22.1702 78.9225 22.1289 78.9535 22.0979C78.9897 22.0618 79.0335 22.0437 79.0852 22.0437H79.4492C79.5009 22.0437 79.5422 22.0618 79.5732 22.0979C79.6093 22.1289 79.6274 22.1702 79.6274 22.2219V24.9174L81.1533 23.6471C81.2153 23.5955 81.2618 23.5619 81.2928 23.5464C81.3289 23.5258 81.3857 23.5154 81.4632 23.5154H81.8737C81.9202 23.5154 81.9589 23.5309 81.9899 23.5619C82.0209 23.5929 82.0364 23.6316 82.0364 23.6781C82.0364 23.6988 82.0286 23.722 82.0131 23.7478C82.0028 23.7736 81.9796 23.7995 81.9434 23.8253L80.1541 25.3125L82.1371 27.2412C82.199 27.2929 82.23 27.3393 82.23 27.3806C82.23 27.4271 82.2145 27.4658 82.1835 27.4968C82.1526 27.5278 82.1138 27.5433 82.0674 27.5433H81.6646C81.5871 27.5433 81.5303 27.5356 81.4942 27.5201C81.458 27.4994 81.4115 27.4633 81.3547 27.4116L79.6274 25.7617V27.3652C79.6274 27.4168 79.6093 27.4607 79.5732 27.4968C79.5422 27.5278 79.5009 27.5433 79.4492 27.5433H79.0852Z" fill="white"/>
<path d="M84.3076 27.6208C83.7757 27.6208 83.3522 27.4581 83.0372 27.1328C82.7222 26.8023 82.5492 26.353 82.5183 25.785C82.5131 25.7179 82.5105 25.6326 82.5105 25.5294C82.5105 25.4209 82.5131 25.3331 82.5183 25.266C82.5389 24.8994 82.6241 24.5792 82.7739 24.3055C82.9236 24.0267 83.1276 23.8124 83.3858 23.6626C83.6492 23.5129 83.9564 23.438 84.3076 23.438C84.7 23.438 85.0279 23.5206 85.2913 23.6858C85.5598 23.8511 85.7638 24.0861 85.9032 24.3907C86.0426 24.6954 86.1124 25.0517 86.1124 25.4597V25.5913C86.1124 25.6481 86.0943 25.692 86.0581 25.723C86.0271 25.754 85.9858 25.7695 85.9342 25.7695H83.2541C83.2541 25.7747 83.2541 25.785 83.2541 25.8005C83.2541 25.816 83.2541 25.8289 83.2541 25.8392C83.2644 26.0509 83.3109 26.2497 83.3935 26.4356C83.4762 26.6164 83.5949 26.7636 83.7499 26.8772C83.9048 26.9908 84.0907 27.0476 84.3076 27.0476C84.4935 27.0476 84.6484 27.0192 84.7723 26.9624C84.8962 26.9056 84.9969 26.8436 85.0744 26.7765C85.1519 26.7042 85.2035 26.6499 85.2293 26.6138C85.2758 26.5467 85.3119 26.5079 85.3378 26.4976C85.3636 26.4821 85.4049 26.4744 85.4617 26.4744H85.8335C85.8851 26.4744 85.9264 26.4899 85.9574 26.5208C85.9936 26.5467 86.0091 26.5854 86.0039 26.637C85.9987 26.7145 85.9574 26.81 85.88 26.9236C85.8025 27.0321 85.6915 27.1405 85.5469 27.249C85.4023 27.3574 85.2267 27.4478 85.0202 27.5201C84.8136 27.5872 84.5761 27.6208 84.3076 27.6208ZM83.2541 25.235H85.3765V25.2118C85.3765 24.9794 85.3326 24.7729 85.2448 24.5921C85.1622 24.4114 85.0408 24.2694 84.8808 24.1661C84.7207 24.0576 84.5296 24.0034 84.3076 24.0034C84.0855 24.0034 83.8944 24.0576 83.7344 24.1661C83.5794 24.2694 83.4607 24.4114 83.378 24.5921C83.2954 24.7729 83.2541 24.9794 83.2541 25.2118V25.235Z" fill="white"/>
<path d="M88.5883 27.5433C88.2991 27.5433 88.0641 27.4891 87.8834 27.3806C87.7026 27.267 87.571 27.1095 87.4883 26.9081C87.4057 26.7016 87.3644 26.4589 87.3644 26.18V24.1351H86.7602C86.7086 24.1351 86.6647 24.1196 86.6285 24.0886C86.5976 24.0525 86.5821 24.0086 86.5821 23.957V23.6936C86.5821 23.642 86.5976 23.6006 86.6285 23.5697C86.6647 23.5335 86.7086 23.5154 86.7602 23.5154H87.3644V22.2219C87.3644 22.1702 87.3799 22.1289 87.4109 22.0979C87.447 22.0618 87.4909 22.0437 87.5426 22.0437H87.9066C87.9583 22.0437 87.9996 22.0618 88.0306 22.0979C88.0667 22.1289 88.0848 22.1702 88.0848 22.2219V23.5154H89.0453C89.0969 23.5154 89.1382 23.5335 89.1692 23.5697C89.2053 23.6006 89.2234 23.642 89.2234 23.6936V23.957C89.2234 24.0086 89.2053 24.0525 89.1692 24.0886C89.1382 24.1196 89.0969 24.1351 89.0453 24.1351H88.0848V26.1258C88.0848 26.3685 88.1261 26.5596 88.2087 26.699C88.2913 26.8384 88.4385 26.9081 88.6502 26.9081H89.1227C89.1744 26.9081 89.2157 26.9262 89.2467 26.9624C89.2828 26.9933 89.3009 27.0347 89.3009 27.0863V27.3652C89.3009 27.4168 89.2828 27.4607 89.2467 27.4968C89.2157 27.5278 89.1744 27.5433 89.1227 27.5433H88.5883Z" fill="white"/>
<path d="M90.2275 29.015C90.1758 29.015 90.132 28.997 90.0958 28.9608C90.0648 28.9298 90.0493 28.8885 90.0493 28.8369V23.6936C90.0493 23.642 90.0648 23.6006 90.0958 23.5697C90.132 23.5335 90.1758 23.5154 90.2275 23.5154H90.5838C90.6354 23.5154 90.6768 23.5335 90.7077 23.5697C90.7439 23.6006 90.762 23.642 90.762 23.6936V24.0344C90.8859 23.864 91.0511 23.722 91.2577 23.6084C91.4642 23.4948 91.7224 23.438 92.0323 23.438C92.3215 23.438 92.5667 23.487 92.7681 23.5851C92.9747 23.6833 93.1425 23.8175 93.2716 23.9879C93.4059 24.1583 93.5066 24.352 93.5737 24.5689C93.6408 24.7858 93.677 25.0181 93.6822 25.266C93.6873 25.3486 93.6899 25.4364 93.6899 25.5294C93.6899 25.6223 93.6873 25.7101 93.6822 25.7927C93.677 26.0354 93.6408 26.2678 93.5737 26.4899C93.5066 26.7067 93.4059 26.9004 93.2716 27.0708C93.1425 27.2361 92.9747 27.3703 92.7681 27.4736C92.5667 27.5717 92.3215 27.6208 92.0323 27.6208C91.7328 27.6208 91.4797 27.5665 91.2732 27.4581C91.0718 27.3445 90.9065 27.2051 90.7774 27.0398V28.8369C90.7774 28.8885 90.762 28.9298 90.731 28.9608C90.7 28.997 90.6561 29.015 90.5993 29.015H90.2275ZM91.8696 26.9933C92.1381 26.9933 92.3473 26.9365 92.497 26.8229C92.652 26.7042 92.763 26.5518 92.8301 26.3659C92.8972 26.1749 92.936 25.9709 92.9463 25.754C92.9515 25.6042 92.9515 25.4545 92.9463 25.3047C92.936 25.0879 92.8972 24.8865 92.8301 24.7006C92.763 24.5095 92.652 24.3572 92.497 24.2436C92.3473 24.1248 92.1381 24.0654 91.8696 24.0654C91.6166 24.0654 91.41 24.1248 91.2499 24.2436C91.095 24.3623 90.9788 24.5147 90.9014 24.7006C90.8291 24.8813 90.7878 25.0672 90.7774 25.2583C90.7723 25.3409 90.7697 25.439 90.7697 25.5526C90.7697 25.6662 90.7723 25.7669 90.7774 25.8547C90.7826 26.0354 90.8239 26.2136 90.9014 26.3892C90.984 26.5647 91.1054 26.7093 91.2654 26.8229C91.4255 26.9365 91.6269 26.9933 91.8696 26.9933Z" fill="white"/>
<path d="M94.8417 27.5433C94.7901 27.5433 94.7462 27.5278 94.7101 27.4968C94.6791 27.4607 94.6636 27.4168 94.6636 27.3652V22.2219C94.6636 22.1702 94.6791 22.1289 94.7101 22.0979C94.7462 22.0618 94.7901 22.0437 94.8417 22.0437H95.2058C95.2626 22.0437 95.3065 22.0618 95.3375 22.0979C95.3685 22.1289 95.384 22.1702 95.384 22.2219V27.3652C95.384 27.4168 95.3685 27.4607 95.3375 27.4968C95.3065 27.5278 95.2626 27.5433 95.2058 27.5433H94.8417Z" fill="white"/>
<path d="M97.6625 27.6208C97.4043 27.6208 97.1694 27.5691 96.9576 27.4658C96.7459 27.3626 96.5755 27.2231 96.4464 27.0476C96.3173 26.872 96.2528 26.6732 96.2528 26.4511C96.2528 26.0948 96.3974 25.8108 96.6865 25.5991C96.9757 25.3874 97.3527 25.2479 97.8174 25.1808L98.9716 25.0181V24.7935C98.9716 24.5456 98.8993 24.352 98.7547 24.2126C98.6153 24.0731 98.3855 24.0034 98.0653 24.0034C97.8329 24.0034 97.6444 24.0499 97.4999 24.1429C97.3604 24.2358 97.2623 24.3546 97.2055 24.4992C97.1745 24.5766 97.1203 24.6154 97.0429 24.6154H96.6943C96.6375 24.6154 96.5936 24.5999 96.5626 24.5689C96.5368 24.5327 96.5239 24.4914 96.5239 24.4449C96.5239 24.3675 96.5523 24.272 96.6091 24.1583C96.671 24.0447 96.764 23.9337 96.8879 23.8253C97.0119 23.7168 97.1694 23.6265 97.3604 23.5542C97.5567 23.4767 97.7942 23.438 98.0731 23.438C98.3829 23.438 98.6437 23.4793 98.8554 23.5619C99.0671 23.6394 99.2324 23.7452 99.3511 23.8795C99.4751 24.0138 99.5628 24.1661 99.6145 24.3365C99.6713 24.5069 99.6997 24.6799 99.6997 24.8555V27.3652C99.6997 27.4168 99.6816 27.4607 99.6455 27.4968C99.6145 27.5278 99.5732 27.5433 99.5215 27.5433H99.1652C99.1084 27.5433 99.0645 27.5278 99.0335 27.4968C99.0026 27.4607 98.9871 27.4168 98.9871 27.3652V27.0321C98.9199 27.125 98.8296 27.218 98.716 27.3109C98.6024 27.3987 98.4604 27.4736 98.2899 27.5356C98.1195 27.5924 97.9104 27.6208 97.6625 27.6208ZM97.8252 27.0398C98.0369 27.0398 98.2306 26.9959 98.4061 26.9081C98.5817 26.8152 98.7185 26.6732 98.8167 26.4821C98.9199 26.2911 98.9716 26.0509 98.9716 25.7617V25.5449L98.0731 25.6765C97.7064 25.7282 97.4301 25.816 97.2442 25.9399C97.0583 26.0587 96.9654 26.211 96.9654 26.3969C96.9654 26.5415 97.0067 26.6629 97.0893 26.761C97.1771 26.8539 97.2856 26.9236 97.4146 26.9701C97.5489 27.0166 97.6858 27.0398 97.8252 27.0398Z" fill="white"/>
<path d="M102.44 27.6208C102.073 27.6208 101.756 27.5511 101.487 27.4116C101.224 27.267 101.02 27.0631 100.875 26.7997C100.731 26.5312 100.653 26.211 100.643 25.8392C100.638 25.7617 100.635 25.6585 100.635 25.5294C100.635 25.4003 100.638 25.297 100.643 25.2195C100.653 24.8477 100.731 24.5302 100.875 24.2668C101.02 23.9983 101.224 23.7943 101.487 23.6549C101.756 23.5103 102.073 23.438 102.44 23.438C102.739 23.438 102.995 23.4793 103.207 23.5619C103.424 23.6445 103.602 23.7504 103.741 23.8795C103.881 24.0086 103.984 24.148 104.051 24.2978C104.123 24.4475 104.162 24.5895 104.167 24.7238C104.172 24.7754 104.157 24.8167 104.121 24.8477C104.085 24.8787 104.041 24.8942 103.989 24.8942H103.617C103.566 24.8942 103.527 24.8839 103.501 24.8632C103.475 24.8374 103.449 24.7961 103.424 24.7393C103.331 24.4863 103.204 24.3081 103.044 24.2048C102.884 24.1015 102.685 24.0499 102.448 24.0499C102.138 24.0499 101.885 24.1454 101.689 24.3365C101.497 24.5276 101.394 24.8348 101.379 25.2583C101.374 25.4442 101.374 25.6249 101.379 25.8005C101.394 26.2291 101.497 26.5389 101.689 26.73C101.885 26.9159 102.138 27.0088 102.448 27.0088C102.685 27.0088 102.884 26.9572 103.044 26.8539C103.204 26.7506 103.331 26.5725 103.424 26.3195C103.449 26.2626 103.475 26.2239 103.501 26.2033C103.527 26.1774 103.566 26.1645 103.617 26.1645H103.989C104.041 26.1645 104.085 26.18 104.121 26.211C104.157 26.242 104.172 26.2833 104.167 26.3349C104.162 26.4434 104.139 26.5544 104.097 26.668C104.056 26.7816 103.989 26.8978 103.896 27.0166C103.808 27.1302 103.697 27.2335 103.563 27.3264C103.429 27.4142 103.266 27.4865 103.075 27.5433C102.889 27.5949 102.677 27.6208 102.44 27.6208Z" fill="white"/>
<path d="M106.69 27.6208C106.159 27.6208 105.735 27.4581 105.42 27.1328C105.105 26.8023 104.932 26.353 104.901 25.785C104.896 25.7179 104.893 25.6326 104.893 25.5294C104.893 25.4209 104.896 25.3331 104.901 25.266C104.922 24.8994 105.007 24.5792 105.157 24.3055C105.307 24.0267 105.511 23.8124 105.769 23.6626C106.032 23.5129 106.339 23.438 106.69 23.438C107.083 23.438 107.411 23.5206 107.674 23.6858C107.943 23.8511 108.147 24.0861 108.286 24.3907C108.426 24.6954 108.495 25.0517 108.495 25.4597V25.5913C108.495 25.6481 108.477 25.692 108.441 25.723C108.41 25.754 108.369 25.7695 108.317 25.7695H105.637C105.637 25.7747 105.637 25.785 105.637 25.8005C105.637 25.816 105.637 25.8289 105.637 25.8392C105.647 26.0509 105.694 26.2497 105.776 26.4356C105.859 26.6164 105.978 26.7636 106.133 26.8772C106.288 26.9908 106.474 27.0476 106.69 27.0476C106.876 27.0476 107.031 27.0192 107.155 26.9624C107.279 26.9056 107.38 26.8436 107.457 26.7765C107.535 26.7042 107.586 26.6499 107.612 26.6138C107.659 26.5467 107.695 26.5079 107.721 26.4976C107.747 26.4821 107.788 26.4744 107.845 26.4744H108.216C108.268 26.4744 108.309 26.4899 108.34 26.5208C108.377 26.5467 108.392 26.5854 108.387 26.637C108.382 26.7145 108.34 26.81 108.263 26.9236C108.185 27.0321 108.074 27.1405 107.93 27.249C107.785 27.3574 107.61 27.4478 107.403 27.5201C107.197 27.5872 106.959 27.6208 106.69 27.6208ZM105.637 25.235H107.759V25.2118C107.759 24.9794 107.716 24.7729 107.628 24.5921C107.545 24.4114 107.424 24.2694 107.264 24.1661C107.104 24.0576 106.913 24.0034 106.69 24.0034C106.468 24.0034 106.277 24.0576 106.117 24.1661C105.962 24.2694 105.844 24.4114 105.761 24.5921C105.678 24.7729 105.637 24.9794 105.637 25.2118V25.235Z" fill="white"/>
</svg>
