<svg width="160" height="160" viewBox="0 0 160 160" fill="none" xmlns="http://www.w3.org/2000/svg">
<circle cx="80" cy="80" r="80" fill="white"/>
<path d="M101.315 77.6948C100.687 77.6948 100.06 77.6948 99.4319 77.6948C99.7457 78.4793 100.216 79.2638 100.53 80.0483C104.297 88.8344 106.18 98.0912 106.18 107.819C106.18 112.682 105.709 117.546 104.767 122.253L123.285 111.584C126.423 109.701 129.091 105.152 129.091 101.543V90.5602C122.186 82.7155 112.3 77.6948 101.315 77.6948Z" fill="url(#paint0_linear_412_59)"/>
<path d="M54.3532 100.621C54.3532 94.9565 58.9161 90.3931 64.5804 90.3931C65.2098 90.3931 65.8392 90.3931 66.4686 90.5504C68.042 88.3474 69.6154 86.3018 71.6609 84.2561C76.3811 79.5354 82.0455 76.0736 88.1818 74.0279C78.2693 58.2921 61.5909 47.2771 42.3951 44.9167L37.0455 48.0639C33.5839 49.9522 30.9091 54.5156 30.9091 58.2921V101.408C30.9091 105.185 33.5839 109.748 36.7308 111.479L60.8042 125.326C59.7028 121.707 59.2308 117.773 59.2308 113.997C59.2308 112.423 59.3881 110.85 59.5455 109.433C56.3986 107.545 54.3532 104.398 54.3532 100.621Z" fill="url(#paint1_linear_412_59)"/>
<path d="M123.096 48.3195L85.7097 26.8636C82.5547 24.9843 77.1912 24.9843 74.0362 26.8636L52.8978 38.9227C56.0528 39.7058 59.2078 40.8021 62.205 42.055C70.7235 45.6571 78.4532 50.8253 84.921 57.2464C89.4957 61.7881 93.2817 66.7997 96.4367 72.1245C98.0142 71.9679 99.5917 71.8113 101.169 71.8113C111.581 71.8113 121.203 75.57 129.091 82.3043V58.3426C128.933 54.584 126.251 50.0422 123.096 48.3195Z" fill="url(#paint2_linear_412_59)"/>
<path d="M71.3387 93.0599C73.4061 94.9456 74.6784 97.617 74.6784 100.603C74.6784 106.103 70.2254 110.503 64.8182 110.817C64.6591 111.917 64.6591 113.017 64.6591 114.117C64.6591 119.774 65.9314 125.117 68.317 129.831L74.2013 133.131C77.382 135.017 82.7893 135.017 85.97 133.131L94.558 128.26C96.7845 121.817 97.8978 115.06 97.8978 107.988C97.8978 97.617 95.3532 87.8742 90.9001 79.2314C82.9483 81.4314 76.1097 86.4599 71.3387 93.0599Z" fill="url(#paint3_linear_412_59)"/>
<defs>
<linearGradient id="paint0_linear_412_59" x1="99.4319" y1="77.6948" x2="141.255" y2="98.5103" gradientUnits="userSpaceOnUse">
<stop stop-color="#1100FF"/>
<stop offset="1" stop-color="#0086FF"/>
</linearGradient>
<linearGradient id="paint1_linear_412_59" x1="30.9091" y1="44.9167" x2="109.411" y2="86.7246" gradientUnits="userSpaceOnUse">
<stop stop-color="#1100FF"/>
<stop offset="1" stop-color="#0086FF"/>
</linearGradient>
<linearGradient id="paint2_linear_412_59" x1="52.8978" y1="25.4541" x2="119.784" y2="92.4824" gradientUnits="userSpaceOnUse">
<stop stop-color="#1100FF"/>
<stop offset="1" stop-color="#0086FF"/>
</linearGradient>
<linearGradient id="paint3_linear_412_59" x1="64.6591" y1="79.2314" x2="113.317" y2="101.094" gradientUnits="userSpaceOnUse">
<stop stop-color="#1100FF"/>
<stop offset="1" stop-color="#0086FF"/>
</linearGradient>
</defs>
</svg>
