<svg width="375" height="812" viewBox="0 0 375 812" fill="none" xmlns="http://www.w3.org/2000/svg">
<rect width="375" height="812" fill="url(#paint0_linear_1094_130)"/>
<path d="M245.584 136.414C243.608 136.414 241.632 136.414 239.657 136.414C240.645 138.883 242.126 141.352 243.114 143.821C254.967 171.473 260.894 200.606 260.894 231.221C260.894 246.528 259.412 261.836 256.449 276.649L314.727 243.072C324.605 237.146 333.001 222.827 333.001 211.47V176.905C311.27 152.215 280.155 136.414 245.584 136.414Z" fill="url(#paint1_linear_1094_130)"/>
<path d="M97.784 208.569C97.784 190.74 112.145 176.378 129.972 176.378C131.952 176.378 133.933 176.378 135.914 176.874C140.866 169.94 145.818 163.502 152.255 157.064C167.111 142.207 184.938 131.312 204.251 124.873C173.053 75.3494 120.563 40.6825 60.1492 33.2539L43.3126 43.1587C32.4184 49.1016 24.0001 63.4636 24.0001 75.3494L24.0001 211.045C24.0001 222.931 32.4184 237.293 42.3223 242.741L118.087 286.322C114.621 274.931 113.135 262.55 113.135 250.665C113.135 245.712 113.63 240.76 114.125 236.303C104.221 230.36 97.784 220.455 97.784 208.569Z" fill="url(#paint2_linear_1094_130)"/>
<path d="M314.135 43.9626L196.47 -23.5639C186.541 -29.4787 169.661 -29.4787 159.731 -23.5639L93.2034 14.3889C103.133 16.8534 113.062 20.3037 122.495 24.2468C149.305 35.5834 173.632 51.8489 193.988 72.0576C208.386 86.3515 220.301 102.124 230.231 118.883C235.195 118.39 240.16 117.897 245.125 117.897C277.892 117.897 308.177 129.726 333.001 150.921V75.5079C332.504 63.6784 324.064 49.3844 314.135 43.9626Z" fill="url(#paint3_linear_1094_130)"/>
<path d="M151.241 184.77C157.748 190.705 161.752 199.113 161.752 208.509C161.752 225.819 147.737 239.666 130.719 240.656C130.219 244.117 130.219 247.579 130.219 251.041C130.219 268.845 134.223 285.66 141.731 300.497L160.25 310.883C170.261 316.818 187.279 316.818 197.289 310.883L224.318 295.552C231.325 275.275 234.829 254.009 234.829 231.753C234.829 199.113 226.82 168.45 212.806 141.249C187.779 148.173 166.257 163.999 151.241 184.77Z" fill="url(#paint4_linear_1094_130)"/>
<defs>
<linearGradient id="paint0_linear_1094_130" x1="0" y1="0" x2="589.496" y2="203.56" gradientUnits="userSpaceOnUse">
<stop stop-color="#1100FF"/>
<stop offset="1" stop-color="#0086FF"/>
</linearGradient>
<linearGradient id="paint1_linear_1094_130" x1="239.657" y1="136.414" x2="371.285" y2="201.925" gradientUnits="userSpaceOnUse">
<stop stop-color="#1100FF"/>
<stop offset="1" stop-color="#0086FF"/>
</linearGradient>
<linearGradient id="paint2_linear_1094_130" x1="24.0001" y1="33.2539" x2="271.064" y2="164.833" gradientUnits="userSpaceOnUse">
<stop stop-color="#1100FF"/>
<stop offset="1" stop-color="#0086FF"/>
</linearGradient>
<linearGradient id="paint3_linear_1094_130" x1="93.2034" y1="-28" x2="303.71" y2="182.954" gradientUnits="userSpaceOnUse">
<stop stop-color="#1100FF"/>
<stop offset="1" stop-color="#0086FF"/>
</linearGradient>
<linearGradient id="paint4_linear_1094_130" x1="130.219" y1="141.249" x2="283.357" y2="210.056" gradientUnits="userSpaceOnUse">
<stop stop-color="#1100FF"/>
<stop offset="1" stop-color="#0086FF"/>
</linearGradient>
</defs>
</svg>
