<svg width="26" height="26" viewBox="0 0 26 26" fill="none" xmlns="http://www.w3.org/2000/svg">
<g clip-path="url(#clip0_936_10271)">
<path d="M6.09519 24.4891C5.79251 24.4271 5.69703 24.2311 5.69907 23.9376C5.70719 22.4496 5.66047 20.9595 5.71735 19.4725C5.77626 17.9398 6.55937 16.8307 7.94885 16.1735C8.5857 15.8719 9.23981 15.6068 9.96401 15.2909C8.9026 14.8663 8.22004 14.1797 7.93362 13.1498C7.66852 12.196 7.80462 11.2839 8.42826 10.514C9.24794 9.50137 9.58515 8.37089 9.53132 7.08095C9.4846 5.94946 9.50389 4.82202 9.9508 3.7403C11.0031 1.19291 13.6967 -0.362132 16.3558 0.0725898C19.2252 0.541845 21.2891 2.76928 21.4557 5.60513C21.4973 6.31308 21.475 7.02509 21.4801 7.73506C21.4872 8.67865 21.7695 9.5227 22.3465 10.2753C23.738 12.0904 23.2738 14.1238 21.2373 15.1792C21.1947 15.2015 21.1611 15.2421 21.0921 15.3C21.6659 15.5489 22.2144 15.7926 22.768 16.0273C24.4297 16.7301 25.2463 17.9866 25.2453 19.7844C25.2443 21.4247 25.2483 23.0661 25.2432 24.7065C25.2422 25.0051 25.2036 25.2854 25.6577 25.2519C25.8598 25.2367 26.005 25.3941 25.9989 25.6145C25.9918 25.8522 25.8486 25.9812 25.6109 25.9954C25.4931 26.0025 25.3743 25.9984 25.2554 25.9984C17.0851 25.9984 8.91479 25.9984 0.743444 25.9984C0.624607 25.9984 0.505769 26.0045 0.387948 25.9944C0.151289 25.973 0.012137 25.839 0.0161999 25.6003C0.0202627 25.3799 0.164493 25.258 0.373728 25.2458C0.677423 25.2285 0.982135 25.2387 1.28685 25.2346C2.89166 25.2113 4.4985 25.2834 6.10332 25.1971C7.0144 25.2082 7.92549 25.2133 8.83658 25.2326C9.08847 25.2377 9.15348 25.1473 9.12199 24.9025C9.03261 24.2159 8.96354 23.5272 8.89041 22.8396C8.77259 21.7315 8.64055 20.6254 8.54507 19.5152C8.45873 18.5076 8.88127 18.0678 9.87767 18.0638C10.0635 18.0627 10.2504 18.0516 10.4353 18.0668C10.6841 18.0871 10.8081 18.0201 10.7979 17.7367C10.7796 17.1964 10.7847 16.655 10.7959 16.1146C10.802 15.8323 10.7065 15.8028 10.4668 15.9115C9.80556 16.2091 9.13824 16.4925 8.47092 16.7769C7.13019 17.3487 6.45577 18.3471 6.47303 19.8179C6.48827 21.1525 6.47405 22.4872 6.4771 23.8218C6.48014 24.1204 6.46592 24.4048 6.09519 24.4891ZM16.7621 4.66154C16.7002 4.6849 16.627 4.69608 16.5762 4.73467C15.2507 5.74225 13.778 6.42074 12.1346 6.70311C11.8583 6.75085 11.8796 6.91234 11.8796 7.09923C11.8806 7.99508 11.8685 8.89093 11.8847 9.78577C11.9091 11.1529 12.874 12.3118 14.2147 12.6044C14.9339 12.7618 15.6662 12.7252 16.3853 12.6612C17.7169 12.5434 18.8281 11.5064 18.952 10.2906C18.4573 10.8005 17.7362 10.9518 17.4091 11.6069C17.3208 11.7837 17.1085 11.8812 16.9033 11.9187C16.4026 12.0102 15.8947 12.0335 15.399 11.9086C14.9704 11.8009 14.7043 11.4993 14.6281 11.0605C14.5489 10.6075 14.687 10.2256 15.0679 9.9493C15.5951 9.56638 16.9846 9.64967 17.4355 10.126C17.6041 10.3038 17.7128 10.3089 17.8896 10.188C18.6178 9.69029 19.1836 9.1083 19.0911 8.12509C19.0576 7.77366 19.0708 7.41512 19.0911 7.06165C19.1043 6.81585 19.02 6.70819 18.7763 6.65029C18.2633 6.52942 17.7981 6.29276 17.3604 5.99719C17.144 5.85093 17.011 5.68131 17.0861 5.40707C17.3218 5.11658 17.5523 5.1826 17.8286 5.37355C18.5914 5.9007 19.4537 6.09876 20.3729 6.0815C20.5832 6.07743 20.7325 6.03985 20.7152 5.77171C20.6259 4.41879 20.1251 3.25073 19.1673 2.28479C19.0688 2.18525 18.9723 2.07657 18.8535 2.27057C18.2928 3.18776 17.4955 3.89672 16.7621 4.66154ZM20.3262 25.1991C20.5101 25.2123 20.6949 25.2123 20.8757 25.2397C21.2901 25.3037 21.4465 25.1727 21.4831 24.7166C21.6121 23.1352 21.7959 21.5588 21.9706 19.9814C22.1057 18.7676 22.0763 18.7301 20.831 18.8306C17.1491 18.8245 13.4662 18.8174 9.78423 18.8113C9.34951 18.8103 9.25708 19.048 9.30177 19.4451C9.49983 21.2064 9.6918 22.9686 9.85533 24.7329C9.89088 25.1158 9.99753 25.2387 10.3957 25.2367C13.1493 25.2184 15.9028 25.2285 18.6564 25.2255C19.213 25.2255 19.7696 25.2082 20.3262 25.1991ZM15.6977 0.781551C12.7867 0.754127 10.4708 2.90031 10.2819 5.62037C10.2616 5.92 10.3226 6.03985 10.6527 6.03579C13.909 5.99618 16.3355 4.46551 18.1902 1.88461C18.372 1.6317 18.2461 1.54028 18.0429 1.42957C17.2568 0.999928 16.4198 0.773426 15.6977 0.781551ZM15.4285 16.8561C16.5448 16.8398 17.7341 16.7027 18.8992 16.3878C19.1236 16.3269 19.4212 16.3604 19.3989 15.9623C19.3806 15.6352 19.4151 15.3579 18.9885 15.2228C18.1252 14.9506 17.4751 14.4072 17.1928 13.5104C17.1369 13.3316 17.0668 13.3316 16.9053 13.355C15.9465 13.4941 14.9857 13.4992 14.0278 13.3499C13.8775 13.3265 13.8054 13.3509 13.7658 13.489C13.4814 14.459 12.7643 14.9862 11.8644 15.298C11.3951 15.4605 11.6267 15.8241 11.578 16.1065C11.5231 16.4234 11.8034 16.396 11.9761 16.4386C13.0812 16.7078 14.2025 16.848 15.4285 16.8561ZM20.1373 15.7287C20.1373 16.4447 20.1475 17.0836 20.1322 17.7225C20.1251 17.9957 20.2338 18.0739 20.4898 18.0648C20.895 18.0495 21.3023 18.0495 21.7076 18.0658C22.3942 18.0932 22.8665 18.6265 22.8147 19.31C22.7883 19.6635 22.7385 20.0159 22.7009 20.3684C22.5466 21.8473 22.4013 23.3282 22.2307 24.805C22.1911 25.1524 22.2977 25.2489 22.6298 25.2336C23.1194 25.2113 23.612 25.2082 24.1006 25.2346C24.4297 25.2529 24.4886 25.1229 24.4866 24.8253C24.4733 23.0499 24.4957 21.2734 24.4723 19.4979C24.4591 18.5076 24.0407 17.6778 23.2098 17.1344C22.2784 16.524 21.1987 16.2162 20.1373 15.7287ZM19.7066 14.6429C20.957 14.6398 21.6761 14.2244 22.1057 13.3844C22.5242 12.5668 22.5059 11.7176 21.9249 10.9955C21.0301 9.88328 20.6279 8.64209 20.7244 7.23026C20.7437 6.94688 20.7 6.79249 20.3486 6.82702C20.0459 6.85648 19.797 6.81382 19.8214 7.26581C19.86 7.99102 19.8153 8.7203 19.8356 9.44754C19.8763 10.9 19.3176 12.0437 18.1069 12.8502C17.8896 12.9954 17.8713 13.1244 17.9546 13.3509C18.2329 14.1127 19.0769 14.652 19.7066 14.6429ZM11.0996 8.62787C11.0996 8.11697 11.0843 7.69444 11.1046 7.27292C11.1199 6.95907 11.0843 6.78944 10.6862 6.78944C10.285 6.78944 10.2515 6.96313 10.2728 7.27495C10.3672 8.65529 9.93557 9.8589 9.06409 10.9295C8.61414 11.482 8.48819 12.1361 8.64055 12.839C8.83251 13.7237 9.56788 14.4438 10.4566 14.6094C11.4012 14.7851 12.3854 14.4143 12.8263 13.7165C13.1574 13.1924 13.1371 13.0797 12.6729 12.7384C11.8309 12.1188 11.324 11.2971 11.1564 10.2601C11.063 9.68623 11.125 9.11236 11.0996 8.62787ZM19.3562 17.0704C18.4055 17.3101 17.4477 17.5061 16.4696 17.5671C14.9267 17.6626 13.3981 17.5803 11.8918 17.2024C11.7923 17.177 11.6684 17.0887 11.582 17.241C11.3829 17.5915 11.6399 18.0627 12.032 18.0627C14.1954 18.0638 16.3589 18.0627 18.5223 18.0627C19.4598 18.0617 19.4598 18.0617 19.3562 17.0704ZM16.1182 11.1519C16.2258 11.1519 16.2929 11.1509 16.3599 11.1519C16.5945 11.1539 16.8942 11.1895 16.9043 10.8685C16.9155 10.514 16.5955 10.5425 16.3467 10.5293C16.2969 10.5262 16.2451 10.5232 16.1964 10.5293C15.9069 10.5699 15.4397 10.3921 15.4376 10.8573C15.4346 11.3083 15.8937 11.094 16.1182 11.1519Z" fill="#050505"/>
<path d="M6.09497 24.49C6.4657 24.4047 6.47992 24.1213 6.47891 23.8196C6.47586 22.485 6.49008 21.1504 6.47484 19.8157C6.45758 18.346 7.132 17.3465 8.47273 16.7747C9.14005 16.4903 9.80737 16.2069 10.4686 15.9093C10.7083 15.8017 10.8038 15.8311 10.7977 16.1125C10.7865 16.6528 10.7814 17.1942 10.7997 17.7345C10.8089 18.0179 10.686 18.085 10.4371 18.0646C10.2522 18.0494 10.0654 18.0616 9.87948 18.0616C8.88206 18.0667 8.46055 18.5065 8.54688 19.513C8.64134 20.6232 8.7744 21.7293 8.89222 22.8374C8.96535 23.5261 9.03442 24.2147 9.1238 24.9003C9.15529 25.1451 9.09028 25.2355 8.83839 25.2304C7.9273 25.2111 7.01621 25.2061 6.10513 25.1949C6.10107 24.9613 6.09802 24.7256 6.09497 24.49Z" fill="#8593DB"/>
<path d="M5.79445 8.83843C5.17792 8.79678 4.43341 8.90445 3.69296 8.76631C1.37817 8.33362 -0.25407 6.18033 0.0323591 3.92039C0.336055 1.52129 2.44669 -0.196263 4.8275 0.0180506C7.15245 0.227286 8.93298 2.26377 8.83852 4.6263C8.7989 5.61966 8.44747 6.50739 7.80148 7.26205C7.60545 7.4916 7.54146 7.61146 7.86852 7.75873C8.15495 7.88773 8.40684 8.08681 8.28699 8.46465C8.1712 8.82929 7.86547 8.84757 7.54451 8.84147C7.00212 8.83132 6.46075 8.83843 5.79445 8.83843ZM6.70554 8.04719C6.58772 7.43574 6.58772 7.43574 7.08033 6.91164C8.20472 5.71514 8.3845 3.88788 7.51404 2.50449C6.61311 1.07032 4.85188 0.427379 3.26941 0.953514C1.71233 1.47051 0.69663 2.9768 0.79109 4.62732C0.886567 6.28799 2.10135 7.7242 3.72444 7.99641C4.70562 8.16095 5.70507 8.05735 6.70554 8.04719Z" fill="#050505"/>
<path d="M20.3262 25.1993C19.7696 25.2084 19.213 25.2257 18.6564 25.2267C15.9028 25.2297 13.1492 25.2196 10.3957 25.2378C9.99752 25.2409 9.88985 25.118 9.85532 24.7341C9.69179 22.9698 9.50084 21.2075 9.30176 19.4463C9.25707 19.0492 9.3495 18.8115 9.78422 18.8125C13.4661 18.8176 17.1491 18.8247 20.831 18.8318C21.0524 19.7216 20.7416 20.5859 20.6848 21.4604C20.6055 22.7077 20.3892 23.9469 20.3262 25.1993ZM15.6357 23.4675C16.4472 23.4807 17.0942 22.8611 17.1095 22.0556C17.1247 21.2441 16.5051 20.5991 15.6966 20.5839C14.8871 20.5687 14.234 21.1923 14.2208 21.9947C14.2086 22.8002 14.8363 23.4543 15.6357 23.4675Z" fill="#F7F9FA"/>
<path d="M17.0871 5.40959C17.0119 5.68383 17.146 5.85447 17.3613 5.99971C17.7991 6.29528 18.2643 6.53194 18.7772 6.65281C19.021 6.71071 19.1053 6.81736 19.0921 7.06417C19.0728 7.41764 19.0596 7.77618 19.0921 8.12761C19.1845 9.11082 18.6178 9.69281 17.8905 10.1905C17.7138 10.3114 17.6051 10.3073 17.4365 10.1286C16.9855 9.65219 15.5971 9.56788 15.0689 9.95182C14.689 10.2281 14.5499 10.61 14.6291 11.063C14.7053 11.5008 14.9714 11.8024 15.4 11.9111C15.8957 12.036 16.4035 12.0127 16.9043 11.9213C17.1094 11.8837 17.3217 11.7862 17.4101 11.6094C17.7371 10.9543 18.4583 10.803 18.9529 10.2931C18.829 11.5089 17.7189 12.5449 16.3863 12.6637C15.6671 12.7277 14.9348 12.7633 14.2157 12.6069C12.875 12.3143 11.91 11.1554 11.8857 9.78829C11.8694 8.89346 11.8826 7.9976 11.8806 7.10175C11.8806 6.91385 11.8593 6.75235 12.1355 6.70563C13.7789 6.42225 15.2517 5.74477 16.5772 4.73719C16.628 4.6986 16.7001 4.68844 16.7631 4.66406C16.6686 4.99924 17.08 5.11707 17.0871 5.40959Z" fill="#FBCBBC"/>
<path d="M15.6974 0.78151C16.4196 0.773384 17.2565 1.0009 18.0427 1.43055C18.2458 1.54126 18.3718 1.63267 18.1899 1.88558C16.3353 4.46649 13.9088 5.99614 10.6524 6.03676C10.3223 6.04083 10.2603 5.91996 10.2817 5.62134C10.4706 2.89925 12.7874 0.754086 15.6974 0.78151Z" fill="#C28F8F"/>
<path d="M15.4287 16.8548C14.2028 16.8466 13.0804 16.7065 11.9763 16.4363C11.8037 16.3946 11.5243 16.4211 11.5782 16.1042C11.6269 15.8218 11.3953 15.4582 11.8646 15.2956C12.7655 14.9838 13.4816 14.4567 13.766 13.4867C13.8066 13.3496 13.8777 13.3242 14.0281 13.3475C14.9859 13.4968 15.9477 13.4918 16.9055 13.3526C17.067 13.3292 17.1371 13.3292 17.193 13.508C17.4743 14.4049 18.1244 14.9473 18.9887 15.2205C19.4153 15.3546 19.3798 15.6318 19.3991 15.9599C19.4214 16.3571 19.1249 16.3246 18.8994 16.3855C17.7354 16.7014 16.546 16.8385 15.4287 16.8548Z" fill="#FBCBBC"/>
<path d="M20.137 15.7305C21.1974 16.218 22.277 16.5258 23.2105 17.1362C24.0413 17.6806 24.4608 18.5105 24.473 19.4997C24.4964 21.2752 24.474 23.0517 24.4872 24.8271C24.4893 25.1237 24.4303 25.2547 24.1013 25.2364C23.6127 25.209 23.1201 25.2131 22.6305 25.2354C22.2984 25.2507 22.1917 25.1542 22.2313 24.8068C22.402 23.33 22.5462 21.8491 22.7016 20.3702C22.7382 20.0178 22.7879 19.6653 22.8154 19.3118C22.8672 18.6283 22.3949 18.094 21.7083 18.0676C21.303 18.0514 20.8957 18.0524 20.4904 18.0666C20.2345 18.0757 20.1258 17.9985 20.1329 17.7243C20.1481 17.0854 20.137 16.4465 20.137 15.7305Z" fill="#8593DB"/>
<path d="M19.7065 14.642C19.0768 14.6511 18.2327 14.1107 17.9534 13.349C17.8701 13.1214 17.8884 12.9925 18.1058 12.8482C19.3175 12.0418 19.8751 10.8991 19.8345 9.44561C19.8142 8.71837 19.8599 7.98909 19.8203 7.26388C19.7959 6.81189 20.0448 6.85455 20.3474 6.82509C20.6978 6.79056 20.7425 6.94495 20.7232 7.22833C20.6267 8.64016 21.029 9.88033 21.9238 10.9935C22.5048 11.7157 22.5231 12.5659 22.1046 13.3825C21.676 14.2235 20.9569 14.6389 19.7065 14.642Z" fill="#C28F8F"/>
<path d="M11.1 8.6285C11.1254 9.11299 11.0645 9.68687 11.1569 10.2597C11.3245 11.2968 11.8303 12.1195 12.6733 12.738C13.1375 13.0793 13.1578 13.1931 12.8267 13.7162C12.3859 14.414 11.4017 14.7847 10.4571 14.609C9.56833 14.4434 8.83195 13.7233 8.64099 12.8386C8.48864 12.1357 8.61458 11.4816 9.06454 10.9291C9.93602 9.85954 10.3677 8.65593 10.2732 7.27457C10.2519 6.96275 10.2864 6.78906 10.6866 6.78906C11.0848 6.78906 11.1193 6.95869 11.1051 7.27254C11.0848 7.69507 11.1 8.1176 11.1 8.6285Z" fill="#C28F8F"/>
<path d="M17.0874 5.40804C17.0803 5.11552 16.6689 4.9977 16.7623 4.6615C17.4957 3.89667 18.293 3.18771 18.8537 2.27155C18.9725 2.07755 19.069 2.18623 19.1675 2.28576C20.1264 3.2517 20.6261 4.41976 20.7155 5.77268C20.7327 6.04082 20.5834 6.0784 20.3732 6.08247C19.454 6.09973 18.5916 5.90167 17.8288 5.37452C17.5536 5.18357 17.322 5.11653 17.0874 5.40804Z" fill="#C28F8F"/>
<path d="M20.3267 25.2004C20.3886 23.9481 20.605 22.7089 20.6862 21.4606C20.7431 20.5861 21.0539 19.7217 20.8325 18.832C22.0777 18.7324 22.1072 18.769 21.9721 19.9828C21.7964 21.5601 21.6136 23.1365 21.4846 24.718C21.447 25.174 21.2916 25.304 20.8772 25.2411C20.6954 25.2136 20.5105 25.2126 20.3267 25.2004Z" fill="#FBCBBC"/>
<path d="M19.3561 17.0703C19.4597 18.0616 19.4597 18.0616 18.5222 18.0616C16.3588 18.0616 14.1953 18.0616 12.0319 18.0616C11.6398 18.0616 11.3828 17.5904 11.5819 17.2399C11.6682 17.0876 11.7922 17.177 11.8917 17.2013C13.397 17.5792 14.9266 17.6615 16.4695 17.566C17.4476 17.506 18.4054 17.31 19.3561 17.0703Z" fill="#F7F9FA"/>
<path d="M16.1183 11.1539C15.8939 11.096 15.4337 11.3103 15.4368 10.8594C15.4388 10.3932 15.906 10.5709 16.1955 10.5313C16.2453 10.5242 16.2961 10.5282 16.3458 10.5313C16.5957 10.5445 16.9146 10.5171 16.9035 10.8705C16.8933 11.1925 16.5947 11.157 16.359 11.1539C16.293 11.1539 16.226 11.1539 16.1183 11.1539Z" fill="#C28F8F"/>
<path d="M6.70568 8.04536C5.70521 8.05551 4.70575 8.15912 3.72357 7.99457C2.10149 7.72236 0.885689 6.28616 0.791229 4.62548C0.696768 2.97496 1.71247 1.46867 3.26955 0.951678C4.85201 0.425543 6.61325 1.06848 7.51418 2.50266C8.38463 3.88605 8.20485 5.71432 7.08047 6.9098C6.58785 7.4339 6.58785 7.4339 6.70568 8.04536ZM2.90796 4.78901C3.14055 4.76768 3.27666 4.64478 3.26853 4.40507C3.26041 4.16435 3.11414 4.04551 2.8785 4.05567C2.66317 4.06583 2.54433 4.19482 2.54027 4.40812C2.53621 4.64783 2.66927 4.77174 2.90796 4.78901ZM4.05977 4.4071C4.07094 4.64376 4.18876 4.78596 4.42847 4.78495C4.66614 4.78291 4.79717 4.64579 4.79209 4.4071C4.78803 4.19279 4.66614 4.06786 4.45183 4.05669C4.21314 4.0445 4.08211 4.16943 4.05977 4.4071ZM6.31971 4.43859C6.31057 4.19482 6.1897 4.0577 5.95101 4.05465C5.74076 4.05262 5.60364 4.16435 5.5884 4.38171C5.57215 4.61634 5.68286 4.76768 5.92561 4.78291C6.16329 4.79713 6.29228 4.66814 6.31971 4.43859Z" fill="#79C8A5"/>
<path d="M15.6358 23.4669C14.8364 23.4537 14.2077 22.7996 14.2209 21.9931C14.2341 21.1917 14.8862 20.568 15.6967 20.5823C16.5052 20.5975 17.1258 21.2425 17.1096 22.054C17.0943 22.8605 16.4483 23.4801 15.6358 23.4669ZM15.6683 21.3461C15.3047 21.3461 15.002 21.6538 15.001 22.0225C15 22.3943 15.3006 22.696 15.6693 22.6949C16.0339 22.6939 16.3447 22.3841 16.3437 22.0215C16.3427 21.666 16.0228 21.3461 15.6683 21.3461Z" fill="#050505"/>
<path d="M2.90806 4.78875C2.66937 4.77148 2.53631 4.64655 2.54037 4.40786C2.54342 4.19456 2.66226 4.06557 2.8786 4.05541C3.11526 4.04424 3.26051 4.16307 3.26863 4.40481C3.27676 4.64452 3.14065 4.76742 2.90806 4.78875Z" fill="#050505"/>
<path d="M4.05957 4.40982C4.08293 4.17316 4.21294 4.04721 4.45163 4.0594C4.66595 4.06956 4.78885 4.19551 4.79189 4.40982C4.79596 4.64851 4.66493 4.78665 4.42827 4.78766C4.18856 4.78868 4.06973 4.64648 4.05957 4.40982Z" fill="#050505"/>
<path d="M6.32001 4.43865C6.2936 4.6682 6.16461 4.79821 5.92592 4.78298C5.68418 4.76774 5.57245 4.6164 5.58871 4.38177C5.60394 4.16441 5.74106 4.05268 5.95131 4.05471C6.19 4.05776 6.31087 4.19488 6.32001 4.43865Z" fill="#050505"/>
<path d="M15.6685 21.3477C16.023 21.3477 16.343 21.6686 16.344 22.0241C16.345 22.3867 16.0342 22.6965 15.6696 22.6975C15.3009 22.6985 15.0002 22.3969 15.0012 22.0251C15.0022 21.6544 15.3049 21.3466 15.6685 21.3477Z" fill="#FBCBBC"/>
</g>
<defs>
<clipPath id="clip0_936_10271">
<rect width="26" height="26" fill="white"/>
</clipPath>
</defs>
</svg>
