<svg width="21" height="26" viewBox="0 0 21 26" fill="none" xmlns="http://www.w3.org/2000/svg">
<g clip-path="url(#clip0_936_10297)">
<path d="M17.55 25.5993C17.2308 25.6003 16.9116 25.6004 16.5934 25.6014C16.4939 25.1545 16.1429 25.2266 15.8366 25.2266C11.2651 25.2246 6.69253 25.2266 2.121 25.2236C1.15041 25.2225 0.762572 24.8244 0.761578 23.8413C0.759589 21.8456 0.759589 19.8489 0.761578 17.8532C0.762572 16.9127 1.16632 16.5024 2.10111 16.4983C3.40982 16.4932 4.71853 16.5014 6.02724 16.4932C6.2868 16.4912 6.49762 16.5532 6.71242 16.7167C8.9609 18.428 11.7514 18.425 13.9958 16.7238C14.1271 16.6243 14.2425 16.4963 14.4274 16.4973C15.8674 16.5075 17.3074 16.4445 18.7464 16.5298C19.0745 17.0782 19.171 17.6704 19.1611 18.3132C19.1342 20.0134 19.1342 21.7146 19.1611 23.4137C19.171 24.0546 19.0994 24.6497 18.7514 25.1921C18.5554 25.2022 18.3595 25.2256 18.1646 25.2205C17.8742 25.2144 17.6415 25.2825 17.55 25.5993ZM8.35129 22.2082C8.72422 22.1432 9.13692 22.1564 9.23835 22.7881C9.27515 23.0176 9.4621 23.1781 9.72166 23.0816C9.99613 22.98 10.023 22.7718 9.92751 22.5068C9.50586 21.3368 9.09515 20.1637 8.67847 18.9917C8.59891 18.7682 8.45372 18.6057 8.2071 18.6128C7.98732 18.6179 7.85009 18.7601 7.77451 18.9703C7.34391 20.1728 6.90336 21.3713 6.4837 22.5768C6.3763 22.8866 6.59209 23.1578 6.86955 23.105C7.09728 23.0623 7.19275 22.8785 7.23352 22.6723C7.3091 22.2874 7.52788 22.1411 7.90279 22.2041C8.01616 22.2244 8.1345 22.2082 8.35129 22.2082ZM12.4753 18.6027C11.7852 18.5895 11.2074 19.0089 11.095 19.5797C10.9697 20.2135 11.2223 20.6339 11.9125 20.9396C12.1849 21.0605 12.4624 21.1722 12.7329 21.2971C12.9686 21.4058 13.1993 21.5592 13.1416 21.8588C13.0809 22.1767 12.8333 22.3219 12.5201 22.3412C12.1322 22.3656 11.812 22.2153 11.5346 21.9461C11.3526 21.7694 11.1378 21.7379 10.9667 21.936C10.7957 22.134 10.8603 22.3483 11.0373 22.52C11.4809 22.9496 12.0129 23.1608 12.6205 23.107C13.2769 23.0491 13.797 22.5728 13.8845 22.003C13.9799 21.3804 13.6846 20.897 13.0083 20.5821C12.7229 20.4491 12.4316 20.3293 12.1412 20.2094C11.9433 20.1271 11.7702 20.0164 11.8249 19.7676C11.8776 19.5249 12.0616 19.4172 12.2983 19.3918C12.6314 19.3553 12.9109 19.4853 13.1794 19.6671C13.3922 19.8113 13.6 19.7879 13.7353 19.5604C13.8596 19.3512 13.7681 19.1704 13.5891 19.0333C13.249 18.7723 12.8632 18.6342 12.4753 18.6027ZM3.23878 20.8665C3.23878 21.4576 3.24375 22.0487 3.23679 22.6388C3.2338 22.9546 3.38397 23.1151 3.68131 23.1212C4.16064 23.1304 4.63997 23.1334 5.1193 23.1192C5.35996 23.1121 5.54095 22.9861 5.52504 22.7119C5.51112 22.4722 5.34803 22.3575 5.12328 22.3493C4.84284 22.3392 4.56141 22.3504 4.27998 22.3422C4.17456 22.3392 4.05821 22.3778 3.99258 22.2224C3.77877 21.7115 4.04329 21.2778 4.56737 21.2525C4.88162 21.2372 5.38979 21.4211 5.39476 20.8939C5.39974 20.3242 4.8677 20.4978 4.54649 20.5171C4.09401 20.5446 3.96274 20.4034 3.96374 19.9352C3.96473 19.4883 4.07909 19.3218 4.51467 19.3898C4.69268 19.4172 4.87765 19.3929 5.05963 19.3939C5.32714 19.3959 5.52504 19.2943 5.52206 18.9947C5.52007 18.7154 5.31222 18.6281 5.07952 18.623C4.6171 18.6139 4.15368 18.6139 3.69126 18.622C3.36507 18.6281 3.22684 18.8099 3.2338 19.145C3.24773 19.7178 3.23878 20.2927 3.23878 20.8665ZM16.2393 20.1271C16.0176 19.7828 15.8406 19.4782 15.6347 19.1938C15.4458 18.9328 15.3205 18.425 14.874 18.7256C14.4553 19.0079 14.8143 19.3471 15.0012 19.5797C15.6934 20.442 16.0285 21.3936 15.8674 22.5139C15.8266 22.7982 15.8744 23.1019 16.2314 23.1029C16.5894 23.1039 16.6431 22.7942 16.6043 22.5139C16.4482 21.3723 16.7992 20.4004 17.5113 19.5381C17.553 19.4873 17.5848 19.4264 17.6216 19.3705C17.7708 19.141 17.8703 18.8921 17.5849 18.7154C17.3114 18.5458 17.1264 18.7266 16.9802 18.9632C16.7435 19.3441 16.4989 19.7199 16.2393 20.1271Z" fill="#F28895"/>
<path d="M17.5501 25.5996C17.6416 25.2827 17.8743 25.2147 18.1627 25.2218C18.3577 25.2269 18.5536 25.2035 18.7495 25.1934C19.7797 25.2909 20.2412 24.8745 20.2422 23.8395C20.2441 21.8357 20.2451 19.8319 20.2412 17.827C20.2392 16.8561 19.7151 16.4062 18.7445 16.5311C17.3055 16.4458 15.8655 16.5088 14.4256 16.4986C14.2406 16.4976 14.1252 16.6256 13.994 16.7251C11.7495 18.4263 8.95901 18.4283 6.71054 16.718C6.49673 16.5555 6.28591 16.4935 6.02536 16.4945C4.71665 16.5027 3.40794 16.4945 2.09923 16.4996C1.16444 16.5037 0.760689 16.914 0.759695 17.8545C0.757706 19.8502 0.757706 21.8469 0.759695 23.8426C0.760689 24.8257 1.14853 25.2248 2.11912 25.2248C6.69065 25.2269 11.2632 25.2248 15.8347 25.2279C16.141 25.2279 16.493 25.1558 16.5915 25.6027C16.5398 25.9134 16.3439 25.9998 16.0565 25.9998C11.3189 25.9947 6.58126 26.0028 1.84465 25.9906C0.777595 25.9856 0.0327452 25.1649 0.00987262 24.0091C-0.00902211 23.0626 0.00589478 22.115 0.00490032 21.1674C0.00490032 20.0675 0.000922486 18.9686 0.00589478 17.8687C0.012856 16.4874 0.74975 15.7369 2.09426 15.7348C3.26474 15.7328 4.43522 15.7348 5.61465 15.7348C4.1508 13.1653 3.88926 10.2454 3.04198 7.51641C2.79734 6.7293 3.08574 6.08438 3.61678 5.54001C4.25522 4.88594 4.9772 4.94993 5.52117 5.68727C6.05818 6.41649 6.60612 7.13962 7.10335 7.89626C7.36092 8.2893 7.48125 8.18977 7.70102 7.88102C8.28378 7.0604 8.89835 6.26313 9.48707 5.44657C9.67701 5.18352 9.87491 5.03422 10.1941 5.19977C10.3761 5.47602 10.2558 5.6954 10.0847 5.92391C9.43437 6.79024 8.79592 7.66571 8.14654 8.53305C7.67715 9.16071 7.24556 9.18102 6.67872 8.61227C6.11884 7.82313 5.56293 7.03196 4.99908 6.24688C4.62615 5.72891 4.43621 5.735 4.02152 6.25805C3.71921 6.56071 3.65954 6.92837 3.76296 7.32852C4.29202 9.36383 4.79223 11.4083 5.36504 13.4304C6.11884 16.0964 8.86056 17.7346 11.3944 17.0887C12.6107 16.8927 13.5962 16.266 14.348 15.3032C15.3047 14.0784 16.2046 12.8068 17.1176 11.5464C17.394 11.1656 17.3304 10.7085 17.0012 10.4079C16.6492 10.0859 16.2723 10.1042 15.8705 10.4597C15.4817 10.9746 15.0918 11.4885 14.707 12.0065C14.5717 12.1883 14.4285 12.365 14.1809 12.2695C13.9005 12.1619 13.9214 11.9212 13.983 11.6795C14.4614 11.0376 14.9387 10.3957 15.417 9.75485C15.6826 9.4004 15.6975 9.02563 15.419 8.69149C15.1396 8.35633 14.7806 8.22024 14.3659 8.47719C13.8378 8.93727 13.5176 9.56797 13.087 10.1073C12.9438 10.287 12.7907 10.4455 12.552 10.3358C12.2855 10.2139 12.2984 9.98133 12.3879 9.74165C12.8762 9.08657 13.3744 8.43758 13.8508 7.77235C14.1222 7.39251 14.0556 6.92837 13.7255 6.63485C13.3724 6.32102 12.9886 6.34336 12.5928 6.70188C12.3412 7.03196 12.0896 7.36102 11.838 7.6911C11.6958 7.87797 11.5585 8.10141 11.2791 7.96836C10.9778 7.82415 11.0285 7.57532 11.1428 7.32547C12.4217 5.58571 13.7066 3.85001 14.9765 2.10313C15.247 1.73141 15.1813 1.31297 14.8631 1.01133C14.5379 0.703599 14.161 0.700552 13.7583 1.00524C13.6509 1.13118 13.5365 1.25102 13.4381 1.38407C12.7578 2.29813 12.0766 3.21118 11.4054 4.13235C11.2174 4.39032 11.0265 4.55993 10.7063 4.36493C10.5541 4.1354 10.6019 3.93735 10.763 3.72204C11.5376 2.68915 12.2914 1.64102 13.0731 0.613208C13.6121 -0.0956978 14.5409 -0.200307 15.241 0.332896C15.9351 0.862037 16.1062 1.81571 15.599 2.53579C14.8751 3.56258 14.1232 4.56805 13.3535 5.62329C14.2595 5.89243 14.7975 6.44188 14.7746 7.42704C14.7706 7.60172 14.889 7.58547 15.0033 7.61594C15.8536 7.8404 16.2623 8.28829 16.3598 9.13633C16.3836 9.34149 16.4294 9.40446 16.6372 9.44305C17.9499 9.68782 18.4491 10.9898 17.6566 12.0877C16.7963 13.2791 15.9242 14.4623 14.9974 15.7328C16.0396 15.7328 16.9903 15.7328 17.941 15.7328C18.3716 15.7328 18.8022 15.7206 19.2328 15.7379C20.1099 15.7745 20.8567 16.4427 20.9522 17.3355C21.0168 17.9377 20.996 18.5502 20.9979 19.1585C21.0029 20.7145 21.0029 22.2704 20.9989 23.8253C20.995 25.2401 20.262 25.9886 18.8897 25.9916C18.6252 25.9927 18.3586 25.9795 18.0951 25.9947C17.7968 26.015 17.6208 25.8881 17.5501 25.5996Z" fill="#0A0808"/>
<path d="M6.67892 8.61383C7.24576 9.18258 7.67736 9.16226 8.14674 8.53461C8.79513 7.66726 9.43457 6.7918 10.0849 5.92547C10.256 5.69695 10.3773 5.47758 10.1943 5.20133C10.3654 4.92305 10.5354 4.64578 10.7065 4.3675C11.0267 4.5625 11.2176 4.39187 11.4056 4.13492C12.0768 3.21375 12.7581 2.3007 13.4383 1.38664C13.5367 1.25461 13.6511 1.13375 13.7585 1.00781C13.9643 1.09516 13.9613 1.27797 13.9862 1.46891C14.0906 2.27227 13.486 2.71711 13.1121 3.26352C12.3851 4.32484 11.5965 5.34148 10.8527 6.39062C10.5613 6.80094 10.6806 7.12492 11.1431 7.32805C11.0297 7.57789 10.978 7.8257 11.2793 7.97094C11.5587 8.105 11.696 7.88156 11.8382 7.69367C12.0888 7.36359 12.3414 7.03453 12.593 6.70445C12.8446 6.75422 12.8515 6.96141 12.8893 7.1625C12.9888 7.68148 12.6536 8.01156 12.3931 8.36805C11.8879 9.05969 11.8809 9.08508 12.3881 9.7432C12.2996 9.98289 12.2857 10.2145 12.5522 10.3373C12.7909 10.447 12.944 10.2886 13.0872 10.1088C13.5178 9.56953 13.838 8.93883 14.3661 8.47875C14.4029 8.69305 14.4437 8.90633 14.4775 9.12062C14.5749 9.73914 14.1115 10.0956 13.8351 10.5364C13.484 11.095 13.4949 11.2433 13.9822 11.68C13.9206 11.9217 13.8997 12.1624 14.1801 12.2701C14.4278 12.3645 14.571 12.1888 14.7062 12.007C15.0911 11.4891 15.4819 10.9752 15.8697 10.4602C16.2546 10.7507 16.2944 11.2778 15.9642 11.7298C15.3834 12.525 14.8136 13.3284 14.2169 14.1104C13.6024 14.9158 13.1121 15.8298 12.2628 16.4341C11.9685 16.6434 11.6274 16.7937 11.3946 17.0892C8.86077 17.7341 6.11904 16.0959 5.36524 13.4309C4.79343 11.4078 4.29222 9.36437 3.76317 7.32906C3.65875 6.92891 3.71941 6.56125 4.02173 6.25859C4.30415 6.81008 4.73078 7.26305 5.04503 7.79117C5.42391 8.42898 5.92313 8.77734 6.67892 8.61383Z" fill="#FDDDCD"/>
<path d="M8.63952 2.47642C8.6256 2.80751 8.32328 2.98017 8.06671 2.78415C7.63313 2.45205 7.23137 2.07626 6.82364 1.70861C6.68242 1.58165 6.68044 1.40798 6.77988 1.24955C6.88231 1.08705 7.06231 1.01798 7.20949 1.11447C7.72163 1.45064 8.17113 1.86908 8.59974 2.30884C8.63952 2.34947 8.63156 2.43681 8.63952 2.47642Z" fill="#0A0808"/>
<path d="M6.6371 4.15934C6.35368 4.19286 6.07026 4.17255 6.04043 3.812C6.01159 3.47481 6.28507 3.41387 6.54363 3.3895C6.90461 3.35598 7.26759 3.32958 7.62958 3.30622C7.87919 3.28997 8.06714 3.4027 8.08007 3.6627C8.09299 3.91864 7.92493 4.04966 7.67234 4.06895C7.32627 4.09536 6.98218 4.12989 6.6371 4.15934Z" fill="#0A0808"/>
<path d="M9.69839 1.45439C9.72225 1.73267 9.74413 2.04446 9.38911 2.08915C8.99232 2.13892 8.96547 1.80071 8.93961 1.51126C8.90779 1.15884 8.88492 0.806417 8.86602 0.45298C8.85409 0.22548 8.94459 0.0426672 9.18127 0.0152453C9.43883 -0.0142078 9.57905 0.143214 9.6059 0.398136C9.6417 0.749542 9.66855 1.10196 9.69839 1.45439Z" fill="#0A0808"/>
<path d="M18.7444 16.5321C19.715 16.4072 20.2401 16.8581 20.241 17.8281C20.244 19.8319 20.243 21.8357 20.242 23.8406C20.241 24.8755 19.7796 25.2929 18.7494 25.1944C19.0974 24.652 19.169 24.0569 19.1591 23.416C19.1322 21.7159 19.1322 20.0147 19.1591 18.3156C19.169 17.6727 19.0736 17.0806 18.7444 16.5321Z" fill="#E96F7E"/>
<path d="M8.35151 22.2077C8.13472 22.2077 8.01638 22.224 7.90301 22.2047C7.5281 22.1417 7.30932 22.287 7.23374 22.6729C7.19297 22.8791 7.09849 23.0629 6.86977 23.1056C6.59231 23.1574 6.37652 22.8872 6.48392 22.5774C6.90358 21.3719 7.34413 20.1724 7.77473 18.9709C7.85031 18.7607 7.98655 18.6185 8.20732 18.6134C8.45295 18.6074 8.59913 18.7688 8.67869 18.9923C9.09537 20.1643 9.50608 21.3374 9.92773 22.5074C10.0232 22.7724 9.99635 22.9806 9.72188 23.0822C9.46233 23.1787 9.27537 23.0182 9.23857 22.7887C9.13714 22.1559 8.72444 22.1427 8.35151 22.2077ZM8.22621 19.9764C8.01837 20.537 7.82246 20.9463 7.73694 21.4034C8.07903 21.4034 8.38334 21.4034 8.73339 21.4034C8.57029 20.9463 8.42113 20.5269 8.22621 19.9764Z" fill="#0A0808"/>
<path d="M12.4758 18.6019C12.8637 18.6334 13.2485 18.7715 13.5886 19.0315C13.7676 19.1676 13.8591 19.3494 13.7348 19.5586C13.5996 19.7861 13.3907 19.8094 13.1789 19.6652C12.9104 19.4824 12.631 19.3534 12.2978 19.39C12.0612 19.4154 11.8772 19.5241 11.8245 19.7658C11.7698 20.0146 11.9428 20.1253 12.1407 20.2076C12.4311 20.3274 12.7225 20.4483 13.0079 20.5803C13.6851 20.8951 13.9795 21.3796 13.884 22.0012C13.7965 22.5719 13.2764 23.0473 12.62 23.1051C12.0124 23.159 11.4804 22.9477 11.0369 22.5181C10.8598 22.3465 10.7952 22.1322 10.9662 21.9341C11.1383 21.7351 11.3521 21.7676 11.5341 21.9443C11.8115 22.2134 12.1318 22.3637 12.5196 22.3394C12.8319 22.3201 13.0795 22.1748 13.1411 21.8569C13.1988 21.5584 12.9681 21.405 12.7324 21.2953C12.4619 21.1704 12.1855 21.0587 11.912 20.9378C11.2218 20.6321 10.9692 20.2116 11.0945 19.5779C11.2089 19.0081 11.7857 18.5887 12.4758 18.6019Z" fill="#0A0808"/>
<path d="M3.23907 20.8685C3.23907 20.2946 3.24802 19.7198 3.23609 19.147C3.22913 18.8118 3.36736 18.63 3.69354 18.6239C4.15596 18.6148 4.61938 18.6148 5.08181 18.6249C5.31451 18.63 5.52235 18.7174 5.52434 18.9967C5.52732 19.2963 5.32943 19.3978 5.06192 19.3958C4.87993 19.3948 4.69496 19.4192 4.51695 19.3917C4.08138 19.3237 3.96702 19.4892 3.96602 19.9371C3.96503 20.4053 4.0953 20.5465 4.54878 20.5191C4.86899 20.4998 5.40103 20.3261 5.39705 20.8959C5.39307 21.423 4.8849 21.2392 4.56966 21.2544C4.04458 21.2798 3.78006 21.7135 3.99486 22.2243C4.0605 22.3807 4.17685 22.3421 4.28226 22.3442C4.5627 22.3513 4.84413 22.3411 5.12556 22.3513C5.34932 22.3594 5.5134 22.4742 5.52732 22.7138C5.54324 22.9881 5.36224 23.115 5.12158 23.1211C4.64226 23.1353 4.16293 23.1323 3.6836 23.1231C3.38625 23.1181 3.23509 22.9566 3.23907 22.6407C3.24305 22.0506 3.23907 21.4595 3.23907 20.8685Z" fill="#0A0808"/>
<path d="M16.2396 20.1265C16.4991 19.7193 16.7437 19.3435 16.9804 18.9626C17.1266 18.726 17.3116 18.5462 17.5851 18.7148C17.8705 18.8915 17.771 19.1414 17.6219 19.3699C17.5851 19.4258 17.5542 19.4867 17.5115 19.5375C16.7994 20.3998 16.4484 21.3707 16.6045 22.5133C16.6433 22.7936 16.5896 23.1033 16.2316 23.1023C15.8746 23.1013 15.8259 22.7976 15.8676 22.5133C16.0287 21.393 15.6936 20.4414 15.0015 19.5791C14.8145 19.3465 14.4565 19.0063 14.8742 18.725C15.3207 18.4244 15.445 18.9332 15.6349 19.1932C15.8398 19.4776 16.0178 19.7822 16.2396 20.1265Z" fill="#0A0808"/>
<path d="M11.3933 17.0896C11.627 16.7951 11.9671 16.6448 12.2615 16.4346C13.1107 15.8303 13.601 14.9162 14.2156 14.1108C14.8133 13.3288 15.3821 12.5254 15.9629 11.7302C16.293 11.2782 16.2532 10.7511 15.8684 10.4607C16.2701 10.1042 16.647 10.0869 16.9991 10.4089C17.3282 10.7095 17.3919 11.1665 17.1154 11.5474C16.2025 12.8078 15.3015 14.0793 14.3459 15.3042C13.595 16.267 12.6095 16.8936 11.3933 17.0896Z" fill="#F9CABB"/>
<path d="M11.1432 7.32772C10.6807 7.1246 10.5614 6.80062 10.8528 6.3903C11.5966 5.34116 12.3842 4.32351 13.1122 3.26319C13.4861 2.7178 14.0917 2.27194 13.9863 1.46858C13.9615 1.27663 13.9644 1.09483 13.7586 1.00749C14.1613 0.703819 14.5392 0.70585 14.8634 1.01358C15.1817 1.31523 15.2473 1.73366 14.9768 2.10538C13.7069 3.85226 12.422 5.58796 11.1432 7.32772Z" fill="#F9CABB"/>
<path d="M12.388 9.74312C11.8818 9.08398 11.8878 9.05961 12.393 8.36797C12.6535 8.01148 12.9877 7.6814 12.8892 7.16242C12.8504 6.96133 12.8445 6.75414 12.5929 6.70437C12.9887 6.34687 13.3715 6.32351 13.7256 6.63734C14.0557 6.92984 14.1224 7.395 13.8509 7.77484C13.3745 8.43906 12.8763 9.08804 12.388 9.74312Z" fill="#F9CABB"/>
<path d="M13.9821 11.6822C13.4949 11.2445 13.4839 11.0972 13.835 10.5386C14.1114 10.0978 14.5748 9.74033 14.4774 9.12283C14.4436 8.90853 14.4038 8.69525 14.366 8.48095C14.7807 8.22501 15.1397 8.36009 15.4191 8.69525C15.6976 9.02939 15.6817 9.40314 15.4171 9.75861C14.9378 10.3985 14.4605 11.0403 13.9821 11.6822Z" fill="#F9CABB"/>
<path d="M6.67917 8.61349C5.92338 8.77701 5.42416 8.42967 5.04527 7.79185C4.73102 7.26373 4.3044 6.81076 4.02197 6.25927C4.43666 5.73623 4.6266 5.73013 4.99953 6.2481C5.56338 7.03318 6.11929 7.82435 6.67917 8.61349Z" fill="#F9CABB"/>
<path d="M8.22586 19.9766C8.42177 20.527 8.56995 20.9465 8.73204 21.4035C8.38199 21.4035 8.07769 21.4035 7.7356 21.4035C7.82211 20.9455 8.01802 20.5362 8.22586 19.9766Z" fill="#F28895"/>
</g>
<defs>
<clipPath id="clip0_936_10297">
<rect width="21" height="26" fill="white"/>
</clipPath>
</defs>
</svg>
