<svg width="24" height="22" viewBox="0 0 24 22" fill="none" xmlns="http://www.w3.org/2000/svg">
<path d="M9.17321 0.000350495C11.7241 0.0424227 13.951 0.896488 15.8164 2.69297C15.9784 2.84864 16.2485 2.93699 16.4811 2.97065C19.9211 3.45868 22.8958 6.07978 23.7434 9.43293C24.3125 11.6754 23.922 13.7832 22.7006 15.7311C22.5385 15.9878 22.5219 16.1939 22.6133 16.4716C23.0163 17.7127 23.4027 18.9623 23.8015 20.2034C23.9179 20.5568 23.9636 20.8892 23.652 21.1585C23.3237 21.4403 22.9914 21.3309 22.6549 21.1542C21.45 20.5274 20.2452 19.9005 19.0279 19.2989C18.8493 19.2105 18.5792 19.2021 18.3881 19.2652C14.5991 20.5484 11.1799 19.9846 8.18442 17.2163C8.04732 17.0859 7.84374 17.0101 7.65678 16.9554C6.97128 16.7577 6.28161 16.5684 5.5878 16.4085C5.40084 16.3664 5.15572 16.3622 4.98954 16.4464C3.78886 17.0396 2.59649 17.658 1.40412 18.2765C1.05929 18.4574 0.714462 18.6131 0.361321 18.3228C-0.0167466 18.0115 0.107891 17.6286 0.232529 17.2415C0.623061 16.0299 1.01359 14.814 1.3792 13.5939C1.43321 13.413 1.42905 13.1437 1.3335 12.9964C-1.39192 8.75978 0.199292 3.32826 4.83997 1.00167C6.20268 0.315892 7.64847 -0.0122712 9.17321 0.000350495ZM21.8613 19.1432C21.8946 19.118 21.9237 19.0927 21.9569 19.0717C21.6868 18.205 21.4459 17.3299 21.1384 16.4758C20.9681 16.0046 21.0387 15.6554 21.3254 15.2557C23.0662 12.7861 22.9955 9.63909 21.1675 7.28725C18.2427 3.526 12.4013 3.22308 9.06934 6.66879C6.29823 9.5297 6.51012 14.044 9.57621 16.5642C12.1521 18.6804 15.0353 19.017 18.0973 17.8263C18.5792 17.637 18.9656 17.6286 19.4143 17.881C20.2161 18.3228 21.0429 18.7225 21.8613 19.1432ZM6.70538 15.2978C5.33852 12.4748 5.34683 9.78213 6.90065 7.19469C8.44616 4.62829 10.8267 3.31564 13.8014 2.87388C13.5937 2.73084 13.4607 2.62986 13.3153 2.54572C11.238 1.35928 9.04026 1.09002 6.7677 1.76738C1.81127 3.24412 -0.166312 8.67143 2.78345 12.6094C2.9247 12.7987 2.9621 13.1563 2.89978 13.3919C2.67958 14.246 2.39292 15.079 2.13118 15.9205C2.09794 16.0299 2.08548 16.1434 2.04393 16.3412C2.95794 15.8742 3.80132 15.4661 4.61978 15.0117C5.03939 14.7803 5.41746 14.7172 5.84954 14.9612C6.07388 15.0874 6.33562 15.1548 6.70538 15.2978Z" fill="#DA126A"/>
<path d="M12.6876 11.3768C12.6876 11.7723 12.3635 12.1005 11.9771 12.0879C11.6115 12.0752 11.3082 11.7555 11.3041 11.381C11.3041 10.9856 11.6323 10.6574 12.0145 10.67C12.3843 10.6827 12.6834 10.9982 12.6876 11.3768Z" fill="#DA126A"/>
<path d="M15.4964 11.3642C15.5047 11.7639 15.189 12.0921 14.7985 12.0921C14.4329 12.0879 14.1213 11.7765 14.113 11.3979C14.1046 11.0024 14.4245 10.67 14.8109 10.6742C15.1807 10.6742 15.4881 10.9856 15.4964 11.3642Z" fill="#DA126A"/>
<path d="M18.305 11.3642C18.3133 11.7639 17.9975 12.0963 17.607 12.0921C17.2414 12.0879 16.9298 11.7765 16.9215 11.3979C16.9132 11.0024 17.2331 10.67 17.6195 10.6742C17.9934 10.6742 18.2967 10.9856 18.305 11.3642Z" fill="#DA126A"/>
</svg>
