<svg width="18" height="18" viewBox="0 0 18 18" fill="none" xmlns="http://www.w3.org/2000/svg">
<path d="M4.33662 18C4.21447 18 4.09231 17.9368 3.96372 17.8068C3.25473 17.089 2.53113 16.3606 1.8315 15.6568C1.29611 15.1181 0.761299 14.58 0.227075 14.0402C-0.0751061 13.7351 -0.0756906 13.5589 0.225322 13.2544C0.346896 13.1309 0.46847 13.0067 0.589459 12.8826C0.958272 12.5038 1.33994 12.1121 1.74149 11.7549C1.8917 11.6214 2.08926 11.5453 2.28039 11.4715C2.36923 11.437 2.46158 11.4018 2.54633 11.3614C2.5738 11.348 2.60478 11.3357 2.63517 11.3234C2.70999 11.2935 2.78714 11.2625 2.81461 11.2168C3.59608 9.92516 5.03684 9.15404 6.66815 9.15404C7.19069 9.15404 7.70036 9.23425 8.18198 9.39234C8.38071 9.45733 8.59756 9.49305 8.80972 9.49539C9.43221 9.50125 10.0068 9.50417 10.5661 9.50417C11.0764 9.50417 11.5761 9.50183 12.0519 9.49656H12.101C12.4756 9.49656 13.0058 9.53872 13.3506 9.89354C13.5622 9.69505 13.7715 9.50008 13.9795 9.30568C14.4956 8.82439 14.9825 8.37003 15.4712 7.89869C15.7827 7.59832 16.1784 7.43262 16.5852 7.43262C16.9774 7.43262 17.3409 7.58895 17.6081 7.87234C18.0803 8.37296 18.1353 9.21786 17.7279 9.71672C16.6483 11.0417 15.5875 12.3351 14.4758 13.5963C13.9462 14.1971 13.18 14.5045 12.1986 14.5092L11.7427 14.5115C11.1185 14.5144 10.4726 14.518 9.83784 14.518C9.04878 14.518 8.39123 14.5133 7.76816 14.5027H7.74186C7.32863 14.5027 6.99898 14.669 6.67283 15.0414C6.63075 15.0894 6.61496 15.1983 6.62432 15.2756C6.66874 15.6515 6.55593 15.9765 6.28824 16.2423C6.08717 16.442 5.88552 16.6404 5.68387 16.8389C5.36065 17.1569 5.02632 17.4859 4.70076 17.8132C4.57626 17.9391 4.45703 18 4.33662 18ZM1.03718 13.6877C1.07459 13.7304 1.10965 13.7714 1.14648 13.8077C2.04075 14.6924 2.93619 15.5766 3.86143 16.4906L4.40793 17.0304L4.72823 16.6949C5.04619 16.3617 5.37117 16.0216 5.69673 15.6814C5.85805 15.5133 5.86273 15.364 5.71134 15.2118L5.38578 14.8851C4.54061 14.0355 3.66621 13.1572 2.79299 12.3082C2.74681 12.2631 2.61881 12.2257 2.51302 12.2257C2.45632 12.2257 2.42943 12.2368 2.423 12.2426C2.04776 12.5916 1.68245 12.9698 1.32884 13.3358C1.22421 13.4441 1.11959 13.5524 1.0138 13.6613C1.02198 13.6701 1.02958 13.6789 1.03718 13.6877ZM6.63192 9.98079C5.2911 9.98079 4.26006 10.5212 3.56685 11.5874C3.516 11.6653 3.51132 11.8334 3.53996 11.8632C4.22499 12.5735 4.93456 13.2872 5.62016 13.9775L6.08074 14.4412C6.09126 14.4336 6.10178 14.4266 6.11172 14.4202C6.14854 14.3944 6.17543 14.3763 6.1953 14.3546C6.61146 13.9008 7.13341 13.6889 7.8383 13.6889C7.85876 13.6889 7.8798 13.6889 7.90026 13.6894C8.47131 13.6994 9.07567 13.7041 9.80219 13.7041C10.3656 13.7041 10.9384 13.7012 11.4925 13.6988L12.1892 13.6953C12.9578 13.6924 13.5692 13.4295 14.0058 12.9148C14.8656 11.9025 15.7295 10.8649 16.5653 9.86134L16.9645 9.3818C17.265 9.02112 17.2726 8.66571 16.9862 8.40692C16.8704 8.30211 16.7313 8.24707 16.5829 8.24707C16.3876 8.24707 16.186 8.3431 16.0153 8.51758C15.3963 9.14935 14.6669 9.89647 13.9486 10.6465C13.8673 10.7314 13.8083 10.845 13.7983 10.9358C13.6896 11.9294 13.1537 12.4142 12.16 12.4177C11.8339 12.4189 11.5071 12.4195 11.181 12.4195C10.7701 12.4195 10.3592 12.4189 9.9489 12.4183L9.71802 12.4177C9.69581 12.4177 9.67302 12.4189 9.64964 12.42C9.62333 12.4218 9.59703 12.423 9.57132 12.423C9.52105 12.423 9.45734 12.4183 9.41 12.3802C9.27498 12.2719 9.12067 12.1302 9.12418 11.9926C9.12827 11.8585 9.28258 11.7315 9.43338 11.6255C9.47838 11.5939 9.53508 11.5898 9.57365 11.5898C9.60229 11.5898 9.63269 11.5921 9.6625 11.5945C9.6888 11.5968 9.71568 11.5992 9.74023 11.5992H9.8998C10.1178 11.5992 10.3358 11.5997 10.5538 11.5997C10.7719 11.6003 10.9899 11.6003 11.2079 11.6003C11.6164 11.6003 11.9484 11.5992 12.2518 11.5962C12.4973 11.5939 12.6937 11.523 12.8193 11.3907C12.9286 11.2754 12.9824 11.1143 12.9748 10.9241C12.9596 10.5435 12.6948 10.3245 12.2494 10.3221C11.8327 10.3198 11.4154 10.3198 10.9986 10.3198H10.2178C9.72211 10.3198 9.19023 10.3192 8.65659 10.3151C8.50345 10.3139 8.35149 10.2812 8.20419 10.2495C8.1586 10.2396 8.11301 10.2302 8.06801 10.2214C7.93182 10.1951 7.79505 10.1617 7.66237 10.1295C7.39701 10.0651 7.12289 9.99835 6.85402 9.98664C6.77804 9.98254 6.70381 9.98079 6.63192 9.98079Z" fill="#DA126A"/>
<path d="M13.3465 9.97723C14.0882 9.28105 14.8077 8.62 15.5103 7.94139C16.1146 7.35821 17.0194 7.33596 17.5642 7.91328C18.0019 8.3776 18.0855 9.18502 17.6816 9.68096C16.6161 10.9884 15.5459 12.2941 14.4313 13.5588C13.8585 14.2088 13.056 14.4476 12.198 14.4517C10.7215 14.4588 9.24512 14.4699 7.76928 14.4447C7.26955 14.4365 6.92879 14.6608 6.62894 15.0033C6.57283 15.0671 6.5553 15.1918 6.5664 15.2832C6.60966 15.645 6.50211 15.9483 6.24727 16.2013C5.71889 16.7259 5.18409 17.2441 4.6598 17.7722C4.43068 18.0029 4.23254 17.9947 4.00575 17.7652C2.76313 16.5069 1.51349 15.2551 0.26911 13.9986C-0.0108607 13.7163 -0.00910725 13.5752 0.267356 13.2954C0.766511 12.7906 1.25105 12.2689 1.78002 11.7982C1.99102 11.6108 2.30547 11.5411 2.57083 11.4141C2.67312 11.3649 2.81281 11.3315 2.86425 11.2472C3.9888 9.3882 6.32267 8.84367 8.16382 9.44851C8.36897 9.51584 8.59283 9.55214 8.80909 9.55448C9.88981 9.56502 10.9711 9.56737 12.0524 9.55566C12.5715 9.55039 13.0478 9.63236 13.3465 9.97723ZM6.07368 14.5173C6.14791 14.4623 6.19993 14.4342 6.23734 14.3932C6.68564 13.9037 7.24091 13.7357 7.89787 13.7474C9.32753 13.772 10.7584 13.7591 12.1886 13.7532C12.9186 13.7503 13.5668 13.5208 14.0496 12.9522C15.0438 11.7812 16.0252 10.599 17.0089 9.41923C17.3304 9.03337 17.331 8.64049 17.0247 8.36296C16.7289 8.09538 16.3058 8.13636 15.9732 8.47596C15.2811 9.18268 14.5903 9.89057 13.9064 10.6055C13.8252 10.6904 13.7527 10.8151 13.7404 10.9287C13.6352 11.8919 13.1331 12.355 12.16 12.3585C11.3458 12.3615 10.5322 12.3597 9.71797 12.3585C9.62562 12.3585 9.5058 12.3819 9.44619 12.3339C9.3328 12.2432 9.17908 12.1073 9.18258 11.9937C9.1855 11.8819 9.34858 11.756 9.46723 11.6729C9.53094 11.6284 9.64783 11.6577 9.74077 11.6571C10.5778 11.6565 11.4153 11.6623 12.2523 11.6541C12.7591 11.6495 13.0513 11.3655 13.0332 10.9205C13.0168 10.5159 12.7304 10.2647 12.2494 10.2624C11.0518 10.2565 9.85416 10.2641 8.65654 10.2553C8.46366 10.2542 8.27019 10.1997 8.07848 10.1623C7.67051 10.0826 7.26545 9.94327 6.85514 9.92629C5.46055 9.86774 4.30326 10.3473 3.5177 11.5546C3.46042 11.6424 3.44114 11.8444 3.49783 11.903C4.34476 12.7813 5.20747 13.6443 6.07368 14.5173ZM4.40905 17.1135C4.83982 16.6627 5.28871 16.1919 5.73877 15.7217C5.91236 15.5408 5.93399 15.3529 5.75221 15.1702C4.78371 14.1976 3.81755 13.2222 2.83327 12.2654C2.74092 12.1758 2.45569 12.1313 2.38321 12.1993C1.88464 12.663 1.4188 13.1619 0.933675 13.659C0.997384 13.7298 1.04765 13.7925 1.10493 13.8492C2.18799 14.9202 3.27163 15.9905 4.40905 17.1135Z" fill="#DA126A"/>
<path d="M10.4692 7.79732C9.43119 7.79732 8.45568 7.39566 7.72156 6.66611C6.98744 5.93655 6.57713 4.9605 6.56661 3.91828C6.55609 2.89479 6.95646 1.91932 7.69292 1.17162C8.43464 0.41923 9.41307 0.00292758 10.447 0H10.4581C11.5026 0 12.4863 0.406934 13.2292 1.14527C13.9721 1.88419 14.3807 2.86318 14.3795 3.90188C14.3777 6.04312 12.6289 7.79088 10.4815 7.79732H10.4692ZM10.4874 0.814453C8.77715 0.814453 7.38431 2.19861 7.38256 3.89954C7.38139 5.58407 8.75435 6.96589 10.4441 6.97994H10.471C12.18 6.97994 13.5378 5.63677 13.563 3.92179C13.5746 3.11963 13.2625 2.35085 12.6833 1.75655C12.0994 1.15698 11.3308 0.822651 10.5183 0.814453H10.4874Z" fill="#DA126A"/>
<path d="M10.482 7.73883C8.36327 7.74527 6.64779 6.04552 6.62616 3.91775C6.60512 1.82687 8.35041 0.0644637 10.4487 0.0586086C12.5804 0.0527534 14.3239 1.78295 14.3221 3.90194C14.3198 6.01741 12.6043 7.73239 10.482 7.73883ZM10.4452 7.03855C12.1911 7.05319 13.5974 5.6743 13.6231 3.92302C13.6476 2.22561 12.225 0.772939 10.5206 0.755959C8.77007 0.738393 7.32697 2.15827 7.32521 3.8996C7.32405 5.62277 8.7163 7.0245 10.4452 7.03855Z" fill="#DA126A"/>
<path d="M7.99884 12.3392C7.88545 12.3392 7.78374 12.2929 7.72004 12.2115C7.65866 12.1343 7.63879 12.033 7.66392 11.927C7.69899 11.7777 7.88603 11.5727 8.02865 11.5669H8.03683C8.1473 11.5669 8.25017 11.6506 8.34895 11.7314C8.38986 11.7648 8.42902 11.7964 8.4676 11.8222L8.49507 11.8403L8.48747 12.0517L8.46409 12.0687C8.42727 12.095 8.39103 12.1266 8.35245 12.1594C8.26186 12.2385 8.16776 12.3199 8.0567 12.3351C8.03741 12.338 8.01813 12.3392 7.99884 12.3392Z" fill="#DA126A"/>
<path d="M8.43094 12.0206C8.43269 11.9708 8.43445 11.9204 8.4362 11.8707C8.30118 11.7817 8.16324 11.6207 8.03173 11.6253C7.91951 11.6294 7.75235 11.811 7.72195 11.9404C7.67052 12.157 7.84586 12.3051 8.04985 12.277C8.18545 12.2583 8.3041 12.1107 8.43094 12.0206Z" fill="#DA126A"/>
<path d="M7.99884 12.3392C7.88545 12.3392 7.78374 12.2929 7.72004 12.2115C7.65866 12.1343 7.63879 12.033 7.66392 11.927C7.69899 11.7777 7.88603 11.5727 8.02865 11.5669H8.03683C8.1473 11.5669 8.25017 11.6506 8.34895 11.7314C8.38986 11.7648 8.42902 11.7964 8.4676 11.8222L8.49507 11.8403L8.48747 12.0517L8.46409 12.0687C8.42727 12.095 8.39103 12.1266 8.35245 12.1594C8.26186 12.2385 8.16776 12.3199 8.0567 12.3351C8.03741 12.338 8.01813 12.3392 7.99884 12.3392Z" fill="#DA126A"/>
<path d="M8.43094 12.0206C8.30469 12.1108 8.18604 12.2583 8.04985 12.277C7.84586 12.3052 7.67052 12.157 7.72195 11.9404C7.75235 11.811 7.9201 11.6301 8.03173 11.6254C8.16324 11.6201 8.30118 11.7817 8.4362 11.8707C8.43445 11.9211 8.43269 11.9708 8.43094 12.0206Z" fill="#DA126A"/>
<path d="M10.3982 6.39363C10.2749 6.39129 10.1773 6.35264 10.1083 6.27828C10.0329 6.1969 9.99784 6.07687 10.006 5.93166C10.0183 5.71736 9.94874 5.59967 9.7506 5.49603C9.6074 5.42167 9.46654 5.28935 9.35432 5.12365C9.27132 5.00127 9.25846 4.86485 9.31866 4.7495C9.39231 4.60956 9.56415 4.52583 9.77749 4.52583H9.79678L9.8675 4.57853C9.92945 4.62478 10.0154 4.68861 10.0995 4.75477C10.2199 4.84904 10.3152 4.89237 10.3994 4.89237C10.4648 4.89237 10.525 4.86485 10.5835 4.80805C10.6484 4.74482 10.6875 4.59024 10.663 4.54047C10.611 4.43449 10.4777 4.32676 10.3889 4.31797C9.82717 4.26469 9.47647 3.98482 9.3473 3.48596C9.21404 2.97187 9.39582 2.53625 9.87334 2.22709C9.93705 2.18552 9.98147 2.04207 9.99199 1.92145C10.0078 1.74112 10.0376 1.40503 10.4064 1.40503C10.5332 1.40561 10.6326 1.44426 10.7022 1.51979C10.7863 1.61113 10.8237 1.754 10.8103 1.93375C10.7974 2.11058 10.857 2.20777 11.023 2.28096C11.1826 2.35122 11.2703 2.42149 11.2977 2.50287C11.3837 2.75406 11.393 2.92269 11.3258 3.01696C11.2609 3.10888 11.0978 3.12059 10.9634 3.12059C10.9161 3.12059 10.8699 3.11884 10.829 3.11767C10.7682 3.11532 10.7191 3.07258 10.6758 3.03452C10.6472 3.00934 10.6145 2.98065 10.5923 2.97773C10.5309 2.97012 10.4783 2.9666 10.4321 2.9666C10.3386 2.9666 10.2667 2.98124 10.2188 3.0111C10.1726 3.03921 10.1253 3.20022 10.1527 3.27224C10.1849 3.35773 10.3094 3.43326 10.414 3.48947C10.4572 3.51289 10.5139 3.51992 10.5741 3.52694C10.6174 3.53221 10.6618 3.53807 10.7051 3.54978C11.1218 3.66454 11.3883 3.94383 11.476 4.35662C11.576 4.8262 11.4374 5.21089 11.0751 5.46793C10.8874 5.60143 10.7887 5.71736 10.8044 5.94571C10.8144 6.08389 10.7799 6.19924 10.7051 6.27945C10.6355 6.3544 10.5326 6.39363 10.4087 6.39363H10.3982Z" fill="#DA126A"/>
<path d="M9.7749 4.58482C9.83218 4.62756 9.9479 4.71246 10.0613 4.80087C10.2396 4.94023 10.436 5.03098 10.6218 4.85064C10.6966 4.77745 10.7527 4.59594 10.713 4.51514C10.6569 4.40155 10.5102 4.27157 10.3915 4.26044C9.87893 4.21184 9.52824 3.963 9.40141 3.47234C9.27106 2.96762 9.45518 2.56713 9.90231 2.2773C9.99116 2.21992 10.0367 2.05012 10.0473 1.92774C10.0689 1.68475 10.1197 1.46402 10.405 1.4646C10.6908 1.46519 10.7674 1.6871 10.7492 1.93067C10.734 2.13677 10.8135 2.25505 10.9971 2.33585C11.09 2.37684 11.2122 2.44124 11.2402 2.52321C11.2905 2.67076 11.346 2.88565 11.2759 2.9846C11.2127 3.0736 10.983 3.06599 10.8287 3.06013C10.7498 3.05721 10.6785 2.93073 10.5967 2.92078C10.4599 2.90439 10.2928 2.89677 10.1858 2.96235C10.1104 3.00802 10.0607 3.20241 10.0958 3.29434C10.1361 3.39973 10.2723 3.48229 10.3839 3.54201C10.4716 3.58886 10.5873 3.58007 10.6873 3.60759C11.0806 3.71591 11.332 3.9712 11.4167 4.36993C11.5067 4.79268 11.3957 5.16799 11.0391 5.42152C10.8422 5.56205 10.7264 5.69437 10.744 5.95141C10.7592 6.17215 10.6499 6.34137 10.3968 6.33668C10.1414 6.332 10.0496 6.154 10.0619 5.93678C10.0753 5.69554 9.9894 5.55795 9.7749 5.44611C9.6276 5.36941 9.49492 5.2324 9.39965 5.09246C9.23775 4.8524 9.39848 4.5854 9.7749 4.58482Z" fill="#DA126A"/>
</svg>
