<svg width="19" height="20" viewBox="0 0 19 20" fill="none" xmlns="http://www.w3.org/2000/svg">
<path d="M18.3892 10.4065C18.3892 11.8044 18.3759 13.2023 18.3971 14.6003C18.405 15.0995 18.2306 15.3935 17.7997 15.6154C15.0772 17.0217 12.3652 18.4418 9.65584 19.873C9.33336 20.0422 9.06904 20.0422 8.74656 19.873C6.03723 18.4418 3.32525 17.0161 0.602696 15.6127C0.166559 15.3908 3.35767e-05 15.0968 0.00267683 14.6003C0.0158931 11.7656 0.0106066 8.9309 3.35766e-05 6.09898C-0.00260968 5.6857 0.150699 5.43885 0.499609 5.25578C3.23538 3.83567 5.96586 2.40723 8.69105 0.967692C9.06904 0.767988 9.38359 0.801272 9.75364 0.998203C12.4471 2.42387 15.1459 3.83289 17.8526 5.2336C18.2438 5.43607 18.4077 5.69957 18.3997 6.16C18.3786 7.57457 18.3918 8.98914 18.3892 10.4065C18.3918 10.4065 18.3918 10.4065 18.3892 10.4065ZM8.56682 18.3752C8.58532 18.2366 8.60383 18.1672 8.60383 18.0979C8.60647 15.7763 8.6144 13.4548 8.59061 11.136C8.58797 10.9529 8.41087 10.695 8.24699 10.6034C7.1844 10.0182 6.10067 9.46899 5.02486 8.90871C3.77724 8.25967 2.52963 7.61063 1.23708 6.9394C1.21593 7.08918 1.19214 7.17794 1.19214 7.26392C1.1895 9.56607 1.18157 11.8682 1.208 14.1704C1.21064 14.3617 1.42739 14.6252 1.60978 14.7223C2.9314 15.4407 4.27153 16.1258 5.60638 16.822C6.57909 17.3323 7.55181 17.8427 8.56682 18.3752ZM17.168 6.93386C14.7626 8.18755 12.4313 9.3941 10.1158 10.6312C9.95189 10.7171 9.81179 11.0306 9.80915 11.2386C9.78536 12.9167 9.79593 14.5975 9.79593 16.2783C9.79593 16.9523 9.79593 17.6264 9.79593 18.3198C9.89373 18.3059 9.95189 18.3114 9.99418 18.2865C12.307 17.0772 14.6252 15.8734 16.9274 14.6447C17.0702 14.5698 17.197 14.3007 17.1997 14.1204C17.2182 11.8543 17.2129 9.59103 17.2103 7.32494C17.2076 7.21954 17.1865 7.11414 17.168 6.93386ZM6.32534 3.61655C6.38349 3.69698 6.39935 3.73581 6.42579 3.74968C8.68841 4.93681 10.9537 6.12394 13.2216 7.30275C13.3405 7.36377 13.5203 7.41647 13.6234 7.36655C14.5406 6.90889 15.4446 6.42905 16.3671 5.9492C16.3036 5.86599 16.2878 5.82716 16.2613 5.81329C13.9987 4.62339 11.7361 3.43348 9.46817 2.2519C9.35187 2.19088 9.16948 2.14095 9.06904 2.19088C8.14919 2.65131 7.24519 3.13393 6.32534 3.61655ZM12.1484 8.14595C10.0708 7.06144 8.08311 6.09343 6.16675 4.98951C5.24689 4.45974 4.48828 4.37931 3.62129 5.01448C3.14022 5.36673 2.57192 5.58863 1.96133 5.91592C4.37462 7.16962 6.67161 8.36507 8.97388 9.54943C9.0849 9.60767 9.262 9.63818 9.36508 9.58826C10.2664 9.13337 11.1572 8.66185 12.1484 8.14595Z" fill="#DA126A"/>
</svg>
