<svg width="21" height="18" viewBox="0 0 21 18" fill="none" xmlns="http://www.w3.org/2000/svg">
<g clip-path="url(#clip0_1966_1826)">
<path d="M13.6139 18C9.36865 18 5.12417 17.9992 0.878889 17.9968C0.124442 17.9968 0.00153104 17.8768 0.00153104 17.1407C-0.000894832 12.3988 -8.62068e-05 7.67435 0.00153104 3.67882C0.00153104 3.14966 0.219051 2.94274 0.776194 2.94037C1.26137 2.938 1.74574 2.938 2.23091 2.938L3.57485 2.93879H4.09156C4.15544 2.93879 4.22013 2.93484 4.3018 2.9301C4.3018 2.86218 4.30099 2.7216 4.30099 2.7216C4.30018 2.47677 4.29937 2.24615 4.30342 2.01395C4.31312 1.47216 4.51932 1.26998 5.06676 1.26682C5.32471 1.26524 5.58266 1.26524 5.84385 1.26524L6.89021 1.26603L6.8894 1.17283C6.88778 0.99276 6.88617 0.823746 6.89264 0.652363C6.90881 0.231407 7.15544 0 7.58805 0C8.47107 0.00157957 9.35247 0.00157957 10.2339 0.00157957H10.2436C11.8511 0.00236936 13.5137 0.00236936 15.1487 0.00947743C15.3476 0.0102672 15.5773 0.101882 15.7204 0.236936C16.6996 1.16414 17.4913 1.93655 18.2126 2.66711C18.4091 2.86613 18.4269 3.21127 18.4277 3.31157C18.4374 4.76241 18.4366 6.23694 18.4358 7.66329V9.26023H19.2824C19.4845 9.26023 19.6859 9.26023 19.8872 9.26102C20.4686 9.2626 20.7711 9.29814 20.9182 9.49796C21.0646 9.69699 21.0056 9.98131 20.8269 10.5065C20.1129 12.6073 19.3544 14.829 18.5085 17.2971C18.2837 17.9534 18.2166 18 17.4921 18H13.6139ZM1.42148 16.8359C1.44816 16.8374 1.47242 16.8382 1.49587 16.8382H4.92121C8.94978 16.8382 13.1158 16.8382 17.2131 16.8445C17.3878 16.8445 17.4323 16.8082 17.4961 16.6163C17.8722 15.4877 18.2611 14.3528 18.6363 13.255C18.7641 12.8822 18.891 12.5102 19.0188 12.1374L19.6026 10.4244H4.45625C4.02363 10.4244 3.7859 10.4244 3.66865 10.5057C3.5522 10.5871 3.477 10.8051 3.34196 11.2007C2.88428 12.5402 2.42822 13.8805 1.96649 15.2365L1.42148 16.8359ZM1.2177 13.7573C1.65113 12.4897 2.08293 11.2268 2.51393 9.96314C2.72741 9.33763 2.84061 9.25786 3.52875 9.25234C3.64358 9.25155 3.7576 9.25076 3.87242 9.25076L4.27188 9.25155V4.12821H1.2177V13.7573ZM17.205 9.23338V3.6962H16.0018C14.7274 3.6962 14.6522 3.62354 14.6522 2.39858V1.19889H8.108V9.23338H17.205ZM6.86433 9.22706V2.45307H5.52525V9.22706H6.86433ZM16.3236 2.49809L15.874 2.0337V2.49809H16.3236Z" fill="#DA126A"/>
<path d="M13.6151 17.9209C9.36981 17.9209 5.12534 17.9201 0.880058 17.9177C0.17332 17.9177 0.0835623 17.8301 0.0835623 17.1406C0.0811364 12.4082 0.081945 7.67975 0.0835623 3.6787C0.0835623 3.19456 0.265503 3.0216 0.777363 3.01923C1.26173 3.01686 1.7469 3.01686 2.23127 3.01686L3.57521 3.01765H4.09192C4.15903 3.01765 4.22534 3.0137 4.31025 3.00896C4.3337 3.00738 4.35796 3.0058 4.38302 3.00501C4.38302 2.91103 4.38221 2.81941 4.38221 2.73017C4.38141 2.48296 4.3806 2.24998 4.38464 2.01541C4.39354 1.51706 4.56577 1.34883 5.06793 1.34646C5.32588 1.34488 5.58383 1.34488 5.84502 1.34488L6.97224 1.34567C6.97224 1.28723 6.97143 1.22957 6.97062 1.17271C6.96901 0.994219 6.96739 0.825205 6.97386 0.656191C6.98922 0.277883 7.20108 0.0788574 7.58922 0.0788574C8.47224 0.080437 9.35364 0.080437 10.235 0.080437C11.8458 0.0812268 13.5116 0.0812268 15.1499 0.0883348C15.327 0.0891246 15.5388 0.173632 15.665 0.293679C16.6434 1.2201 17.4342 1.99172 18.1547 2.72148C18.2946 2.86285 18.3456 3.11953 18.3472 3.31224C18.3569 4.77097 18.3561 6.25419 18.3553 7.68844V9.33909H19.2828C19.4849 9.33909 19.6863 9.33909 19.8876 9.33988C20.4407 9.34067 20.727 9.37147 20.8531 9.54365C20.9792 9.71424 20.9202 9.98198 20.7512 10.4811C20.0388 12.578 19.2803 14.7997 18.4329 17.2717C18.2186 17.8964 18.1838 17.9201 17.4933 17.9201L13.6151 17.9209ZM1.3337 16.9084C1.39758 16.9131 1.44852 16.9171 1.49704 16.9171H4.92238C8.95095 16.9171 13.117 16.9171 17.2143 16.9234C17.4407 16.9234 17.5054 16.8492 17.5749 16.6407C17.9485 15.5184 18.3383 14.3803 18.7151 13.2801C18.8429 12.9073 18.9698 12.5346 19.0976 12.1626L19.717 10.3461H4.45742C3.99407 10.3461 3.76119 10.3461 3.62292 10.4424C3.48464 10.5388 3.41186 10.752 3.26631 11.1769C2.80863 12.5164 2.35257 13.8567 1.89084 15.2127L1.31348 16.9076C1.31995 16.9076 1.32723 16.9084 1.3337 16.9084ZM1.13801 14.2429C1.13882 14.2413 1.13963 14.2389 1.13963 14.2373C1.62399 12.8213 2.10755 11.4052 2.59111 9.9883C2.79407 9.39201 2.87332 9.33672 3.52992 9.33198C3.64394 9.33119 3.75876 9.3304 3.87278 9.3304L4.3531 9.33119V4.04911H1.13801V14.2429ZM17.2871 9.31224V3.6171H16.003C14.7698 3.6171 14.7342 3.58314 14.7342 2.39846V1.11979H8.0275V9.31224H17.2871ZM6.94636 9.30592V2.37397H5.44556V9.30592H6.94636ZM16.5124 2.57695L15.7943 1.83534V2.57695H16.5124Z" fill="#DA126A"/>
<path d="M13.6151 17.9209C9.36981 17.9209 5.12534 17.9201 0.880058 17.9177C0.17332 17.9177 0.0835623 17.8301 0.0835623 17.1406C0.0811364 12.4082 0.081945 7.67975 0.0835623 3.6787C0.0835623 3.19456 0.265503 3.0216 0.777363 3.01923C1.26173 3.01686 1.7469 3.01686 2.23127 3.01686L3.57521 3.01765H4.09192C4.15903 3.01765 4.22534 3.0137 4.31025 3.00896C4.3337 3.00738 4.35796 3.0058 4.38302 3.00501C4.38302 2.91103 4.38221 2.81941 4.38221 2.73017C4.38141 2.48296 4.3806 2.24998 4.38464 2.01541C4.39354 1.51706 4.56577 1.34883 5.06793 1.34646C5.32588 1.34488 5.58383 1.34488 5.84502 1.34488L6.97224 1.34567C6.97224 1.28723 6.97143 1.22957 6.97062 1.17271C6.96901 0.994219 6.96739 0.825205 6.97386 0.656191C6.98922 0.277883 7.20108 0.0788574 7.58922 0.0788574C8.47224 0.080437 9.35364 0.080437 10.235 0.080437C11.8458 0.0812268 13.5116 0.0812268 15.1499 0.0883348C15.327 0.0891246 15.5388 0.173632 15.665 0.293679C16.6434 1.2201 17.4342 1.99172 18.1547 2.72148C18.2946 2.86285 18.3456 3.11953 18.3472 3.31224C18.3569 4.77097 18.3561 6.25419 18.3553 7.68844V9.33909H19.2828C19.4849 9.33909 19.6863 9.33909 19.8876 9.33988C20.4407 9.34067 20.727 9.37147 20.8531 9.54365C20.9792 9.71424 20.9202 9.98198 20.7512 10.4811C20.0388 12.578 19.2803 14.7997 18.4329 17.2717C18.2186 17.8964 18.1838 17.9201 17.4933 17.9201L13.6151 17.9209ZM1.3337 16.9084C1.39758 16.9131 1.44852 16.9171 1.49704 16.9171H4.92238C8.95095 16.9171 13.117 16.9171 17.2143 16.9234C17.4407 16.9234 17.5054 16.8492 17.5749 16.6407C17.9485 15.5184 18.3383 14.3803 18.7151 13.2801C18.8429 12.9073 18.9698 12.5346 19.0976 12.1626L19.717 10.3461H4.45742C3.99407 10.3461 3.76119 10.3461 3.62292 10.4424C3.48464 10.5388 3.41186 10.752 3.26631 11.1769C2.80863 12.5164 2.35257 13.8567 1.89084 15.2127L1.31348 16.9076C1.31995 16.9076 1.32723 16.9084 1.3337 16.9084ZM1.13801 14.2429C1.13882 14.2413 1.13963 14.2389 1.13963 14.2373C1.62399 12.8213 2.10755 11.4052 2.59111 9.9883C2.79407 9.39201 2.87332 9.33672 3.52992 9.33198C3.64394 9.33119 3.75876 9.3304 3.87278 9.3304L4.3531 9.33119V4.04911H1.13801V14.2429ZM17.2871 9.31224V3.6171H16.003C14.7698 3.6171 14.7342 3.58314 14.7342 2.39846V1.11979H8.0275V9.31224H17.2871ZM6.94636 9.30592V2.37397H5.44556V9.30592H6.94636ZM16.5124 2.57695L15.7943 1.83534V2.57695H16.5124Z" fill="#DA126A"/>
<path d="M4.46184 3.07957C4.46184 2.69731 4.45699 2.35691 4.46265 2.01651C4.47074 1.56397 4.60982 1.42733 5.06508 1.42496C5.70955 1.42181 6.35322 1.42417 7.05025 1.42417C7.05025 1.14933 7.04216 0.903706 7.05187 0.658872C7.06481 0.329532 7.233 0.158148 7.58799 0.158938C10.1077 0.162887 12.6265 0.157359 15.1462 0.168416C15.3015 0.169205 15.4939 0.245815 15.6055 0.351646C16.4465 1.14854 17.2802 1.95412 18.0936 2.77787C18.2133 2.89949 18.2618 3.13248 18.2635 3.31413C18.2756 5.18276 18.2715 7.0514 18.2715 8.92003C18.2715 9.06377 18.2715 9.20751 18.2715 9.41996C18.8206 9.41996 19.3527 9.41917 19.8848 9.41996C20.9117 9.42233 20.9901 9.52027 20.6715 10.4577C19.9025 12.7221 19.1287 14.9856 18.3532 17.2483C18.1503 17.8391 18.1438 17.843 17.4904 17.843C11.9529 17.8438 6.41548 17.843 0.878013 17.8407C0.217367 17.8407 0.16238 17.7901 0.16238 17.1425C0.159145 12.6541 0.159954 8.16657 0.161571 3.67901C0.161571 3.2391 0.305507 3.10089 0.775318 3.09852C1.8799 3.09378 2.98529 3.09694 4.08987 3.09615C4.19499 3.09615 4.30012 3.08667 4.46184 3.07957ZM1.20065 16.979C1.33489 16.9877 1.41413 16.9964 1.49419 16.9964C6.73327 16.9972 11.9724 16.9948 17.2114 17.0035C17.4839 17.0043 17.5721 16.8969 17.6489 16.6662C18.147 15.1704 18.6621 13.6801 19.1715 12.1882C19.3858 11.5595 19.6001 10.9308 19.8265 10.2674C19.609 10.2674 19.4481 10.2674 19.2872 10.2674C14.3449 10.2674 9.40173 10.2674 4.45941 10.2674C3.4923 10.2674 3.48987 10.2666 3.18745 11.152C2.52923 13.0782 1.87343 15.0053 1.20065 16.979ZM14.8114 1.04113C12.481 1.04113 10.2128 1.04113 7.94378 1.04113C7.94378 3.84092 7.94378 6.6107 7.94378 9.39153C11.0974 9.39153 14.2284 9.39153 17.3651 9.39153C17.3651 7.43128 17.3651 5.49473 17.3651 3.53843C16.8872 3.53843 16.4432 3.53843 16.0001 3.53843C14.8122 3.53843 14.8122 3.53843 14.8122 2.39877C14.8114 1.95412 14.8114 1.50947 14.8114 1.04113ZM1.05429 14.5259C1.07289 14.5307 1.0923 14.5354 1.1109 14.5401C1.14567 14.4477 1.18206 14.3553 1.21359 14.2621C1.69796 12.8461 2.18233 11.43 2.66508 10.0131C2.85753 9.44839 2.902 9.41522 3.52788 9.41049C3.83111 9.40812 4.13435 9.4097 4.43111 9.4097C4.43111 7.55923 4.43111 5.76642 4.43111 3.97044C3.29014 3.97044 2.1799 3.97044 1.05349 3.97044C1.05429 7.50394 1.05429 11.0153 1.05429 14.5259ZM5.36184 2.29531C5.36184 4.67809 5.36184 7.0356 5.36184 9.38521C5.93516 9.38521 6.47936 9.38521 7.02518 9.38521C7.02518 7.00796 7.02518 4.66151 7.02518 2.29531C6.46642 2.29531 5.93192 2.29531 5.36184 2.29531ZM15.7106 1.63663C15.7106 2.02915 15.7106 2.34664 15.7106 2.65624C16.0608 2.65624 16.3826 2.65624 16.698 2.65624C16.3745 2.32295 16.0648 2.00309 15.7106 1.63663Z" fill="#DA126A"/>
<path d="M13.3773 5.37291C13.1307 5.36975 12.863 5.36738 12.5331 5.36738C12.3391 5.36738 12.1458 5.36817 11.9517 5.36817C11.756 5.36896 11.562 5.36896 11.3679 5.36896L10.1897 5.36817C9.90833 5.36817 9.62693 5.36896 9.34552 5.37054H9.33501C9.08919 5.37054 8.9121 5.31447 8.79485 5.19837C8.69216 5.09728 8.64121 4.95591 8.64364 4.7782C8.64525 4.60603 8.71641 4.2064 9.32854 4.20482C10.0078 4.20245 10.687 4.20166 11.3671 4.20166C11.9606 4.20166 12.5541 4.20245 13.1477 4.20245H13.4048C13.6506 4.20245 13.8374 4.26563 13.9612 4.39042C14.0655 4.49546 14.1164 4.63604 14.1116 4.80743C14.1051 5.0183 14.004 5.37212 13.4016 5.37212L13.3773 5.37291Z" fill="#DA126A"/>
<path d="M13.3801 5.29406C13.1326 5.2909 12.8642 5.28853 12.5351 5.28853C12.341 5.28853 12.1469 5.28932 11.9529 5.28932C11.7588 5.29011 11.5639 5.29011 11.3698 5.29011L10.1917 5.28932C9.91027 5.28932 9.62806 5.29011 9.34665 5.29169H9.33614C9.11296 5.29169 8.95528 5.24272 8.8542 5.14321C8.76687 5.05712 8.72401 4.9347 8.72563 4.77912C8.72806 4.5951 8.80892 4.2855 9.32967 4.28392C10.0089 4.28155 10.6882 4.28076 11.3674 4.28076C11.9617 4.28076 12.5561 4.28155 13.1504 4.28155H13.4051C13.6283 4.28155 13.7957 4.33684 13.9041 4.44583C13.993 4.53507 14.0359 4.6567 14.031 4.80518C14.0246 5.0279 13.9097 5.29248 13.4019 5.29248L13.3801 5.29406Z" fill="#DA126A"/>
<path d="M13.3801 5.29406C13.1326 5.2909 12.8642 5.28853 12.5351 5.28853C12.341 5.28853 12.1469 5.28932 11.9529 5.28932C11.7588 5.29011 11.5639 5.29011 11.3698 5.29011L10.1917 5.28932C9.91027 5.28932 9.62806 5.29011 9.34665 5.29169H9.33614C9.11296 5.29169 8.95528 5.24272 8.8542 5.14321C8.76687 5.05712 8.72401 4.9347 8.72563 4.77912C8.72806 4.5951 8.80892 4.2855 9.32967 4.28392C10.0089 4.28155 10.6882 4.28076 11.3674 4.28076C11.9617 4.28076 12.5561 4.28155 13.1504 4.28155H13.4051C13.6283 4.28155 13.7957 4.33684 13.9041 4.44583C13.993 4.53507 14.0359 4.6567 14.031 4.80518C14.0246 5.0279 13.9097 5.29248 13.4019 5.29248L13.3801 5.29406Z" fill="#DA126A"/>
<path d="M11.3645 5.21169C10.6918 5.21169 10.019 5.20853 9.34702 5.21327C9.03813 5.21564 8.80363 5.12482 8.80767 4.78047C8.81171 4.45745 9.05026 4.36425 9.33166 4.36267C10.6901 4.35873 12.0486 4.3603 13.4071 4.36109C13.7128 4.36109 13.9618 4.47561 13.9521 4.80337C13.9424 5.13035 13.6926 5.2188 13.3829 5.21406C12.7101 5.20537 12.0373 5.21169 11.3645 5.21169Z" fill="#DA126A"/>
<path d="M10.5111 7.0441L9.75989 7.04489C9.59251 7.04489 9.42593 7.04489 9.25855 7.0441C9.05477 7.04331 8.89709 6.98724 8.78954 6.87904C8.68766 6.77557 8.63833 6.63183 8.64399 6.45255C8.65531 6.10821 8.8793 5.91076 9.25936 5.90997C9.68065 5.90918 10.1019 5.90918 10.5224 5.90918C10.9356 5.90918 11.3497 5.90918 11.7629 5.90997C12.1437 5.91076 12.3677 6.10821 12.3782 6.45255C12.3839 6.63183 12.3346 6.77557 12.2327 6.87904C12.1251 6.98803 11.9674 7.04331 11.7637 7.0441C11.5947 7.04489 11.4257 7.04489 11.2559 7.04489L10.5111 7.0441Z" fill="#DA126A"/>
<path d="M9.75889 6.96579C9.59231 6.96579 9.42493 6.96579 9.25754 6.965C9.07641 6.96421 8.93813 6.91682 8.84595 6.82363C8.75943 6.73596 8.71819 6.61197 8.72304 6.4548C8.73274 6.15468 8.92277 5.98962 9.25754 5.98883C9.67883 5.98804 10.1001 5.98804 10.5206 5.98804C10.9338 5.98804 11.347 5.98804 11.761 5.98883C12.0966 5.98962 12.2867 6.15468 12.2955 6.4548C12.3004 6.61197 12.2592 6.73596 12.1726 6.82363C12.0813 6.91682 11.9422 6.96421 11.761 6.965C11.592 6.96579 11.423 6.96579 11.254 6.96579L10.5093 6.965L9.75889 6.96579Z" fill="#DA126A"/>
<path d="M9.75889 6.96579C9.59231 6.96579 9.42493 6.96579 9.25754 6.965C9.07641 6.96421 8.93813 6.91682 8.84595 6.82363C8.75943 6.73596 8.71819 6.61197 8.72304 6.4548C8.73274 6.15468 8.92277 5.98962 9.25754 5.98883C9.67883 5.98804 10.1001 5.98804 10.5206 5.98804C10.9338 5.98804 11.347 5.98804 11.761 5.98883C12.0966 5.98962 12.2867 6.15468 12.2955 6.4548C12.3004 6.61197 12.2592 6.73596 12.1726 6.82363C12.0813 6.91682 11.9422 6.96421 11.761 6.965C11.592 6.96579 11.423 6.96579 11.254 6.96579L10.5093 6.965L9.75889 6.96579Z" fill="#DA126A"/>
<path d="M10.5105 6.88625C10.0932 6.88625 9.67596 6.88783 9.25871 6.88546C8.96922 6.88388 8.79537 6.75436 8.80507 6.45661C8.81397 6.17702 8.99348 6.06803 9.25871 6.06724C10.0932 6.06645 10.9277 6.06645 11.7622 6.06724C12.0274 6.06724 12.2078 6.17623 12.2159 6.45661C12.2248 6.75436 12.0509 6.88388 11.7614 6.88546C11.345 6.88783 10.9277 6.88625 10.5105 6.88625Z" fill="#DA126A"/>
</g>
<defs>
<clipPath id="clip0_1966_1826">
<rect width="21" height="18" fill="white"/>
</clipPath>
</defs>
</svg>
