<svg width="17" height="18" viewBox="0 0 17 18" fill="none" xmlns="http://www.w3.org/2000/svg">
<g clip-path="url(#clip0_1966_1819)">
<path d="M9.54824 9.54151C9.54824 9.08364 9.54824 8.68975 9.54824 8.29587C9.54774 5.89042 9.54973 3.48496 9.54575 1.0795C9.54426 0.330432 8.87504 -0.165641 8.17449 0.0516393C7.72404 0.191532 7.4476 0.590374 7.4476 1.11472C7.44611 3.85056 7.44611 6.5869 7.44611 9.32274C7.44611 9.39864 7.44611 9.47405 7.44611 9.58914C7.32231 9.50679 7.24624 9.45817 7.17215 9.40658C6.40499 8.87281 5.6413 8.33308 4.86916 7.80575C4.36501 7.46148 3.73556 7.57111 3.392 8.04486C3.05192 8.51414 3.14639 9.16102 3.64308 9.51522C5.05063 10.5188 6.46614 11.5119 7.88513 12.4996C8.28686 12.7789 8.72389 12.7769 9.11518 12.4882C10.5461 11.4315 11.9706 10.366 13.3866 9.28951C13.8604 8.92886 13.9305 8.28 13.5869 7.83056C13.2304 7.36425 12.5995 7.27396 12.1048 7.62469C11.8552 7.80178 11.6141 7.99079 11.3695 8.17483C10.7808 8.61634 10.1926 9.05784 9.54824 9.54151ZM2.12913 15.8659C2.12913 15.5103 2.14256 15.1799 2.12366 14.8515C2.11372 14.6749 2.07792 14.4869 2.00135 14.3291C1.78607 13.8851 1.29982 13.6778 0.809087 13.7914C0.340732 13.8995 0.022529 14.3142 0.0125852 14.8574C0.000652564 15.543 -0.0018334 16.2291 0.00114976 16.9151C0.00413291 17.5437 0.497348 18.001 1.14071 17.9996C4.04084 17.9941 6.94046 17.9906 9.84058 17.9901C11.8622 17.9896 13.8838 17.9981 15.9058 17.9976C16.5089 17.9976 16.9857 17.5357 16.9927 16.938C17.0007 16.2439 17.0101 15.5485 16.9728 14.8559C16.9594 14.6084 16.8585 14.3346 16.7143 14.1317C16.4602 13.7745 15.9904 13.6768 15.5722 13.8201C15.166 13.9595 14.8811 14.3375 14.8687 14.7781C14.8587 15.1382 14.8667 15.4988 14.8667 15.8654C10.6082 15.8659 6.3851 15.8659 2.12913 15.8659Z" fill="white"/>
<path d="M9.54973 9.5415C10.1941 9.05783 10.7823 8.61682 11.3704 8.17532C11.6156 7.99177 11.8562 7.80227 12.1058 7.62517C12.6005 7.27445 13.2314 7.36523 13.5879 7.83104C13.9315 8.28049 13.8619 8.92935 13.3876 9.28999C11.9716 10.3665 10.5471 11.432 9.11618 12.4887C8.72539 12.7774 8.28786 12.7794 7.88612 12.5001C6.46714 11.5124 5.05163 10.5193 3.64408 9.51571C3.14738 9.16151 3.05292 8.51463 3.393 8.04535C3.73656 7.5716 4.366 7.46197 4.87016 7.80624C5.6423 8.33357 6.40549 8.87329 7.17315 9.40707C7.24723 9.45866 7.3233 9.50727 7.4471 9.58962C7.4471 9.47453 7.4471 9.39863 7.4471 9.32323C7.4476 6.58739 7.4471 3.85105 7.4486 1.11521C7.44909 0.591359 7.72553 0.19202 8.17549 0.0521276C8.87603 -0.165152 9.54575 0.330921 9.54675 1.07999C9.55072 3.48545 9.54874 5.8909 9.54923 8.29636C9.54973 8.68925 9.54973 9.08313 9.54973 9.5415Z" fill="#DA126A"/>
<path d="M2.12963 15.8659C6.3856 15.8659 10.6087 15.8659 14.8667 15.8659C14.8667 15.4993 14.8587 15.1386 14.8687 14.7785C14.8806 14.3379 15.1655 13.9599 15.5722 13.8205C15.9899 13.6772 16.4602 13.7749 16.7143 14.1321C16.8585 14.335 16.9594 14.6088 16.9728 14.8563C17.0101 15.5489 17.0007 16.2444 16.9927 16.9384C16.9857 17.5361 16.5089 17.998 15.9058 17.998C13.8842 17.9985 11.8627 17.99 9.84059 17.9905C6.94046 17.991 4.04084 17.995 1.14071 18C0.497348 18.0009 0.00413291 17.5436 0.00114976 16.915C-0.0018334 16.229 0.000652566 15.5429 0.0125852 14.8573C0.0220318 14.3136 0.340732 13.8994 0.809087 13.7913C1.30031 13.6777 1.78607 13.885 2.00135 14.329C2.07792 14.4868 2.11372 14.6748 2.12366 14.8514C2.14305 15.1798 2.12963 15.5102 2.12963 15.8659Z" fill="#DA126A"/>
</g>
<defs>
<clipPath id="clip0_1966_1819">
<rect width="17" height="18" fill="white"/>
</clipPath>
</defs>
</svg>
