<svg width="34" height="44" viewBox="0 0 34 44" fill="none" xmlns="http://www.w3.org/2000/svg">
<path d="M31.4108 13.9001C31.4108 14.9433 31.4108 15.961 31.4108 16.9787C31.4108 22.0881 31.4108 27.1998 31.4108 32.3092C31.4108 34.9658 31.4174 37.6225 31.4063 40.2769C31.4041 40.7452 31.3685 41.2204 31.2863 41.6818C31.053 42.9846 30.3129 43.7427 29.0506 43.8957C28.235 43.993 27.4061 43.993 26.5816 43.9954C20.5056 44.0023 14.4297 44 8.35594 44C7.47366 44 6.59138 44.0069 5.7091 43.9884C5.37574 43.9814 5.03572 43.9328 4.70903 43.8539C3.62229 43.5943 2.9378 42.8478 2.80224 41.6748C2.7089 40.8773 2.71112 40.0636 2.71112 39.2569C2.70446 32.8377 2.70668 26.4162 2.70668 19.997C2.70668 18.3441 2.70223 16.6889 2.71112 15.036C2.71334 14.6628 2.75557 14.2919 2.78224 13.9024C12.3295 13.9001 21.8568 13.9001 31.4108 13.9001ZM7.89591 19.1463C7.89591 25.6048 7.89591 32.0333 7.89591 38.4617C8.72485 38.4617 9.53823 38.4617 10.3494 38.4617C10.3494 32.0124 10.3494 25.584 10.3494 19.1463C9.52712 19.1463 8.71818 19.1463 7.89591 19.1463ZM15.5875 38.4687C15.5875 32.0101 15.5875 25.5817 15.5875 19.1416C14.7608 19.1416 13.9474 19.1416 13.1318 19.1416C13.1318 25.5932 13.1318 32.0287 13.1318 38.4687C13.9563 38.4687 14.7652 38.4687 15.5875 38.4687ZM23.5903 19.1741C23.5903 25.6164 23.5903 32.0379 23.5903 38.4687C24.4214 38.4687 25.2393 38.4687 26.066 38.4687C26.066 32.0287 26.066 25.6072 26.066 19.1741C25.2415 19.1741 24.4259 19.1741 23.5903 19.1741ZM20.8212 38.4687C20.8212 32.0124 20.8212 25.5793 20.8212 19.1393C19.9945 19.1393 19.1878 19.1393 18.3655 19.1393C18.3655 25.5863 18.3655 32.0217 18.3655 38.4687C19.1878 38.4687 19.9945 38.4687 20.8212 38.4687Z" fill="white"/>
<path d="M0.0266684 10.7448C0.0111118 10.6961 0 10.6753 0 10.6544C0.0400026 9.76651 0.0444474 8.87167 0.133342 7.98843C0.233349 6.99854 0.684489 6.21962 1.59788 5.80234C2.05569 5.5937 2.54683 5.57283 3.03353 5.56124C4.6892 5.52647 6.34708 5.50329 8.00274 5.47779C8.08719 5.47547 8.17165 5.47779 8.28276 5.47779C8.28276 5.36651 8.28276 5.27842 8.28276 5.19033C8.28721 4.46472 8.28276 3.73911 8.30276 3.01351C8.3161 2.50118 8.43611 2.00508 8.66723 1.54839C9.18727 0.516775 10.0451 0.0554471 11.1318 0.0461742C14.1787 0.0206737 17.2278 0.00676428 20.2769 -0.000190411C21.417 -0.00250864 22.557 0.0206737 23.6993 0.043856C24.9394 0.0693565 25.8328 0.688324 26.1973 1.82889C26.3351 2.2624 26.3951 2.733 26.4151 3.19201C26.4506 3.93848 26.4239 4.68727 26.4239 5.46851C26.524 5.47315 26.6129 5.48242 26.7017 5.48242C27.8574 5.47547 29.0108 5.44765 30.1664 5.47083C30.7065 5.4801 31.2576 5.53342 31.7821 5.66324C32.9888 5.9623 33.6755 6.80613 33.9067 8.06493C34.0622 8.90645 34 9.74796 33.9044 10.5895C33.8867 10.7518 33.7889 10.7471 33.6755 10.7471C32.3777 10.7448 31.0776 10.7471 29.7797 10.7471C19.9657 10.7494 10.1518 10.7494 0.3378 10.7518C0.231126 10.7448 0.126675 10.7448 0.0266684 10.7448ZM10.9118 5.57515C11.0229 5.57515 11.1229 5.57515 11.2207 5.57515C14.6632 5.57283 18.1078 5.57283 21.5503 5.57052C22.1592 5.57052 22.7704 5.57515 23.3793 5.55661C23.8282 5.5427 24.0238 5.30856 24.0193 4.84027C24.0149 4.39285 24.0127 3.94544 24.0082 3.49802C24.0016 3.01351 23.7571 2.733 23.2926 2.68432C23.1637 2.67041 23.0348 2.66577 22.9059 2.66577C19.2613 2.67041 15.6188 2.67505 11.9741 2.682C11.6252 2.682 11.2741 2.682 10.9118 2.682C10.9118 3.65334 10.9118 4.59918 10.9118 5.57515Z" fill="white"/>
</svg>
