<svg width="24" height="20" viewBox="0 0 24 20" fill="none" xmlns="http://www.w3.org/2000/svg">
<path d="M12.0114 0C11.8296 0.0567747 11.6488 0.0991304 11.4792 0.169423C7.90413 1.64196 4.33097 3.1199 0.755011 4.58883C0.314575 4.76997 0.00439644 5.03312 0.0137672 5.51796C0.0221996 5.98477 0.343626 6.2353 0.756886 6.40472C4.33566 7.87005 7.90975 9.34439 11.4979 10.7863C11.7903 10.9034 12.2223 10.898 12.5165 10.78C16.0906 9.34259 19.6506 7.87275 23.2154 6.41554C23.6455 6.23981 23.9838 5.99018 23.9866 5.50174C23.9885 5.016 23.667 4.76186 23.2294 4.58253C19.6666 3.119 16.1084 1.64737 12.5474 0.181138C12.3778 0.110846 12.1979 0.0621818 12.0114 0ZM20.6168 5.4756C20.4903 5.54589 20.4406 5.58104 20.3844 5.60357C17.6781 6.71383 14.9736 7.82769 12.2616 8.92263C12.093 8.99112 11.8362 8.96229 11.6591 8.89019C9.1336 7.86825 6.61468 6.83098 4.09483 5.79732C3.86899 5.7045 3.64689 5.60627 3.36202 5.48461C6.22204 4.30406 9.0099 3.15144 11.8025 2.00784C11.914 1.96188 12.0808 1.96098 12.1923 2.00604C14.9839 3.14964 17.7727 4.30226 20.6168 5.4756Z" fill="#DA126A"/>
<path d="M0.0023632 14.5352C0.0473442 15.0326 0.327534 15.2849 0.752977 15.4589C3.13039 16.4312 5.50219 17.418 7.87679 18.3976C9.07815 18.8933 10.2842 19.3808 11.4818 19.8855C11.836 20.0351 12.1584 20.0378 12.5135 19.89C16.1017 18.4021 19.6936 16.9242 23.2827 15.439C23.9105 15.1795 24.1467 14.6929 23.9096 14.1927C23.6716 13.688 23.1599 13.5312 22.5292 13.7899C19.151 15.1777 15.7737 16.5673 12.4002 17.9687C12.1209 18.0849 11.8979 18.0903 11.6149 17.9732C8.25725 16.5763 4.89401 15.193 1.53077 13.8079C0.827946 13.5186 0.276932 13.6934 0.0660858 14.2666C0.0304756 14.3639 0.0173569 14.4694 0.0023632 14.5352Z" fill="#DA126A"/>
<path d="M11.981 15.4787C12.1853 15.4193 12.384 15.3805 12.5667 15.3057C16.1174 13.8521 19.6662 12.3958 23.215 10.9377C23.9375 10.6412 24.1877 10.0933 23.855 9.56337C23.5889 9.13981 23.111 9.01725 22.5449 9.24795C20.4824 10.0897 18.4217 10.9359 16.361 11.7821C15.0304 12.3282 13.7044 12.8869 12.3634 13.4096C12.1497 13.4925 11.8386 13.4916 11.6259 13.406C8.31325 12.0651 5.00904 10.7043 1.70296 9.34799C1.58864 9.30112 1.47431 9.25336 1.35718 9.21191C0.790232 9.00914 0.299192 9.19659 0.0817871 9.69674C-0.120626 10.1627 0.0808506 10.6403 0.625303 10.871C1.86415 11.3946 3.11423 11.8965 4.35964 12.4066C6.70707 13.3691 9.05449 14.3315 11.4038 15.2904C11.5875 15.3643 11.7814 15.4139 11.981 15.4787Z" fill="#DA126A"/>
</svg>
