<svg width="40" height="42" viewBox="0 0 40 42" fill="none" xmlns="http://www.w3.org/2000/svg">
<path d="M27.4911 5.59824C27.5452 5.57132 27.566 5.52991 27.5535 5.46987C28.6561 4.12826 29.3551 2.45538 30.8862 1.46574C31.1941 1.41191 31.4667 1.28561 31.6976 1.07236C33.054 0.676918 34.4312 0.397415 35.8458 0.324951C36.3971 0.349796 36.9484 0.351866 37.4956 0.407767C38.232 0.484371 38.9331 0.658284 39.2327 1.46367C39.2368 2.1469 38.9664 2.71418 38.4879 3.19037C37.7806 3.89224 37.2646 4.73074 36.7674 5.58167C36.4616 6.06615 36.1558 6.55062 35.85 7.03716C35.1655 7.86117 34.6205 8.77629 34.1129 9.71624C32.3425 12.3974 30.6948 15.149 29.2178 17.9999C27.6638 20.5982 26.2595 23.2732 25.0279 26.0371C23.5967 28.7845 22.363 31.6189 21.3083 34.5299C20.6696 35.8653 20.1661 37.2504 19.7043 38.6541C19.4755 39.1386 19.2445 39.623 19.0157 40.1075C17.8777 41.1034 16.461 41.1054 15.0713 41.1924C13.5131 41.1531 11.9362 41.1655 10.921 39.6686C10.7754 39.2918 10.5923 38.9377 10.2886 38.6582C8.55563 35.6934 6.53768 32.9378 4.21599 30.4015C3.74167 29.7307 3.21118 29.1055 2.58707 28.5651C1.89847 27.7949 1.21195 27.0268 0.523352 26.2566C0.0781542 24.8964 0.240422 24.3643 1.43663 23.5506C2.68901 22.6997 4.07869 22.2897 5.60984 22.2545C6.91006 22.2255 7.95649 22.6293 8.80735 23.6106C9.47931 24.387 10.1991 25.1262 10.8981 25.8798C10.9959 26.0082 11.0958 26.1365 11.1935 26.267C12.1505 27.6396 13.1075 29.0123 14.0644 30.385C14.2392 30.7804 14.3598 31.211 14.7447 31.5402C15.3917 29.7514 16.0221 27.9999 16.6545 26.2463C17.2349 24.8715 17.8132 23.4988 18.3937 22.1241C18.7785 21.5961 19.0095 20.9957 19.205 20.3808C19.6003 19.5858 19.9955 18.7908 20.3929 17.9978C21.1044 16.6169 21.8159 15.2338 22.5273 13.8529C22.8061 13.3581 23.0849 12.8632 23.3637 12.3663C23.8671 11.4906 24.3705 10.6169 24.8761 9.74109C25.7436 8.36428 26.6173 6.98126 27.4911 5.59824Z" fill="white"/>
</svg>
