<svg width="163" height="163" viewBox="0 0 163 163" fill="none" xmlns="http://www.w3.org/2000/svg">
<circle opacity="0.12" cx="81.5" cy="81.5" r="81.5" fill="#FFBB38"/>
<path d="M114.477 37.727H100.698L101.195 39.9708C101.237 40.1586 101.259 40.3307 101.259 40.4932V50.3312C101.259 51.6873 100.154 52.7899 98.7983 52.7899H64.9828C63.6267 52.7899 62.5241 51.6871 62.5241 50.3312V40.4932C62.5241 40.3293 62.5445 40.1586 62.5861 39.9708L63.0837 37.727H49.3047C46.9313 37.727 45 39.6572 45 42.0312V128.108C45 130.481 46.9313 132.413 49.3047 132.413H76.9822H86.7988H114.477C116.85 132.413 118.782 130.481 118.782 128.108V42.0312C118.781 39.6572 116.851 37.727 114.477 37.727ZM115.091 128.108C115.091 128.447 114.815 128.723 114.476 128.723H86.799H76.9825H49.3047C48.966 128.723 48.6901 128.447 48.6901 128.108V42.0312C48.6901 41.6926 48.9658 41.416 49.3047 41.416H58.8336V50.3312C58.8336 53.7207 61.592 56.4801 64.9825 56.4801H98.7978C102.188 56.4801 104.947 53.7218 104.947 50.3312V41.416H114.476C114.815 41.416 115.091 41.6924 115.091 42.0312V128.108H115.091ZM64.8458 48.3151V39.6572C64.8458 38.4614 65.8129 37.4929 67.0094 37.4929H75.0496C75.0496 33.9072 78.0948 31 81.8527 31C85.6086 31 88.6538 33.9069 88.6538 37.4929H96.7701C97.9675 37.4929 98.9357 38.4614 98.9357 39.6572V48.3151C98.9357 49.5103 97.9675 50.4801 96.7701 50.4801H67.0081C65.8129 50.4801 64.8458 49.5116 64.8458 48.3151ZM73.6677 72.0761L76.1872 74.5956L62.1582 88.6264L53.5057 79.9726L56.0259 77.4531L62.1582 83.5863L73.6677 72.0761ZM73.6677 90.9971L76.1872 93.5159L62.1582 107.546L53.5057 98.8924L56.0259 96.3723L62.1582 102.504L73.6677 90.9971ZM80.0429 76.5126H109.168V80.3504H80.0429V76.5126ZM80.0429 97.3526H109.168V101.189H80.0429V97.3526Z" fill="#FFBB38"/>
</svg>
