<svg width="330" height="298" viewBox="0 0 330 298" fill="none" xmlns="http://www.w3.org/2000/svg">
<path opacity="0.06" fill-rule="evenodd" clip-rule="evenodd" d="M217.959 4.48016C170.052 27.8659 117.911 72.0554 80.1314 76.4286C42.3558 80.8057 -5.3309 102.059 2.22666 151.466C9.78069 200.881 149.108 273.673 213.876 291.565C278.651 309.452 335.673 259.373 327.694 169.14C319.722 78.903 265.863 -18.9017 217.959 4.48016Z" fill="url(#paint0_linear_1511_127)"/>
<path d="M142.924 220.897C150.014 220.897 155.763 215.149 155.763 208.058C155.763 200.967 150.014 195.219 142.924 195.219C135.833 195.219 130.085 200.967 130.085 208.058C130.085 215.149 135.833 220.897 142.924 220.897Z" fill="#FFD45C"/>
<path d="M199.415 220.897C206.505 220.897 212.254 215.149 212.254 208.058C212.254 200.967 206.505 195.219 199.415 195.219C192.324 195.219 186.576 200.967 186.576 208.058C186.576 215.149 192.324 220.897 199.415 220.897Z" fill="#FFD45C"/>
<path d="M237.495 97.9523C236.31 96.2701 234.737 94.8974 232.91 93.9501C231.084 93.0027 229.056 92.5083 226.998 92.5086H123.357L120.584 80.0086C120.087 77.7242 118.822 75.6792 117 74.2154C115.177 72.7517 112.907 71.9577 110.569 71.9663H94.1355C92.7735 71.9663 91.4672 72.5074 90.5041 73.4705C89.541 74.4336 88.9999 75.7399 88.9999 77.1019C88.9999 78.4639 89.541 79.7702 90.5041 80.7333C91.4672 81.6964 92.7735 82.2375 94.1355 82.2375H110.569L130.203 170.657C130.456 171.798 131.092 172.818 132.004 173.55C132.916 174.281 134.051 174.679 135.22 174.678H201.397C205.632 174.671 209.762 173.359 213.223 170.918C216.685 168.478 219.309 165.029 220.738 161.043L239.092 109.687C239.788 107.747 240.005 105.667 239.727 103.625C239.449 101.582 238.684 99.6364 237.495 97.9523Z" fill="#F26674"/>
<path d="M195.46 117.273C194.256 115.999 192.796 114.994 191.177 114.323C189.557 113.653 187.814 113.331 186.062 113.38C184.068 113.588 182.15 114.255 180.457 115.329C178.764 116.402 177.343 117.853 176.305 119.568C175.262 117.86 173.839 116.415 172.146 115.346C170.454 114.277 168.538 113.613 166.547 113.406C164.793 113.356 163.049 113.677 161.427 114.347C159.806 115.018 158.345 116.024 157.139 117.298C154.624 120.124 153.219 123.766 153.183 127.548C153.147 131.331 154.483 134.998 156.944 137.871C166.131 148.651 172.638 154.136 176.305 154.136C179.971 154.136 186.494 148.651 195.45 138.056C197.986 135.189 199.387 131.494 199.389 127.666C199.39 123.839 197.993 120.142 195.46 117.273Z" fill="#FFDE76"/>
<path d="M201.397 174.677H135.22C134.052 174.677 132.918 174.279 132.007 173.547C131.096 172.816 130.461 171.796 130.208 170.656L110.569 82.2369H94.1354C92.7734 82.2369 91.4672 81.6959 90.5041 80.7328C89.5409 79.7696 88.9999 78.4634 88.9999 77.1014C88.9999 75.7393 89.5409 74.4331 90.5041 73.47C91.4672 72.5069 92.7734 71.9658 94.1354 71.9658H110.569C112.907 71.9562 115.178 72.7498 117 74.2138C118.823 75.6777 120.088 77.7232 120.584 80.0081L123.362 92.5081H227.003C229.06 92.5083 231.088 93.003 232.914 93.9504C234.74 94.8978 236.312 96.2703 237.497 97.9521C238.682 99.634 239.445 101.576 239.723 103.615C240.001 105.653 239.784 107.729 239.092 109.666L220.743 161.022C219.316 165.012 216.692 168.465 213.229 170.909C209.767 173.353 205.635 174.669 201.397 174.677ZM139.328 164.406H201.397C203.515 164.406 205.581 163.751 207.312 162.531C209.043 161.311 210.355 159.585 211.067 157.591L229.417 106.235C229.56 105.847 229.607 105.43 229.554 105.019C229.501 104.608 229.35 104.216 229.113 103.877C228.876 103.537 228.56 103.26 228.193 103.069C227.825 102.878 227.417 102.778 227.003 102.779H125.642L139.328 164.406Z" fill="#2D2D2D"/>
<path d="M142.923 226.032C139.368 226.032 135.893 224.978 132.937 223.003C129.981 221.028 127.677 218.22 126.317 214.936C124.956 211.652 124.6 208.038 125.294 204.551C125.987 201.064 127.699 197.861 130.213 195.348C132.727 192.834 135.93 191.122 139.416 190.428C142.903 189.735 146.517 190.091 149.802 191.451C153.086 192.812 155.893 195.115 157.868 198.071C159.843 201.027 160.897 204.502 160.897 208.057C160.897 212.825 159.004 217.396 155.633 220.767C152.262 224.138 147.69 226.032 142.923 226.032ZM142.923 200.354C141.399 200.354 139.91 200.806 138.643 201.652C137.376 202.499 136.389 203.702 135.806 205.11C135.223 206.517 135.07 208.066 135.368 209.56C135.665 211.055 136.399 212.427 137.476 213.505C138.553 214.582 139.926 215.316 141.42 215.613C142.914 215.91 144.463 215.757 145.871 215.174C147.279 214.591 148.482 213.604 149.328 212.337C150.175 211.07 150.626 209.581 150.626 208.057C150.626 206.014 149.815 204.055 148.37 202.61C146.925 201.166 144.966 200.354 142.923 200.354Z" fill="#2D2D2D"/>
<path d="M199.415 226.032C195.86 226.032 192.385 224.978 189.429 223.003C186.473 221.028 184.169 218.22 182.809 214.936C181.448 211.652 181.092 208.038 181.786 204.551C182.479 201.064 184.191 197.861 186.705 195.348C189.219 192.834 192.422 191.122 195.908 190.428C199.395 189.735 203.009 190.091 206.294 191.451C209.578 192.812 212.385 195.115 214.36 198.071C216.335 201.027 217.389 204.502 217.389 208.057C217.389 212.825 215.496 217.396 212.125 220.767C208.754 224.138 204.182 226.032 199.415 226.032ZM199.415 200.354C197.891 200.354 196.402 200.806 195.135 201.652C193.868 202.499 192.881 203.702 192.298 205.11C191.715 206.517 191.562 208.066 191.86 209.56C192.157 211.055 192.891 212.427 193.968 213.505C195.045 214.582 196.418 215.316 197.912 215.613C199.406 215.91 200.955 215.757 202.363 215.174C203.771 214.591 204.974 213.604 205.82 212.337C206.667 211.07 207.118 209.581 207.118 208.057C207.118 206.014 206.307 204.055 204.862 202.61C203.417 201.166 201.458 200.354 199.415 200.354Z" fill="#2D2D2D"/>
<path d="M214.821 200.355H127.517C122.75 200.355 118.178 198.461 114.807 195.09C111.436 191.719 109.542 187.147 109.542 182.38C109.542 177.613 111.436 173.041 114.807 169.67C118.178 166.299 122.75 164.406 127.517 164.406H196.847C198.209 164.406 199.515 164.947 200.478 165.91C201.441 166.873 201.982 168.179 201.982 169.541C201.982 170.903 201.441 172.21 200.478 173.173C199.515 174.136 198.209 174.677 196.847 174.677H127.517C125.474 174.677 123.514 175.489 122.07 176.933C120.625 178.378 119.813 180.337 119.813 182.38C119.813 184.423 120.625 186.383 122.07 187.827C123.514 189.272 125.474 190.084 127.517 190.084H214.821C216.183 190.084 217.49 190.625 218.453 191.588C219.416 192.551 219.957 193.857 219.957 195.219C219.957 196.581 219.416 197.887 218.453 198.851C217.49 199.814 216.183 200.355 214.821 200.355Z" fill="#2D2D2D"/>
<path d="M176.304 159.271C174.533 159.271 169.145 159.271 152.116 139.15C148.987 135.48 147.292 130.802 147.345 125.98C147.398 121.158 149.195 116.518 152.403 112.917C155.565 109.761 159.836 107.967 164.304 107.921C168.771 107.875 173.079 109.58 176.304 112.671C179.53 109.58 183.838 107.875 188.305 107.921C192.772 107.967 197.044 109.761 200.205 112.917C203.446 116.58 205.235 121.3 205.235 126.19C205.235 131.08 203.446 135.801 200.205 139.463C183.463 159.271 178.076 159.271 176.304 159.271ZM164.493 118.187C163.599 118.186 162.714 118.362 161.888 118.704C161.063 119.046 160.312 119.547 159.681 120.179C158.395 121.92 157.701 124.027 157.701 126.19C157.701 128.354 158.395 130.461 159.681 132.202C164.598 138.306 170.173 143.85 176.304 148.733C182.339 143.95 187.823 138.51 192.656 132.515C194.047 130.775 194.829 128.627 194.881 126.401C194.933 124.174 194.252 121.992 192.944 120.189C191.665 118.915 189.934 118.2 188.129 118.2C186.324 118.2 184.593 118.915 183.314 120.189L179.94 123.569C178.957 124.496 177.656 125.013 176.304 125.013C174.953 125.013 173.652 124.496 172.668 123.569L169.294 120.189C168.022 118.912 166.295 118.192 164.493 118.187Z" fill="#2D2D2D"/>
<defs>
<linearGradient id="paint0_linear_1511_127" x1="0" y1="3.37518" x2="343.159" y2="282.185" gradientUnits="userSpaceOnUse">
<stop stop-color="#1100FF"/>
<stop offset="1" stop-color="#0086FF"/>
</linearGradient>
</defs>
</svg>
