<svg width="286" height="187" viewBox="0 0 286 187" fill="none" xmlns="http://www.w3.org/2000/svg">
<g clip-path="url(#clip0_936_7218)">
<path d="M280.147 44.0894L275.688 65.7004L272.819 62.9023L267.936 66.386L264.205 61.7504L255.838 67.841L248.686 55.8696L240.711 60.5472L237.547 56.1774L227.419 61.8903L224.372 55.3613L231.472 20.9395L269.534 28.8069L280.147 44.0894Z" fill="#EBEBEB"/>
<path d="M269.534 28.807L280.146 44.0895L266.944 41.3613L269.534 28.807Z" fill="#DBDBDB"/>
<path d="M274.736 70.0236L268.199 101.731L216.93 91.1403L223.42 59.6798L226.466 66.2135L236.599 60.5006L239.758 64.8657L247.738 60.1881L254.885 72.1595L263.256 66.0689L266.983 70.7045L271.87 67.2208L274.736 70.0236Z" fill="#EBEBEB"/>
<path d="M201.357 66.3067L149.109 69.5432L144.958 2.40174L183.756 0L197.998 11.9574L201.357 66.3067Z" fill="#EBEBEB"/>
<path d="M183.758 0L198 11.9574L184.546 12.7922L183.758 0Z" fill="#DBDBDB"/>
<path d="M169.275 45.1713L169.074 43.6556C168.548 40.5171 169.405 37.0054 172.13 33.3351C174.586 30.0893 175.918 27.7249 175.774 25.0899C175.606 22.1053 173.626 20.2212 169.941 20.3704C167.835 20.487 165.538 21.3218 164.141 22.5157L162.533 18.9107C164.383 17.3997 167.663 16.2758 170.761 16.1032C177.479 15.7255 180.749 19.7082 181.001 24.1526C181.224 28.1306 179.165 31.1199 176.547 34.613C174.148 37.7982 173.356 40.4238 173.696 43.3991L173.84 44.9148L169.275 45.1713ZM168.445 53.4352C168.324 51.2713 169.699 49.667 171.744 49.5551C173.789 49.4385 175.275 50.8842 175.396 53.0481C175.513 55.0954 174.255 56.7509 172.093 56.8722C170.053 56.9841 168.562 55.4825 168.445 53.4352Z" fill="#DBDBDB"/>
<path d="M38.6018 33.7549L33.3421 31.3672L32.6153 32.9808C32.401 33.4565 31.9351 33.7549 31.418 33.7783C31.1292 33.7922 30.845 33.8202 30.5608 33.8622C30.0483 33.9415 29.5359 33.7316 29.2331 33.3119L28.2035 31.8755L23.5075 35.2426L24.5371 36.679C24.8399 37.0987 24.8678 37.6537 24.6302 38.1154C24.4951 38.3719 24.3787 38.633 24.2762 38.9035C24.0898 39.3885 23.6519 39.7336 23.1348 39.7803L21.3738 39.9528L21.9421 45.703L23.7078 45.5258C24.2249 45.4745 24.7141 45.731 24.9983 46.1694C25.0728 46.2906 25.152 46.4072 25.2359 46.5238C25.3197 46.6404 25.4036 46.7523 25.4921 46.8642C25.8136 47.27 25.9021 47.8156 25.6878 48.2866L24.9517 49.9096L30.2114 52.2973L30.9428 50.6837C31.1571 50.208 31.623 49.9096 32.1401 49.8862C32.4243 49.8722 32.7131 49.8443 32.9973 49.8023C33.5098 49.723 34.0223 49.9329 34.3251 50.3526L35.3547 51.789L40.0507 48.4219L39.0211 46.9855C38.7183 46.5658 38.6903 46.0108 38.9279 45.5491C39.0583 45.2926 39.1795 45.0315 39.282 44.7656C39.4683 44.2806 39.9062 43.9355 40.4234 43.8842L42.1844 43.7117L41.6113 37.9615L39.8457 38.134C39.3286 38.1853 38.844 37.9288 38.5599 37.4905C38.4853 37.3692 38.4015 37.2526 38.3176 37.136C38.2338 37.0194 38.1499 36.9075 38.0614 36.7956C37.7353 36.3899 37.6514 35.8396 37.8657 35.3685L38.6018 33.7549ZM35.6202 39.0761C37.1389 41.2027 36.6544 44.1547 34.5301 45.6797C32.4057 47.2 29.452 46.715 27.9286 44.5931C26.4099 42.4665 26.8944 39.5051 29.0188 37.9848C31.1432 36.4598 34.0968 36.9495 35.6202 39.0761Z" fill="#EBEBEB"/>
<path d="M276.152 110.051L272.649 112.075L273.269 113.148C273.45 113.465 273.432 113.852 273.236 114.155C273.124 114.323 273.026 114.5 272.933 114.677C272.77 114.999 272.439 115.209 272.081 115.209H270.841V119.257H272.081C272.444 119.257 272.77 119.467 272.933 119.788C273.026 119.97 273.124 120.143 273.236 120.311C273.436 120.614 273.45 121.006 273.269 121.318L272.649 122.391L276.152 124.415L276.772 123.337C276.954 123.02 277.298 122.848 277.666 122.866C277.764 122.871 277.867 122.876 277.965 122.876C278.062 122.876 278.165 122.871 278.263 122.866C278.626 122.848 278.971 123.02 279.153 123.333L279.777 124.415L283.28 122.391L282.661 121.313C282.479 120.996 282.497 120.609 282.698 120.306C282.81 120.138 282.907 119.966 283.001 119.784C283.164 119.462 283.49 119.252 283.853 119.252H285.092V115.204H283.853C283.49 115.204 283.164 114.994 283.001 114.673C282.907 114.491 282.81 114.318 282.698 114.15C282.497 113.847 282.479 113.455 282.661 113.143L283.28 112.066L279.777 110.042L279.157 111.119C278.975 111.436 278.631 111.609 278.267 111.59C278.17 111.585 278.067 111.581 277.969 111.581C277.871 111.581 277.769 111.585 277.671 111.59C277.308 111.609 276.958 111.436 276.777 111.119L276.152 110.051ZM277.965 113.922C279.795 113.922 281.277 115.405 281.277 117.238C281.277 119.07 279.795 120.558 277.965 120.558C276.134 120.558 274.652 119.07 274.652 117.238C274.647 115.405 276.134 113.922 277.965 113.922Z" fill="#EBEBEB"/>
<path d="M49.2303 16.523L46.0157 18.9807L46.7705 19.9647C46.9941 20.2539 47.0267 20.6409 46.8683 20.972C46.7798 21.1539 46.7052 21.3405 46.6354 21.5317C46.5142 21.8721 46.2161 22.124 45.8573 22.1706L44.6274 22.3291L45.1492 26.3445L46.3791 26.1859C46.7378 26.1393 47.0919 26.3025 47.2969 26.6056C47.4134 26.7735 47.5345 26.9321 47.6649 27.086C47.9025 27.3611 47.9678 27.7436 47.828 28.084L47.3528 29.2266L51.0891 30.7795L51.5643 29.6323C51.7041 29.2965 52.0255 29.0773 52.3889 29.0494C52.4867 29.04 52.5846 29.0307 52.6871 29.0167C52.7849 29.0027 52.8827 28.9887 52.9806 28.9701C53.3393 28.9048 53.7027 29.0307 53.9216 29.3198L54.681 30.3132L57.8955 27.8555L57.1408 26.8668C56.9219 26.5777 56.8892 26.1906 57.0476 25.8595C57.1361 25.6776 57.2107 25.491 57.2806 25.3045C57.4017 24.9641 57.6999 24.7122 58.0586 24.6656L59.2885 24.507L58.7667 20.4917L57.5368 20.6503C57.1781 20.6969 56.824 20.5337 56.619 20.2352C56.5072 20.0673 56.3814 19.9088 56.251 19.7549C56.0134 19.4797 55.9482 19.0973 56.0879 18.7569L56.5631 17.6096L52.8268 16.0566L52.3516 17.2039C52.2119 17.5397 51.8904 17.7542 51.5317 17.7868C51.4339 17.7962 51.3314 17.8055 51.2335 17.8195C51.1357 17.8335 51.0379 17.8475 50.94 17.8661C50.5813 17.9314 50.2133 17.8055 49.9943 17.5163L49.2303 16.523ZM51.527 20.1279C53.3393 19.8901 55.0024 21.1726 55.24 22.9867C55.4776 24.8008 54.1965 26.4704 52.3842 26.7036C50.572 26.9414 48.9042 25.6589 48.6712 23.8401C48.429 22.026 49.7101 20.3658 51.527 20.1279Z" fill="#EBEBEB"/>
<path d="M144.131 187C217.908 187 277.716 180.44 277.716 172.347C277.716 164.254 217.908 157.694 144.131 157.694C70.3541 157.694 10.5463 164.254 10.5463 172.347C10.5463 180.44 70.3541 187 144.131 187Z" fill="#EBEBEB"/>
<path d="M113.033 169.917C111.948 170.286 80.8225 170.393 79.6299 169.647C79.178 169.367 78.8985 164.829 78.7121 159.336C78.6702 158.151 78.6376 156.925 78.6096 155.68L76.0846 139.059L96.8905 138.923L98.8565 155.544L98.7773 159.201C98.7773 159.201 110.713 164.494 111.929 165.454C113.145 166.424 114.119 169.549 113.033 169.917Z" fill="#EB9481"/>
<path d="M113.034 169.917C111.948 170.286 80.8232 170.393 79.6306 169.647C79.0809 169.302 78.7827 162.675 78.615 155.684L98.8619 155.554L98.7827 159.21C98.7827 159.21 110.718 164.503 111.934 165.464C113.146 166.424 114.119 169.549 113.034 169.917Z" fill="white"/>
<path d="M113.035 169.917C111.95 170.286 80.8246 170.393 79.632 169.647C79.1801 169.367 78.9006 164.829 78.7142 159.336L98.7841 159.205C98.7841 159.205 110.72 164.498 111.936 165.459C113.147 166.424 114.121 169.549 113.035 169.917Z" fill="#A6A6A6"/>
<path d="M112.586 168.672C107.368 168.56 86.3104 168.612 81.1439 168.901C81.1019 168.901 81.1019 168.933 81.1439 168.933C86.3151 169.157 107.368 168.933 112.586 168.756C112.698 168.756 112.698 168.677 112.586 168.672Z" fill="#263238"/>
<path d="M109.936 164.349C108.697 164.302 107.49 164.895 106.819 165.636C106.172 166.345 105.622 167.348 105.664 168.43C105.664 168.462 105.724 168.462 105.729 168.43C106.018 166.382 107.872 164.582 109.941 164.414C109.978 164.414 109.978 164.354 109.936 164.349Z" fill="#263238"/>
<path d="M100.814 159.723C98.727 159.7 96.3091 160.446 95.014 162.162C94.9627 162.227 95.0606 162.297 95.1211 162.264C97.0079 161.285 98.7969 160.553 100.851 159.979C100.996 159.942 100.963 159.727 100.814 159.723Z" fill="#263238"/>
<path d="M102.429 160.348C100.342 160.324 97.9244 161.071 96.6292 162.787C96.578 162.852 96.6758 162.922 96.7364 162.889C98.6185 161.91 100.412 161.178 102.467 160.604C102.611 160.562 102.578 160.348 102.429 160.348Z" fill="#263238"/>
<path d="M104.039 160.973C101.952 160.949 99.5342 161.696 98.2391 163.412C98.1878 163.477 98.2857 163.547 98.3462 163.514C100.228 162.535 102.022 161.803 104.076 161.229C104.221 161.187 104.188 160.973 104.039 160.973Z" fill="#263238"/>
<path d="M105.66 161.593C103.573 161.57 101.155 162.316 99.8598 164.032C99.8086 164.097 99.9064 164.167 99.967 164.135C101.849 163.155 103.643 162.423 105.697 161.849C105.842 161.812 105.809 161.598 105.66 161.593Z" fill="#263238"/>
<path d="M82.4576 163.939C80.1143 163.953 80.1329 167.6 82.4809 167.586C84.8242 167.567 84.8056 163.92 82.4576 163.939Z" fill="#263238"/>
<path d="M103.052 154.136C101.99 153.264 100.662 154.127 100.014 155.036C98.9661 156.514 98.244 158.585 98.1369 160.39C98.1322 160.436 98.1695 160.45 98.2021 160.45C98.2487 160.6 98.4257 160.726 98.5794 160.618C100.061 159.583 101.775 158.66 102.898 157.2C103.55 156.351 104.053 154.966 103.052 154.136ZM100.508 158.59C99.7907 159.117 99.0546 159.606 98.3558 160.157C98.7239 159.112 99.0453 158.058 99.5205 157.055C99.7488 156.575 99.9864 156.085 100.28 155.642C100.732 154.952 102.777 153.194 102.991 155.47C103.108 156.724 101.361 157.96 100.508 158.59Z" fill="#263238"/>
<path d="M92.9472 161.187C94.7688 161.462 96.6416 160.935 98.4259 160.651C98.6122 160.623 98.6542 160.408 98.5796 160.268C98.6076 160.245 98.6169 160.212 98.5843 160.18C97.2565 158.958 95.3045 157.965 93.5249 157.624C92.4254 157.414 90.8694 157.717 90.711 159.084C90.5619 160.376 91.885 161.024 92.9472 161.187ZM91.68 159.998C90.2591 158.212 92.9472 158.058 93.7532 158.24C94.2703 158.361 94.7828 158.543 95.2766 158.734C96.3155 159.13 97.2752 159.667 98.2675 160.161C97.3823 160.245 96.5111 160.408 95.6306 160.525C94.5778 160.665 92.4627 160.987 91.68 159.998Z" fill="#263238"/>
<path d="M45.5151 62.2448C45.5151 62.2448 69.68 103.396 70.3276 106.283C71.3199 110.723 76.5936 154.565 76.5936 154.565L101.737 154.112C101.737 154.112 97.4042 115.456 93.2998 102.72C90.3415 93.5467 69.0185 63.1215 69.0185 63.1215L45.5151 62.2448Z" fill="#37474F"/>
<path d="M99.4517 150.256C95.8412 150.228 83.0436 150.083 78.2405 150.536C78.2032 150.54 78.2032 150.601 78.2405 150.606C79.8943 150.843 95.8458 150.475 99.4517 150.358C99.5216 150.354 99.5169 150.256 99.4517 150.256Z" fill="#263238"/>
<path d="M49.6401 66.0222C51.2241 68.5079 52.8965 70.9423 54.5131 73.4093C56.1344 75.8764 57.7463 78.3434 59.3396 80.8291C62.5215 85.7911 65.6242 90.8045 68.6664 95.8505C70.0919 98.2149 71.4523 100.607 72.4353 103.186C73.4043 105.742 74.0658 108.405 74.555 111.086C75.0488 113.787 75.3703 116.515 75.6778 119.243C76.0039 122.148 76.3253 125.049 76.6514 127.955C77.313 133.896 77.9745 139.837 78.6407 145.779C78.7199 146.506 78.8038 147.238 78.8737 147.966C78.883 148.073 78.692 148.092 78.678 147.985C77.9373 142.08 77.3223 136.162 76.6514 130.249C76.316 127.306 75.9806 124.364 75.6498 121.421C75.3377 118.683 75.0442 115.946 74.6202 113.222C74.2056 110.55 73.6605 107.887 72.8499 105.299C72.002 102.594 70.7954 100.057 69.3745 97.5993C66.4628 92.5673 63.3787 87.6239 60.2946 82.6899C57.1826 77.7138 54.0472 72.7564 50.7908 67.869C50.3901 67.2674 49.9848 66.6658 49.5655 66.0735C49.5283 66.0176 49.6121 65.9709 49.6401 66.0222Z" fill="#263238"/>
<path d="M53.4337 172.347C52.2876 172.277 22.686 160.273 21.8614 159.135C21.8335 159.098 21.8195 159.023 21.8148 158.916C21.8195 157.899 23.8693 154.332 25.5837 149.649C25.6909 149.351 26.4549 147.961 27.5171 146.086C30.4335 140.943 35.5907 132.133 35.5907 132.133L54.9384 139.828L45.6769 153.707L44.2373 157.065C44.2373 157.065 53.3172 166.457 54.0859 167.805C54.8453 169.148 54.5751 172.412 53.4337 172.347Z" fill="#EB9481"/>
<path d="M53.4337 172.347C52.2876 172.277 22.686 160.273 21.8614 159.135C21.8335 159.098 21.8195 159.023 21.8148 158.916C21.8195 157.899 23.8693 154.332 25.5837 149.649C25.6909 149.351 26.4549 147.961 27.5171 146.086L45.6769 153.702L44.2373 157.06C44.2373 157.06 53.3172 166.452 54.0859 167.8C54.8453 169.148 54.5751 172.412 53.4337 172.347Z" fill="white"/>
<path d="M53.4328 172.342C52.2868 172.277 22.6898 160.268 21.8652 159.131C21.5531 158.702 22.8762 154.654 25.5875 149.65L44.2365 157.065C44.2365 157.065 53.3164 166.452 54.085 167.8C54.8444 169.148 54.5742 172.412 53.4328 172.342Z" fill="#A6A6A6"/>
<path d="M53.4791 171.023C48.6853 168.961 29.1465 161.099 24.2502 159.429C24.2083 159.415 24.199 159.443 24.2362 159.462C28.9462 161.607 48.5455 169.311 53.4465 171.107C53.5537 171.139 53.5816 171.065 53.4791 171.023Z" fill="#263238"/>
<path d="M52.6405 166.019C51.5084 165.51 50.1714 165.608 49.2676 166.042C48.4011 166.457 47.5159 167.175 47.1479 168.196C47.1385 168.224 47.1898 168.248 47.2084 168.22C48.2427 166.434 50.6372 165.459 52.6172 166.079C52.6591 166.089 52.6778 166.033 52.6405 166.019Z" fill="#263238"/>
<path d="M45.9199 158.3C43.9912 157.494 41.4708 157.279 39.6306 158.384C39.5607 158.426 39.6213 158.529 39.6912 158.52C41.8062 158.319 43.7396 158.314 45.8593 158.552C46.0084 158.571 46.0597 158.361 45.9199 158.3Z" fill="#263238"/>
<path d="M47.1823 159.485C45.2536 158.678 42.7333 158.464 40.8931 159.569C40.8232 159.611 40.8837 159.713 40.9536 159.704C43.0687 159.504 45.0021 159.499 47.1218 159.737C47.2709 159.755 47.3221 159.546 47.1823 159.485Z" fill="#263238"/>
<path d="M48.4503 160.67C46.5216 159.867 44.0012 159.648 42.161 160.754C42.0911 160.795 42.1517 160.898 42.2216 160.889C44.3366 160.688 46.27 160.684 48.3897 160.921C48.5342 160.94 48.5854 160.73 48.4503 160.67Z" fill="#263238"/>
<path d="M49.7129 161.854C47.7842 161.047 45.2638 160.833 43.4236 161.938C43.3537 161.98 43.4143 162.083 43.4841 162.073C45.5992 161.873 47.5326 161.868 49.6523 162.106C49.7967 162.124 49.848 161.915 49.7129 161.854Z" fill="#263238"/>
<path d="M27.3233 155.316C25.1477 154.448 23.7967 157.834 25.977 158.701C28.1572 159.569 29.5036 156.183 27.3233 155.316Z" fill="#263238"/>
<path d="M50.0892 153.963C49.4323 152.755 47.881 153.054 46.9352 153.66C45.4072 154.635 43.9676 156.286 43.1896 157.918C43.171 157.96 43.1943 157.988 43.2269 157.997C43.2129 158.151 43.3294 158.338 43.5111 158.296C45.2721 157.895 47.2101 157.68 48.7941 156.752C49.7212 156.202 50.7088 155.106 50.0892 153.963ZM46.0594 157.134C45.1975 157.354 44.331 157.531 43.4738 157.778C44.2052 156.948 44.8994 156.094 45.7193 155.339C46.1106 154.98 46.5159 154.616 46.9492 154.313C47.6247 153.842 50.1777 152.984 49.5255 155.171C49.1714 156.384 47.089 156.873 46.0594 157.134Z" fill="#263238"/>
<path d="M38.0828 156.705C39.6667 157.643 41.6001 157.857 43.3611 158.268C43.5428 158.31 43.6639 158.128 43.6499 157.974C43.6826 157.965 43.7059 157.937 43.6872 157.895C42.9139 156.262 41.479 154.607 39.9509 153.627C39.0098 153.021 37.4538 152.718 36.7969 153.921C36.1727 155.059 37.1557 156.155 38.0828 156.705ZM37.356 155.129C36.7084 152.937 39.2614 153.805 39.9369 154.28C40.3702 154.584 40.7755 154.947 41.1668 155.311C41.9821 156.067 42.6716 156.925 43.403 157.755C42.5505 157.503 41.684 157.326 40.8221 157.102C39.7925 156.836 37.7101 156.337 37.356 155.129Z" fill="#263238"/>
<path d="M47.1724 152.928L25.5139 144.174C25.5139 144.174 52.3669 104.655 52.5625 101.713C52.7396 99.1056 40.9437 76.4313 40.4778 69.823C39.9746 62.6924 43.4081 57.1707 47.177 53.7477L69.5203 63.252C69.5203 63.252 67.163 67.0295 63.45 69.1281C63.45 69.1281 74.9058 95.3374 74.2583 103.396C73.6014 111.501 47.1724 152.928 47.1724 152.928Z" fill="#37474F"/>
<path d="M48.1328 148.805C45.0022 147.458 45.9199 147.798 42.7706 146.488C41.2286 145.844 31.1098 141.633 29.5678 141.288C29.5352 141.278 29.5119 141.334 29.5398 141.353C30.8862 142.178 41.0795 146.212 42.6355 146.828C45.8081 148.078 44.909 147.686 48.0956 148.903C48.1561 148.922 48.1934 148.833 48.1328 148.805Z" fill="#263238"/>
<path d="M67.1263 68.6525C64.797 69.1515 62.5142 69.977 60.3199 70.863C60.2361 70.8957 60.2733 71.0263 60.3665 70.9983C62.6493 70.3314 64.974 69.7065 67.2148 68.9183C67.3919 68.853 67.3034 68.6152 67.1263 68.6525Z" fill="#263238"/>
<path d="M64.475 67.7339C64.2561 68.1163 64.0697 68.522 63.902 68.9324C63.7716 69.2495 63.6085 69.59 63.6085 69.9351C63.6085 70.0004 63.697 70.019 63.739 69.977C63.9999 69.7205 64.135 69.3475 64.298 69.0303C64.489 68.6619 64.6847 68.2935 64.8664 67.9204C64.9875 67.6732 64.6101 67.496 64.475 67.7339Z" fill="#263238"/>
<path d="M64.746 65.6305C64.8811 65.2854 65.0208 64.945 65.1652 64.5999C65.3143 64.2455 65.4867 63.9004 65.6125 63.5366C65.6311 63.4806 65.7243 63.5179 65.701 63.5739C65.5659 63.919 65.4774 64.2874 65.3656 64.6419C65.2538 64.9963 65.142 65.3507 65.0208 65.7052C64.8019 66.3627 64.5363 67.0156 64.2521 67.6499C64.6155 67.6452 64.9929 67.6312 65.3236 67.4633C65.6824 67.2814 65.9013 66.899 66.0784 66.5539C66.274 66.1669 66.4557 65.7751 66.6607 65.3927C66.8843 64.9683 67.1312 64.5533 67.2803 64.0962C67.2989 64.0403 67.3875 64.0776 67.3688 64.1335C67.0334 65.0756 66.7026 66.0223 66.1762 66.8897C65.9712 67.2301 65.8035 67.5892 65.4261 67.7198C65.0208 67.8644 64.5736 67.8364 64.1496 67.8038C64.0984 67.8178 64.0285 67.7851 64.0471 67.7198C64.2521 67.0249 64.4758 66.3114 64.746 65.6305Z" fill="#263238"/>
<path d="M63.7937 69.9862C64.5857 71.6698 65.2845 73.3486 66.0299 75.0275C66.7567 76.6691 67.4322 78.3293 68.0937 79.9942C69.4261 83.366 70.6187 86.7984 71.667 90.2681C72.1841 91.9843 72.6639 93.7145 73.0925 95.454C73.5258 97.1982 73.9451 98.961 74.1268 100.756C74.3085 102.557 74.178 104.333 73.6795 106.073C73.1717 107.836 72.5009 109.379 71.7089 111.03C71.2244 112.038 71.0567 111.902 71.2896 111.394C71.9558 109.948 73.7028 105.569 73.577 101.89C73.5165 100.113 73.1531 98.3641 72.7524 96.6385C72.3425 94.8757 71.8813 93.1269 71.3781 91.392C70.3858 87.969 69.2072 84.6158 67.9959 81.2674C67.3157 79.3926 66.5889 77.5365 65.8994 75.6618C65.2053 73.7777 64.4878 72.0802 63.7192 70.0189C63.6912 69.9629 63.7704 69.9349 63.7937 69.9862Z" fill="#263238"/>
<path d="M47.3552 64.4179C47.7418 64.2733 48.2822 64.5111 48.6782 64.5764C49.186 64.6604 49.6985 64.7117 50.211 64.7303C50.7188 64.749 51.2266 64.7257 51.7344 64.679C52.2375 64.6277 52.7546 64.5671 53.1926 64.2919C53.9333 63.8303 54.5482 63.0188 55.0514 62.3146C55.6011 61.5451 56.1741 60.659 56.5003 59.7683C56.5189 59.7123 56.5981 59.7496 56.5841 59.8056C56.4211 60.3232 56.2999 60.8502 56.0903 61.3586C55.8946 61.8342 55.643 62.2913 55.3775 62.7343C54.879 63.5551 54.306 64.4365 53.4488 64.9262C52.5496 65.4392 51.3943 65.4065 50.3926 65.3506C49.815 65.3179 49.2373 65.2387 48.6689 65.1221C48.2589 65.0335 47.5695 64.9682 47.3086 64.6091C47.2527 64.5438 47.2806 64.4458 47.3552 64.4179Z" fill="#263238"/>
<path d="M31.6973 140.042C35.2566 134.651 38.7506 129.214 42.1795 123.739C45.6176 118.25 48.9952 112.719 52.3262 107.16C53.1228 105.83 54.0406 104.501 54.5531 103.028C55.1121 101.428 54.7953 99.8751 54.2875 98.3128C53.3604 95.44 52.2097 92.6466 50.9612 89.8997C49.7126 87.1435 48.3663 84.434 47.0432 81.7151C45.7294 79.0196 44.3365 76.3101 43.3395 73.4746C42.3891 70.7651 42.0257 67.9576 42.7572 65.1501C43.4793 62.3613 45.0446 59.8616 46.6798 57.5252C47.1131 56.9096 47.551 56.2987 47.9843 55.6831C48.0169 55.6364 48.0868 55.6924 48.0541 55.739C46.2512 58.1734 44.4949 60.7524 43.4373 63.6111C42.9155 65.0242 42.5755 66.5119 42.5429 68.0182C42.5102 69.5479 42.7944 71.0682 43.2463 72.5279C44.1222 75.3634 45.5058 78.0496 46.7963 80.7125C48.1147 83.436 49.4657 86.1409 50.7376 88.8877C52.0141 91.6486 53.2114 94.456 54.1944 97.3381C54.6323 98.6206 55.1214 99.9637 55.0888 101.339C55.0562 102.846 54.3388 104.203 53.5934 105.471C50.3556 111.002 46.9919 116.459 43.5911 121.887C40.1762 127.334 36.6915 132.744 33.1508 138.112C32.7036 138.788 32.2564 139.464 31.8091 140.14C31.7625 140.224 31.6414 140.126 31.6973 140.042Z" fill="#263238"/>
<path d="M70.7623 38.1153C72.7795 42.5457 82.9635 48.6503 87.7341 49.3079C91.1676 49.7789 101.589 49.9421 105.162 49.3965C109.351 48.7576 106.15 37.4438 103.676 37.7329C96.8745 38.5304 91.0977 39.4165 89.2854 39.4165C87.0679 39.4165 75.0716 35.5597 73.6228 35.0187C70.0868 33.6943 69.6209 35.6063 70.7623 38.1153Z" fill="#EB9481"/>
<path d="M70.8254 39.2907C73.3784 43.0729 81.8666 49.2568 81.8666 49.2568L83.0452 46.6452L86.9446 38.0129C86.9446 38.0129 79.1505 35.5505 74.0213 34.4546C73.3271 34.3054 72.7168 34.2168 72.1857 34.1934C68.906 34.0116 68.6218 36.0356 70.8254 39.2907Z" fill="#FFC727"/>
<path d="M70.8254 39.2906C73.3784 43.0727 81.8666 49.2566 81.8666 49.2566L83.0452 46.645C79.8819 42.9655 74.9949 37.3925 72.1857 34.1886C68.906 34.0114 68.6218 36.0354 70.8254 39.2906Z" fill="#263238"/>
<path d="M80.3329 47.5079C80.9805 45.9223 83.8596 39.5192 84.577 38.1761C84.6283 38.0828 84.6981 38.0921 84.6562 38.1947C82.83 42.9935 81.1063 46.0062 80.3935 47.5312C80.3795 47.5685 80.3143 47.5499 80.3329 47.5079Z" fill="#263238"/>
<path d="M102.431 37.8588C106.573 37.3131 111.693 36.3851 116.025 38.2272C116.878 38.591 117.185 39.2252 117.185 39.2252C119.142 40.018 119.356 41.1793 119.356 41.1793C120.954 42.4757 121.01 43.6976 121.01 43.6976C121.01 43.6976 123.298 44.6536 122.953 46.132C122.571 47.7922 119.431 46.1273 117.143 46.2672C111.907 46.589 104.551 48.5151 103.051 48.7622L102.431 37.8588Z" fill="#EB9481"/>
<path d="M111.419 42.7462C112.961 42.6809 114.475 42.5783 116.021 42.7229C117.717 42.8815 119.32 43.3199 120.96 43.7256C121.011 43.7396 121.034 43.6696 120.983 43.6463C118.122 42.4431 114.456 42.126 111.414 42.6763C111.344 42.6903 111.344 42.7462 111.419 42.7462Z" fill="#263238"/>
<path d="M110.768 39.6075C112.273 39.6262 114.919 39.6822 119.345 41.2258C119.359 41.2305 119.373 41.2071 119.359 41.2025C116.619 39.8174 113.81 39.3231 110.772 39.5376C110.675 39.5422 110.665 39.6075 110.768 39.6075Z" fill="#263238"/>
<path d="M110.446 37.9195C113.004 38.0501 114.602 38.4605 117.173 39.2346C117.187 39.2393 117.201 39.216 117.183 39.2066C114.35 38.0174 113.19 37.9102 110.437 37.8309C110.344 37.8262 110.348 37.9102 110.446 37.9195Z" fill="#263238"/>
<path d="M110.857 47.0554C110.19 47.3679 110.349 47.7176 111.625 48.0161C112.911 48.3192 118.185 48.3985 117.998 50.2406C117.817 52.0921 110.353 51.8542 108.271 51.2013C106.188 50.5531 103.048 48.7576 103.048 48.7576C104.511 48.5151 107.996 47.5777 110.857 47.0554Z" fill="#EB9481"/>
<path d="M76.301 45.1807C76.2684 45.9781 76.1892 46.7896 76.0774 47.5917C76.0867 47.5638 76.1007 47.5358 76.11 47.5078C76.2637 47.0881 76.4175 46.659 76.6038 46.2533C76.6132 46.23 76.6504 46.2393 76.6458 46.2626C76.5619 46.701 76.4082 47.144 76.2405 47.5591C76.1613 47.7596 76.0774 47.9555 75.9935 48.1514C75.9376 48.5105 75.8724 48.8649 75.7979 49.2147C75.6581 49.8816 75.0292 52.717 74.8894 53.1974C74.8615 53.3 74.7403 53.2766 74.745 53.1647C74.7776 52.6424 75.3087 49.6857 75.4159 49.0188C75.6208 47.7363 75.905 46.4259 76.2451 45.1714C76.2591 45.1387 76.3057 45.1527 76.301 45.1807Z" fill="#263238"/>
<path d="M71.4446 66.3814C70.2007 67.0249 68.5981 68.0183 61.377 66.5912C60.9251 66.498 60.4732 66.3907 60.0167 66.2508C53.2475 64.2128 45.1227 56.2428 44.6661 55.6831C44.6661 55.6831 55.4185 38.2274 69.1758 32.7383C70.8762 32.0621 73.6901 33.3679 75.2507 34.9955C75.8051 35.5785 77.0164 39.8596 76.5505 43.3293C76.0847 46.8037 72.6931 65.7471 71.4446 66.3814Z" fill="#FFC727"/>
<path d="M70.4857 43.1754C70.523 43.5485 70.4951 43.9169 70.4485 44.2807C70.3926 44.6444 70.3227 45.0035 70.1829 45.3533C70.141 44.9802 70.1736 44.6118 70.2202 44.248C70.2714 43.8843 70.3413 43.5252 70.4857 43.1754Z" fill="white"/>
<path d="M65.7942 55.0629C65.8315 55.436 65.8035 55.8044 65.7569 56.1681C65.701 56.5319 65.6311 56.891 65.4914 57.2408C65.4495 56.8677 65.4821 56.4992 65.5287 56.1355C65.5846 55.7717 65.6544 55.4126 65.7942 55.0629Z" fill="white"/>
<path d="M57.8225 46.0809C57.8598 46.454 57.8318 46.8224 57.7853 47.1862C57.7293 47.55 57.6595 47.9091 57.5197 48.2588C57.4778 47.8857 57.5104 47.5173 57.557 47.1536C57.6082 46.7898 57.6828 46.4307 57.8225 46.0809Z" fill="white"/>
<path d="M73.5565 54.4613C73.5938 54.8344 73.5658 55.2028 73.5193 55.5666C73.4634 55.9303 73.3935 56.2894 73.2537 56.6392C73.2118 56.2661 73.2444 55.8977 73.291 55.5339C73.3469 55.1702 73.4168 54.8111 73.5565 54.4613Z" fill="white"/>
<path d="M63.322 44.5372C63.6947 44.4999 64.0628 44.5279 64.4261 44.5745C64.7895 44.6305 65.1482 44.7004 65.4977 44.8403C65.125 44.8823 64.7569 44.8496 64.3935 44.803C64.0302 44.7517 63.6714 44.6771 63.322 44.5372Z" fill="white"/>
<path d="M54.2753 53.1274C54.648 53.0901 55.016 53.1181 55.3794 53.1647C55.7428 53.2207 56.1015 53.2906 56.4509 53.4305C56.0782 53.4725 55.7102 53.4399 55.3468 53.3932C54.9834 53.3373 54.6247 53.2673 54.2753 53.1274Z" fill="white"/>
<path d="M64.9153 62.422C65.288 62.3846 65.656 62.4126 66.0194 62.4593C66.3828 62.5152 66.7415 62.5852 67.0909 62.7251C66.7182 62.7671 66.3502 62.7344 65.9868 62.6878C65.6234 62.6318 65.2647 62.5619 64.9153 62.422Z" fill="white"/>
<path d="M51.4857 59.0456C51.8584 59.0083 52.2265 59.0363 52.5898 59.0829C52.9532 59.1389 53.3119 59.2088 53.6613 59.3487C53.2886 59.3907 52.9206 59.3581 52.5572 59.3114C52.1938 59.2555 51.8351 59.1855 51.4857 59.0456Z" fill="white"/>
<path d="M70.4172 34.823C70.7899 34.7856 71.158 34.8136 71.5214 34.8603C71.8847 34.9162 72.2435 34.9862 72.5929 35.1261C72.2202 35.1681 71.8521 35.1354 71.4887 35.0888C71.1254 35.0328 70.7666 34.9629 70.4172 34.823Z" fill="white"/>
<path d="M67.7861 37.7983C67.5485 38.0921 67.269 38.33 66.9801 38.5538C66.6866 38.773 66.3838 38.9736 66.0344 39.1228C66.272 38.829 66.5515 38.5911 66.8404 38.3673C67.1385 38.1481 67.4414 37.9429 67.7861 37.7983Z" fill="white"/>
<path d="M53.4414 46.2487C53.2038 46.5425 52.9243 46.7803 52.6354 47.0042C52.3419 47.2233 52.0391 47.4239 51.6897 47.5731C51.9273 47.2793 52.2068 47.0415 52.4957 46.8176C52.7892 46.6031 53.0966 46.3979 53.4414 46.2487Z" fill="white"/>
<path d="M71.353 50.0681C71.1154 50.3619 70.8359 50.5998 70.547 50.8236C70.2535 51.0428 69.9507 51.2433 69.6013 51.3926C69.8389 51.0988 70.1184 50.8609 70.4073 50.6371C70.7008 50.4225 71.0036 50.2173 71.353 50.0681Z" fill="white"/>
<path d="M59.7536 57.3806C59.516 57.6744 59.2365 57.9123 58.9477 58.1361C58.6542 58.3553 58.3514 58.5558 58.002 58.7051C58.2395 58.4113 58.5191 58.1734 58.8079 57.9496C59.1014 57.7304 59.4042 57.5298 59.7536 57.3806Z" fill="white"/>
<path d="M75.7964 40.0742C75.5588 40.368 75.2792 40.6059 74.9904 40.8297C74.6969 41.0489 74.3941 41.2494 74.0447 41.3987C74.2823 41.1049 74.5618 40.867 74.8506 40.6432C75.1441 40.4287 75.447 40.2235 75.7964 40.0742Z" fill="white"/>
<path d="M75.5498 48.5525C75.2563 48.3146 75.0187 48.0348 74.7951 47.7457C74.5761 47.4518 74.3758 47.1487 74.2267 46.799C74.5202 47.0368 74.7578 47.3166 74.9814 47.6058C75.2004 47.8996 75.4053 48.2074 75.5498 48.5525Z" fill="white"/>
<path d="M49.6994 54.3867C49.4059 54.1488 49.1683 53.869 48.9447 53.5799C48.7257 53.2861 48.5254 52.9829 48.3763 52.6332C48.6698 52.871 48.9074 53.1508 49.1311 53.44C49.35 53.7384 49.5503 54.0416 49.6994 54.3867Z" fill="white"/>
<path d="M72.4129 61.3353C72.1194 61.0974 71.8818 60.8176 71.6582 60.5285C71.4392 60.2347 71.2389 59.9316 71.0898 59.5818C71.3833 59.8196 71.6209 60.0994 71.8446 60.3886C72.0635 60.6824 72.2638 60.9902 72.4129 61.3353Z" fill="white"/>
<path d="M61.0285 41.5384C60.735 41.3006 60.4974 41.0208 60.2738 40.7316C60.0549 40.4378 59.8545 40.1347 59.7054 39.7849C59.9989 40.0228 60.2365 40.3026 60.4602 40.5917C60.6745 40.8855 60.8794 41.1933 61.0285 41.5384Z" fill="white"/>
<path d="M61.227 65.29C60.9335 65.0522 60.6959 64.7723 60.4723 64.4832C60.2533 64.1894 60.053 63.8863 59.9039 63.5365C60.1974 63.7743 60.435 64.0542 60.6587 64.3433C60.8776 64.6371 61.0779 64.9402 61.227 65.29Z" fill="white"/>
<path d="M63.1621 51.2761C62.8686 51.0382 62.631 50.7584 62.4074 50.4693C62.1884 50.1755 61.9881 49.8724 61.839 49.5226C62.1325 49.7604 62.3701 50.0402 62.5937 50.3294C62.8127 50.6278 63.0176 50.931 63.1621 51.2761Z" fill="white"/>
<path d="M72.7259 39.6451C70.9743 39.3187 69.3204 35.6857 69.1108 33.242C69.0968 33.0741 69.9307 31.745 70.8671 30.0801C71.4308 29.0681 72.0365 27.9255 72.5116 26.8483C72.6095 26.6244 73.1825 27.3659 73.1825 27.3659L74.431 28.322L78.554 31.4885C78.554 31.4885 76.8862 33.4612 76.0663 35.35C76.001 35.5085 75.9498 35.6624 75.9172 35.8163C75.9125 35.8396 75.9079 35.863 75.8939 35.8956C75.6703 36.7957 74.4171 39.9622 72.7259 39.6451Z" fill="#EB9481"/>
<path d="M75.9286 35.8163C75.924 35.8396 75.9193 35.8629 75.9053 35.8956C75.6817 35.8303 75.4441 35.7417 75.1925 35.6251C70.6782 33.5078 72.6675 27.4498 72.6675 27.4498L74.4332 28.3266L78.5562 31.4931C78.5562 31.4931 76.8883 33.4658 76.0684 35.3546C76.0078 35.5085 75.9612 35.6624 75.9286 35.8163Z" fill="#263238"/>
<path d="M83.2955 18.5844C83.2955 18.5844 85.3593 19.8948 85.3733 22.2266C85.3873 24.5584 84.4602 26.8389 84.2459 26.9182C84.027 27.0021 83.2955 18.5844 83.2955 18.5844Z" fill="#263238"/>
<path d="M73.0588 19.7921C71.8196 22.2451 71.8802 29.9587 73.4315 31.9454C75.677 34.8275 80.0003 35.8208 82.6139 32.9714C85.1436 30.2105 84.8874 20.1559 83.0937 18.2811C80.4569 15.5249 74.8944 16.1732 73.0588 19.7921Z" fill="#EB9481"/>
<path d="M79.6347 25.9761C79.6301 25.9575 79.5928 26.0041 79.5974 26.0228C79.6254 26.5497 79.5695 27.156 79.0989 27.3426C79.085 27.3472 79.085 27.3752 79.1036 27.3705C79.6813 27.2726 79.7465 26.4705 79.6347 25.9761Z" fill="#263238"/>
<path d="M79.1556 25.4353C78.3077 25.3886 78.2844 27.0908 79.0671 27.1281C79.8358 27.1701 79.8637 25.4726 79.1556 25.4353Z" fill="#263238"/>
<path d="M82.5105 25.9574C82.5151 25.9388 82.5524 25.9807 82.5524 26.004C82.5291 26.531 82.585 27.1373 83.0602 27.3192C83.0742 27.3238 83.0742 27.3518 83.0555 27.3472C82.4732 27.2539 82.4033 26.4517 82.5105 25.9574Z" fill="#263238"/>
<path d="M82.9905 25.4118C83.8384 25.3605 83.8757 27.058 83.093 27.1047C82.3197 27.156 82.2824 25.4584 82.9905 25.4118Z" fill="#263238"/>
<path d="M78.6234 24.1434C78.8563 24.0874 79.0613 23.9988 79.2849 23.9242C79.5365 23.8356 79.7461 23.7936 79.9138 23.5697C80.0024 23.4485 79.9698 23.234 79.8626 23.136C79.611 22.9075 79.2756 22.9355 78.9681 23.0288C78.6327 23.1314 78.3998 23.2946 78.2041 23.5837C78.0177 23.8635 78.3159 24.218 78.6234 24.1434Z" fill="#263238"/>
<path d="M83.5737 24.8989C83.3407 24.8569 83.1311 24.7776 82.9028 24.7124C82.6466 24.6377 82.4323 24.6051 82.2552 24.3906C82.1574 24.274 82.1807 24.0595 82.2832 23.9522C82.5208 23.7097 82.8562 23.7237 83.173 23.7983C83.5131 23.8822 83.7507 24.0315 83.965 24.3113C84.1653 24.5818 83.8811 24.9502 83.5737 24.8989Z" fill="#263238"/>
<path d="M78.4368 30.9568C78.5626 31.0828 78.6838 31.2553 78.8748 31.274C79.0564 31.2926 79.2708 31.2133 79.4431 31.1527C79.4618 31.1481 79.4757 31.1667 79.4664 31.1807C79.3267 31.3812 79.0378 31.5025 78.7956 31.4558C78.558 31.4092 78.4462 31.204 78.3903 30.9848C78.3809 30.9522 78.4229 30.9382 78.4368 30.9568Z" fill="#263238"/>
<path d="M81.4865 28.709C81.4865 28.709 81.5098 29.4971 81.4679 29.8609C81.4632 29.8935 80.4336 29.693 79.3248 29.9355C79.1571 29.9728 79.1758 29.8375 79.3668 29.7489C79.7534 29.5717 80.238 29.4038 81.1883 29.5064C81.2256 29.4085 81.1324 28.2939 81.1883 28.2986C81.3887 28.3032 81.7707 28.4804 81.999 28.5784C81.999 26.9368 81.7381 25.3092 81.7614 23.677C81.7614 23.621 81.8499 23.6117 81.8592 23.663C82.2552 25.3512 82.2925 27.2399 82.339 28.9328C82.3484 29.1473 81.6263 28.7882 81.4865 28.709Z" fill="#263238"/>
<path d="M80.442 29.5811C80.442 29.5811 80.074 30.5044 79.4637 30.7516C78.7602 31.0361 78.518 30.3972 79.2354 29.8329C79.6174 29.5391 80.442 29.5811 80.442 29.5811Z" fill="#263238"/>
<path d="M79.7107 30.607C79.6315 30.6677 79.5523 30.719 79.4637 30.7516C78.8162 31.0128 78.5599 30.4951 79.0817 29.9728C79.4358 30.0008 79.8225 30.1313 79.7107 30.607Z" fill="#FF99BA"/>
<path d="M72.7053 26.3959C73.5579 26.657 74.5362 24.0921 74.8157 23.108C75.058 22.2406 75.3421 19.4844 75.3841 19.2932C75.426 19.1067 79.0971 21.7323 81.2448 21.1027C83.3924 20.4731 84.8273 18.5471 84.8553 17.647C84.8832 16.7469 82.2184 14.4618 79.9124 14.3452C77.6063 14.2286 74.4849 17.162 74.4849 17.162C74.4849 17.162 75.5471 15.8935 75.5099 15.7909C75.4726 15.6883 73.9818 16.2852 73.7069 17.3439C73.7069 17.3439 74.0004 16.0101 73.8886 15.9868C73.7768 15.9634 72.6168 17.106 72.8777 17.9688C72.8777 17.9688 71.536 19.13 71.4148 20.4032C71.289 21.6763 71.7037 26.0881 72.7053 26.3959Z" fill="#263238"/>
<path d="M82.7657 20.655C82.1134 20.9535 81.4565 21.2846 80.7391 21.3825C79.9611 21.4851 79.1505 21.2893 78.4237 21.0094C77.683 20.725 77.0075 20.3099 76.3925 19.8062C75.8567 19.3632 75.3769 18.8315 74.8039 18.4351C74.6595 18.3372 74.4964 18.5424 74.5803 18.6777C75.4514 19.9835 76.9935 21.0794 78.475 21.5504C80.0356 22.0448 81.5078 21.6996 82.7703 20.6737C82.7796 20.6643 82.775 20.6503 82.7657 20.655Z" fill="#263238"/>
<path d="M73.5938 26.1673C73.5938 26.1673 72.2707 23.4811 71.0781 23.9148C69.8855 24.3485 70.6215 28.0654 71.8375 28.7416C73.0534 29.4225 73.7056 28.3079 73.7056 28.3079L73.5938 26.1673Z" fill="#EB9481"/>
<path d="M71.3144 24.9734C71.2958 24.9688 71.2865 24.9967 71.3004 25.0061C72.1483 25.5144 72.4977 26.4285 72.6981 27.3472C72.4791 26.9694 72.1437 26.7316 71.6452 26.9834C71.6172 26.9974 71.6359 27.0394 71.6638 27.0347C72.0458 27.0114 72.3067 27.1187 72.5117 27.4544C72.6561 27.6923 72.7353 27.9768 72.8285 28.2379C72.8564 28.3265 73.0102 28.3032 72.9962 28.2053C72.9962 28.196 72.9915 28.1913 72.9915 28.182C73.1872 27.0347 72.535 25.2812 71.3144 24.9734Z" fill="#263238"/>
<path d="M64.8584 38.1572C63.9453 43.441 69.6476 61.2418 73.3141 64.567C78.7694 69.5104 88.8556 72.7609 92.5127 73.8195C94.106 74.2812 98.5132 63.0606 96.9012 62.3191C93.4491 60.7382 82.7247 57.3897 81.7138 56.527C80.7028 55.6689 74.5393 46.7894 71.8 41.6735C68.1289 34.8087 65.3197 35.4849 64.8584 38.1572Z" fill="#EB9481"/>
<path d="M94.1837 61.3352C94.1837 61.3352 98.9403 62.5477 102.015 63.4898C103.729 64.0121 106.59 65.178 107.675 66.1387C109.297 67.5797 115.157 74.6311 113.48 76.0908C111.961 77.4105 107.694 70.709 107.694 70.709C107.694 70.709 112.595 77.0888 110.475 78.3433C108.356 79.5978 104.54 71.3852 104.54 71.3852C104.54 71.3852 109.432 78.0541 107.037 79.0008C105.23 79.7143 101.353 72.4718 101.353 72.4718C101.353 72.4718 105.518 78.2313 103.692 79.0475C101.675 79.9475 97.6777 73.4885 97.6777 73.4885C92.6836 74.7803 89.7812 73.3486 87.8338 72.0847C87.3633 71.7863 94.1837 61.3352 94.1837 61.3352Z" fill="#EB9481"/>
<path d="M106.134 68.3959C106.735 69.1234 107.35 69.8603 107.891 70.6391C108.427 71.4179 108.934 72.22 109.396 73.0455C110.528 75.0741 110.919 76.5199 110.886 76.4312C110.085 74.3793 108.208 71.5578 107.672 70.779C107.136 70.0002 106.642 69.1934 106.106 68.4146C106.092 68.3959 106.12 68.3773 106.134 68.3959Z" fill="#263238"/>
<path d="M103.291 70.2799C104.325 71.1007 106.492 74.1554 107.33 76.198C107.367 76.282 107.321 76.2773 107.27 76.198C106.613 75.186 103.971 71.2686 103.268 70.2939C103.254 70.2846 103.277 70.2706 103.291 70.2799Z" fill="#263238"/>
<path d="M100.555 71.4598C101.752 72.6444 102.754 74.2627 103.546 76.1328C103.583 76.2167 103.513 76.2027 103.467 76.1234C102.502 74.5518 101.757 73.3113 100.508 71.4972C100.485 71.4738 100.527 71.4319 100.555 71.4598Z" fill="#263238"/>
<path d="M70.0425 38.549C65.7891 32.5283 63.2454 34.7575 64.098 41.2958C64.8946 47.4098 67.0376 54.6943 67.0376 54.6943L77.7714 49.4897C77.7714 49.4851 72.7632 42.4011 70.0425 38.549Z" fill="#FFC727"/>
<path d="M72.6423 40.9135C72.796 41.2586 72.8752 41.613 72.9451 41.9767C73.0057 42.3358 73.0476 42.7043 73.0196 43.0774C72.8659 42.7322 72.782 42.3778 72.7168 42.0141C72.6562 41.655 72.6143 41.2912 72.6423 40.9135Z" fill="white"/>
<path d="M66.2935 44.5791C66.6382 44.4252 66.9969 44.3459 67.3556 44.276C67.7144 44.2154 68.0824 44.1734 68.4551 44.2014C68.1104 44.3553 67.7563 44.4392 67.3929 44.5045C67.0295 44.5605 66.6662 44.6024 66.2935 44.5791Z" fill="white"/>
<path d="M66.5692 35.21C66.4341 35.5597 66.2384 35.8722 66.0334 36.1753C65.8191 36.4738 65.5908 36.7583 65.3066 37.0054C65.4417 36.6557 65.6374 36.3432 65.8424 36.0401C66.0567 35.7463 66.285 35.4571 66.5692 35.21Z" fill="white"/>
<path d="M75.627 47.3912C75.4919 47.741 75.2962 48.0535 75.0913 48.3566C74.877 48.6551 74.6487 48.9395 74.3645 49.1867C74.4996 48.8369 74.6953 48.5245 74.9003 48.2214C75.1146 47.9229 75.3428 47.6384 75.627 47.3912Z" fill="white"/>
<path d="M68.1973 51.0429C67.8479 50.9076 67.5358 50.7118 67.2329 50.5066C66.9348 50.292 66.6506 50.0635 66.4037 49.7791C66.7531 49.9143 67.0652 50.1102 67.368 50.3154C67.6662 50.5299 67.9504 50.7584 68.1973 51.0429Z" fill="white"/>
<path d="M71.4681 40.3585C72.0411 41.1466 72.6328 41.9161 73.2198 42.6902C73.0707 42.2985 72.9402 41.9068 72.8238 41.501C72.8191 41.4824 72.8471 41.4731 72.8517 41.4917C72.9728 41.7995 73.1033 42.1073 73.2198 42.4151C73.2757 42.5643 73.3316 42.7136 73.3875 42.8628C73.4014 42.8954 73.4108 42.9281 73.4247 42.9607C73.886 43.5623 74.3425 44.1686 74.7804 44.7842C75.3069 45.5164 75.8147 46.2672 76.3271 47.0134C76.8536 47.7829 77.3567 48.6876 77.9111 49.4384C77.9577 49.5037 76.9607 49.9048 76.8675 49.9608C76.7744 50.0121 76.7092 49.9235 76.807 49.8908C76.9002 49.8628 77.6921 49.3778 77.7015 49.3685C77.189 48.6177 76.5973 47.9228 76.0616 47.1859C75.5305 46.4538 74.9947 45.7262 74.4776 44.9801C73.4294 43.4691 72.465 41.9021 71.4261 40.3864C71.4261 40.3585 71.4541 40.3398 71.4681 40.3585Z" fill="#263238"/>
<path d="M64.3645 45.6189C64.5276 45.9361 64.7046 46.2532 64.849 46.5796C64.9096 46.7149 64.9655 46.8501 65.0261 46.9854C64.7791 45.8195 64.5416 44.6583 64.304 43.4924C64.2993 43.4784 64.3226 43.4737 64.3273 43.4877C64.8211 45.3764 65.3149 47.2605 65.7715 49.1586C66.2094 50.9681 66.7312 52.7962 66.9827 54.643C67.1318 54.5917 67.9657 54.2466 67.989 54.3025C68.0123 54.3585 66.8989 54.8855 66.8802 54.8388C66.2746 53.0387 65.8972 50.9867 65.4826 49.1353C65.3661 48.613 65.259 48.0906 65.1472 47.5637C65.0261 47.2465 64.8816 46.9434 64.7372 46.6403C64.5835 46.3138 64.4624 45.978 64.3319 45.6423C64.3226 45.6143 64.3552 45.6003 64.3645 45.6189Z" fill="#263238"/>
<path d="M67.2105 52.8942C68.7013 52.0501 74.93 48.8229 76.3277 48.2167C76.4255 48.1747 76.4767 48.226 76.3789 48.282C71.9717 50.9122 68.7526 52.1994 67.2478 52.9549C67.2059 52.9689 67.1686 52.9176 67.2105 52.8942Z" fill="#263238"/>
<path d="M237.923 175.5H95.9808L116.503 58.9802H258.445L237.923 175.5Z" fill="#FFC727"/>
<path d="M165.081 46.9109H118.629L116.5 58.9802H166.214L165.081 46.9109Z" fill="#FFC727"/>
<g opacity="0.1">
<path d="M237.923 175.5H95.9808L116.503 58.9802H258.445L237.923 175.5Z" fill="black"/>
<path d="M165.081 46.9109H118.629L116.5 58.9802H166.214L165.081 46.9109Z" fill="black"/>
</g>
<path d="M113.618 51.8356C113.437 51.1594 113.395 50.4832 113.385 49.807C113.39 49.1308 113.432 48.4545 113.618 47.7783C113.805 48.4545 113.846 49.1308 113.851 49.807C113.842 50.4832 113.8 51.1594 113.618 51.8356Z" fill="#263238"/>
<path d="M109.491 53.0295C108.992 52.5352 108.62 51.9709 108.275 51.3879C107.944 50.8003 107.641 50.1941 107.464 49.5132C107.963 50.0075 108.336 50.5718 108.68 51.1548C109.006 51.747 109.309 52.3533 109.491 53.0295Z" fill="#263238"/>
<path d="M106.511 56.1307C105.836 55.9535 105.23 55.6504 104.639 55.3192C104.056 54.9741 103.493 54.6011 102.999 54.1021C103.674 54.2793 104.28 54.5824 104.872 54.9135C105.454 55.2586 106.018 55.6317 106.511 56.1307Z" fill="#263238"/>
<path d="M105.481 60.3047C104.805 60.4866 104.13 60.5286 103.454 60.5379C102.779 60.5332 102.103 60.4913 101.428 60.3047C102.103 60.1182 102.779 60.0762 103.454 60.0715C104.13 60.0809 104.805 60.1228 105.481 60.3047Z" fill="#263238"/>
<path d="M106.671 64.4366C106.178 64.9356 105.614 65.3087 105.032 65.6538C104.445 65.985 103.839 66.2881 103.159 66.4653C103.653 65.9663 104.216 65.5932 104.799 65.2481C105.39 64.9217 105.996 64.6185 106.671 64.4366Z" fill="#263238"/>
<path d="M109.772 67.4214C109.595 68.0976 109.292 68.7039 108.961 69.2961C108.617 69.8791 108.244 70.4434 107.745 70.9377C107.923 70.2615 108.225 69.6552 108.556 69.063C108.906 68.48 109.278 67.9157 109.772 67.4214Z" fill="#263238"/>
<path d="M113.944 68.4519C114.125 69.1281 114.167 69.8043 114.176 70.4806C114.172 71.1568 114.13 71.833 113.944 72.5092C113.757 71.833 113.715 71.1568 113.711 70.4806C113.72 69.8043 113.757 69.1281 113.944 68.4519Z" fill="#263238"/>
<path d="M118.071 67.2534C118.57 67.7478 118.942 68.312 119.287 68.895C119.618 69.4826 119.921 70.0889 120.098 70.7697C119.599 70.2754 119.227 69.7111 118.882 69.1282C118.551 68.5406 118.248 67.9343 118.071 67.2534Z" fill="#263238"/>
<path d="M121.048 64.1569C121.724 64.3341 122.33 64.6372 122.921 64.9683C123.504 65.3134 124.067 65.6865 124.561 66.1855C123.886 66.0083 123.28 65.7052 122.688 65.374C122.106 65.0243 121.542 64.6512 121.048 64.1569Z" fill="#263238"/>
<path d="M122.079 59.9783C122.755 59.7964 123.43 59.7544 124.106 59.7451C124.781 59.7498 125.457 59.7918 126.132 59.9783C125.457 60.1648 124.781 60.2068 124.106 60.2115C123.43 60.2021 122.755 60.1648 122.079 59.9783Z" fill="#263238"/>
<path d="M120.888 55.8463C121.382 55.3473 121.946 54.9742 122.528 54.6291C123.115 54.298 123.721 53.9948 124.401 53.8176C123.907 54.3166 123.344 54.6897 122.761 55.0348C122.17 55.3659 121.564 55.6691 120.888 55.8463Z" fill="#263238"/>
<path d="M117.79 52.8662C117.967 52.19 118.27 51.5837 118.601 50.9914C118.946 50.4085 119.318 49.8442 119.817 49.3499C119.64 50.0261 119.337 50.6323 119.006 51.2246C118.661 51.8076 118.289 52.3719 117.79 52.8662Z" fill="#263238"/>
<path d="M237.714 175.5H95.4642L75.2686 63.2101H217.518L237.714 175.5Z" fill="#FFC727"/>
<path d="M124.562 131.853C127.827 131.853 130.474 129.204 130.474 125.935C130.474 122.667 127.827 120.017 124.562 120.017C121.297 120.017 118.65 122.667 118.65 125.935C118.65 129.204 121.297 131.853 124.562 131.853Z" fill="#263238"/>
<path d="M171.301 131.853C174.566 131.853 177.213 129.204 177.213 125.935C177.213 122.667 174.566 120.017 171.301 120.017C168.036 120.017 165.389 122.667 165.389 125.935C165.389 129.204 168.036 131.853 171.301 131.853Z" fill="#263238"/>
<path d="M156.424 132.795L156.098 132.175C156.07 132.119 153.014 126.467 146.869 126.467C141.265 126.467 139.9 131.788 139.844 132.016L139.676 132.693L138.32 132.366L138.483 131.685C138.497 131.62 140.147 125.068 146.869 125.068C153.876 125.068 157.198 131.261 157.337 131.527L157.664 132.147L156.424 132.795Z" fill="#263238"/>
</g>
<defs>
<clipPath id="clip0_936_7218">
<rect width="285.087" height="187" fill="white"/>
</clipPath>
</defs>
</svg>
