<svg width="46" height="50" viewBox="0 0 46 50" fill="none" xmlns="http://www.w3.org/2000/svg">
<path fill-rule="evenodd" clip-rule="evenodd" d="M23 0C24.4114 0 25.5556 1.1193 25.5556 2.5V27.5C25.5556 28.8807 24.4114 30 23 30C21.5886 30 20.4444 28.8807 20.4444 27.5V2.5C20.4444 1.1193 21.5886 0 23 0ZM14.9899 8.92383C15.6966 10.119 15.2791 11.6483 14.0574 12.3397C8.70374 15.3693 5.11111 21.0258 5.11111 27.5C5.11111 37.165 13.1202 45 23 45C32.8798 45 40.8889 37.165 40.8889 27.5C40.8889 21.0258 37.2963 15.3693 31.9427 12.3397C30.7208 11.6483 30.3035 10.119 31.0101 8.92383C31.7167 7.72868 33.2802 7.32027 34.5018 8.01162C41.3698 11.8982 46 19.1687 46 27.5C46 39.9265 35.7026 50 23 50C10.2975 50 0 39.9265 0 27.5C0 19.1687 4.6301 11.8982 11.4981 8.01162C12.7198 7.32027 14.2832 7.72868 14.9899 8.92383Z" fill="white"/>
</svg>
