<svg width="28" height="27" viewBox="0 0 28 27" fill="none" xmlns="http://www.w3.org/2000/svg">
<path fill-rule="evenodd" clip-rule="evenodd" d="M8.23773 9.36003C7.39526 9.36003 6.71232 10.043 6.71232 10.8854C6.71232 11.7279 7.39526 12.4108 8.23773 12.4108C9.08019 12.4108 9.76313 11.7279 9.76313 10.8854C9.76313 10.043 9.08019 9.36003 8.23773 9.36003ZM4.88184 10.8854C4.88184 9.03203 6.38432 7.52954 8.23773 7.52954C10.0911 7.52954 11.5936 9.03203 11.5936 10.8854C11.5936 12.7389 10.0911 14.2413 8.23773 14.2413C6.38432 14.2413 4.88184 12.7389 4.88184 10.8854Z" fill="#6C798B"/>
<path fill-rule="evenodd" clip-rule="evenodd" d="M8.23773 9.36003C7.39526 9.36003 6.71232 10.043 6.71232 10.8854C6.71232 11.7279 7.39526 12.4108 8.23773 12.4108C9.08019 12.4108 9.76313 11.7279 9.76313 10.8854C9.76313 10.043 9.08019 9.36003 8.23773 9.36003ZM4.88184 10.8854C4.88184 9.03203 6.38432 7.52954 8.23773 7.52954C10.0911 7.52954 11.5936 9.03203 11.5936 10.8854C11.5936 12.7389 10.0911 14.2413 8.23773 14.2413C6.38432 14.2413 4.88184 12.7389 4.88184 10.8854Z" fill="black" fill-opacity="0.2"/>
<path fill-rule="evenodd" clip-rule="evenodd" d="M12.0749 18.9454C10.5498 20.6532 8.95919 22.9892 7.27752 25.9782C7.02966 26.4188 6.47161 26.575 6.03107 26.3271C5.59054 26.0792 5.43435 25.5212 5.68219 25.0807C7.39913 22.029 9.06374 19.5691 10.7096 17.7262C12.3512 15.8877 14.0188 14.6129 15.7523 14.0126C17.5191 13.4007 19.2832 13.5153 21.0225 14.3261C22.7313 15.1226 24.3869 16.5756 26.0312 18.5932C26.3504 18.985 26.2917 19.5616 25.8999 19.8809C25.508 20.2002 24.9316 20.1414 24.6122 19.7496C23.0592 17.8439 21.6106 16.6198 20.2492 15.9851C18.9183 15.3648 17.646 15.2939 16.3513 15.7423C15.0233 16.2022 13.6041 17.233 12.0749 18.9454Z" fill="#6C798B"/>
<path fill-rule="evenodd" clip-rule="evenodd" d="M12.0749 18.9454C10.5498 20.6532 8.95919 22.9892 7.27752 25.9782C7.02966 26.4188 6.47161 26.575 6.03107 26.3271C5.59054 26.0792 5.43435 25.5212 5.68219 25.0807C7.39913 22.029 9.06374 19.5691 10.7096 17.7262C12.3512 15.8877 14.0188 14.6129 15.7523 14.0126C17.5191 13.4007 19.2832 13.5153 21.0225 14.3261C22.7313 15.1226 24.3869 16.5756 26.0312 18.5932C26.3504 18.985 26.2917 19.5616 25.8999 19.8809C25.508 20.2002 24.9316 20.1414 24.6122 19.7496C23.0592 17.8439 21.6106 16.6198 20.2492 15.9851C18.9183 15.3648 17.646 15.2939 16.3513 15.7423C15.0233 16.2022 13.6041 17.233 12.0749 18.9454Z" fill="black" fill-opacity="0.2"/>
<path fill-rule="evenodd" clip-rule="evenodd" d="M1.69776 4.34588C2.78485 3.25879 4.25924 2.64819 5.79654 2.64819H14.6805C15.186 2.64819 15.5957 3.05797 15.5957 3.56344C15.5957 4.06891 15.186 4.47868 14.6805 4.47868H5.79654C4.74465 4.47868 3.73586 4.89648 2.99211 5.64023C2.24835 6.384 1.83049 7.39285 1.83049 8.44473V20.648C1.83049 21.6998 2.24833 22.7085 2.99211 23.4523C3.73591 24.1962 4.74471 24.614 5.79654 24.614H20.4404C21.4922 24.614 22.5011 24.1962 23.2449 23.4523C23.9887 22.7085 24.4065 21.6998 24.4065 20.648V14.5464C24.4065 14.0409 24.8163 13.6311 25.3217 13.6311C25.8272 13.6311 26.237 14.0409 26.237 14.5464V20.648C26.237 22.1853 25.6263 23.6596 24.5393 24.7467C23.4522 25.8337 21.9778 26.4445 20.4404 26.4445H5.79654C4.25916 26.4445 2.7848 25.8337 1.69776 24.7467C0.61071 23.6596 0 22.1853 0 20.648V8.44473C0 6.90742 0.610689 5.43296 1.69776 4.34588Z" fill="#6C798B"/>
<path fill-rule="evenodd" clip-rule="evenodd" d="M1.69776 4.34588C2.78485 3.25879 4.25924 2.64819 5.79654 2.64819H14.6805C15.186 2.64819 15.5957 3.05797 15.5957 3.56344C15.5957 4.06891 15.186 4.47868 14.6805 4.47868H5.79654C4.74465 4.47868 3.73586 4.89648 2.99211 5.64023C2.24835 6.384 1.83049 7.39285 1.83049 8.44473V20.648C1.83049 21.6998 2.24833 22.7085 2.99211 23.4523C3.73591 24.1962 4.74471 24.614 5.79654 24.614H20.4404C21.4922 24.614 22.5011 24.1962 23.2449 23.4523C23.9887 22.7085 24.4065 21.6998 24.4065 20.648V14.5464C24.4065 14.0409 24.8163 13.6311 25.3217 13.6311C25.8272 13.6311 26.237 14.0409 26.237 14.5464V20.648C26.237 22.1853 25.6263 23.6596 24.5393 24.7467C23.4522 25.8337 21.9778 26.4445 20.4404 26.4445H5.79654C4.25916 26.4445 2.7848 25.8337 1.69776 24.7467C0.61071 23.6596 0 22.1853 0 20.648V8.44473C0 6.90742 0.610689 5.43296 1.69776 4.34588Z" fill="black" fill-opacity="0.2"/>
<path fill-rule="evenodd" clip-rule="evenodd" d="M22.5754 0C23.0809 0 23.4906 0.409768 23.4906 0.915243V10.6778C23.4906 11.1833 23.0809 11.5931 22.5754 11.5931C22.0699 11.5931 21.6602 11.1833 21.6602 10.6778V0.915243C21.6602 0.409768 22.0699 0 22.5754 0Z" fill="#6C798B"/>
<path fill-rule="evenodd" clip-rule="evenodd" d="M22.5754 0C23.0809 0 23.4906 0.409768 23.4906 0.915243V10.6778C23.4906 11.1833 23.0809 11.5931 22.5754 11.5931C22.0699 11.5931 21.6602 11.1833 21.6602 10.6778V0.915243C21.6602 0.409768 22.0699 0 22.5754 0Z" fill="black" fill-opacity="0.2"/>
<path fill-rule="evenodd" clip-rule="evenodd" d="M21.9299 0.268067C22.2874 -0.0893558 22.8668 -0.0893558 23.2242 0.268067L27.1293 4.17311C27.4867 4.53053 27.4867 5.11003 27.1293 5.46746C26.7718 5.82488 26.1924 5.82488 25.835 5.46746L22.5771 2.20958L19.3192 5.46746C18.9618 5.82488 18.3822 5.82488 18.0249 5.46746C17.6675 5.11003 17.6675 4.53053 18.0249 4.17311L21.9299 0.268067Z" fill="#6C798B"/>
<path fill-rule="evenodd" clip-rule="evenodd" d="M21.9299 0.268067C22.2874 -0.0893558 22.8668 -0.0893558 23.2242 0.268067L27.1293 4.17311C27.4867 4.53053 27.4867 5.11003 27.1293 5.46746C26.7718 5.82488 26.1924 5.82488 25.835 5.46746L22.5771 2.20958L19.3192 5.46746C18.9618 5.82488 18.3822 5.82488 18.0249 5.46746C17.6675 5.11003 17.6675 4.53053 18.0249 4.17311L21.9299 0.268067Z" fill="black" fill-opacity="0.2"/>
</svg>
