<svg width="330" height="299" viewBox="0 0 330 299" fill="none" xmlns="http://www.w3.org/2000/svg">
<path opacity="0.06" fill-rule="evenodd" clip-rule="evenodd" d="M218.202 5.3955C170.295 28.7812 118.154 72.9707 80.3745 77.344C42.5989 81.721 -5.08779 102.974 2.46977 152.381C10.0238 201.797 149.351 274.589 214.119 292.48C278.894 310.368 335.917 260.289 327.937 170.056C319.965 79.8183 266.106 -17.9864 218.202 5.3955Z" fill="url(#paint0_linear_432_89)"/>
<mask id="mask0_432_89" style="mask-type:luminance" maskUnits="userSpaceOnUse" x="77" y="61" width="177" height="177">
<path d="M77 61H254V238H77V61Z" fill="white"/>
</mask>
<g mask="url(#mask0_432_89)">
<path fill-rule="evenodd" clip-rule="evenodd" d="M139.987 94.7142H191.013C224.223 94.7142 251.407 121.936 251.407 155.215V157.835C251.407 191.114 224.223 218.336 191.013 218.336H139.987H127.924C126.631 218.336 126.778 218.287 125.631 218.876L101.476 231.314C100.182 231.794 99.5549 231.431 99.6237 230.106L101.025 204.269C101.054 204.062 101.103 204.033 100.966 203.915C87.9134 192.793 79.5934 176.242 79.5934 157.835V155.215C79.5934 121.936 106.767 94.7142 139.987 94.7142Z" fill="#8DCAFC"/>
<path fill-rule="evenodd" clip-rule="evenodd" d="M100.048 231.381C100.374 231.588 100.871 231.552 101.519 231.311L101.521 231.31L125.668 218.879C125.71 218.857 125.751 218.836 125.79 218.815C126.279 218.564 126.507 218.447 126.749 218.392C126.971 218.341 127.206 218.342 127.666 218.343C127.75 218.343 127.841 218.343 127.941 218.343H191.001C224.218 218.343 251.407 191.12 251.407 157.838V155.219C251.407 121.938 224.218 94.7142 191.001 94.7142H139.999C106.772 94.7142 79.5934 121.938 79.5934 155.219V157.838C79.5934 176.247 87.9151 192.799 100.97 203.922C101.036 203.978 101.047 204.005 101.048 204.036C101.049 204.055 101.045 204.077 101.038 204.111C101.037 204.116 101.036 204.122 101.035 204.127C101.029 204.157 101.022 204.194 101.015 204.239L101.015 204.243L99.6145 230.065C99.58 230.73 99.7187 231.173 100.048 231.381ZM99.6935 230.069C99.6593 230.728 99.7996 231.13 100.09 231.314C100.382 231.499 100.845 231.477 101.489 231.238L125.631 218.808C125.676 218.785 125.719 218.763 125.76 218.742C126.242 218.494 126.479 218.372 126.732 218.314C126.963 218.261 127.208 218.262 127.667 218.264C127.751 218.264 127.842 218.264 127.941 218.264H191.001C224.174 218.264 251.328 191.076 251.328 157.838V155.219C251.328 121.981 224.174 94.7933 191.001 94.7933H139.999C106.816 94.7933 79.6726 121.981 79.6726 155.219V157.838C79.6726 176.222 87.9832 192.753 101.021 203.861C101.093 203.922 101.125 203.969 101.127 204.034C101.128 204.063 101.122 204.094 101.116 204.127C101.115 204.132 101.114 204.137 101.113 204.143C101.107 204.173 101.1 204.207 101.094 204.249L99.6935 230.069Z" fill="#8DCAFC"/>
<path fill-rule="evenodd" clip-rule="evenodd" d="M222.044 79.1538L186.571 153.282L196.622 162.463L209.451 164.088L244.923 89.9603L222.044 79.1538Z" fill="#FB8627"/>
<path fill-rule="evenodd" clip-rule="evenodd" d="M220.286 82.5945L242.998 93.4177L248.123 82.6042C249.981 78.6828 247.957 73.7812 243.624 71.7125L240.151 70.0654L236.679 68.4086C232.346 66.3403 227.269 67.8596 225.411 71.7813L220.286 82.5945Z" fill="#FD4755"/>
<path fill-rule="evenodd" clip-rule="evenodd" d="M198.242 174.716L192.798 168.626L185.641 168.888L184.626 184.135C184.646 185.394 185.711 185.888 186.726 185.113L198.242 174.716Z" fill="#9C9C9C"/>
<path fill-rule="evenodd" clip-rule="evenodd" d="M236.293 68.132C240.258 70.3323 242.051 75.0181 240.277 78.8003L235.198 89.6258L243.05 93.4177L248.129 82.5822C249.971 78.6528 247.964 73.7412 243.67 71.6684L240.229 70.0179L236.788 68.3577C236.623 68.2792 236.458 68.2006 236.293 68.132Z" fill="#F92C3D"/>
<path fill-rule="evenodd" clip-rule="evenodd" d="M235.058 89.5275L201.483 160.314L209.413 164.088L242.978 93.3109L235.058 89.5275Z" fill="#F2671F"/>
<path fill-rule="evenodd" clip-rule="evenodd" d="M198.242 174.887L190.18 171.22L185.204 175.64L184.626 184.157C184.646 185.395 185.711 185.881 186.726 185.119L198.242 174.887Z" fill="#838383"/>
<path fill-rule="evenodd" clip-rule="evenodd" d="M209.912 164.559L186.932 153.714L185.923 169.196L198.452 175.11L209.912 164.559Z" fill="#FCD79F"/>
<path fill-rule="evenodd" clip-rule="evenodd" d="M209.912 164.133L201.897 160.198L190.462 171.175L198.467 175.11L209.912 164.133Z" fill="#FAC574"/>
<path fill-rule="evenodd" clip-rule="evenodd" d="M159.989 94.7143C177.776 94.7143 193.817 102.495 204.906 114.813L212.505 98.8399C205.711 96.1746 198.327 94.7143 190.62 94.7143H159.989Z" fill="#8AC9FE"/>
<path fill-rule="evenodd" clip-rule="evenodd" d="M234.023 112.868L219.484 143.239C220.251 147.044 220.655 150.976 220.655 155.006V157.618C220.655 190.777 193.359 217.901 159.989 217.901H190.74C224.1 217.901 251.407 190.777 251.407 157.618V155.006C251.407 138.652 244.762 123.755 234.023 112.868Z" fill="#64B9FC"/>
<path fill-rule="evenodd" clip-rule="evenodd" d="M113.956 166.033C113.956 167.465 115.126 168.626 116.57 168.626H172.936C174.379 168.626 175.549 167.465 175.549 166.033C175.549 164.601 174.379 163.44 172.936 163.44H116.57C115.126 163.44 113.956 164.601 113.956 166.033Z" fill="black"/>
<path fill-rule="evenodd" clip-rule="evenodd" d="M113.956 184.187C113.956 185.619 115.124 186.78 116.565 186.78H184.611C186.052 186.78 187.22 185.619 187.22 184.187C187.22 182.755 186.052 181.593 184.611 181.593H116.565C115.124 181.593 113.956 182.755 113.956 184.187Z" fill="black"/>
<path fill-rule="evenodd" clip-rule="evenodd" d="M113.956 147.231C113.956 148.663 115.126 149.824 116.57 149.824H172.936C174.379 149.824 175.549 148.663 175.549 147.231C175.549 145.799 174.379 144.637 172.936 144.637H116.57C115.126 144.637 113.956 145.799 113.956 147.231Z" fill="black"/>
<path fill-rule="evenodd" clip-rule="evenodd" d="M113.956 128.429C113.956 129.861 115.133 131.022 116.585 131.022H150.876C152.328 131.022 153.506 129.861 153.506 128.429C153.506 126.996 152.328 125.835 150.876 125.835H116.585C115.133 125.835 113.956 126.996 113.956 128.429Z" fill="black"/>
<path fill-rule="evenodd" clip-rule="evenodd" d="M212.246 165.176C212.879 163.861 212.314 162.287 210.986 161.661L187.788 150.729C186.459 150.103 184.869 150.662 184.237 151.977C183.605 153.293 184.169 154.867 185.498 155.493L208.696 166.425C210.025 167.051 211.614 166.492 212.246 165.176Z" fill="black"/>
<path fill-rule="evenodd" clip-rule="evenodd" d="M245.961 94.506C246.593 93.1904 246.028 91.6165 244.7 90.9904L221.502 80.0588C220.173 79.4327 218.584 79.9917 217.951 81.3072C217.319 82.6227 217.884 84.1967 219.212 84.8228L242.41 95.7544C243.739 96.3805 245.328 95.8215 245.961 94.506Z" fill="black"/>
<path fill-rule="evenodd" clip-rule="evenodd" d="M200.583 176.14C201.199 174.774 200.649 173.14 199.355 172.49L187.039 166.299C185.746 165.649 184.198 166.229 183.582 167.596C182.966 168.962 183.516 170.596 184.81 171.246L197.126 177.437C198.419 178.087 199.967 177.506 200.583 176.14Z" fill="black"/>
<path fill-rule="evenodd" clip-rule="evenodd" d="M98.6562 233.575C100.089 234.483 101.653 234.02 102.399 233.743C102.497 233.707 102.592 233.665 102.685 233.617L126.833 221.184C126.833 221.184 126.833 221.184 126.833 221.184C126.882 221.159 126.926 221.136 126.967 221.115C127.137 221.028 127.244 220.973 127.326 220.932C127.399 220.932 127.483 220.932 127.6 220.932C127.689 220.933 127.796 220.933 127.932 220.933H154.571C156.014 220.933 157.184 219.762 157.184 218.318C157.184 216.875 156.014 215.704 154.571 215.704H127.932C127.86 215.704 127.785 215.704 127.71 215.703C127.503 215.703 127.293 215.702 127.125 215.706C126.863 215.713 126.528 215.732 126.149 215.819C125.765 215.907 125.45 216.037 125.196 216.156C125.003 216.246 124.778 216.361 124.56 216.474C124.522 216.494 124.484 216.513 124.446 216.533L102.373 227.897L103.639 204.563C103.658 204.455 103.691 204.229 103.684 203.975C103.671 203.496 103.533 203.014 103.259 202.58C103.038 202.231 102.785 202.007 102.682 201.919L102.674 201.911C90.1767 191.264 82.2251 175.432 82.2251 157.837V155.217C82.2251 123.39 108.225 97.3499 139.993 97.3499H191.007C198.375 97.3499 205.428 98.7486 211.919 101.3C213.262 101.828 214.778 101.167 215.306 99.8229C215.834 98.4789 215.173 96.9614 213.83 96.4334C206.741 93.6469 199.04 92.1208 191.007 92.1208H139.993C105.335 92.1208 77 120.507 77 155.217V157.837C77 176.611 85.2981 193.527 98.3768 205.103L97.0293 229.944L97.0289 229.95C96.9841 230.814 97.0745 232.574 98.6562 233.575ZM98.4917 203.658C98.4981 203.62 98.5018 203.607 98.4975 203.629L98.4932 203.65C98.4927 203.653 98.4922 203.656 98.4917 203.658ZM102.246 230.298C102.246 230.297 102.246 230.295 102.246 230.29C102.246 230.295 102.246 230.298 102.246 230.298ZM163.46 218.318C163.46 219.762 164.63 220.933 166.073 220.933H191.007C225.655 220.933 254 192.547 254 157.837V155.217C254 138.09 247.085 122.507 235.943 111.111C234.934 110.079 233.28 110.061 232.248 111.071C231.217 112.081 231.199 113.736 232.208 114.768C242.444 125.237 248.775 139.526 248.775 155.217V157.837C248.775 189.663 222.765 215.704 191.007 215.704H166.073C164.63 215.704 163.46 216.875 163.46 218.318Z" fill="black"/>
<path fill-rule="evenodd" clip-rule="evenodd" d="M184.202 187.72C185.746 188.451 187.328 187.959 188.379 187.142C188.436 187.098 188.491 187.051 188.545 187.002L211.414 165.976C211.659 165.751 211.858 165.483 212.001 165.184L251.093 83.7061L251.093 83.7054C253.699 78.2709 250.758 71.9326 245.303 69.3583L241.795 67.7138L238.289 66.0599C232.832 63.4844 226.002 65.2241 223.394 70.6628L200.416 118.557C199.792 119.858 200.351 121.413 201.665 122.031C202.98 122.649 204.551 122.095 205.175 120.794L228.154 72.8996L228.154 72.899C229.301 70.5071 232.725 69.2123 236.021 70.7677L236.022 70.768L239.534 72.4248L243.035 74.0662C243.035 74.0663 243.036 74.0664 243.036 74.0666C246.334 75.6233 247.482 79.0734 246.333 81.4693L207.459 162.495L187.521 180.825L189.279 153.927L200.068 131.444C200.692 130.143 200.133 128.588 198.818 127.97C197.504 127.352 195.933 127.905 195.308 129.206L184.303 152.14C184.16 152.439 184.075 152.761 184.054 153.091L182.038 183.934C182.034 184.004 182.032 184.073 182.033 184.143C182.054 185.463 182.66 186.989 184.202 187.72Z" fill="black"/>
</g>
<defs>
<linearGradient id="paint0_linear_432_89" x1="0.243111" y1="4.29053" x2="343.402" y2="283.101" gradientUnits="userSpaceOnUse">
<stop stop-color="#1100FF"/>
<stop offset="1" stop-color="#0086FF"/>
</linearGradient>
</defs>
</svg>
