<svg width="330" height="299" viewBox="0 0 330 299" fill="none" xmlns="http://www.w3.org/2000/svg">
<path opacity="0.06" fill-rule="evenodd" clip-rule="evenodd" d="M217.959 5.3955C170.052 28.7812 117.911 72.9707 80.1314 77.344C42.3558 81.721 -5.33096 102.974 2.2266 152.381C9.78063 201.797 149.108 274.589 213.876 292.48C278.651 310.368 335.673 260.289 327.694 170.056C319.721 79.8183 265.863 -17.9864 217.959 5.3955Z" fill="url(#paint0_linear_433_172)"/>
<mask id="mask0_433_172" style="mask-type:luminance" maskUnits="userSpaceOnUse" x="92" y="76" width="147" height="147">
<path d="M92 76.3334H238.667V223H92V76.3334Z" fill="white"/>
</mask>
<g mask="url(#mask0_433_172)">
<path d="M225.392 78.5015H105.275C99.1409 78.5015 94.168 83.4741 94.168 89.6084V123.843C94.168 129.977 99.1409 134.95 105.275 134.95H113.785L124.381 149.094L134.977 134.95H225.392C231.526 134.95 236.499 129.977 236.499 123.843V89.6084C236.499 83.4741 231.526 78.5015 225.392 78.5015Z" fill="#FFD36C"/>
<path d="M225.392 78.5016H213.793C219.927 78.5016 224.9 83.4742 224.9 89.6084V123.843C224.9 129.977 219.927 134.95 213.793 134.95H225.392C231.526 134.95 236.498 129.977 236.498 123.843V89.6084C236.498 83.4742 231.526 78.5016 225.392 78.5016Z" fill="#FCC645"/>
<path d="M124.946 92.9651L128.94 101.058C129.054 101.289 129.274 101.449 129.529 101.486L138.46 102.784C139.102 102.877 139.358 103.666 138.894 104.119L132.431 110.418C132.246 110.598 132.163 110.857 132.206 111.111L133.732 120.006C133.841 120.646 133.17 121.133 132.596 120.831L124.608 116.631C124.38 116.512 124.108 116.512 123.88 116.631L115.891 120.831C115.317 121.133 114.646 120.646 114.756 120.006L116.282 111.111C116.325 110.857 116.241 110.598 116.056 110.418L109.594 104.119C109.129 103.666 109.386 102.877 110.027 102.784L118.959 101.486C119.213 101.449 119.434 101.289 119.548 101.058L123.542 92.9651C123.829 92.3836 124.658 92.3836 124.946 92.9651Z" fill="#EAAF20"/>
<path d="M166.035 92.9651L170.029 101.058C170.143 101.289 170.364 101.449 170.619 101.486L179.55 102.784C180.192 102.877 180.448 103.666 179.983 104.119L173.521 110.418C173.336 110.598 173.252 110.857 173.296 111.111L174.821 120.006C174.931 120.646 174.26 121.133 173.686 120.831L165.697 116.631C165.469 116.512 165.197 116.512 164.969 116.631L156.981 120.831C156.407 121.133 155.736 120.646 155.846 120.006L157.371 111.111C157.415 110.857 157.33 110.598 157.146 110.418L150.683 104.119C150.219 103.666 150.475 102.877 151.117 102.784L160.048 101.486C160.303 101.449 160.523 101.289 160.637 101.058L164.632 92.9651C164.919 92.3836 165.748 92.3836 166.035 92.9651Z" fill="#EAAF20"/>
<path d="M207.125 92.9651L211.119 101.058C211.233 101.289 211.453 101.449 211.708 101.486L220.639 102.784C221.281 102.877 221.537 103.666 221.073 104.119L214.61 110.418C214.426 110.598 214.342 110.857 214.385 111.111L215.911 120.006C216.021 120.646 215.349 121.133 214.775 120.831L206.787 116.631C206.559 116.512 206.287 116.512 206.059 116.631L198.071 120.831C197.496 121.133 196.825 120.646 196.935 120.006L198.461 111.111C198.504 110.857 198.42 110.598 198.236 110.418L191.773 104.119C191.308 103.666 191.565 102.877 192.206 102.784L201.138 101.486C201.393 101.449 201.613 101.289 201.727 101.058L205.721 92.9651C206.008 92.3836 206.838 92.3836 207.125 92.9651Z" fill="#EAAF20"/>
<path d="M154.308 190.762C154.308 207.369 140.845 220.832 124.238 220.832C107.631 220.832 94.1681 207.369 94.1681 190.762C94.1681 174.155 107.631 160.692 124.238 160.692C140.845 160.692 154.308 174.155 154.308 190.762Z" fill="#FCEEDB"/>
<path d="M135.091 184.176C135.091 178.165 130.219 173.293 124.209 173.293C118.199 173.293 113.326 178.165 113.326 184.176C113.326 190.186 118.199 195.058 124.209 195.058C130.219 195.058 135.091 190.186 135.091 184.176Z" fill="#E3D3C6"/>
<path d="M124.209 195.058C114.071 195.058 105.715 202.693 104.58 212.527V213.517C109.851 218.075 116.722 220.832 124.238 220.832C131.75 220.832 138.618 218.077 143.888 213.523L143.896 213.1C143.025 202.991 134.543 195.058 124.209 195.058Z" fill="#E3D3C6"/>
<path d="M231.2 174.296H172.206C165.367 174.296 165.358 163.7 172.206 163.7H231.2C238.041 163.7 238.049 174.296 231.2 174.296Z" fill="#E3D3C6"/>
<path d="M231.344 196.06H172.35C165.51 196.06 165.501 185.464 172.35 185.464H231.344C238.184 185.464 238.192 196.06 231.344 196.06Z" fill="#E3D3C6"/>
<path d="M231.487 217.825H172.493C165.653 217.825 165.644 207.229 172.493 207.229H231.487C238.327 207.229 238.335 217.825 231.487 217.825Z" fill="#E3D3C6"/>
<path fill-rule="evenodd" clip-rule="evenodd" d="M131.588 122.725C133.739 123.855 136.25 122.029 135.841 119.636L134.436 111.445L140.386 105.645C140.386 105.645 140.386 105.645 140.386 105.645C142.126 103.949 141.165 100.994 138.762 100.645C138.761 100.645 138.761 100.645 138.761 100.645L130.538 99.4502L126.861 91.999C126.861 91.9989 126.861 91.9988 126.861 91.9987C125.786 89.82 122.679 89.8201 121.604 91.999L117.926 99.4503L109.704 100.645C109.704 100.645 109.703 100.645 109.703 100.645C107.299 100.994 106.339 103.949 108.079 105.645C108.079 105.645 108.079 105.645 108.079 105.645L114.029 111.445L112.624 119.635C112.624 119.635 112.624 119.635 112.624 119.635C112.213 122.03 114.728 123.854 116.877 122.725L124.232 118.858L131.588 122.725ZM133.921 111.947C133.921 111.947 133.921 111.946 133.922 111.946ZM131.138 117.634L125.597 114.721C125.597 114.721 125.597 114.721 125.597 114.721C125.597 114.721 125.597 114.721 125.596 114.721C124.742 114.272 123.722 114.272 122.868 114.721C122.868 114.721 122.868 114.721 122.867 114.721L117.327 117.634L118.386 111.461C118.548 110.513 118.233 109.543 117.543 108.87L113.06 104.499L119.256 103.599C120.21 103.46 121.035 102.861 121.462 101.996L121.462 101.996L124.232 96.3819L127.004 101.998C127.431 102.861 128.255 103.46 129.209 103.599L135.405 104.5L130.923 108.868C130.923 108.868 130.923 108.869 130.923 108.869C130.923 108.869 130.923 108.869 130.922 108.869C130.232 109.542 129.916 110.513 130.08 111.464C130.08 111.464 130.08 111.464 130.08 111.464C130.08 111.465 130.08 111.465 130.08 111.466L131.138 117.634ZM137.387 102.567C137.387 102.567 137.387 102.568 137.387 102.568ZM116.859 120.361C116.859 120.361 116.859 120.361 116.859 120.361Z" fill="black"/>
<path fill-rule="evenodd" clip-rule="evenodd" d="M155.251 110.737C155.251 110.737 155.251 110.738 155.251 110.738ZM178.486 102.569C178.487 102.568 178.488 102.568 178.488 102.567L178.488 102.568L178.486 102.569ZM157.96 120.361C157.96 120.361 157.96 120.361 157.96 120.36Z" fill="black"/>
<path fill-rule="evenodd" clip-rule="evenodd" d="M196.352 110.737C196.352 110.737 196.352 110.737 196.352 110.737ZM220.344 104.897L220.345 104.897L220.346 104.898C220.345 104.897 220.345 104.897 220.344 104.897ZM205.21 93.9017C205.21 93.9012 205.21 93.9006 205.209 93.9001L205.209 93.9004L205.21 93.9017ZM207.658 93.902C207.659 93.9013 207.659 93.9007 207.659 93.9001L207.659 93.9004L207.658 93.902ZM199.061 120.361C199.061 120.361 199.061 120.361 199.061 120.36Z" fill="black"/>
<path fill-rule="evenodd" clip-rule="evenodd" d="M124.37 151.242C125.046 151.242 125.684 150.924 126.089 150.382L136.044 137.095H225.408C232.731 137.095 238.667 131.159 238.667 123.836V89.592C238.667 82.2695 232.731 76.3336 225.408 76.3336H129.24C128.053 76.3336 127.091 77.2955 127.091 78.482C127.091 79.6686 128.053 80.6305 129.24 80.6305H225.408C230.358 80.6305 234.37 84.6426 234.37 89.592V123.836C234.37 128.785 230.358 132.798 225.408 132.798H134.969C134.292 132.798 133.655 133.116 133.249 133.658L124.37 145.511L115.49 133.658C115.085 133.116 114.447 132.798 113.771 132.798H105.258C100.309 132.798 96.2969 128.785 96.2969 123.836V89.592C96.2969 84.6426 100.309 80.6305 105.258 80.6305H118.354C119.541 80.6305 120.503 79.6686 120.503 78.482C120.503 77.2955 119.541 76.3336 118.354 76.3336H105.258C97.9359 76.3336 92 82.2695 92 89.592V123.836C92 131.159 97.9359 137.095 105.258 137.095H112.696L122.65 150.382C123.056 150.924 123.693 151.242 124.37 151.242Z" fill="black"/>
<path fill-rule="evenodd" clip-rule="evenodd" d="M111.164 184.185C111.164 191.384 116.999 197.219 124.198 197.219C131.396 197.219 137.232 191.384 137.232 184.185C137.232 176.987 131.396 171.151 124.198 171.151C116.999 171.151 111.164 176.987 111.164 184.185ZM124.198 192.922C119.372 192.922 115.461 189.01 115.461 184.185C115.461 179.36 119.372 175.448 124.198 175.448C129.023 175.448 132.935 179.36 132.935 184.185C132.935 189.01 129.023 192.922 124.198 192.922Z" fill="black"/>
<path fill-rule="evenodd" clip-rule="evenodd" d="M144.074 215.258C145.256 215.156 146.132 214.115 146.03 212.933C145.064 201.72 135.66 192.922 124.198 192.922C112.953 192.922 103.689 201.39 102.429 212.298C102.293 213.477 103.138 214.543 104.317 214.679C105.496 214.815 106.562 213.969 106.698 212.791C107.71 204.026 115.16 197.219 124.198 197.219C133.41 197.219 140.973 204.292 141.749 213.302C141.851 214.484 142.892 215.36 144.074 215.258Z" fill="black"/>
<path fill-rule="evenodd" clip-rule="evenodd" d="M92 190.773C92 208.572 106.428 223 124.227 223C142.025 223 156.453 208.572 156.453 190.773C156.453 172.975 142.025 158.547 124.227 158.547C106.428 158.547 92 172.975 92 190.773ZM124.227 218.703C108.801 218.703 96.2969 206.199 96.2969 190.773C96.2969 175.348 108.801 162.844 124.227 162.844C139.652 162.844 152.156 175.348 152.156 190.773C152.156 206.199 139.652 218.703 124.227 218.703Z" fill="black"/>
<path fill-rule="evenodd" clip-rule="evenodd" d="M164.76 169.003C164.76 173.116 168.095 176.45 172.208 176.45H231.219C235.332 176.45 238.667 173.116 238.667 169.003C238.667 164.889 235.332 161.555 231.219 161.555H172.208C168.095 161.555 164.76 164.889 164.76 169.003ZM172.208 172.154C170.468 172.154 169.057 170.743 169.057 169.003C169.057 167.262 170.468 165.851 172.208 165.851H231.219C232.959 165.851 234.37 167.262 234.37 169.003C234.37 170.743 232.959 172.154 231.219 172.154H172.208Z" fill="black"/>
<path fill-rule="evenodd" clip-rule="evenodd" d="M164.904 190.774C164.904 194.887 168.238 198.221 172.351 198.221H231.362C235.475 198.221 238.81 194.887 238.81 190.774C238.81 186.66 235.475 183.326 231.362 183.326H227.781C226.595 183.326 225.633 184.287 225.633 185.474C225.633 186.661 226.595 187.622 227.781 187.622H231.362C233.102 187.622 234.513 189.033 234.513 190.774C234.513 192.514 233.102 193.925 231.362 193.925H172.351C170.611 193.925 169.2 192.514 169.2 190.774C169.2 189.033 170.611 187.622 172.351 187.622H216.896C218.082 187.622 219.044 186.661 219.044 185.474C219.044 184.287 218.082 183.326 216.896 183.326H172.351C168.238 183.326 164.904 186.66 164.904 190.774Z" fill="black"/>
<path fill-rule="evenodd" clip-rule="evenodd" d="M165.047 212.545C165.047 216.658 168.381 219.992 172.495 219.992H179.656C180.843 219.992 181.805 219.031 181.805 217.844C181.805 216.657 180.843 215.696 179.656 215.696H172.495C170.755 215.696 169.344 214.285 169.344 212.545C169.344 210.804 170.755 209.393 172.495 209.393H231.505C233.245 209.393 234.656 210.804 234.656 212.545C234.656 214.285 233.245 215.696 231.505 215.696H190.255C189.069 215.696 188.107 216.657 188.107 217.844C188.107 219.031 189.069 219.992 190.255 219.992H231.505C235.618 219.992 238.953 216.658 238.953 212.545C238.953 208.431 235.618 205.097 231.505 205.097H172.495C168.381 205.097 165.047 208.431 165.047 212.545Z" fill="black"/>
</g>
<defs>
<linearGradient id="paint0_linear_433_172" x1="-6.10352e-05" y1="4.29053" x2="343.159" y2="283.101" gradientUnits="userSpaceOnUse">
<stop stop-color="#1100FF"/>
<stop offset="1" stop-color="#0086FF"/>
</linearGradient>
</defs>
</svg>
