<svg width="326" height="285" viewBox="0 0 326 285" fill="none" xmlns="http://www.w3.org/2000/svg">
<path d="M291.741 217.402H36.1506C4.29533 217.402 -10.3159 180.096 14.0758 160.902C14.2782 160.737 14.4875 160.585 14.6899 160.427C20.2484 156.11 23.882 149.804 23.882 140.587C26.0472 128.496 14.0948 125.273 10.8978 104.32C5.27027 67.488 24.4135 43.2866 45.8174 30.9672C117.169 -10.0992 252.586 -10.0992 310.885 29.6443C322.109 37.2975 328.047 58.9357 323.508 69.1536C295.565 132.048 310.707 149.033 322.413 171.215C333.643 192.486 317.069 217.403 291.741 217.403L291.741 217.402Z" fill="url(#paint0_linear_936_1360)"/>
<path d="M324.764 246.685V247.445C324.662 263.37 299.315 271.301 210.232 270.915C198.545 270.87 186.34 270.668 173.945 270.339C167.336 278.564 131.271 284.714 87.8047 284.53C39.6863 284.317 0.734263 276.409 0.80401 266.866C0.810075 265.737 1.36123 264.631 2.41198 263.566C6.93869 258.993 6.57783 252.657 2.16483 248.015C1.23386 247.036 0.740328 246.069 0.746393 245.119C0.746393 244.842 0.752458 244.56 0.765346 244.267C1.33545 229.177 15.237 217.33 31.836 217.341L291.978 217.463C309.83 217.469 324.549 230.456 324.764 246.686V246.685Z" fill="#003AF5"/>
<path d="M243.893 41.7099V170.636C243.893 175.452 239.986 179.358 235.171 179.358H85.3668C81.4109 179.358 78.0691 176.728 77.0047 173.118C76.772 172.336 76.6454 171.497 76.6454 170.636V41.7099C76.6454 36.8944 80.552 32.9878 85.3675 32.9878H235.171C239.987 32.9878 243.894 36.8944 243.894 41.7099H243.893Z" fill="white"/>
<path d="M230.158 109.517H209.516C206.81 109.517 204.617 111.71 204.617 114.415V154.935C204.617 157.64 206.81 159.833 209.516 159.833H230.158C232.864 159.833 235.057 157.64 235.057 154.935V114.415C235.057 111.71 232.864 109.517 230.158 109.517Z" fill="url(#paint1_linear_936_1360)"/>
<path d="M243.892 46.4564V41.7129C243.892 36.8951 239.986 32.9893 235.169 32.9893H85.3658C80.548 32.9893 76.6429 36.8951 76.6429 41.7129V46.4564H243.893H243.892Z" fill="#8D49FE"/>
<path d="M87.1982 40.7484C87.1982 41.8969 86.2703 42.8309 85.1218 42.8309C83.9732 42.8309 83.0453 41.8969 83.0453 40.7484C83.0453 39.5998 83.9732 38.6719 85.1218 38.6719C86.2703 38.6719 87.1982 39.6059 87.1982 40.7484Z" fill="white"/>
<path d="M93.063 40.7484C93.063 41.8969 92.1351 42.8309 90.9865 42.8309C89.838 42.8309 88.91 41.8969 88.91 40.7484C88.91 39.5998 89.838 38.6719 90.9865 38.6719C92.1351 38.6719 93.063 39.6059 93.063 40.7484Z" fill="white"/>
<path d="M98.927 40.7484C98.927 41.8969 97.9991 42.8309 96.8505 42.8309C95.702 42.8309 94.774 41.8969 94.774 40.7484C94.774 39.5998 95.702 38.6719 96.8505 38.6719C97.9991 38.6719 98.927 39.6059 98.927 40.7484Z" fill="white"/>
<path fill-rule="evenodd" clip-rule="evenodd" d="M283.768 45C290.82 45 296.535 50.7157 296.535 57.7669C296.535 64.8182 290.82 70.5352 283.768 70.5352C276.717 70.5352 271 64.8195 271 57.7669C271 50.7157 276.716 45 283.768 45Z" fill="url(#paint2_linear_936_1360)"/>
<path d="M241.654 258.865L243.175 265.217C243.436 266.557 242.439 267.813 241.074 267.859C235.469 268.047 224.454 267.861 222.42 267.843C222.258 267.841 222.129 267.713 222.121 267.551C222.03 265.608 223.321 264.372 225.223 263.417L232.554 258.48C232.568 258.472 232.584 258.468 232.6 258.469L241.656 258.865H241.654Z" fill="#373A50"/>
<path d="M241.655 258.865C241.572 260.747 232.516 260.351 232.598 258.469L232.419 251.031L240.9 250.768L241.655 258.866L241.655 258.865Z" fill="#FFDAD9"/>
<path d="M317.015 226.317L323.516 226.943C324.868 227.132 325.732 228.483 325.331 229.789C323.688 235.15 319.932 245.508 319.253 247.425C319.2 247.578 319.037 247.659 318.88 247.613C317.013 247.067 316.264 245.445 315.978 243.337L313.692 234.799C313.689 234.784 313.69 234.767 313.696 234.752L317.014 226.317H317.015Z" fill="#373A50"/>
<path d="M317.015 226.317C318.768 227.006 315.45 235.443 313.696 234.753L306.604 232.505L309.111 224.399L317.015 226.317Z" fill="#FFDAD9"/>
<path d="M247.443 178.504C247.443 178.504 230.545 203.902 228.831 214.371C227.925 219.906 230.57 256.199 230.57 256.199C230.69 257.298 242.601 256 242.481 254.901L245 218.061L261.167 198.794L258.227 169.359L247.443 178.504Z" fill="#373A50"/>
<path d="M250.604 130.513C244.443 132.558 234.171 151.009 234.171 151.009H249.15L255.487 144.342C255.487 144.342 254.117 129.345 250.603 130.513H250.604Z" fill="#5062EB"/>
<path d="M251.948 177.957C251.948 177.957 262.257 216.84 265.955 220.768C269.671 224.713 310.757 236.391 310.757 236.391C312.093 236.597 315.527 223.754 314.191 223.548L279.469 209.028L274.371 176.261L251.948 177.957Z" fill="#373A50"/>
<path d="M259.321 111.658C260.119 114.873 260.917 118.088 261.715 121.302C262.611 124.908 263.646 128.751 266.448 131.192C269.216 133.603 273.107 134.121 276.753 134.537C277.814 134.657 278.898 134.777 279.939 134.542C281.359 134.221 282.607 133.213 283.219 131.891C284.048 130.101 283.678 127.934 282.713 126.213C281.748 124.492 280.257 123.134 278.756 121.853C275.743 119.28 272.585 116.882 269.429 114.486C267.775 113.23 266.079 111.951 264.102 111.314C262.428 110.774 260.599 110.727 258.899 111.18" fill="#111228"/>
<path d="M274.049 129.702C268.315 127.076 254.529 128.724 250.604 130.513C248.45 131.495 245.345 134.659 245.062 138.913C244.355 149.514 244.596 179.819 244.596 179.819C244.596 182.799 279.016 182.799 279.016 179.819C279.016 179.819 276.594 164.922 277.251 158.725C277.792 153.614 283.543 134.051 274.05 129.703L274.049 129.702Z" fill="#657BFF"/>
<path d="M293.684 160.149L284.035 197.379C283.494 199.468 281.361 200.723 279.272 200.182L209.46 182.088C207.37 181.547 206.116 179.415 206.657 177.325L216.306 140.096C216.847 138.006 218.98 136.752 221.069 137.293L290.881 155.386C292.97 155.927 294.225 158.06 293.684 160.149Z" fill="url(#paint3_linear_936_1360)"/>
<path d="M242.919 166.12C244.929 158.763 240.693 151.198 233.458 149.221C226.223 147.245 218.728 151.606 216.719 158.962C214.709 166.318 218.945 173.884 226.18 175.86C233.415 177.837 240.909 173.476 242.919 166.12Z" fill="white"/>
<path d="M233.528 158.812C233.911 157.408 233.103 155.965 231.723 155.588C230.343 155.211 228.914 156.043 228.53 157.446C228.147 158.849 228.955 160.292 230.335 160.67C231.715 161.047 233.145 160.215 233.528 158.812Z" fill="#373A50"/>
<path d="M234.521 170.236C235.325 166.758 233.298 163.25 229.881 162.316C226.463 161.382 222.933 163.373 221.858 166.776L234.521 170.236Z" fill="#373A50"/>
<path d="M280.536 172.664L251.093 164.62C250.581 164.48 250.279 163.952 250.419 163.44L252.298 156.562C252.438 156.05 252.967 155.748 253.478 155.888L282.922 163.931C283.434 164.071 283.736 164.6 283.596 165.112L281.717 171.99C281.577 172.502 281.048 172.803 280.536 172.664Z" fill="white"/>
<path d="M283.322 178.533L248.866 169.12L248.404 170.814L282.86 180.227L283.322 178.533Z" fill="white"/>
<path d="M281.792 184.133L247.336 174.72L246.873 176.414L281.329 185.827L281.792 184.133Z" fill="white"/>
<path d="M245.806 180.322L245.343 182.016L255.002 184.655L255.465 182.96L245.806 180.322Z" fill="white"/>
<path d="M260.24 184.265L259.777 185.959L266.862 187.895L267.325 186.2L260.24 184.265Z" fill="white"/>
<path d="M252.485 183.987C252.485 183.987 247.794 195.698 241.211 191.995C234.785 188.374 244.433 183.853 244.889 183.639C244.68 183.664 243.053 183.866 242.312 182.651C241.527 181.347 248.187 181.075 248.187 181.075L252.485 183.987Z" fill="#FFDAD9"/>
<path d="M277.374 132.191C281.901 136.426 282.086 158.03 279.468 162.427C274.997 169.937 251.497 187.054 251.497 187.054L246.984 180.562L265.576 160.007C265.576 160.007 268.483 142.867 269.773 137.573C270.983 132.607 274.302 129.317 277.374 132.191Z" fill="#5062EB"/>
<path d="M264.913 128.334C264.913 128.334 259.936 136.113 257.348 136.786C254.76 137.453 254.5 129.719 254.5 129.719C254.5 129.719 254.597 128.721 254.693 127.274C254.785 125.918 254.871 124.172 254.882 122.49C254.902 120.116 254.764 117.875 254.24 117.039C252.951 114.981 263.196 116.346 263.196 116.346C263.196 116.346 262.799 124.93 264.913 128.334V128.334Z" fill="#FFDAD9"/>
<path d="M259.523 123.763C258.845 125.016 254.693 127.273 254.693 127.273C254.785 125.918 254.871 124.171 254.882 122.49L257.704 121.415C257.704 121.415 260.195 122.51 259.523 123.763Z" fill="#FECDCB"/>
<path d="M248.918 104.95C248.918 104.95 249.288 111.503 252.685 112.285C256.083 113.066 258.12 109.975 258.12 109.975L257.166 104.199L253.806 102.365" fill="#111228"/>
<path d="M268.502 116.198C268.344 118.609 265.305 119.863 265.305 119.863C265.305 119.863 265.235 119.92 265.115 120.041C264.001 121.079 258.038 126.27 252.093 124.605C248.605 123.637 250.023 113.4 252.644 107.228C253.638 104.86 254.815 103.082 255.961 102.645C260.088 101.094 265.305 114.49 265.305 114.49C265.305 114.49 268.654 113.787 268.502 116.199V116.198Z" fill="#FFDAD9"/>
<path d="M309.958 140.311C300.388 138.414 299.272 130.039 292.625 132.094C285.978 134.139 279.855 136.084 273.435 131.491C267.025 126.889 264.981 120.104 264.981 120.104C265.099 119.985 265.169 119.926 265.169 119.926C265.169 119.926 268.21 118.671 268.369 116.262C268.516 113.852 265.169 114.553 265.169 114.553C265.169 114.553 265.02 116.015 263.796 116.153C262.571 116.301 262.005 113.453 261.605 112.218C260.992 110.329 258.28 105.109 255.81 105.623C254.734 105.84 253.761 106.948 252.507 107.294C250.908 107.728 249.475 107.669 249.001 105.614C248.162 101.941 253.465 95.6687 262.522 95.9454C271.578 96.2221 280.408 112.538 287.885 113.506C295.371 114.483 315.44 112.488 319.993 123.826C324.547 135.154 319.529 142.216 309.959 140.31L309.958 140.311Z" fill="#111228"/>
<path d="M5.59162 259.019L0.730574 262.869C-0.250429 263.716 -0.242848 265.239 0.749527 266.073C4.82365 269.501 13.1561 275.823 14.6852 277.003C14.8073 277.097 14.9786 277.077 15.0795 276.961C16.2871 275.563 16.0483 273.883 15.1894 272.056L12.6118 264.07C12.6065 264.055 12.5974 264.043 12.5845 264.035L5.59162 259.019Z" fill="#373A50"/>
<path d="M5.59156 259.017C4.54915 260.47 11.5428 265.487 12.5852 264.033L17.0823 258.586L10.906 253.415L5.59232 259.017H5.59156Z" fill="#FFDAD9"/>
<path d="M25.637 268.444L24.1935 274.475C23.9456 275.747 24.8925 276.939 26.1881 276.983C31.5086 277.161 41.9676 276.985 43.8985 276.968C44.0524 276.966 44.1752 276.845 44.182 276.691C44.2684 274.846 43.0426 273.673 41.2375 272.767L34.2772 268.079C34.2643 268.071 34.2492 268.068 34.2348 268.068L25.637 268.445V268.444Z" fill="#373A50"/>
<path d="M25.6355 268.444C25.7136 270.231 34.3121 269.855 34.2341 268.068L34.4039 261.006L26.3527 260.756L25.6355 268.444Z" fill="#FFDAD9"/>
<path d="M13.7595 182.502C14.3539 201.058 24.1548 264.356 24.1548 264.356C24.1548 265.233 29.7232 265.51 33.256 265.192C34.9042 265.042 36.1088 264.764 36.1088 264.356L37.0057 192.179L37.177 178.527L35.2521 177.967C35.2521 177.967 13.6746 179.655 13.7595 182.502V182.502Z" fill="#373A50"/>
<path d="M28.0166 181.624L46.1083 180.092C50.1445 191.067 59.182 219.626 57.4633 225.992C55.3755 233.724 15.4584 262.992 15.4584 262.992C14.4258 264.356 6.63692 256.708 7.66948 255.344L41.2442 219.626L28.0166 181.624V181.624Z" fill="#373A50"/>
<path d="M36.6115 151.461C36.6115 151.461 37.2149 152.448 38.2346 153.965C41.6742 159.116 49.8603 170.404 55.3551 170.204C56.8676 170.149 58.684 169.517 60.6225 168.526C68.6154 164.461 78.7453 154.424 78.7453 154.424L74.0874 146.603L58.5953 155.72C58.5953 155.72 47.8498 133.709 44.5156 132.762C38.2012 130.963 36.6115 151.461 36.6115 151.461Z" fill="url(#paint4_linear_936_1360)"/>
<path d="M38.2338 153.966C41.6734 159.117 49.8595 170.405 55.3543 170.206C56.8668 170.15 58.6832 169.519 60.6217 168.527C58.4171 168.599 56.0359 168.322 54.5454 166.727C53.3825 165.481 53.0277 163.708 52.7229 162.031C52.2241 159.311 51.7313 156.597 51.2332 153.878C50.7844 151.413 50.3303 148.954 49.8815 146.489C49.6048 144.966 49.7041 142.048 47.893 141.455C44.4587 140.33 41.0911 146.191 40.0002 148.594C39.214 150.316 38.6652 152.122 38.233 153.967L38.2338 153.966Z" fill="url(#paint5_linear_936_1360)"/>
<path d="M12.0447 182.916C12.3624 183.405 13.0727 183.803 14.081 184.12C15.1591 184.468 16.5707 184.725 18.2188 184.912C28.3132 186.031 47.1508 184.292 49.7413 182.186C49.7413 182.186 50.1196 174.107 50.0438 164.502C50.0385 163.252 50.0188 161.982 49.9938 160.697C49.9786 160.148 49.9688 159.593 49.9483 159.044C49.9127 157.683 49.8626 156.313 49.802 154.957C49.3638 145.272 48.2296 136.154 45.6339 133.71C37.5455 126.121 21.1922 128.212 14.2175 133.211C13.0333 134.064 12.2623 136.875 11.7786 140.766C11.5618 142.495 11.4003 144.44 11.2896 146.521C10.4936 161.317 12.0455 182.917 12.0455 182.917L12.0447 182.916Z" fill="url(#paint6_linear_936_1360)"/>
<path d="M12.0448 182.916C12.3624 183.405 13.0728 183.803 14.0811 184.12C14.4033 183.349 14.5147 182.437 14.4844 181.606C14.404 179.403 13.7285 177.251 13.6732 175.049C13.6232 172.841 14.404 170.387 16.3691 169.389C18.6874 168.21 21.4189 169.525 23.954 170.11C28.3382 171.119 43.6233 167.072 50.0438 164.501C50.0385 163.251 50.0188 161.981 49.9938 160.696C49.9786 160.147 49.9688 159.592 49.9483 159.043C49.9127 157.683 49.8626 156.312 49.802 154.956C48.981 153.908 49.7906 152.912 49.6951 152.862C46.2836 151.108 38.1922 153.931 34.7754 152.178C33.2281 151.382 28.6521 144.265 27.6847 142.739C25.9312 139.972 22.5174 137.595 20.2248 135.207C19.0255 133.956 17.6647 134.113 16.6867 135.514C15.5829 137.096 14.5397 138.492 13.0432 139.752C12.63 140.1 12.207 140.438 11.7779 140.765C11.5611 142.494 11.3996 144.439 11.2889 146.52C10.4929 161.316 12.0448 182.916 12.0448 182.916Z" fill="url(#paint7_linear_936_1360)"/>
<path d="M25.8105 117.415L26.2374 129.002C26.2374 129.002 33.4819 133.981 36.34 133.211C37.5644 132.879 34.9944 128.72 34.9944 128.72L34.823 125.795L34.585 121.779L30.3312 119.663L25.8113 117.415H25.8105Z" fill="#FFDAD9"/>
<path d="M30.2031 121.093C31.294 122.976 34.8223 125.796 34.8223 125.796L34.5842 121.78L30.3304 119.664C30.0037 120.058 29.8816 120.539 30.2031 121.093Z" fill="#FECDCB"/>
<path d="M38.462 123.026C34.8071 124.981 26.6262 118.804 25.8317 118.202C25.79 118.161 25.7696 118.147 25.7696 118.147C25.7696 118.147 21.0852 117 21.2717 114.326C21.5408 110.595 25.6657 113.683 25.6657 113.683L23.5794 106.982L26.3359 102.974L39.1807 104.48C39.1807 104.48 39.7401 107.445 40.0927 111.017C40.5763 115.867 40.6734 121.844 38.462 123.026Z" fill="#FFDAD9"/>
<path d="M41.2716 109.855C40.7811 109.993 29.3768 108.986 28.5686 109.096C27.6293 109.228 27.2897 114.099 26.6885 114.411C26.0873 114.722 25.6658 113.685 25.6658 113.685C25.6658 113.685 21.5409 110.597 21.2717 114.328C21.0852 117.002 25.7696 118.149 25.7696 118.149C25.7696 118.149 25.7901 118.163 25.8318 118.204L25.991 122.413C19.1096 117.473 17.61 109.582 20.7403 104.884C23.8706 100.192 29.1486 100.102 33.1491 100.482C37.1497 100.862 38.6735 97.9642 41.7136 99.4433C44.7536 100.916 44.7825 108.875 41.2724 109.856L41.2716 109.855Z" fill="#111228"/>
<path d="M38.71 112.842C38.5993 112.395 38.249 112.092 37.9238 112.175C37.6024 112.253 37.4318 112.679 37.5478 113.126" fill="#FFDAD9"/>
<path d="M38.3642 118.806C37.6227 119.062 36.7244 119.153 35.6653 119.083L38.3642 118.806Z" fill="#FFDAD9"/>
<path d="M34.0422 113.32C33.9315 112.873 33.5767 112.571 33.256 112.653C32.9346 112.731 32.764 113.157 32.8747 113.605" fill="#FFDAD9"/>
<path d="M37.2368 113.206C37.1504 112.861 37.1921 112.511 37.3505 112.247C37.468 112.051 37.6447 111.916 37.8486 111.865C38.054 111.814 38.2747 111.852 38.471 111.971C38.7356 112.131 38.935 112.421 39.0191 112.765L38.4005 112.915C38.3573 112.739 38.2587 112.585 38.1412 112.514C38.1056 112.493 38.054 112.469 38.0025 112.482C37.954 112.494 37.9183 112.538 37.8971 112.573C37.8274 112.69 37.8114 112.873 37.8554 113.049L37.2383 113.204L37.2368 113.206Z" fill="#FFDAD9"/>
<path d="M36.3287 119.426C36.1074 119.426 35.8792 119.419 35.6442 119.403L35.6874 118.767C36.6964 118.835 37.563 118.748 38.2589 118.507L38.4666 119.109C37.8564 119.32 37.1392 119.426 36.3287 119.426Z" fill="#FFDAD9"/>
<path d="M32.5661 113.685C32.4797 113.34 32.5206 112.991 32.6791 112.727C32.7973 112.531 32.9755 112.395 33.1817 112.344C33.679 112.219 34.193 112.615 34.3507 113.242L33.7336 113.397C33.6563 113.09 33.4432 112.933 33.3356 112.962C33.2931 112.973 33.2568 113.004 33.2257 113.055C33.1559 113.171 33.14 113.353 33.184 113.53L32.5669 113.685H32.5661Z" fill="#FFDAD9"/>
<path d="M65.8855 151.429L62.9546 152.037C62.9546 152.037 64.765 147.257 66.2782 148.061C67.7974 148.858 65.8855 151.429 65.8855 151.429V151.429Z" fill="#FFDAD9"/>
<path d="M157.928 109.519H69.8079C67.1027 109.519 64.9097 111.712 64.9097 114.417V154.937C64.9097 157.642 67.1027 159.835 69.8079 159.835H157.928C160.634 159.835 162.827 157.642 162.827 154.937V114.417C162.827 111.712 160.634 109.519 157.928 109.519Z" fill="url(#paint8_linear_936_1360)"/>
<path d="M99.5776 120.29H75.2921C73.6994 120.29 72.4082 121.581 72.4082 123.174V146.181C72.4082 147.774 73.6994 149.065 75.2921 149.065H99.5776C101.17 149.065 102.461 147.774 102.461 146.181V123.174C102.461 121.581 101.17 120.29 99.5776 120.29Z" fill="white"/>
<path d="M194.424 160.154H189.922V159.517H194.424L194.473 160.154H194.424ZM185.42 160.154H180.918V159.517H185.42V160.154ZM176.416 160.154H173.781C173.11 160.154 172.458 160.029 171.841 159.781L172.077 159.189C172.618 159.406 173.192 159.517 173.781 159.517H176.415V160.154H176.416ZM198.6 158.064L198.09 157.681C198.688 156.885 199.003 155.936 199.003 154.937V153.584H199.64V154.937C199.64 156.074 199.281 157.156 198.599 158.064H198.6ZM168.753 156.334C168.628 155.881 168.565 155.411 168.565 154.937V151.763H169.202V154.937C169.202 155.353 169.258 155.766 169.368 156.164L168.754 156.334H168.753ZM199.641 149.082H199.004V144.58H199.641V149.082ZM169.202 147.261H168.565V142.759H169.202V147.261ZM199.641 140.079H199.004V135.577H199.641V140.079ZM169.202 138.258H168.565V133.756H169.202V138.258ZM199.641 131.075H199.004V126.574H199.641V131.075ZM169.202 129.254H168.565V124.753H169.202V129.254ZM199.641 122.072H199.004V117.57H199.641V122.072ZM169.202 120.251H168.565V115.749H169.202V120.251ZM198.833 113.172C198.448 111.808 197.429 110.681 196.109 110.159L196.343 109.567C197.847 110.162 199.007 111.445 199.446 112.999L198.833 113.172V113.172ZM170.128 111.657L169.621 111.273C170.612 109.965 172.119 109.21 173.758 109.202L173.761 109.839C172.323 109.846 170.998 110.508 170.129 111.657H170.128ZM191.767 109.839H187.265V109.202H191.767V109.839ZM182.763 109.839H178.261V109.202H182.763V109.839Z" fill="url(#paint9_linear_936_1360)"/>
<path d="M65.8853 151.428C65.8853 151.428 75.261 148.782 75.3497 153.986C75.4384 159.196 62.4222 157.867 62.4222 157.867L62.9537 152.036" fill="#FFDAD9"/>
<path d="M15.2917 132.481C12.0644 134.486 9.51028 140.452 9.87569 145.157C10.4466 152.5 21.9517 165.171 28.4784 167.756C32.9247 169.517 64.4882 158.911 64.4882 158.911C65.404 158.75 64.0666 151.109 63.1501 151.27L33.958 154.722C33.958 154.722 20.8646 129.02 15.2917 132.481V132.481Z" fill="url(#paint10_linear_936_1360)"/>
<path d="M180.97 56.3115H88.9685C86.844 56.3115 85.1218 58.0337 85.1218 60.1582V99.481C85.1218 101.605 86.844 103.328 88.9685 103.328H180.97C183.094 103.328 184.816 101.605 184.816 99.481V60.1582C184.816 58.0337 183.094 56.3115 180.97 56.3115Z" fill="url(#paint11_linear_936_1360)"/>
<path d="M231.904 56.3115H194.069C191.944 56.3115 190.222 58.0337 190.222 60.1582V99.481C190.222 101.605 191.944 103.328 194.069 103.328H231.904C234.028 103.328 235.751 101.605 235.751 99.481V60.1582C235.751 58.0337 234.028 56.3115 231.904 56.3115Z" fill="url(#paint12_linear_936_1360)"/>
<path d="M128.466 62.3047H93.3216C92.4646 62.3047 91.7698 62.9995 91.7698 63.8566V95.7816C91.7698 96.6387 92.4646 97.3335 93.3216 97.3335H128.466C129.323 97.3335 130.018 96.6387 130.018 95.7816V63.8566C130.018 62.9995 129.323 62.3047 128.466 62.3047Z" fill="white"/>
<path d="M112.937 87.1212H97.5413L105.237 77.6304L108.457 81.5984L112.937 87.1212Z" fill="#373A50"/>
<path d="M124.246 87.1232H104.853L114.548 75.1685L124.246 87.1232Z" fill="#373A50"/>
<path d="M109.876 74.3593C109.876 75.3782 109.048 76.2061 108.029 76.2061C107.01 76.2061 106.182 75.3782 106.182 74.3593C106.182 73.3404 107.01 72.5171 108.029 72.5171C109.048 72.5171 109.876 73.3404 109.876 74.3593Z" fill="#373A50"/>
<path d="M139.415 67.3223H170.309C170.966 67.3223 171.499 67.8552 171.499 68.5125V71.2834C171.499 71.94 170.967 72.4737 170.309 72.4737H139.415C138.759 72.4737 138.225 71.9407 138.225 71.2834V68.5125C138.225 67.856 138.758 67.3223 139.415 67.3223Z" fill="white"/>
<path d="M175.621 76.4912H138.225V79.2166H175.621V76.4912Z" fill="white"/>
<path d="M175.621 83.2363H138.225V85.9618H175.621V83.2363Z" fill="white"/>
<path d="M150.184 89.98H138.225V92.7062H150.184V89.98Z" fill="white"/>
<path d="M164.248 89.98H156.543V92.7062H164.248V89.98Z" fill="white"/>
<path d="M220.798 87.6309C225.112 83.3167 225.112 76.322 220.798 72.0077C216.484 67.6935 209.489 67.6935 205.175 72.0077C200.86 76.322 200.86 83.3167 205.175 87.6309C209.489 91.9452 216.484 91.9452 220.798 87.6309Z" fill="white"/>
<path d="M217.983 80.7954L211.483 84.7323C210.729 85.1902 209.758 84.6474 209.758 83.7604L209.743 75.8874C209.743 75.0004 210.715 74.4507 211.475 74.9087L217.982 78.8456C218.715 79.289 218.715 80.3519 217.982 80.7962L217.983 80.7954Z" fill="#FF4129"/>
<path d="M125.994 121.804H110.073V126.014H125.994V121.804Z" fill="white"/>
<path d="M154.24 130.912H109.767V133.285H154.24V130.912Z" fill="white"/>
<path d="M154.24 136.829H109.767V139.202H154.24V136.829Z" fill="white"/>
<path d="M123.545 142.747H109.767V145.12H123.545V142.747Z" fill="white"/>
<path d="M131.352 142.747H127.602V145.12H131.352V142.747Z" fill="white"/>
<path d="M140.078 142.747H135.256V145.12H140.078V142.747Z" fill="white"/>
<path d="M60.2071 73.56L60.8205 77.3672C60.8917 77.8661 60.4641 78.3081 59.9653 78.2224L55.5167 77.5098C52.9648 78.9782 49.9991 79.819 46.8476 79.819C37.2377 79.819 29.439 72.0346 29.439 62.4248C29.439 52.8149 37.2377 45.0161 46.8476 45.0161C56.4575 45.0161 64.2418 52.8149 64.2418 62.4248C64.2418 66.6596 62.7165 70.5518 60.2071 73.56Z" fill="url(#paint13_linear_936_1360)"/>
<path d="M55.8563 69.1614H37.8244C37.4727 69.1614 37.1876 68.8764 37.1876 68.5246V56.3121C37.1876 55.9603 37.4727 55.6753 37.8244 55.6753H55.8563C56.208 55.6753 56.4931 55.9603 56.4931 56.3121V68.5246C56.4931 68.8764 56.208 69.1614 55.8563 69.1614ZM38.4613 67.8878H55.2194V56.9482H38.4613V67.8878Z" fill="white"/>
<path d="M46.84 64.2006C46.699 64.2006 46.5572 64.1536 46.4405 64.0604L37.4249 56.8098L38.2225 55.8174L46.8392 62.7473L55.456 55.8174L56.2535 56.8098L47.238 64.0604C47.1212 64.1544 46.9802 64.2006 46.8385 64.2006H46.84Z" fill="white"/>
<path opacity="0.2" d="M125.492 278.454C147.882 278.454 166.033 276.451 166.033 273.979C166.033 271.508 147.882 269.504 125.492 269.504C103.102 269.504 84.9507 271.508 84.9507 273.979C84.9507 276.451 103.102 278.454 125.492 278.454Z" fill="white"/>
<path d="M103.746 180.685C103.746 180.685 81.0433 172.198 79.4702 163.209C78.0813 155.278 86.1795 138.401 90.1187 134.016C90.3765 133.731 91.1263 134.151 91.2756 134.504L95.7887 146.619L96.7757 149.271C96.7757 149.271 89.1347 160.286 90.0763 161.635C91.0178 162.982 99.6975 170.906 99.6975 170.906L103.745 180.684L103.746 180.685Z" fill="#09005D"/>
<path d="M90.077 161.637C87.4509 158.911 89.6775 156.391 89.2772 152.193C88.8777 147.996 91.5273 143.399 91.5273 143.399L95.7887 146.621L96.7757 149.273C96.7757 149.273 89.1347 160.287 90.0763 161.636L90.077 161.637Z" fill="#060042"/>
<path d="M115.208 193.835C115.208 193.835 115.14 194.259 115.022 194.998C114.315 199.463 111.812 215.482 111.668 219.963C111.634 221.04 111.401 223.318 111.055 226.256C109.716 237.585 106.668 258.736 106.668 258.736H97.2919C97.2919 258.736 96.4967 209.512 95.1472 200.073C93.7978 190.631 95.1472 176.133 95.1472 176.133H107.453L115.208 193.835Z" fill="#00AFFD"/>
<path d="M98.3503 258.737C98.3503 258.737 98.2661 261.687 97.5914 263.879C96.9174 266.07 97.5914 272.335 97.5914 272.335H103.744C103.744 272.335 104.587 271.043 105.767 271.549C106.947 272.054 108.38 272.335 110.065 272.335H114.196C114.196 272.335 113.69 269.104 111.077 268.261C108.464 267.418 106.104 263.372 106.273 258.736H98.3495L98.3503 258.737Z" fill="#09005D"/>
<path d="M115.022 194.998C114.315 199.464 111.812 215.483 111.668 219.963C111.634 221.041 111.401 223.319 111.055 226.257C110.151 224.049 110.167 219.956 108.765 217.435C106.866 214.025 108.265 208.655 106.267 203.259C104.268 197.863 106.966 189.369 106.966 189.369L115.023 194.998H115.022Z" fill="#009FE6"/>
<path d="M115.124 119.152L113.963 128.147L113.787 129.507L102.896 128.99L103.09 127.193L103.746 121.092V112.409L105.684 111.23L110.909 116.118L115.124 119.152Z" fill="#FFDAD9"/>
<path d="M113.963 126.547L113.787 127.907L102.897 127.39L103.091 125.593C104.274 125.493 110.589 125.043 113.964 126.547H113.963Z" fill="#00AFFD"/>
<path d="M114.112 102.21L119.17 113.421L113.354 116.033H110.404L104.588 107.689L114.112 102.21Z" fill="#FFDAD9"/>
<path d="M111.844 114.262C111.844 114.262 114.534 114.094 115.63 112.998C116.726 111.902 117.99 109.963 119.339 110.89C120.688 111.817 122.794 116.537 120.434 119.067C118.074 121.596 111.163 122.691 110.151 120.499C109.14 118.308 108.465 114.683 107.116 113.503C105.768 112.323 103.913 113.503 104.841 116.538C105.768 119.573 103.745 121.09 103.745 121.09C103.745 121.09 97.5081 116.201 97.4232 111.228C97.3391 106.255 99.6991 104.148 102.733 103.389C102.733 103.389 105.361 96.2245 111.843 97.489C118.327 98.7535 115.966 103.642 113.775 104.906C111.583 106.171 107.453 107.956 107.537 109.508C107.621 111.06 109.243 114.817 111.843 114.263L111.844 114.262Z" fill="#111228"/>
<path d="M103.745 180.686C103.745 180.686 105.046 189.287 114.197 200.304C124.787 213.053 129.651 219.049 129.651 219.049C129.651 219.049 131.224 231.934 132.741 237.834C134.258 243.734 137.511 258.738 137.511 258.738H147.238C147.238 258.738 144.373 219.627 143.867 214.57C143.361 209.512 121.783 170.908 121.783 170.908L103.745 180.686V180.686Z" fill="#00AFFD"/>
<path d="M138.809 258.736C138.809 258.736 138.809 262.221 137.91 265.03C137.011 267.84 137.91 272.335 137.91 272.335H143.417C143.417 272.335 144.766 270.649 146.395 271.436C148.025 272.223 150.497 272.335 154.993 272.335H159.489C159.489 272.335 157.634 268.851 155.499 268.177C153.363 267.503 147.35 265.817 146.395 258.737H138.809V258.736Z" fill="#09005D"/>
<path d="M105.599 126.909C99.1705 127.306 91.4931 132.355 90.2498 133.821C88.2286 136.204 93.1602 156.157 93.3414 160.754C93.6492 168.549 93.2929 178.157 93.7985 180.854C94.3042 183.552 96.6642 183.889 96.6642 183.889H119.591C119.591 183.889 126.84 183.384 126.503 168.211C126.166 153.039 127.983 140.352 125.454 135.126C122.926 129.901 114.46 126.362 105.599 126.91V126.909Z" fill="#09005D"/>
<path d="M167.9 148.001L129.157 195.229C127.18 197.639 123.623 197.99 121.212 196.013L98.8294 177.651C96.4186 175.674 96.0676 172.117 98.0456 169.706L136.788 122.478C138.766 120.067 142.323 119.716 144.733 121.694L167.116 140.056C169.527 142.033 169.878 145.59 167.9 148.001Z" fill="#F3FF68"/>
<path d="M145.235 122.096L99.334 178.056L107.224 184.528L153.125 128.568L145.235 122.096Z" fill="url(#paint14_linear_936_1360)"/>
<path d="M157.198 154.982C159.082 152.106 158.279 148.248 155.404 146.364C152.529 144.48 148.671 145.283 146.786 148.158C144.902 151.033 145.705 154.891 148.58 156.776C151.455 158.66 155.314 157.857 157.198 154.982Z" fill="#EA001B"/>
<path d="M158.845 152.239C161.886 150.635 163.05 146.87 161.447 143.829C159.843 140.789 156.078 139.624 153.037 141.228C149.997 142.832 148.832 146.597 150.436 149.637C152.04 152.678 155.805 153.842 158.845 152.239Z" fill="#F79F1A"/>
<path d="M144.604 167.213L125.014 191.094C124.662 191.522 124.725 192.155 125.154 192.506C125.582 192.858 126.215 192.795 126.566 192.367L146.156 168.486C146.507 168.058 146.445 167.425 146.016 167.074C145.588 166.722 144.955 166.785 144.604 167.213Z" fill="url(#paint15_linear_936_1360)"/>
<path d="M132.953 174.767L121.606 188.598C121.337 188.928 121.384 189.414 121.713 189.684L122.073 189.979C122.402 190.249 122.888 190.201 123.158 189.872L134.505 176.04C134.775 175.711 134.727 175.225 134.398 174.955L134.039 174.66C133.709 174.39 133.223 174.438 132.953 174.767Z" fill="url(#paint16_linear_936_1360)"/>
<path d="M116.407 129.495C111.671 130.134 112.474 137.361 115.508 145.902C118.543 154.443 124.451 162.269 125.985 163.13C133.687 167.452 151.977 166.848 151.977 166.848L153.189 161.467C153.189 161.467 133.967 157.242 131.976 154.64C129.986 152.038 128.15 127.908 116.407 129.494V129.495Z" fill="#09005D"/>
<path d="M153.189 161.467C153.189 161.467 155.047 160.371 157.136 159.486C159.226 158.601 159.605 158.643 159.563 159.486C159.52 160.329 156.908 162.057 156.908 162.057C156.908 162.057 160.238 162.394 160.406 163.321C160.574 164.248 158.889 167.789 157.582 168.084C156.276 168.379 151.976 166.848 151.976 166.848L153.188 161.467H153.189Z" fill="#FFC8C7"/>
<path d="M142.618 258.76C142.438 257.065 138.219 217.248 138.219 216.249C138.158 215.446 131.989 203.918 127.858 196.365L128.252 196.15C129.318 198.099 138.668 215.223 138.668 216.25C138.668 217.277 143.019 258.299 143.063 258.713L142.617 258.761L142.618 258.76Z" fill="white"/>
<defs>
<linearGradient id="paint0_linear_936_1360" x1="1.86377" y1="0" x2="256.144" y2="283.465" gradientUnits="userSpaceOnUse">
<stop stop-color="#2B2BFF"/>
<stop offset="1" stop-color="#3F84FF"/>
</linearGradient>
<linearGradient id="paint1_linear_936_1360" x1="204.617" y1="134.675" x2="235.057" y2="134.675" gradientUnits="userSpaceOnUse">
<stop stop-color="#EBF2FF"/>
<stop offset="1" stop-color="#E1E8FF"/>
</linearGradient>
<linearGradient id="paint2_linear_936_1360" x1="271" y1="45" x2="299.817" y2="66.5467" gradientUnits="userSpaceOnUse">
<stop stop-color="#00D3FB"/>
<stop offset="1" stop-color="#0086FF"/>
</linearGradient>
<linearGradient id="paint3_linear_936_1360" x1="206.531" y1="137.167" x2="280.778" y2="213.905" gradientUnits="userSpaceOnUse">
<stop stop-color="#8D49FE"/>
<stop offset="1" stop-color="#013CB0"/>
</linearGradient>
<linearGradient id="paint4_linear_936_1360" x1="53.739" y1="145.608" x2="64.8513" y2="165.742" gradientUnits="userSpaceOnUse">
<stop stop-color="#F9B546"/>
<stop offset="1" stop-color="#F4642C"/>
</linearGradient>
<linearGradient id="paint5_linear_936_1360" x1="47.3341" y1="151.282" x2="57.1899" y2="163.615" gradientUnits="userSpaceOnUse">
<stop stop-color="#F9B546"/>
<stop offset="1" stop-color="#C7490B"/>
</linearGradient>
<linearGradient id="paint6_linear_936_1360" x1="26.9126" y1="148.229" x2="46.5706" y2="170.122" gradientUnits="userSpaceOnUse">
<stop stop-color="#F9B546"/>
<stop offset="1" stop-color="#F4642C"/>
</linearGradient>
<linearGradient id="paint7_linear_936_1360" x1="26.9081" y1="151.527" x2="43.8392" y2="172.947" gradientUnits="userSpaceOnUse">
<stop stop-color="#F9B546"/>
<stop offset="1" stop-color="#BE3500"/>
</linearGradient>
<linearGradient id="paint8_linear_936_1360" x1="64.9097" y1="134.677" x2="162.827" y2="134.677" gradientUnits="userSpaceOnUse">
<stop stop-color="#909EFF"/>
<stop offset="1" stop-color="#6977E3"/>
</linearGradient>
<linearGradient id="paint9_linear_936_1360" x1="168.565" y1="134.677" x2="199.641" y2="134.677" gradientUnits="userSpaceOnUse">
<stop stop-color="#909EFF"/>
<stop offset="1" stop-color="#6977E3"/>
</linearGradient>
<linearGradient id="paint10_linear_936_1360" x1="32.18" y1="144.51" x2="40.8635" y2="166.041" gradientUnits="userSpaceOnUse">
<stop stop-color="#F9B546"/>
<stop offset="1" stop-color="#F4642C"/>
</linearGradient>
<linearGradient id="paint11_linear_936_1360" x1="85.1218" y1="79.82" x2="184.816" y2="79.82" gradientUnits="userSpaceOnUse">
<stop stop-color="#D1DEFF"/>
<stop offset="1" stop-color="#B2C7FF"/>
</linearGradient>
<linearGradient id="paint12_linear_936_1360" x1="190.222" y1="79.82" x2="235.75" y2="79.82" gradientUnits="userSpaceOnUse">
<stop stop-color="#EBF2FF"/>
<stop offset="1" stop-color="#E1E8FF"/>
</linearGradient>
<linearGradient id="paint13_linear_936_1360" x1="64.2418" y1="62.4179" x2="29.4382" y2="62.4179" gradientUnits="userSpaceOnUse">
<stop stop-color="#909EFF"/>
<stop offset="1" stop-color="#6977E3"/>
</linearGradient>
<linearGradient id="paint14_linear_936_1360" x1="99.334" y1="178.056" x2="120.036" y2="189.381" gradientUnits="userSpaceOnUse">
<stop stop-color="#8D49FE"/>
<stop offset="1" stop-color="#013CB0"/>
</linearGradient>
<linearGradient id="paint15_linear_936_1360" x1="124.786" y1="166.846" x2="152.141" y2="183.91" gradientUnits="userSpaceOnUse">
<stop stop-color="#8D49FE"/>
<stop offset="1" stop-color="#013CB0"/>
</linearGradient>
<linearGradient id="paint16_linear_936_1360" x1="121.432" y1="174.485" x2="138.085" y2="185.013" gradientUnits="userSpaceOnUse">
<stop stop-color="#8D49FE"/>
<stop offset="1" stop-color="#013CB0"/>
</linearGradient>
</defs>
</svg>
