<svg width="18" height="18" viewBox="0 0 18 18" fill="none" xmlns="http://www.w3.org/2000/svg">
<path fill-rule="evenodd" clip-rule="evenodd" d="M12.3048 16.0194C12.5613 16.0194 12.7692 15.8115 12.7692 15.5551C12.7692 15.2986 12.5613 15.0908 12.3048 15.0908C12.0484 15.0908 11.8405 15.2986 11.8405 15.5551C11.8405 15.8115 12.0484 16.0194 12.3048 16.0194ZM12.3048 17.4124C13.3306 17.4124 14.1622 16.5809 14.1622 15.5551C14.1622 14.5293 13.3306 13.6978 12.3048 13.6978C11.2791 13.6978 10.4475 14.5293 10.4475 15.5551C10.4475 16.5809 11.2791 17.4124 12.3048 17.4124Z" fill="#DA126A"/>
<path fill-rule="evenodd" clip-rule="evenodd" d="M6.73283 16.0194C6.98928 16.0194 7.19716 15.8115 7.19716 15.5551C7.19716 15.2986 6.98928 15.0908 6.73283 15.0908C6.47637 15.0908 6.26849 15.2986 6.26849 15.5551C6.26849 15.8115 6.47637 16.0194 6.73283 16.0194ZM6.73283 17.4124C7.75859 17.4124 8.59017 16.5809 8.59017 15.5551C8.59017 14.5293 7.75859 13.6978 6.73283 13.6978C5.70707 13.6978 4.87549 14.5293 4.87549 15.5551C4.87549 16.5809 5.70707 17.4124 6.73283 17.4124Z" fill="#DA126A"/>
<path fill-rule="evenodd" clip-rule="evenodd" d="M0.117052 0.310224C0.330427 -0.00983678 0.762862 -0.0963237 1.08293 0.117052L2.16762 0.840174C2.51406 1.07112 2.75862 1.42623 2.85089 1.83223L4.76186 10.2406C4.88198 10.7691 5.35184 11.1441 5.89386 11.1441H13.144C13.686 11.1441 14.1559 10.7691 14.276 10.2406L15.7534 3.73987C15.9185 3.01346 15.3664 2.32174 14.6214 2.32174H7.42941C7.04476 2.32174 6.73291 2.00991 6.73291 1.62525C6.73291 1.24058 7.04476 0.928746 7.42941 0.928746H14.6214C16.2603 0.928746 17.475 2.45045 17.1118 4.04855L15.6344 10.5492C15.3701 11.712 14.3364 12.5371 13.144 12.5371H5.89386C4.70145 12.5371 3.66775 11.712 3.40349 10.5492L1.49252 2.14093C1.47934 2.08295 1.4444 2.03222 1.39491 1.99922L0.310229 1.2761C-0.00983687 1.06273 -0.096324 0.63029 0.117052 0.310224Z" fill="#DA126A"/>
<path fill-rule="evenodd" clip-rule="evenodd" d="M6.72768 6.76118C6.99955 6.48904 7.44053 6.48881 7.71267 6.76067L8.53418 7.58134L11.3246 4.79092C11.5966 4.51891 12.0376 4.51891 12.3096 4.79092C12.5816 5.06293 12.5816 5.50391 12.3096 5.77591L9.02693 9.05862C8.75501 9.33049 8.31422 9.33063 8.04217 9.05885L6.72815 7.74618C6.45605 7.47431 6.45581 7.03329 6.72768 6.76118Z" fill="#DA126A"/>
</svg>
