<svg width="25" height="27" viewBox="0 0 25 27" fill="none" xmlns="http://www.w3.org/2000/svg">
<path d="M9.37109 13.5835H14.7261V17.5998H9.37109V13.5835Z" fill="#DA126A"/>
<path d="M13.3875 10.9056C13.3875 10.1663 12.7881 9.56689 12.0487 9.56689C11.3094 9.56689 10.71 10.1661 10.71 10.9056V12.2443H13.3873V10.9056H13.3875Z" fill="#DA126A"/>
<path d="M23.4276 4.21252C19.5336 4.21252 14.4102 2.89874 12.5839 0.464108C12.341 0.168277 11.9043 0.125607 11.6087 0.368356C11.5737 0.397142 11.5417 0.429196 11.5129 0.464108C9.68668 2.89833 4.56302 4.21252 0.669243 4.21252C0.29971 4.21252 0 4.51223 0 4.88197V13.5836C0 20.944 6.3917 25.3811 11.8649 26.9448C11.9847 26.9797 12.1121 26.9797 12.2322 26.9448C17.7053 25.3811 24.0971 20.944 24.0971 13.5836V4.88197C24.0971 4.51223 23.7973 4.21252 23.4276 4.21252ZM16.0647 18.2691C16.0647 18.6388 15.765 18.9385 15.3955 18.9385H8.70159C8.33206 18.9385 8.03235 18.6388 8.03235 18.2691V12.9143C8.03235 12.5446 8.33206 12.2449 8.70159 12.2449H9.37104V10.9062C9.37104 9.42744 10.5697 8.2288 12.0484 8.2288C13.5272 8.2288 14.726 9.42744 14.726 10.9062V12.2449H15.3953C15.765 12.2449 16.0645 12.5446 16.0645 12.9143V18.2691H16.0647Z" fill="#DA126A"/>
</svg>
