<svg width="24" height="27" viewBox="0 0 24 27" fill="none" xmlns="http://www.w3.org/2000/svg">
<path d="M23.5385 16.7434V15.0507H15.7352C15.7352 17.241 13.9596 19.0166 11.7693 19.0166C9.57891 19.0166 7.80332 17.241 7.80332 15.0507H0V16.7434L3.38848 17.1022C3.59984 17.9686 3.94205 18.7838 4.393 19.5255L2.25017 22.1759L4.64407 24.5698L7.29443 22.4269C8.03616 22.8779 8.85132 23.2201 9.71772 23.4315L10.0765 26.8199H13.462L13.8208 23.4315C14.6872 23.2201 15.5023 22.8779 16.2441 22.4269L18.8944 24.5698L21.2883 22.1759L19.1455 19.5255C19.5965 18.7838 19.9387 17.9686 20.15 17.1022L23.5385 16.7434Z" fill="#DA126A"/>
<path d="M11.7703 0C10.0942 0 8.73047 1.36371 8.73047 3.03988C8.73047 4.71604 10.0942 6.0797 11.7703 6.0797C13.4465 6.0797 14.8102 4.71604 14.8102 3.03988C14.8102 1.36371 13.4465 0 11.7703 0Z" fill="#DA126A"/>
<path d="M15.0067 6.92041H8.53364C7.04343 6.92046 5.83105 8.13279 5.83105 9.623V13.479H17.7093V9.623C17.7093 8.13279 16.4969 6.92041 15.0067 6.92041Z" fill="#DA126A"/>
<path d="M5.31888 1.40527C3.8173 1.40527 2.5957 2.62692 2.5957 4.12845C2.5957 5.61793 3.79792 6.83125 5.28289 6.85068C5.89785 6.13137 6.74639 5.61798 7.71042 5.42967C7.92173 5.04283 8.04205 4.59947 8.04205 4.12845C8.04205 2.62687 6.82045 1.40527 5.31888 1.40527Z" fill="#DA126A"/>
<path d="M2.42104 7.60349C1.08609 7.60349 0 8.68952 0 10.0245V13.4788H4.2587V9.62275C4.2587 8.89281 4.44298 8.2052 4.76696 7.60349H2.42104Z" fill="#DA126A"/>
<path d="M18.2183 1.40488C16.7167 1.40488 15.4951 2.62653 15.4951 4.12805C15.4951 4.59902 15.6154 5.04243 15.8267 5.42927C16.7908 5.61758 17.6393 6.13098 18.2543 6.85028C19.7392 6.8309 20.9415 5.61753 20.9415 4.12805C20.9415 2.62647 19.7199 1.40488 18.2183 1.40488Z" fill="#DA126A"/>
<path d="M21.1184 7.60352H18.7725C19.0964 8.20523 19.2807 8.89284 19.2807 9.62278V13.4788H23.5394V10.0245C23.5394 8.68955 22.4533 7.60352 21.1184 7.60352Z" fill="#DA126A"/>
</svg>
