<svg width="27" height="25" viewBox="0 0 27 25" fill="none" xmlns="http://www.w3.org/2000/svg">
<path d="M19.5232 7.65137C18.9365 7.65137 18.5908 7.98662 18.5908 8.69897V11.4752C18.5908 11.9571 18.7374 12.261 19.0203 12.4181V11.9571C19.0203 11.6114 19.2718 11.4647 19.5232 11.4647C19.7747 11.4647 20.0261 11.6114 20.0261 11.9571V12.4181C20.2985 12.261 20.4661 11.9571 20.4661 11.4752V8.69897C20.4661 7.98662 20.1099 7.65137 19.5232 7.65137Z" fill="#DA126A"/>
<path d="M12.0947 11.0142H13.6243L12.8595 8.20654L12.0947 11.0142Z" fill="#DA126A"/>
<path d="M20.796 0.958496H6.02402C2.70238 0.958496 0 3.66087 0 6.98252V12.7446C0 15.8001 2.2864 18.3315 5.23828 18.7176V24.0503C5.23828 24.3681 5.42969 24.6546 5.72335 24.7762C5.82052 24.8165 5.92266 24.836 6.02387 24.836C6.22832 24.836 6.42931 24.7562 6.5796 24.6058L12.4168 18.7687H20.796C24.1176 18.7687 26.82 16.0663 26.82 12.7446V6.98252C26.82 3.66087 24.1176 0.958496 20.796 0.958496ZM8.43892 9.42194C8.75322 9.42194 8.93132 9.72575 8.93132 10.061C8.93132 10.3439 8.7846 10.6791 8.43892 10.6791H6.85701V13.3821C6.85701 13.7173 6.44838 13.885 6.03984 13.885C5.6312 13.885 5.22267 13.7173 5.22267 13.3821V6.72951C5.22267 6.39426 5.57882 6.22664 5.93508 6.22664H9.57034C9.91607 6.22664 10.0627 6.59332 10.0627 6.92857C10.0627 7.3162 9.88464 7.65145 9.57034 7.65145H6.85696V9.42194H8.43892ZM14.8611 13.8849C14.5992 13.8849 14.3897 13.8011 14.3269 13.5811L13.9706 12.2715H11.7601L11.4039 13.5811C11.341 13.8011 11.1315 13.8849 10.8696 13.8849C10.4191 13.8849 9.82193 13.602 9.82193 13.2144C9.82193 13.183 9.83246 13.1411 9.84289 13.0992L11.7915 6.70856C11.9068 6.34188 12.3782 6.16378 12.8601 6.16378C13.342 6.16378 13.8134 6.34188 13.9287 6.70856L15.8877 13.0992C15.8981 13.1411 15.9087 13.183 15.9087 13.2144C15.9088 13.602 15.3116 13.8849 14.8611 13.8849ZM22.1003 11.4753C22.1003 13.0677 21.2203 13.7696 20.0259 13.9163V14.524C20.0259 14.8592 19.7745 15.0268 19.523 15.0268C19.2716 15.0268 19.0201 14.8592 19.0201 14.524V13.9163C17.8259 13.7697 16.9564 13.0677 16.9564 11.4753V8.69905C16.9564 6.88661 18.0773 6.22664 19.523 6.22664C20.9688 6.22664 22.1002 6.88666 22.1002 8.69905V11.4753H22.1003Z" fill="#DA126A"/>
</svg>
