<svg width="23" height="23" viewBox="0 0 23 23" fill="none" xmlns="http://www.w3.org/2000/svg">
<path d="M5.50577 12.5769C5.50577 12.5769 5.50583 12.5771 5.50583 12.5771C5.52498 12.5578 5.52371 12.5589 5.50577 12.5769Z" fill="#DA126A"/>
<path d="M22.306 9.42035L21.1716 9.14758C20.9249 8.0708 20.5001 7.04753 19.9062 6.09609L20.4812 5.13092C20.6378 4.86795 20.5954 4.53249 20.3793 4.31648L18.4953 2.43244C18.2793 2.2171 17.9445 2.17401 17.6809 2.33063L16.7157 2.90553C15.7643 2.31169 14.741 1.88685 13.6642 1.64019L13.3914 0.505798C13.317 0.208878 13.0501 0 12.7434 0H10.0704C9.76369 0 9.4968 0.208833 9.4224 0.505798L9.14962 1.64019C8.07284 1.88685 7.04957 2.31169 6.09813 2.90553L5.13296 2.33063C4.86999 2.17397 4.53453 2.21643 4.31852 2.43244L2.43439 4.31644C2.21838 4.53244 2.17597 4.86786 2.33258 5.13087L2.90748 6.09604C2.31364 7.04749 1.8888 8.07076 1.64214 9.14754L0.507751 9.42031C0.210831 9.49472 0.00195312 9.76161 0.00195312 10.0683V12.7413C0.00195312 13.048 0.210786 13.3156 0.508375 13.3893L1.64277 13.6621C1.80722 14.3756 2.05473 15.0611 2.37259 15.7186C2.86337 15.2258 5.32829 12.7503 5.50545 12.5734C5.49671 12.5284 5.40123 11.6724 5.39869 11.5057C5.34184 8.10043 8.08465 5.39117 11.4095 5.39117C14.757 5.39117 17.4264 8.09045 17.4138 11.4257C17.3995 14.5101 15.0973 17.136 11.882 17.3762C11.7429 17.3868 11.114 17.4796 10.2375 17.3068L7.10112 20.4432C7.7561 20.7591 8.439 21.005 9.14958 21.1688L9.42235 22.3039C9.49676 22.6008 9.76365 22.8097 10.0704 22.8097H12.7434C13.0501 22.8097 13.317 22.6009 13.3914 22.3039L13.6642 21.1695C14.7409 20.9228 15.7642 20.498 16.7157 19.9042L17.6808 20.4791C17.9425 20.6357 18.2786 20.5926 18.4953 20.3773L20.3793 18.4932C20.5953 18.2772 20.6377 17.9418 20.4811 17.6788L19.9062 16.7136C20.5007 15.7622 20.9249 14.7389 21.1715 13.6614L22.3053 13.3893C22.6029 13.3156 22.8117 13.048 22.8117 12.7413V10.0683C22.8117 9.76165 22.6029 9.49472 22.306 9.42035Z" fill="#DA126A"/>
<path d="M15.9295 10.1834C15.8709 9.9533 15.6932 9.77232 15.4642 9.70958C15.2352 9.64676 14.9905 9.71221 14.8226 9.8801L13.2977 11.4051C12.7764 11.9264 11.9291 11.9264 11.4078 11.4051C10.887 10.8843 10.887 10.036 11.4078 9.51518L12.9333 7.98959C13.1012 7.82171 13.1661 7.57665 13.1033 7.34777C13.0405 7.11888 12.8597 6.94097 12.6297 6.88251C9.80989 6.16592 7.27235 8.00265 6.80696 10.5391C6.65752 11.3744 6.72409 12.2064 6.99748 12.9726C6.61724 13.3529 0.744159 19.2259 0.586297 19.3838C-0.197485 20.1676 -0.197485 21.4427 0.598684 22.2389C1.38741 22.9866 2.59536 23.018 3.42896 22.2265L9.84019 15.8153C10.8669 16.1817 12.0119 16.1743 13.1325 15.7789C15.1515 15.0664 16.5646 12.6754 15.9295 10.1834Z" fill="#DA126A"/>
</svg>
