<svg width="24" height="24" viewBox="0 0 24 24" fill="none" xmlns="http://www.w3.org/2000/svg">
<path d="M0.9564 4.17292V20.2715C0.95757 20.7375 1.11162 21.1905 1.39521 21.5617C1.67879 21.9329 2.07645 22.2021 2.52789 22.3285L5.32208 23.1111H1.74027C1.27872 23.1111 0.836078 22.9289 0.509714 22.6046C0.18335 22.2804 0 21.8406 0 21.382V3.06242C0 2.60383 0.18335 2.16403 0.509714 1.83976C0.836078 1.51549 1.27872 1.33331 1.74027 1.33331H5.33333L2.52789 2.11961C2.07706 2.24587 1.67986 2.51453 1.39633 2.88498C1.11281 3.25543 0.958383 3.70753 0.9564 4.17292Z" fill="#DA126A"/>
<path d="M16.0004 3.00889V9.26655H15.432C15.1724 9.26894 14.9197 9.36199 14.7084 9.53302C14.4971 9.70405 14.3374 9.94477 14.2511 10.2224V1.69149C14.2522 1.57138 14.2427 1.45144 14.2227 1.3335H14.5384C14.7315 1.33443 14.9225 1.37854 15.1006 1.46329C15.2786 1.54804 15.4401 1.67176 15.5759 1.82738C15.7117 1.98301 15.8191 2.16747 15.892 2.37021C15.9648 2.57295 16.0017 2.78998 16.0004 3.00889Z" fill="#DA126A"/>
<path d="M15.4362 14.7831H16.0004V21.3642C15.9996 21.8272 15.8452 22.271 15.5711 22.5984C15.297 22.9258 14.9255 23.1102 14.5379 23.1112H14.2227C14.2416 22.9933 14.2511 22.8735 14.251 22.7535V13.7778C14.3376 14.071 14.4979 14.325 14.7101 14.505C14.9223 14.685 15.176 14.7821 15.4362 14.7831Z" fill="#DA126A"/>
<path d="M13.3327 1.4029V22.5907C13.3359 22.8079 13.2885 23.0228 13.1943 23.2181C13.1001 23.4134 12.9617 23.5836 12.7903 23.7151C12.5497 23.8992 12.2562 23.9992 11.9543 24C11.8286 24.0007 11.7034 23.9831 11.5827 23.9475L2.78798 21.4401C2.4978 21.3552 2.2426 21.1779 2.06046 20.9348C1.87833 20.6916 1.77901 20.3955 1.77734 20.0907V3.89911C1.77922 3.59483 1.87867 3.29933 2.06083 3.0568C2.243 2.81426 2.49809 2.63772 2.78798 2.55356L11.5753 0.053602C11.7814 -0.00587547 11.9985 -0.0160166 12.2093 0.023985C12.42 0.0639866 12.6186 0.153028 12.7892 0.284029C12.9598 0.415031 13.0978 0.58438 13.1922 0.778614C13.2865 0.972848 13.3347 1.18661 13.3327 1.4029Z" fill="#DA126A"/>
<path d="M23.7882 12.5104L20.865 15.3458C20.7241 15.4795 20.535 15.5547 20.338 15.5554C20.2404 15.555 20.1439 15.5362 20.0536 15.5003C19.9173 15.4466 19.8007 15.3544 19.7189 15.2358C19.6371 15.1171 19.5939 14.9774 19.5949 14.8346V13.8601H15.4243C15.2232 13.8601 15.0303 13.7826 14.8881 13.6447C14.7459 13.5067 14.666 13.3196 14.666 13.1246V10.8408C14.666 10.6457 14.7459 10.4586 14.8881 10.3207C15.0303 10.1828 15.2232 10.1053 15.4243 10.1053H19.5949L19.5759 9.14542C19.5826 9.00572 19.6303 8.87078 19.7133 8.75643C19.7963 8.64208 19.9112 8.55305 20.0445 8.49978C20.1778 8.44651 20.324 8.43121 20.466 8.45568C20.608 8.48015 20.7398 8.54336 20.846 8.63791L23.7692 11.4733C23.913 11.6087 23.9957 11.7938 23.9992 11.9881C24.0028 12.1824 23.9269 12.3702 23.7882 12.5104Z" fill="#DA126A"/>
</svg>
