<svg width="21" height="21" viewBox="0 0 21 21" fill="none" xmlns="http://www.w3.org/2000/svg">
<path d="M3.69041 12.8185C3.55863 12.8185 3.43021 12.7758 3.30934 12.692C2.98115 12.4641 2.93666 12.0855 3.19435 11.7051C3.84066 10.7501 4.60783 9.9852 5.47489 9.43144C5.91136 9.15331 6.36042 8.91204 6.83634 8.65652L6.84557 8.65149C7.05541 8.53923 7.26693 8.4253 7.47845 8.30801L7.68158 8.19492L7.50951 8.03826C6.2874 6.91985 5.77035 5.5384 5.97431 3.93075C6.11449 2.8224 6.62818 1.87908 7.50027 1.12678C8.34299 0.400447 9.41066 0 10.5077 0C11.7189 0 12.8663 0.474169 13.7376 1.33454C14.603 2.18905 15.1049 3.45071 15.0797 4.70818C15.0621 5.5962 14.7775 6.89472 13.5269 8.03323L13.3649 8.18151L13.5504 8.2988C13.8064 8.46049 14.0708 8.61882 14.3251 8.77129C14.9228 9.12901 15.5405 9.4993 16.0903 9.93326C16.6384 10.3664 17.1034 10.9377 17.5533 11.4898L17.7094 11.6808C17.8572 11.8618 17.9218 12.0545 17.8949 12.2371C17.8698 12.4097 17.7665 12.5621 17.597 12.6777C17.4694 12.764 17.341 12.8084 17.2159 12.8084C16.9406 12.8084 16.7307 12.5973 16.6032 12.4197C15.1687 10.4217 13.2348 9.34934 10.8552 9.23373C10.71 9.22703 10.5648 9.22284 10.4238 9.22284C8.0232 9.22284 6.02552 10.2256 4.48613 12.2027C4.44584 12.2547 4.40806 12.3083 4.37029 12.3619C4.34176 12.403 4.3149 12.4398 4.28804 12.4767C4.12436 12.697 3.912 12.8185 3.69041 12.8185ZM10.4918 1.33035C8.74001 1.33035 7.29631 2.76878 7.27281 4.53728C7.26106 5.39765 7.58757 6.2086 8.19023 6.821C8.79541 7.43591 9.60707 7.77604 10.4741 7.78023H10.4876C12.2838 7.78023 13.7074 6.38118 13.7292 4.59425C13.7393 3.73974 13.4102 2.92795 12.8025 2.30801C12.1948 1.68808 11.3874 1.34125 10.5287 1.33119L10.4918 1.33035Z" fill="#DA126A"/>
<path d="M3.69251 12.7348C3.57836 12.7348 3.46588 12.6971 3.35928 12.6234C3.06886 12.4215 3.03361 12.0956 3.26611 11.7521C3.90571 10.8063 4.66449 10.049 5.52232 9.5019C5.95459 9.22628 6.40365 8.98501 6.87873 8.73033C7.09193 8.61556 7.3068 8.50079 7.52252 8.38099L7.82805 8.21176L7.57036 7.97635C6.36756 6.87722 5.85974 5.52005 6.05951 3.94172C6.19717 2.85516 6.70162 1.92944 7.55777 1.19054C8.38454 0.476769 9.43291 0.0838623 10.5098 0.0838623C11.6992 0.0838623 12.8248 0.548816 13.6809 1.39411C14.5304 2.23354 15.0231 3.4709 14.9979 4.70576C14.9803 5.57786 14.7016 6.85208 13.4728 7.97049L13.2293 8.19249L13.508 8.36842C13.7632 8.52927 14.0284 8.68844 14.2844 8.84259C14.8795 9.19947 15.4948 9.56808 16.0404 9.99869C16.5809 10.4259 17.0434 10.9931 17.4908 11.5427L17.6469 11.7337C17.7795 11.8962 17.8374 12.0663 17.8148 12.2254C17.793 12.3746 17.7023 12.5069 17.5529 12.6091C17.4396 12.6862 17.3271 12.7247 17.2188 12.7247C16.9788 12.7247 16.7908 12.5321 16.6749 12.3712C15.2245 10.3514 13.2696 9.26733 10.8632 9.15005C10.7171 9.14334 10.5711 9.13915 10.4284 9.13915C8.00011 9.13915 5.97977 10.1528 4.42443 12.1517C4.3833 12.2045 4.34469 12.2598 4.30608 12.3142C4.27922 12.3519 4.2532 12.3896 4.2255 12.4265C4.07526 12.6259 3.8864 12.7348 3.69251 12.7348ZM10.4939 1.24667C8.69679 1.24667 7.21447 2.72195 7.19013 4.53569C7.17838 5.41869 7.51245 6.25058 8.13189 6.87889C8.75302 7.50972 9.58567 7.85906 10.4754 7.86242H10.4888C12.3312 7.86242 13.7917 6.4265 13.8144 4.5935C13.8253 3.71721 13.487 2.88364 12.8634 2.24778C12.2397 1.61193 11.4113 1.25672 10.5308 1.24583L10.4939 1.24667Z" fill="#DA126A"/>
<path d="M1.41211 21C1.38021 21 1.3458 20.9933 1.30635 20.9447C1.22829 20.8492 1.18464 20.6289 1.21402 20.4831C1.2669 20.2209 1.36342 19.9653 1.46499 19.6948C1.50947 19.575 1.55648 19.4518 1.59845 19.3278C1.62363 19.2533 1.64461 19.1812 1.67063 19.0899C1.68406 19.0438 1.69833 18.9927 1.71596 18.9341L1.75205 18.8109L1.67315 18.7096C1.64629 18.6752 1.62027 18.6367 1.59341 18.5965C1.51619 18.4834 1.42889 18.3543 1.30131 18.2521C1.03523 18.0402 0.754047 17.8442 0.482094 17.6548C0.400676 17.5979 0.318418 17.5409 0.237 17.4831C-0.0307561 17.2946 -0.0173263 17.1773 0.0212843 17.0642C0.0632524 16.9419 0.140474 16.8288 0.415785 16.8288H0.438447C0.494685 16.8305 0.550922 16.8305 0.607159 16.8305C0.713758 16.8305 0.820357 16.8288 0.926956 16.8271C1.03104 16.8254 1.13428 16.8238 1.23836 16.8238C1.39532 16.8238 1.5229 16.828 1.64041 16.8372C1.6807 16.8405 1.71931 16.8422 1.75709 16.8422C2.2372 16.8422 2.54776 16.5833 2.67954 16.074C2.73578 15.8578 2.80629 15.6467 2.88183 15.4239C2.92716 15.2898 2.97416 15.1508 3.01697 15.0109C3.1009 14.7386 3.19911 14.7177 3.31998 14.7177C3.46854 14.7193 3.54996 14.7662 3.63138 15.0276C3.68342 15.1943 3.7405 15.361 3.7959 15.5227C3.87312 15.7481 3.95286 15.981 4.01665 16.2105C4.13164 16.6244 4.41115 16.8347 4.84678 16.8347H4.87783C5.00374 16.8321 5.1288 16.8313 5.25471 16.8313C5.35963 16.8313 5.46455 16.8321 5.57031 16.8321C5.67607 16.833 5.78267 16.833 5.88842 16.833C5.99922 16.833 6.10918 16.8321 6.21997 16.8305H6.23592C6.50955 16.8305 6.5851 16.9478 6.62622 17.0751C6.65812 17.1748 6.67239 17.2954 6.42813 17.4697C6.30978 17.5543 6.19143 17.6389 6.07392 17.7235C5.84058 17.8911 5.60808 18.0578 5.37306 18.222C4.98107 18.4959 4.86608 18.8738 5.03899 19.3153C5.1288 19.544 5.2077 19.7852 5.28408 20.019C5.33109 20.1631 5.37893 20.308 5.42845 20.4512C5.53338 20.752 5.50232 20.8366 5.38649 20.9221C5.32605 20.9665 5.27065 20.9882 5.2161 20.9882C5.13804 20.9882 5.04151 20.9447 4.92316 20.8559C4.76368 20.7361 4.59833 20.6205 4.43885 20.5082C4.26174 20.3842 4.07792 20.2552 3.90585 20.1228C3.71616 19.9771 3.52058 19.9034 3.32501 19.9034C3.12357 19.9034 2.92716 19.9779 2.72655 20.1321C2.53182 20.2812 2.32533 20.427 2.12556 20.5669C1.97784 20.6707 1.82591 20.778 1.67735 20.8877C1.57914 20.9598 1.48261 21 1.41211 21Z" fill="#DA126A"/>
<path d="M15.7867 20.9882C15.7288 20.9882 15.67 20.964 15.6062 20.9145C15.503 20.8349 15.4711 20.7478 15.5668 20.4714C15.6029 20.3666 15.6381 20.2611 15.6734 20.1555C15.7548 19.9117 15.8387 19.6587 15.9352 19.4208C16.156 18.8805 16.0217 18.454 15.5374 18.1524C15.3049 18.0075 15.0875 17.8458 14.8558 17.6741C14.7585 17.6012 14.6603 17.5292 14.5621 17.4579C14.3262 17.2879 14.3447 17.1647 14.3799 17.0634C14.421 16.9478 14.4966 16.8305 14.7484 16.8305H14.7593C14.9196 16.833 15.0808 16.833 15.2411 16.833C15.3846 16.833 15.5273 16.8321 15.67 16.8321L15.9378 16.8313C16.6966 16.8296 16.809 16.7484 17.0382 16.0438L17.1339 15.7498C17.196 15.5571 17.2589 15.3644 17.3219 15.1717L17.3412 15.1131C17.4427 14.7972 17.4889 14.7177 17.6786 14.7177C17.8725 14.7202 17.9178 14.7964 18.0143 15.0955C18.0253 15.1282 18.0353 15.1617 18.0471 15.1943L18.0907 15.3208C18.1864 15.599 18.2855 15.8855 18.3593 16.1695C18.4743 16.6127 18.7664 16.8363 19.2272 16.8363C19.2465 16.8363 19.2658 16.8363 19.286 16.8355C19.4094 16.8305 19.5428 16.8288 19.7057 16.8288C19.8106 16.8288 19.9163 16.8296 20.0213 16.8305C20.1279 16.8313 20.2345 16.8321 20.3411 16.8321C20.4208 16.8321 20.5005 16.8313 20.5803 16.8305H20.5962C20.8682 16.8305 20.9429 16.9486 20.984 17.0759C21.0159 17.1748 21.0285 17.2954 20.7834 17.4705C20.6709 17.5509 20.5601 17.6322 20.4485 17.7135C20.2269 17.8751 19.9986 18.0427 19.7686 18.1943C19.3363 18.48 19.2146 18.8712 19.4085 19.358C19.4975 19.5808 19.5747 19.8154 19.6494 20.0433C19.6948 20.1798 19.7392 20.3164 19.7871 20.4521C19.892 20.7495 19.8576 20.8366 19.7426 20.9212C19.6822 20.9656 19.6276 20.9866 19.5739 20.9866C19.495 20.9866 19.3993 20.943 19.2793 20.8525C18.9603 20.6121 18.612 20.3633 18.2141 20.091C18.1184 20.0257 18.0169 19.9821 17.9178 19.9402C17.8759 19.9226 17.8314 19.9034 17.786 19.8824L17.6761 19.8305L17.567 19.8841C17.5258 19.9042 17.4839 19.9235 17.4419 19.9419C17.3395 19.988 17.2329 20.0357 17.1313 20.1053C16.7847 20.3423 16.4263 20.5979 16.0662 20.8643C15.9571 20.9472 15.8631 20.9882 15.7867 20.9882Z" fill="#DA126A"/>
<path d="M12.4103 18.0678C12.349 18.0678 12.2701 18.036 12.1929 17.9807C12.0771 17.8978 11.9613 17.8148 11.8454 17.7319C11.5911 17.5509 11.3284 17.3633 11.0741 17.1756C10.8877 17.0382 10.6955 16.9679 10.5024 16.9679C10.3086 16.9679 10.1155 17.0382 9.92916 17.1773C9.70505 17.3449 9.47255 17.5124 9.24844 17.6733C9.12589 17.7612 9.00418 17.8492 8.88164 17.938C8.77252 18.0176 8.68355 18.0561 8.61052 18.0561C8.57779 18.0561 8.52575 18.0494 8.45104 17.9933C8.33102 17.9036 8.28317 17.8115 8.37382 17.5794C8.47623 17.3172 8.56688 17.0483 8.65417 16.7878C8.70369 16.642 8.75238 16.4962 8.80358 16.3513C8.9555 15.9224 8.83799 15.5579 8.46447 15.2991C8.29408 15.1809 8.12285 15.0553 7.9575 14.9346C7.76864 14.7964 7.57307 14.6532 7.37414 14.5174C7.27678 14.4513 7.12737 14.3181 7.21131 14.1714C7.27006 14.0692 7.44801 13.9545 7.62595 13.905C7.68471 13.8883 7.75437 13.8807 7.84586 13.8807C7.91469 13.8807 7.98604 13.8849 8.06158 13.8891C8.14132 13.8941 8.22358 13.8983 8.30667 13.8983C8.36963 13.8975 8.42418 13.8975 8.47623 13.8975C8.55009 13.8975 8.61892 13.8975 8.68187 13.8983C8.73643 13.8983 8.78763 13.8992 8.83463 13.8992C9.59174 13.8992 9.67735 13.7157 9.91825 12.9391C9.94427 12.8562 9.97281 12.7649 10.0047 12.6626C10.0257 12.5956 10.045 12.5278 10.0643 12.4591C10.1105 12.2932 10.1541 12.1357 10.2297 12.0167C10.2951 11.9129 10.4286 11.8157 10.4773 11.8098C10.557 11.8132 10.7249 11.9179 10.7576 11.9883C10.9213 12.3418 11.0354 12.7364 11.1454 13.1184L11.1848 13.2549C11.3099 13.6839 11.5936 13.9017 12.0276 13.9017C12.0435 13.9017 12.0603 13.9017 12.0771 13.9008C12.2097 13.8958 12.3524 13.8941 12.5261 13.8941C12.6403 13.8941 12.7553 13.895 12.8694 13.8958C12.9853 13.8967 13.1011 13.8975 13.2169 13.8975C13.2681 13.8975 13.3857 13.8967 13.3857 13.8967C13.6996 13.8967 13.7525 13.9922 13.786 14.1069C13.8314 14.2619 13.8171 14.3951 13.5989 14.5409C13.3554 14.7043 13.1179 14.8793 12.8888 15.0486C12.7612 15.1424 12.6344 15.2362 12.506 15.3284C12.1635 15.5738 12.0561 15.9131 12.1946 16.3086C12.2332 16.4191 12.2735 16.5289 12.3138 16.6395C12.433 16.9637 12.5446 17.2703 12.616 17.5878C12.6428 17.7068 12.5983 17.9053 12.5228 18.0042C12.4825 18.0603 12.4431 18.0678 12.4103 18.0678Z" fill="#DA126A"/>
</svg>
