<svg width="375" height="812" viewBox="0 0 375 812" fill="none" xmlns="http://www.w3.org/2000/svg">
<g clip-path="url(#clip0_1094_91)">
<rect width="375" height="812" fill="url(#paint0_linear_1094_91)"/>
<rect width="375" height="812" fill="url(#paint1_linear_1094_91)"/>
<path d="M177.161 138.874C175.493 138.874 173.824 138.874 172.156 138.874C172.99 140.959 174.241 143.044 175.076 145.13C185.088 168.486 190.093 193.094 190.093 218.953C190.093 231.882 188.842 244.811 186.339 257.324L235.564 228.962C243.907 223.958 250.999 211.862 250.999 202.269V173.074C232.644 152.22 206.363 138.874 177.161 138.874Z" fill="url(#paint2_linear_1094_91)"/>
<path d="M52.3219 199.82C52.3219 184.761 64.4516 172.63 79.5093 172.63C81.1823 172.63 82.8554 172.63 84.5285 173.048C88.7112 167.192 92.8938 161.754 98.3313 156.316C110.879 143.766 125.937 134.564 142.249 129.126C115.899 87.2949 71.5622 58.0134 20.5335 51.7388L6.31244 60.1049C-2.88945 65.1246 -10 77.2555 -10 87.2949V201.911C-10 211.95 -2.88945 224.081 5.4759 228.683L69.4708 265.494C66.543 255.873 65.2882 245.415 65.2882 235.376C65.2882 231.193 65.7064 227.01 66.1247 223.245C57.7594 218.225 52.3219 209.859 52.3219 199.82Z" fill="url(#paint3_linear_1094_91)"/>
<path d="M235.064 60.7835L135.678 3.74693C127.291 -1.24898 113.033 -1.24898 104.646 3.74693L48.4529 35.804C56.8399 37.8856 65.2269 40.7999 73.1945 44.1305C95.8394 53.706 116.388 67.4447 133.581 84.5141C145.742 96.5875 155.807 109.91 164.194 124.065C168.387 123.649 172.581 123.232 176.774 123.232C204.451 123.232 230.031 133.224 250.999 151.126V87.4284C250.58 77.4366 243.451 65.3631 235.064 60.7835Z" fill="url(#paint4_linear_1094_91)"/>
<path d="M97.4746 179.717C102.971 184.73 106.353 191.832 106.353 199.769C106.353 214.389 94.5152 226.086 80.141 226.921C79.7183 229.845 79.7183 232.769 79.7183 235.694C79.7183 250.732 83.1004 264.935 89.442 277.467L105.084 286.239C113.54 291.252 127.914 291.252 136.37 286.239L159.199 273.289C165.118 256.162 168.077 238.2 168.077 219.402C168.077 191.832 161.313 165.932 149.475 142.957C128.337 148.805 110.158 162.173 97.4746 179.717Z" fill="url(#paint5_linear_1094_91)"/>
<circle cx="188" cy="406" r="80" fill="white"/>
<path d="M209.315 403.695C208.687 403.695 208.06 403.695 207.432 403.695C207.746 404.479 208.217 405.264 208.53 406.048C212.297 414.834 214.18 424.091 214.18 433.819C214.18 438.682 213.709 443.546 212.767 448.253L231.285 437.584C234.423 435.701 237.091 431.152 237.091 427.543V416.56C230.186 408.715 220.3 403.695 209.315 403.695Z" fill="url(#paint6_linear_1094_91)"/>
<path d="M162.353 426.621C162.353 420.956 166.916 416.393 172.581 416.393C173.21 416.393 173.839 416.393 174.469 416.55C176.042 414.347 177.615 412.302 179.661 410.256C184.381 405.535 190.046 402.073 196.182 400.028C186.269 384.292 169.591 373.277 150.395 370.917L145.046 374.064C141.584 375.952 138.909 380.515 138.909 384.292V427.408C138.909 431.184 141.584 435.748 144.731 437.479L168.804 451.326C167.703 447.707 167.231 443.773 167.231 439.996C167.231 438.423 167.388 436.849 167.546 435.433C164.399 433.545 162.353 430.398 162.353 426.621Z" fill="url(#paint7_linear_1094_91)"/>
<path d="M231.096 374.319L193.71 352.864C190.555 350.984 185.191 350.984 182.036 352.864L160.898 364.923C164.053 365.706 167.208 366.802 170.205 368.055C178.723 371.657 186.453 376.825 192.921 383.246C197.496 387.788 201.282 392.8 204.437 398.125C206.014 397.968 207.592 397.811 209.169 397.811C219.581 397.811 229.203 401.57 237.091 408.304V384.343C236.933 380.584 234.251 376.042 231.096 374.319Z" fill="url(#paint8_linear_1094_91)"/>
<path d="M179.339 419.06C181.406 420.946 182.678 423.617 182.678 426.603C182.678 432.103 178.225 436.503 172.818 436.817C172.659 437.917 172.659 439.017 172.659 440.117C172.659 445.774 173.931 451.117 176.317 455.831L182.201 459.131C185.382 461.017 190.789 461.017 193.97 459.131L202.558 454.26C204.785 447.817 205.898 441.06 205.898 433.988C205.898 423.617 203.353 413.874 198.9 405.231C190.948 407.431 184.11 412.46 179.339 419.06Z" fill="url(#paint9_linear_1094_91)"/>
<path d="M89.4301 705.211C89.0786 705.211 88.727 705.211 88.3755 705.211C88.5513 705.65 88.8149 706.088 88.9907 706.527C91.0999 711.44 92.1546 716.616 92.1546 722.055C92.1546 724.775 91.8909 727.495 91.3636 730.127L101.734 724.161C103.492 723.108 104.986 720.564 104.986 718.546V712.405C101.119 708.019 95.5821 705.211 89.4301 705.211Z" fill="white"/>
<path d="M63.1296 718.031C63.1296 714.863 65.6851 712.311 68.8573 712.311C69.2098 712.311 69.5623 712.311 69.9148 712.399C70.796 711.168 71.6771 710.024 72.8227 708.88C75.4662 706.24 78.6385 704.304 82.0751 703.161C76.5237 694.362 67.1831 688.202 56.4326 686.883L53.4366 688.642C51.498 689.698 50 692.25 50 694.362V718.471C50 720.582 51.498 723.134 53.2604 724.102L66.7425 731.845C66.1257 729.821 65.8613 727.622 65.8613 725.51C65.8613 724.63 65.9494 723.75 66.0376 722.958C64.2752 721.902 63.1296 720.142 63.1296 718.031Z" fill="white"/>
<path d="M101.629 688.786L80.6905 676.788C78.9236 675.737 75.9198 675.737 74.1529 676.788L62.3145 683.531C64.0814 683.969 65.8483 684.582 67.5269 685.283C72.2976 687.297 76.6266 690.187 80.2488 693.777C82.8108 696.317 84.9312 699.119 86.6981 702.097C87.5816 702.009 88.465 701.921 89.3485 701.921C95.1794 701.921 100.568 704.023 104.986 707.789V694.39C104.897 692.288 103.396 689.749 101.629 688.786Z" fill="white"/>
<path d="M72.6422 713.803C73.8001 714.857 74.5126 716.351 74.5126 718.02C74.5126 721.096 72.0187 723.556 68.9904 723.732C68.9014 724.347 68.9014 724.962 68.9014 725.577C68.9014 728.74 69.6139 731.728 70.9499 734.364L74.2454 736.209C76.0267 737.263 79.055 737.263 80.8364 736.209L85.646 733.485C86.8929 729.883 87.5164 726.104 87.5164 722.15C87.5164 716.351 86.0913 710.903 83.5974 706.07C79.1441 707.3 75.3142 710.112 72.6422 713.803Z" fill="white"/>
<path d="M120.924 705C120.756 705 120.616 704.944 120.504 704.832C120.392 704.701 120.336 704.561 120.336 704.412C120.336 704.319 120.345 704.235 120.364 704.16L127.028 686.156C127.084 685.951 127.196 685.773 127.364 685.624C127.532 685.475 127.765 685.4 128.064 685.4H131.648C131.947 685.4 132.18 685.475 132.348 685.624C132.516 685.773 132.628 685.951 132.684 686.156L139.348 704.16C139.367 704.235 139.376 704.319 139.376 704.412C139.376 704.561 139.32 704.701 139.208 704.832C139.096 704.944 138.956 705 138.788 705H135.876C135.596 705 135.391 704.935 135.26 704.804C135.129 704.673 135.045 704.552 135.008 704.44L133.804 701.304H125.908L124.704 704.44C124.667 704.552 124.583 704.673 124.452 704.804C124.321 704.935 124.116 705 123.836 705H120.924ZM126.944 697.692H132.74L129.856 689.628L126.944 697.692ZM142.179 705C141.974 705 141.806 704.935 141.675 704.804C141.544 704.673 141.479 704.505 141.479 704.3V685.82C141.479 685.615 141.544 685.447 141.675 685.316C141.806 685.185 141.974 685.12 142.179 685.12H144.979C145.166 685.12 145.324 685.185 145.455 685.316C145.586 685.447 145.651 685.615 145.651 685.82V704.3C145.651 704.505 145.586 704.673 145.455 704.804C145.324 704.935 145.166 705 144.979 705H142.179ZM153.474 705.28C152.484 705.28 151.598 705.093 150.814 704.72C150.03 704.328 149.404 703.805 148.938 703.152C148.471 702.499 148.238 701.771 148.238 700.968C148.238 699.643 148.77 698.597 149.834 697.832C150.916 697.067 152.335 696.544 154.09 696.264L157.758 695.732V695.228C157.758 694.5 157.59 693.94 157.254 693.548C156.918 693.156 156.33 692.96 155.49 692.96C154.874 692.96 154.379 693.081 154.006 693.324C153.632 693.567 153.343 693.884 153.138 694.276C152.988 694.519 152.774 694.64 152.494 694.64H149.834C149.628 694.64 149.47 694.584 149.358 694.472C149.246 694.341 149.199 694.192 149.218 694.024C149.218 693.707 149.339 693.333 149.582 692.904C149.824 692.475 150.198 692.055 150.702 691.644C151.206 691.215 151.85 690.86 152.634 690.58C153.418 690.3 154.379 690.16 155.518 690.16C156.694 690.16 157.702 690.3 158.542 690.58C159.382 690.86 160.054 691.252 160.558 691.756C161.062 692.26 161.435 692.848 161.678 693.52C161.92 694.173 162.042 694.883 162.042 695.648V704.3C162.042 704.505 161.976 704.673 161.846 704.804C161.715 704.935 161.547 705 161.342 705H158.598C158.411 705 158.252 704.935 158.122 704.804C157.991 704.673 157.926 704.505 157.926 704.3V703.264C157.683 703.619 157.356 703.955 156.946 704.272C156.535 704.571 156.04 704.813 155.462 705C154.902 705.187 154.239 705.28 153.474 705.28ZM154.594 702.368C155.21 702.368 155.76 702.237 156.246 701.976C156.731 701.715 157.114 701.313 157.394 700.772C157.674 700.231 157.814 699.549 157.814 698.728V698.252L155.21 698.672C154.202 698.84 153.464 699.092 152.998 699.428C152.531 699.764 152.298 700.175 152.298 700.66C152.298 701.015 152.4 701.323 152.606 701.584C152.83 701.845 153.119 702.041 153.474 702.172C153.828 702.303 154.202 702.368 154.594 702.368ZM171.172 705.28C170.015 705.28 169.016 705.149 168.176 704.888C167.355 704.608 166.683 704.272 166.16 703.88C165.656 703.488 165.273 703.096 165.012 702.704C164.769 702.293 164.639 701.948 164.62 701.668C164.601 701.463 164.667 701.295 164.816 701.164C164.965 701.033 165.115 700.968 165.264 700.968H167.98C168.036 700.968 168.092 700.977 168.148 700.996C168.204 701.015 168.26 701.061 168.316 701.136C168.559 701.304 168.811 701.5 169.072 701.724C169.333 701.929 169.632 702.107 169.968 702.256C170.323 702.405 170.761 702.48 171.284 702.48C171.9 702.48 172.423 702.359 172.852 702.116C173.281 701.855 173.496 701.491 173.496 701.024C173.496 700.688 173.393 700.408 173.188 700.184C173.001 699.96 172.637 699.755 172.096 699.568C171.555 699.381 170.752 699.176 169.688 698.952C168.68 698.728 167.821 698.429 167.112 698.056C166.403 697.683 165.871 697.216 165.516 696.656C165.161 696.077 164.984 695.387 164.984 694.584C164.984 693.856 165.208 693.156 165.656 692.484C166.123 691.812 166.804 691.261 167.7 690.832C168.596 690.384 169.716 690.16 171.06 690.16C172.087 690.16 172.983 690.291 173.748 690.552C174.532 690.795 175.185 691.112 175.708 691.504C176.231 691.877 176.623 692.269 176.884 692.68C177.164 693.072 177.313 693.417 177.332 693.716C177.351 693.903 177.295 694.061 177.164 694.192C177.033 694.323 176.884 694.388 176.716 694.388H174.224C174.131 694.388 174.047 694.379 173.972 694.36C173.897 694.323 173.832 694.276 173.776 694.22C173.552 694.071 173.319 693.903 173.076 693.716C172.852 693.511 172.581 693.333 172.264 693.184C171.947 693.035 171.536 692.96 171.032 692.96C170.416 692.96 169.94 693.1 169.604 693.38C169.287 693.641 169.128 693.977 169.128 694.388C169.128 694.649 169.212 694.892 169.38 695.116C169.548 695.34 169.893 695.545 170.416 695.732C170.939 695.919 171.732 696.115 172.796 696.32C174.065 696.544 175.073 696.88 175.82 697.328C176.567 697.776 177.099 698.299 177.416 698.896C177.752 699.475 177.92 700.1 177.92 700.772C177.92 701.649 177.659 702.433 177.136 703.124C176.613 703.796 175.848 704.328 174.84 704.72C173.851 705.093 172.628 705.28 171.172 705.28ZM181.28 705C181.093 705 180.934 704.935 180.804 704.804C180.673 704.673 180.608 704.505 180.608 704.3V691.14C180.608 690.935 180.673 690.767 180.804 690.636C180.934 690.505 181.093 690.44 181.28 690.44H183.884C184.07 690.44 184.229 690.505 184.36 690.636C184.509 690.767 184.584 690.935 184.584 691.14V692.092C184.957 691.569 185.47 691.121 186.124 690.748C186.796 690.375 187.589 690.179 188.504 690.16C190.669 690.123 192.153 690.944 192.956 692.624C193.385 691.896 194.001 691.308 194.804 690.86C195.625 690.393 196.521 690.16 197.492 690.16C198.462 690.16 199.34 690.384 200.124 690.832C200.908 691.261 201.524 691.933 201.972 692.848C202.438 693.744 202.672 694.901 202.672 696.32V704.3C202.672 704.505 202.606 704.673 202.476 704.804C202.345 704.935 202.186 705 202 705H199.228C199.041 705 198.882 704.935 198.752 704.804C198.621 704.673 198.556 704.505 198.556 704.3V696.544C198.556 695.779 198.444 695.181 198.22 694.752C197.996 694.304 197.697 693.987 197.324 693.8C196.969 693.613 196.568 693.52 196.12 693.52C195.728 693.52 195.345 693.613 194.972 693.8C194.617 693.987 194.318 694.304 194.076 694.752C193.852 695.181 193.74 695.779 193.74 696.544V704.3C193.74 704.505 193.674 704.673 193.544 704.804C193.413 704.935 193.245 705 193.04 705H190.296C190.09 705 189.922 704.935 189.792 704.804C189.661 704.673 189.596 704.505 189.596 704.3V696.544C189.596 695.779 189.484 695.181 189.26 694.752C189.036 694.304 188.737 693.987 188.364 693.8C188.009 693.613 187.617 693.52 187.188 693.52C186.796 693.52 186.413 693.623 186.04 693.828C185.666 694.015 185.358 694.323 185.116 694.752C184.892 695.181 184.78 695.769 184.78 696.516V704.3C184.78 704.505 184.714 704.673 184.584 704.804C184.453 704.935 184.294 705 184.108 705H181.28ZM210.349 705.28C209.359 705.28 208.473 705.093 207.689 704.72C206.905 704.328 206.279 703.805 205.813 703.152C205.346 702.499 205.113 701.771 205.113 700.968C205.113 699.643 205.645 698.597 206.709 697.832C207.791 697.067 209.21 696.544 210.965 696.264L214.633 695.732V695.228C214.633 694.5 214.465 693.94 214.129 693.548C213.793 693.156 213.205 692.96 212.365 692.96C211.749 692.96 211.254 693.081 210.881 693.324C210.507 693.567 210.218 693.884 210.013 694.276C209.863 694.519 209.649 694.64 209.369 694.64H206.709C206.503 694.64 206.345 694.584 206.233 694.472C206.121 694.341 206.074 694.192 206.093 694.024C206.093 693.707 206.214 693.333 206.457 692.904C206.699 692.475 207.073 692.055 207.577 691.644C208.081 691.215 208.725 690.86 209.509 690.58C210.293 690.3 211.254 690.16 212.393 690.16C213.569 690.16 214.577 690.3 215.417 690.58C216.257 690.86 216.929 691.252 217.433 691.756C217.937 692.26 218.31 692.848 218.553 693.52C218.795 694.173 218.917 694.883 218.917 695.648V704.3C218.917 704.505 218.851 704.673 218.721 704.804C218.59 704.935 218.422 705 218.217 705H215.473C215.286 705 215.127 704.935 214.997 704.804C214.866 704.673 214.801 704.505 214.801 704.3V703.264C214.558 703.619 214.231 703.955 213.821 704.272C213.41 704.571 212.915 704.813 212.337 705C211.777 705.187 211.114 705.28 210.349 705.28ZM211.469 702.368C212.085 702.368 212.635 702.237 213.121 701.976C213.606 701.715 213.989 701.313 214.269 700.772C214.549 700.231 214.689 699.549 214.689 698.728V698.252L212.085 698.672C211.077 698.84 210.339 699.092 209.873 699.428C209.406 699.764 209.173 700.175 209.173 700.66C209.173 701.015 209.275 701.323 209.481 701.584C209.705 701.845 209.994 702.041 210.349 702.172C210.703 702.303 211.077 702.368 211.469 702.368ZM222.979 705C222.792 705 222.634 704.935 222.503 704.804C222.372 704.673 222.307 704.505 222.307 704.3V691.14C222.307 690.953 222.372 690.795 222.503 690.664C222.634 690.515 222.792 690.44 222.979 690.44H225.723C225.91 690.44 226.068 690.515 226.199 690.664C226.348 690.795 226.423 690.953 226.423 691.14V692.26C226.89 691.681 227.459 691.233 228.131 690.916C228.822 690.599 229.615 690.44 230.511 690.44H231.715C231.902 690.44 232.06 690.505 232.191 690.636C232.322 690.767 232.387 690.935 232.387 691.14V693.548C232.387 693.753 232.322 693.921 232.191 694.052C232.06 694.183 231.902 694.248 231.715 694.248H229.251C228.43 694.248 227.786 694.481 227.319 694.948C226.852 695.396 226.619 696.04 226.619 696.88V704.3C226.619 704.505 226.554 704.673 226.423 704.804C226.292 704.935 226.124 705 225.919 705H222.979ZM241.475 705C240.318 705 239.328 704.813 238.507 704.44C237.686 704.048 237.06 703.451 236.631 702.648C236.22 701.845 236.015 700.837 236.015 699.624V693.744H233.831C233.626 693.744 233.458 693.679 233.327 693.548C233.196 693.417 233.131 693.249 233.131 693.044V691.14C233.131 690.935 233.196 690.767 233.327 690.636C233.458 690.505 233.626 690.44 233.831 690.44H236.015V685.82C236.015 685.615 236.08 685.447 236.211 685.316C236.36 685.185 236.528 685.12 236.715 685.12H239.459C239.664 685.12 239.832 685.185 239.963 685.316C240.094 685.447 240.159 685.615 240.159 685.82V690.44H243.659C243.846 690.44 244.004 690.505 244.135 690.636C244.266 690.767 244.331 690.935 244.331 691.14V693.044C244.331 693.249 244.266 693.417 244.135 693.548C244.004 693.679 243.846 693.744 243.659 693.744H240.159V699.288C240.159 699.997 240.28 700.557 240.523 700.968C240.784 701.36 241.232 701.556 241.867 701.556H243.911C244.098 701.556 244.256 701.621 244.387 701.752C244.518 701.883 244.583 702.041 244.583 702.228V704.3C244.583 704.505 244.518 704.673 244.387 704.804C244.256 704.935 244.098 705 243.911 705H241.475Z" fill="white"/>
<path d="M121.485 724C121.386 724 121.31 723.973 121.256 723.919C121.202 723.856 121.175 723.779 121.175 723.689V714.874C121.175 714.775 121.202 714.698 121.256 714.644C121.31 714.581 121.386 714.55 121.485 714.55H124.55C125.477 714.55 126.224 714.689 126.791 714.968C127.358 715.247 127.772 715.661 128.033 716.21C128.294 716.75 128.429 717.416 128.438 718.208C128.447 718.613 128.451 718.969 128.451 719.275C128.451 719.581 128.447 719.932 128.438 720.328C128.42 721.156 128.28 721.844 128.019 722.393C127.767 722.933 127.362 723.338 126.804 723.608C126.255 723.869 125.526 724 124.617 724H121.485ZM122.498 722.852H124.55C125.171 722.852 125.666 722.767 126.035 722.596C126.404 722.425 126.669 722.15 126.831 721.772C127.002 721.394 127.092 720.895 127.101 720.274C127.119 720.004 127.128 719.77 127.128 719.572C127.128 719.365 127.128 719.162 127.128 718.964C127.128 718.757 127.119 718.523 127.101 718.262C127.083 717.389 126.876 716.746 126.48 716.332C126.084 715.909 125.418 715.697 124.482 715.697H122.498V722.852ZM130.617 724C130.527 724 130.451 723.973 130.388 723.919C130.334 723.856 130.307 723.779 130.307 723.689V717.29C130.307 717.2 130.334 717.128 130.388 717.074C130.451 717.011 130.527 716.98 130.617 716.98H131.265C131.355 716.98 131.427 717.011 131.481 717.074C131.535 717.128 131.562 717.2 131.562 717.29V723.689C131.562 723.779 131.535 723.856 131.481 723.919C131.427 723.973 131.355 724 131.265 724H130.617ZM130.509 715.67C130.419 715.67 130.343 715.643 130.28 715.589C130.226 715.526 130.199 715.45 130.199 715.36V714.631C130.199 714.541 130.226 714.469 130.28 714.415C130.343 714.352 130.419 714.32 130.509 714.32H131.36C131.45 714.32 131.522 714.352 131.576 714.415C131.639 714.469 131.67 714.541 131.67 714.631V715.36C131.67 715.45 131.639 715.526 131.576 715.589C131.522 715.643 131.45 715.67 131.36 715.67H130.509ZM136.452 726.97C135.84 726.97 135.336 726.889 134.94 726.727C134.553 726.565 134.247 726.367 134.022 726.133C133.806 725.908 133.648 725.679 133.549 725.445C133.459 725.22 133.41 725.04 133.401 724.905C133.392 724.815 133.419 724.738 133.482 724.675C133.554 724.612 133.63 724.581 133.711 724.581H134.359C134.44 724.581 134.508 724.599 134.562 724.635C134.616 724.671 134.661 724.747 134.697 724.864C134.751 724.999 134.832 725.148 134.94 725.31C135.048 725.481 135.214 725.625 135.439 725.742C135.664 725.868 135.979 725.931 136.384 725.931C136.807 725.931 137.163 725.872 137.451 725.755C137.739 725.647 137.955 725.449 138.099 725.161C138.252 724.882 138.328 724.495 138.328 724V723.082C138.112 723.361 137.829 723.595 137.478 723.784C137.127 723.964 136.686 724.054 136.155 724.054C135.651 724.054 135.219 723.968 134.859 723.797C134.499 723.617 134.202 723.379 133.968 723.082C133.743 722.776 133.572 722.429 133.455 722.042C133.347 721.655 133.284 721.25 133.266 720.827C133.257 720.575 133.257 720.328 133.266 720.085C133.284 719.662 133.347 719.257 133.455 718.87C133.572 718.483 133.743 718.136 133.968 717.83C134.202 717.524 134.499 717.286 134.859 717.115C135.219 716.935 135.651 716.845 136.155 716.845C136.695 716.845 137.14 716.948 137.491 717.155C137.851 717.353 138.144 717.596 138.369 717.884V717.304C138.369 717.214 138.396 717.137 138.45 717.074C138.513 717.011 138.589 716.98 138.679 716.98H139.3C139.39 716.98 139.467 717.011 139.53 717.074C139.593 717.137 139.624 717.214 139.624 717.304V723.851C139.624 724.455 139.521 724.99 139.314 725.458C139.116 725.926 138.783 726.295 138.315 726.565C137.856 726.835 137.235 726.97 136.452 726.97ZM136.425 722.974C136.875 722.974 137.235 722.87 137.505 722.663C137.784 722.456 137.986 722.195 138.112 721.88C138.247 721.565 138.319 721.246 138.328 720.922C138.337 720.796 138.342 720.643 138.342 720.463C138.342 720.274 138.337 720.116 138.328 719.99C138.319 719.666 138.247 719.347 138.112 719.032C137.986 718.717 137.784 718.456 137.505 718.249C137.235 718.042 136.875 717.938 136.425 717.938C135.975 717.938 135.615 718.042 135.345 718.249C135.075 718.447 134.881 718.712 134.764 719.045C134.647 719.369 134.58 719.72 134.562 720.098C134.553 720.332 134.553 720.571 134.562 720.814C134.58 721.192 134.647 721.547 134.764 721.88C134.881 722.204 135.075 722.47 135.345 722.677C135.615 722.875 135.975 722.974 136.425 722.974ZM141.942 724C141.852 724 141.775 723.973 141.712 723.919C141.658 723.856 141.631 723.779 141.631 723.689V717.29C141.631 717.2 141.658 717.128 141.712 717.074C141.775 717.011 141.852 716.98 141.942 716.98H142.59C142.68 716.98 142.752 717.011 142.806 717.074C142.86 717.128 142.887 717.2 142.887 717.29V723.689C142.887 723.779 142.86 723.856 142.806 723.919C142.752 723.973 142.68 724 142.59 724H141.942ZM141.834 715.67C141.744 715.67 141.667 715.643 141.604 715.589C141.55 715.526 141.523 715.45 141.523 715.36V714.631C141.523 714.541 141.55 714.469 141.604 714.415C141.667 714.352 141.744 714.32 141.834 714.32H142.684C142.774 714.32 142.846 714.352 142.9 714.415C142.963 714.469 142.995 714.541 142.995 714.631V715.36C142.995 715.45 142.963 715.526 142.9 715.589C142.846 715.643 142.774 715.67 142.684 715.67H141.834ZM147.641 724C147.137 724 146.728 723.905 146.413 723.716C146.098 723.518 145.868 723.244 145.724 722.893C145.58 722.533 145.508 722.11 145.508 721.624V718.06H144.455C144.365 718.06 144.289 718.033 144.226 717.979C144.172 717.916 144.145 717.839 144.145 717.749V717.29C144.145 717.2 144.172 717.128 144.226 717.074C144.289 717.011 144.365 716.98 144.455 716.98H145.508V714.725C145.508 714.635 145.535 714.563 145.589 714.509C145.652 714.446 145.729 714.415 145.819 714.415H146.453C146.543 714.415 146.615 714.446 146.669 714.509C146.732 714.563 146.764 714.635 146.764 714.725V716.98H148.438C148.528 716.98 148.6 717.011 148.654 717.074C148.717 717.128 148.748 717.2 148.748 717.29V717.749C148.748 717.839 148.717 717.916 148.654 717.979C148.6 718.033 148.528 718.06 148.438 718.06H146.764V721.529C146.764 721.952 146.836 722.285 146.98 722.528C147.124 722.771 147.38 722.893 147.749 722.893H148.573C148.663 722.893 148.735 722.924 148.789 722.987C148.852 723.041 148.883 723.113 148.883 723.203V723.689C148.883 723.779 148.852 723.856 148.789 723.919C148.735 723.973 148.663 724 148.573 724H147.641ZM152.132 724.135C151.682 724.135 151.272 724.045 150.903 723.865C150.534 723.685 150.237 723.442 150.012 723.136C149.787 722.83 149.675 722.483 149.675 722.096C149.675 721.475 149.927 720.98 150.431 720.611C150.935 720.242 151.592 719.999 152.402 719.882L154.413 719.599V719.207C154.413 718.775 154.287 718.438 154.035 718.195C153.792 717.952 153.392 717.83 152.834 717.83C152.429 717.83 152.1 717.911 151.848 718.073C151.605 718.235 151.434 718.442 151.335 718.694C151.281 718.829 151.187 718.897 151.052 718.897H150.444C150.345 718.897 150.269 718.87 150.215 718.816C150.17 718.753 150.147 718.681 150.147 718.6C150.147 718.465 150.197 718.298 150.296 718.1C150.404 717.902 150.566 717.709 150.782 717.52C150.998 717.331 151.272 717.173 151.605 717.047C151.947 716.912 152.361 716.845 152.847 716.845C153.387 716.845 153.842 716.917 154.211 717.061C154.58 717.196 154.868 717.38 155.075 717.614C155.291 717.848 155.444 718.114 155.534 718.411C155.633 718.708 155.682 719.009 155.682 719.315V723.689C155.682 723.779 155.651 723.856 155.588 723.919C155.534 723.973 155.462 724 155.372 724H154.751C154.652 724 154.575 723.973 154.521 723.919C154.467 723.856 154.44 723.779 154.44 723.689V723.109C154.323 723.271 154.166 723.433 153.968 723.595C153.77 723.748 153.522 723.878 153.225 723.986C152.928 724.086 152.564 724.135 152.132 724.135ZM152.415 723.122C152.784 723.122 153.122 723.046 153.428 722.893C153.734 722.731 153.972 722.483 154.143 722.15C154.323 721.817 154.413 721.399 154.413 720.895V720.517L152.847 720.746C152.208 720.836 151.727 720.989 151.403 721.205C151.079 721.412 150.917 721.678 150.917 722.002C150.917 722.254 150.989 722.465 151.133 722.636C151.286 722.798 151.475 722.92 151.7 723.001C151.934 723.082 152.172 723.122 152.415 723.122ZM157.947 724C157.857 724 157.781 723.973 157.718 723.919C157.664 723.856 157.637 723.779 157.637 723.689V714.725C157.637 714.635 157.664 714.563 157.718 714.509C157.781 714.446 157.857 714.415 157.947 714.415H158.582C158.681 714.415 158.757 714.446 158.811 714.509C158.865 714.563 158.892 714.635 158.892 714.725V723.689C158.892 723.779 158.865 723.856 158.811 723.919C158.757 723.973 158.681 724 158.582 724H157.947ZM164.701 724C164.611 724 164.534 723.973 164.471 723.919C164.417 723.856 164.39 723.779 164.39 723.689V714.874C164.39 714.775 164.417 714.698 164.471 714.644C164.534 714.581 164.611 714.55 164.701 714.55H165.376C165.484 714.55 165.565 714.577 165.619 714.631C165.673 714.685 165.704 714.73 165.713 714.766L168.575 720.22L171.451 714.766C171.469 714.73 171.5 714.685 171.545 714.631C171.599 714.577 171.68 714.55 171.788 714.55H172.45C172.549 714.55 172.625 714.581 172.679 714.644C172.742 714.698 172.774 714.775 172.774 714.874V723.689C172.774 723.779 172.742 723.856 172.679 723.919C172.625 723.973 172.549 724 172.45 724H171.788C171.698 724 171.622 723.973 171.559 723.919C171.505 723.856 171.478 723.779 171.478 723.689V717.047L169.223 721.448C169.187 721.538 169.133 721.61 169.061 721.664C168.989 721.709 168.899 721.732 168.791 721.732H168.373C168.256 721.732 168.161 721.709 168.089 721.664C168.026 721.61 167.972 721.538 167.927 721.448L165.673 717.047V723.689C165.673 723.779 165.641 723.856 165.578 723.919C165.524 723.973 165.452 724 165.362 724H164.701ZM176.891 724.135C176.441 724.135 176.031 724.045 175.662 723.865C175.293 723.685 174.996 723.442 174.771 723.136C174.546 722.83 174.434 722.483 174.434 722.096C174.434 721.475 174.686 720.98 175.19 720.611C175.694 720.242 176.351 719.999 177.161 719.882L179.172 719.599V719.207C179.172 718.775 179.046 718.438 178.794 718.195C178.551 717.952 178.151 717.83 177.593 717.83C177.188 717.83 176.859 717.911 176.607 718.073C176.364 718.235 176.193 718.442 176.094 718.694C176.04 718.829 175.946 718.897 175.811 718.897H175.203C175.104 718.897 175.028 718.87 174.974 718.816C174.929 718.753 174.906 718.681 174.906 718.6C174.906 718.465 174.956 718.298 175.055 718.1C175.163 717.902 175.325 717.709 175.541 717.52C175.757 717.331 176.031 717.173 176.364 717.047C176.706 716.912 177.12 716.845 177.606 716.845C178.146 716.845 178.601 716.917 178.97 717.061C179.339 717.196 179.627 717.38 179.834 717.614C180.05 717.848 180.203 718.114 180.293 718.411C180.392 718.708 180.441 719.009 180.441 719.315V723.689C180.441 723.779 180.41 723.856 180.347 723.919C180.293 723.973 180.221 724 180.131 724H179.51C179.411 724 179.334 723.973 179.28 723.919C179.226 723.856 179.199 723.779 179.199 723.689V723.109C179.082 723.271 178.925 723.433 178.727 723.595C178.529 723.748 178.281 723.878 177.984 723.986C177.687 724.086 177.323 724.135 176.891 724.135ZM177.174 723.122C177.543 723.122 177.881 723.046 178.187 722.893C178.493 722.731 178.731 722.483 178.902 722.15C179.082 721.817 179.172 721.399 179.172 720.895V720.517L177.606 720.746C176.967 720.836 176.486 720.989 176.162 721.205C175.838 721.412 175.676 721.678 175.676 722.002C175.676 722.254 175.748 722.465 175.892 722.636C176.045 722.798 176.234 722.92 176.459 723.001C176.693 723.082 176.931 723.122 177.174 723.122ZM182.692 724C182.602 724 182.526 723.973 182.463 723.919C182.409 723.856 182.382 723.779 182.382 723.689V717.304C182.382 717.214 182.409 717.137 182.463 717.074C182.526 717.011 182.602 716.98 182.692 716.98H183.313C183.403 716.98 183.48 717.011 183.543 717.074C183.606 717.137 183.637 717.214 183.637 717.304V717.898C183.817 717.592 184.065 717.362 184.38 717.209C184.695 717.056 185.073 716.98 185.514 716.98H186.054C186.144 716.98 186.216 717.011 186.27 717.074C186.324 717.128 186.351 717.2 186.351 717.29V717.844C186.351 717.934 186.324 718.006 186.27 718.06C186.216 718.114 186.144 718.141 186.054 718.141H185.244C184.758 718.141 184.375 718.285 184.096 718.573C183.817 718.852 183.678 719.234 183.678 719.72V723.689C183.678 723.779 183.646 723.856 183.583 723.919C183.52 723.973 183.444 724 183.354 724H182.692ZM187.834 724C187.744 724 187.668 723.973 187.605 723.919C187.551 723.856 187.524 723.779 187.524 723.689V714.725C187.524 714.635 187.551 714.563 187.605 714.509C187.668 714.446 187.744 714.415 187.834 714.415H188.469C188.559 714.415 188.631 714.446 188.685 714.509C188.748 714.563 188.779 714.635 188.779 714.725V719.423L191.439 717.209C191.547 717.119 191.628 717.061 191.682 717.034C191.745 716.998 191.844 716.98 191.979 716.98H192.694C192.775 716.98 192.843 717.007 192.897 717.061C192.951 717.115 192.978 717.182 192.978 717.263C192.978 717.299 192.964 717.34 192.937 717.385C192.919 717.43 192.879 717.475 192.816 717.52L189.697 720.112L193.153 723.473C193.261 723.563 193.315 723.644 193.315 723.716C193.315 723.797 193.288 723.865 193.234 723.919C193.18 723.973 193.113 724 193.032 724H192.33C192.195 724 192.096 723.986 192.033 723.959C191.97 723.923 191.889 723.86 191.79 723.77L188.779 720.895V723.689C188.779 723.779 188.748 723.856 188.685 723.919C188.631 723.973 188.559 724 188.469 724H187.834ZM196.936 724.135C196.009 724.135 195.271 723.851 194.722 723.284C194.173 722.708 193.872 721.925 193.818 720.935C193.809 720.818 193.804 720.67 193.804 720.49C193.804 720.301 193.809 720.148 193.818 720.031C193.854 719.392 194.002 718.834 194.263 718.357C194.524 717.871 194.88 717.497 195.33 717.236C195.789 716.975 196.324 716.845 196.936 716.845C197.62 716.845 198.192 716.989 198.651 717.277C199.119 717.565 199.474 717.974 199.717 718.505C199.96 719.036 200.082 719.657 200.082 720.368V720.598C200.082 720.697 200.05 720.773 199.987 720.827C199.933 720.881 199.861 720.908 199.771 720.908H195.1C195.1 720.917 195.1 720.935 195.1 720.962C195.1 720.989 195.1 721.012 195.1 721.03C195.118 721.399 195.199 721.745 195.343 722.069C195.487 722.384 195.694 722.641 195.964 722.839C196.234 723.037 196.558 723.136 196.936 723.136C197.26 723.136 197.53 723.086 197.746 722.987C197.962 722.888 198.138 722.78 198.273 722.663C198.408 722.537 198.498 722.443 198.543 722.38C198.624 722.263 198.687 722.195 198.732 722.177C198.777 722.15 198.849 722.137 198.948 722.137H199.596C199.686 722.137 199.758 722.164 199.812 722.218C199.875 722.263 199.902 722.33 199.893 722.42C199.884 722.555 199.812 722.722 199.677 722.92C199.542 723.109 199.348 723.298 199.096 723.487C198.844 723.676 198.538 723.833 198.178 723.959C197.818 724.077 197.404 724.135 196.936 724.135ZM195.1 719.977H198.799V719.936C198.799 719.531 198.723 719.171 198.57 718.856C198.426 718.541 198.214 718.294 197.935 718.114C197.656 717.925 197.323 717.83 196.936 717.83C196.549 717.83 196.216 717.925 195.937 718.114C195.667 718.294 195.46 718.541 195.316 718.856C195.172 719.171 195.1 719.531 195.1 719.936V719.977ZM204.397 724C203.893 724 203.483 723.905 203.168 723.716C202.853 723.518 202.624 723.244 202.48 722.893C202.336 722.533 202.264 722.11 202.264 721.624V718.06H201.211C201.121 718.06 201.044 718.033 200.981 717.979C200.927 717.916 200.9 717.839 200.9 717.749V717.29C200.9 717.2 200.927 717.128 200.981 717.074C201.044 717.011 201.121 716.98 201.211 716.98H202.264V714.725C202.264 714.635 202.291 714.563 202.345 714.509C202.408 714.446 202.484 714.415 202.574 714.415H203.209C203.299 714.415 203.371 714.446 203.425 714.509C203.488 714.563 203.519 714.635 203.519 714.725V716.98H205.193C205.283 716.98 205.355 717.011 205.409 717.074C205.472 717.128 205.504 717.2 205.504 717.29V717.749C205.504 717.839 205.472 717.916 205.409 717.979C205.355 718.033 205.283 718.06 205.193 718.06H203.519V721.529C203.519 721.952 203.591 722.285 203.735 722.528C203.879 722.771 204.136 722.893 204.505 722.893H205.328C205.418 722.893 205.49 722.924 205.544 722.987C205.607 723.041 205.639 723.113 205.639 723.203V723.689C205.639 723.779 205.607 723.856 205.544 723.919C205.49 723.973 205.418 724 205.328 724H204.397ZM207.254 726.565C207.164 726.565 207.087 726.534 207.024 726.471C206.97 726.417 206.943 726.345 206.943 726.255V717.29C206.943 717.2 206.97 717.128 207.024 717.074C207.087 717.011 207.164 716.98 207.254 716.98H207.875C207.965 716.98 208.037 717.011 208.091 717.074C208.154 717.128 208.185 717.2 208.185 717.29V717.884C208.401 717.587 208.689 717.34 209.049 717.142C209.409 716.944 209.859 716.845 210.399 716.845C210.903 716.845 211.331 716.93 211.682 717.101C212.042 717.272 212.334 717.506 212.559 717.803C212.793 718.1 212.969 718.438 213.086 718.816C213.203 719.194 213.266 719.599 213.275 720.031C213.284 720.175 213.288 720.328 213.288 720.49C213.288 720.652 213.284 720.805 213.275 720.949C213.266 721.372 213.203 721.777 213.086 722.164C212.969 722.542 212.793 722.879 212.559 723.176C212.334 723.464 212.042 723.698 211.682 723.878C211.331 724.05 210.903 724.135 210.399 724.135C209.877 724.135 209.436 724.041 209.076 723.851C208.725 723.653 208.437 723.41 208.212 723.122V726.255C208.212 726.345 208.185 726.417 208.131 726.471C208.077 726.534 208.001 726.565 207.902 726.565H207.254ZM210.116 723.041C210.584 723.041 210.948 722.942 211.209 722.744C211.479 722.537 211.673 722.272 211.79 721.948C211.907 721.615 211.974 721.259 211.992 720.881C212.001 720.62 212.001 720.359 211.992 720.098C211.974 719.72 211.907 719.369 211.79 719.045C211.673 718.712 211.479 718.447 211.209 718.249C210.948 718.042 210.584 717.938 210.116 717.938C209.675 717.938 209.315 718.042 209.036 718.249C208.766 718.456 208.563 718.721 208.428 719.045C208.302 719.36 208.23 719.684 208.212 720.017C208.203 720.161 208.199 720.332 208.199 720.531C208.199 720.728 208.203 720.904 208.212 721.057C208.221 721.372 208.293 721.682 208.428 721.988C208.572 722.294 208.784 722.546 209.063 722.744C209.342 722.942 209.693 723.041 210.116 723.041ZM215.296 724C215.206 724 215.129 723.973 215.066 723.919C215.012 723.856 214.985 723.779 214.985 723.689V714.725C214.985 714.635 215.012 714.563 215.066 714.509C215.129 714.446 215.206 714.415 215.296 714.415H215.93C216.029 714.415 216.106 714.446 216.16 714.509C216.214 714.563 216.241 714.635 216.241 714.725V723.689C216.241 723.779 216.214 723.856 216.16 723.919C216.106 723.973 216.029 724 215.93 724H215.296ZM220.212 724.135C219.762 724.135 219.352 724.045 218.983 723.865C218.614 723.685 218.317 723.442 218.092 723.136C217.867 722.83 217.755 722.483 217.755 722.096C217.755 721.475 218.007 720.98 218.511 720.611C219.015 720.242 219.672 719.999 220.482 719.882L222.493 719.599V719.207C222.493 718.775 222.367 718.438 222.115 718.195C221.872 717.952 221.472 717.83 220.914 717.83C220.509 717.83 220.18 717.911 219.928 718.073C219.685 718.235 219.514 718.442 219.415 718.694C219.361 718.829 219.267 718.897 219.132 718.897H218.524C218.425 718.897 218.349 718.87 218.295 718.816C218.25 718.753 218.227 718.681 218.227 718.6C218.227 718.465 218.277 718.298 218.376 718.1C218.484 717.902 218.646 717.709 218.862 717.52C219.078 717.331 219.352 717.173 219.685 717.047C220.027 716.912 220.441 716.845 220.927 716.845C221.467 716.845 221.922 716.917 222.291 717.061C222.66 717.196 222.948 717.38 223.155 717.614C223.371 717.848 223.524 718.114 223.614 718.411C223.713 718.708 223.762 719.009 223.762 719.315V723.689C223.762 723.779 223.731 723.856 223.668 723.919C223.614 723.973 223.542 724 223.452 724H222.831C222.732 724 222.655 723.973 222.601 723.919C222.547 723.856 222.52 723.779 222.52 723.689V723.109C222.403 723.271 222.246 723.433 222.048 723.595C221.85 723.748 221.602 723.878 221.305 723.986C221.008 724.086 220.644 724.135 220.212 724.135ZM220.495 723.122C220.864 723.122 221.202 723.046 221.508 722.893C221.814 722.731 222.052 722.483 222.223 722.15C222.403 721.817 222.493 721.399 222.493 720.895V720.517L220.927 720.746C220.288 720.836 219.807 720.989 219.483 721.205C219.159 721.412 218.997 721.678 218.997 722.002C218.997 722.254 219.069 722.465 219.213 722.636C219.366 722.798 219.555 722.92 219.78 723.001C220.014 723.082 220.252 723.122 220.495 723.122ZM228.538 724.135C227.899 724.135 227.346 724.014 226.878 723.77C226.419 723.518 226.063 723.163 225.811 722.704C225.559 722.236 225.424 721.678 225.406 721.03C225.397 720.895 225.393 720.715 225.393 720.49C225.393 720.265 225.397 720.085 225.406 719.95C225.424 719.302 225.559 718.748 225.811 718.289C226.063 717.821 226.419 717.466 226.878 717.223C227.346 716.971 227.899 716.845 228.538 716.845C229.06 716.845 229.506 716.917 229.875 717.061C230.253 717.205 230.563 717.389 230.806 717.614C231.049 717.839 231.229 718.082 231.346 718.343C231.472 718.604 231.54 718.852 231.549 719.086C231.558 719.176 231.531 719.248 231.468 719.302C231.405 719.356 231.328 719.383 231.238 719.383H230.59C230.5 719.383 230.433 719.365 230.388 719.329C230.343 719.284 230.298 719.212 230.253 719.113C230.091 718.672 229.87 718.361 229.591 718.181C229.312 718.001 228.966 717.911 228.552 717.911C228.012 717.911 227.571 718.078 227.229 718.411C226.896 718.744 226.716 719.279 226.689 720.017C226.68 720.341 226.68 720.656 226.689 720.962C226.716 721.709 226.896 722.249 227.229 722.582C227.571 722.906 228.012 723.068 228.552 723.068C228.966 723.068 229.312 722.978 229.591 722.798C229.87 722.618 230.091 722.308 230.253 721.867C230.298 721.768 230.343 721.7 230.388 721.664C230.433 721.619 230.5 721.597 230.59 721.597H231.238C231.328 721.597 231.405 721.624 231.468 721.678C231.531 721.732 231.558 721.804 231.549 721.894C231.54 722.083 231.499 722.276 231.427 722.474C231.355 722.672 231.238 722.875 231.076 723.082C230.923 723.28 230.73 723.46 230.496 723.622C230.262 723.775 229.978 723.901 229.645 724C229.321 724.09 228.952 724.135 228.538 724.135ZM235.946 724.135C235.019 724.135 234.281 723.851 233.732 723.284C233.183 722.708 232.882 721.925 232.828 720.935C232.819 720.818 232.814 720.67 232.814 720.49C232.814 720.301 232.819 720.148 232.828 720.031C232.864 719.392 233.012 718.834 233.273 718.357C233.534 717.871 233.89 717.497 234.34 717.236C234.799 716.975 235.334 716.845 235.946 716.845C236.63 716.845 237.202 716.989 237.661 717.277C238.129 717.565 238.484 717.974 238.727 718.505C238.97 719.036 239.092 719.657 239.092 720.368V720.598C239.092 720.697 239.06 720.773 238.997 720.827C238.943 720.881 238.871 720.908 238.781 720.908H234.11C234.11 720.917 234.11 720.935 234.11 720.962C234.11 720.989 234.11 721.012 234.11 721.03C234.128 721.399 234.209 721.745 234.353 722.069C234.497 722.384 234.704 722.641 234.974 722.839C235.244 723.037 235.568 723.136 235.946 723.136C236.27 723.136 236.54 723.086 236.756 722.987C236.972 722.888 237.148 722.78 237.283 722.663C237.418 722.537 237.508 722.443 237.553 722.38C237.634 722.263 237.697 722.195 237.742 722.177C237.787 722.15 237.859 722.137 237.958 722.137H238.606C238.696 722.137 238.768 722.164 238.822 722.218C238.885 722.263 238.912 722.33 238.903 722.42C238.894 722.555 238.822 722.722 238.687 722.92C238.552 723.109 238.358 723.298 238.106 723.487C237.854 723.676 237.548 723.833 237.188 723.959C236.828 724.077 236.414 724.135 235.946 724.135ZM234.11 719.977H237.809V719.936C237.809 719.531 237.733 719.171 237.58 718.856C237.436 718.541 237.224 718.294 236.945 718.114C236.666 717.925 236.333 717.83 235.946 717.83C235.559 717.83 235.226 717.925 234.947 718.114C234.677 718.294 234.47 718.541 234.326 718.856C234.182 719.171 234.11 719.531 234.11 719.936V719.977ZM247.228 724.135C246.445 724.135 245.788 724.018 245.257 723.784C244.726 723.541 244.317 723.23 244.029 722.852C243.75 722.465 243.601 722.056 243.583 721.624C243.583 721.552 243.61 721.489 243.664 721.435C243.727 721.372 243.799 721.34 243.88 721.34H244.569C244.677 721.34 244.758 721.367 244.812 721.421C244.866 721.475 244.902 721.538 244.92 721.61C244.965 721.826 245.073 722.042 245.244 722.258C245.424 722.465 245.671 722.641 245.986 722.785C246.31 722.92 246.724 722.987 247.228 722.987C248.002 722.987 248.569 722.852 248.929 722.582C249.298 722.303 249.483 721.934 249.483 721.475C249.483 721.16 249.384 720.908 249.186 720.719C248.997 720.521 248.704 720.346 248.308 720.193C247.912 720.04 247.399 719.873 246.769 719.693C246.112 719.504 245.568 719.297 245.136 719.072C244.704 718.847 244.38 718.568 244.164 718.235C243.957 717.902 243.853 717.479 243.853 716.966C243.853 716.48 243.984 716.048 244.245 715.67C244.506 715.283 244.879 714.977 245.365 714.752C245.86 714.527 246.459 714.415 247.161 714.415C247.719 714.415 248.205 714.491 248.619 714.644C249.042 714.788 249.393 714.986 249.672 715.238C249.951 715.481 250.162 715.747 250.306 716.035C250.45 716.314 250.527 716.588 250.536 716.858C250.536 716.921 250.513 716.984 250.468 717.047C250.423 717.101 250.351 717.128 250.252 717.128H249.537C249.474 717.128 249.406 717.11 249.334 717.074C249.271 717.038 249.222 716.971 249.186 716.872C249.132 716.503 248.925 716.192 248.565 715.94C248.205 715.688 247.737 715.562 247.161 715.562C246.576 715.562 246.099 715.675 245.73 715.9C245.37 716.125 245.19 716.476 245.19 716.953C245.19 717.259 245.275 717.515 245.446 717.722C245.617 717.92 245.887 718.096 246.256 718.249C246.625 718.402 247.107 718.564 247.701 718.735C248.421 718.933 249.01 719.144 249.469 719.369C249.928 719.585 250.266 719.86 250.482 720.193C250.707 720.517 250.819 720.935 250.819 721.448C250.819 722.015 250.671 722.501 250.374 722.906C250.077 723.302 249.658 723.608 249.118 723.824C248.587 724.032 247.957 724.135 247.228 724.135ZM255.208 724.135C254.281 724.135 253.543 723.851 252.994 723.284C252.445 722.708 252.143 721.925 252.089 720.935C252.08 720.818 252.076 720.67 252.076 720.49C252.076 720.301 252.08 720.148 252.089 720.031C252.125 719.392 252.274 718.834 252.535 718.357C252.796 717.871 253.151 717.497 253.601 717.236C254.06 716.975 254.596 716.845 255.208 716.845C255.892 716.845 256.463 716.989 256.922 717.277C257.39 717.565 257.746 717.974 257.989 718.505C258.232 719.036 258.353 719.657 258.353 720.368V720.598C258.353 720.697 258.322 720.773 258.259 720.827C258.205 720.881 258.133 720.908 258.043 720.908H253.372C253.372 720.917 253.372 720.935 253.372 720.962C253.372 720.989 253.372 721.012 253.372 721.03C253.39 721.399 253.471 721.745 253.615 722.069C253.759 722.384 253.966 722.641 254.236 722.839C254.506 723.037 254.83 723.136 255.208 723.136C255.532 723.136 255.802 723.086 256.018 722.987C256.234 722.888 256.409 722.78 256.544 722.663C256.679 722.537 256.769 722.443 256.814 722.38C256.895 722.263 256.958 722.195 257.003 722.177C257.048 722.15 257.12 722.137 257.219 722.137H257.867C257.957 722.137 258.029 722.164 258.083 722.218C258.146 722.263 258.173 722.33 258.164 722.42C258.155 722.555 258.083 722.722 257.948 722.92C257.813 723.109 257.62 723.298 257.368 723.487C257.116 723.676 256.81 723.833 256.45 723.959C256.09 724.077 255.676 724.135 255.208 724.135ZM253.372 719.977H257.071V719.936C257.071 719.531 256.994 719.171 256.841 718.856C256.697 718.541 256.486 718.294 256.207 718.114C255.928 717.925 255.595 717.83 255.208 717.83C254.821 717.83 254.488 717.925 254.209 718.114C253.939 718.294 253.732 718.541 253.588 718.856C253.444 719.171 253.372 719.531 253.372 719.936V719.977ZM260.291 724C260.201 724 260.125 723.973 260.062 723.919C260.008 723.856 259.981 723.779 259.981 723.689V714.725C259.981 714.635 260.008 714.563 260.062 714.509C260.125 714.446 260.201 714.415 260.291 714.415H260.926C261.025 714.415 261.101 714.446 261.155 714.509C261.209 714.563 261.236 714.635 261.236 714.725V723.689C261.236 723.779 261.209 723.856 261.155 723.919C261.101 723.973 261.025 724 260.926 724H260.291ZM263.574 724C263.484 724 263.407 723.973 263.344 723.919C263.29 723.856 263.263 723.779 263.263 723.689V714.725C263.263 714.635 263.29 714.563 263.344 714.509C263.407 714.446 263.484 714.415 263.574 714.415H264.208C264.307 714.415 264.384 714.446 264.438 714.509C264.492 714.563 264.519 714.635 264.519 714.725V723.689C264.519 723.779 264.492 723.856 264.438 723.919C264.384 723.973 264.307 724 264.208 724H263.574ZM270.328 724C270.229 724 270.152 723.973 270.098 723.919C270.044 723.856 270.017 723.779 270.017 723.689V714.874C270.017 714.775 270.044 714.698 270.098 714.644C270.152 714.581 270.229 714.55 270.328 714.55H273.757C274.423 714.55 274.999 714.658 275.485 714.874C275.98 715.09 276.362 715.414 276.632 715.846C276.902 716.269 277.037 716.8 277.037 717.439C277.037 718.078 276.902 718.609 276.632 719.032C276.362 719.455 275.98 719.774 275.485 719.99C274.999 720.206 274.423 720.314 273.757 720.314H271.367V723.689C271.367 723.779 271.336 723.856 271.273 723.919C271.219 723.973 271.142 724 271.043 724H270.328ZM271.354 719.18H273.689C274.355 719.18 274.855 719.032 275.188 718.735C275.521 718.438 275.687 718.006 275.687 717.439C275.687 716.881 275.525 716.449 275.201 716.143C274.877 715.837 274.373 715.684 273.689 715.684H271.354V719.18ZM278.814 724C278.724 724 278.647 723.973 278.584 723.919C278.53 723.856 278.503 723.779 278.503 723.689V717.304C278.503 717.214 278.53 717.137 278.584 717.074C278.647 717.011 278.724 716.98 278.814 716.98H279.435C279.525 716.98 279.601 717.011 279.664 717.074C279.727 717.137 279.759 717.214 279.759 717.304V717.898C279.939 717.592 280.186 717.362 280.501 717.209C280.816 717.056 281.194 716.98 281.635 716.98H282.175C282.265 716.98 282.337 717.011 282.391 717.074C282.445 717.128 282.472 717.2 282.472 717.29V717.844C282.472 717.934 282.445 718.006 282.391 718.06C282.337 718.114 282.265 718.141 282.175 718.141H281.365C280.879 718.141 280.497 718.285 280.218 718.573C279.939 718.852 279.799 719.234 279.799 719.72V723.689C279.799 723.779 279.768 723.856 279.705 723.919C279.642 723.973 279.565 724 279.475 724H278.814ZM286.375 724.135C285.691 724.135 285.12 724.005 284.661 723.743C284.202 723.482 283.851 723.122 283.608 722.663C283.365 722.195 283.23 721.664 283.203 721.07C283.194 720.917 283.189 720.724 283.189 720.49C283.189 720.247 283.194 720.053 283.203 719.909C283.23 719.306 283.365 718.775 283.608 718.316C283.86 717.857 284.215 717.497 284.674 717.236C285.133 716.975 285.7 716.845 286.375 716.845C287.05 716.845 287.617 716.975 288.076 717.236C288.535 717.497 288.886 717.857 289.129 718.316C289.381 718.775 289.521 719.306 289.548 719.909C289.557 720.053 289.561 720.247 289.561 720.49C289.561 720.724 289.557 720.917 289.548 721.07C289.521 721.664 289.386 722.195 289.143 722.663C288.9 723.122 288.549 723.482 288.09 723.743C287.631 724.005 287.059 724.135 286.375 724.135ZM286.375 723.095C286.933 723.095 287.379 722.92 287.712 722.569C288.045 722.209 288.225 721.687 288.252 721.003C288.261 720.868 288.265 720.697 288.265 720.49C288.265 720.283 288.261 720.112 288.252 719.977C288.225 719.293 288.045 718.775 287.712 718.424C287.379 718.064 286.933 717.884 286.375 717.884C285.817 717.884 285.367 718.064 285.025 718.424C284.692 718.775 284.517 719.293 284.499 719.977C284.49 720.112 284.485 720.283 284.485 720.49C284.485 720.697 284.49 720.868 284.499 721.003C284.517 721.687 284.692 722.209 285.025 722.569C285.367 722.92 285.817 723.095 286.375 723.095ZM293.817 724.135C293.322 724.135 292.894 724.05 292.534 723.878C292.174 723.698 291.877 723.46 291.643 723.163C291.418 722.857 291.247 722.51 291.13 722.123C291.022 721.736 290.959 721.327 290.941 720.895C290.932 720.751 290.928 720.616 290.928 720.49C290.928 720.364 290.932 720.229 290.941 720.085C290.959 719.662 291.022 719.257 291.13 718.87C291.247 718.483 291.418 718.136 291.643 717.83C291.877 717.524 292.174 717.286 292.534 717.115C292.894 716.935 293.322 716.845 293.817 716.845C294.348 716.845 294.789 716.939 295.14 717.128C295.491 717.317 295.779 717.551 296.004 717.83V714.725C296.004 714.635 296.031 714.563 296.085 714.509C296.148 714.446 296.224 714.415 296.314 714.415H296.962C297.052 714.415 297.124 714.446 297.178 714.509C297.241 714.563 297.273 714.635 297.273 714.725V723.689C297.273 723.779 297.241 723.856 297.178 723.919C297.124 723.973 297.052 724 296.962 724H296.355C296.256 724 296.179 723.973 296.125 723.919C296.071 723.856 296.044 723.779 296.044 723.689V723.122C295.819 723.41 295.527 723.653 295.167 723.851C294.807 724.041 294.357 724.135 293.817 724.135ZM294.1 723.041C294.55 723.041 294.91 722.938 295.18 722.731C295.45 722.524 295.653 722.263 295.788 721.948C295.923 721.624 295.995 721.295 296.004 720.962C296.013 720.818 296.017 720.647 296.017 720.449C296.017 720.242 296.013 720.067 296.004 719.923C295.995 719.608 295.918 719.297 295.774 718.991C295.639 718.685 295.432 718.433 295.153 718.235C294.883 718.037 294.532 717.938 294.1 717.938C293.641 717.938 293.277 718.042 293.007 718.249C292.737 718.447 292.543 718.712 292.426 719.045C292.309 719.369 292.242 719.72 292.224 720.098C292.215 720.359 292.215 720.62 292.224 720.881C292.242 721.259 292.309 721.615 292.426 721.948C292.543 722.272 292.737 722.537 293.007 722.744C293.277 722.942 293.641 723.041 294.1 723.041ZM301.9 724.135C301.324 724.135 300.833 724.009 300.428 723.757C300.032 723.496 299.731 723.136 299.524 722.677C299.317 722.218 299.213 721.691 299.213 721.097V717.29C299.213 717.2 299.24 717.128 299.294 717.074C299.357 717.011 299.434 716.98 299.524 716.98H300.199C300.289 716.98 300.361 717.011 300.415 717.074C300.478 717.128 300.509 717.2 300.509 717.29V721.03C300.509 722.371 301.094 723.041 302.264 723.041C302.822 723.041 303.268 722.866 303.601 722.515C303.943 722.155 304.114 721.66 304.114 721.03V717.29C304.114 717.2 304.141 717.128 304.195 717.074C304.258 717.011 304.334 716.98 304.424 716.98H305.086C305.185 716.98 305.261 717.011 305.315 717.074C305.369 717.128 305.396 717.2 305.396 717.29V723.689C305.396 723.779 305.369 723.856 305.315 723.919C305.261 723.973 305.185 724 305.086 724H304.465C304.375 724 304.298 723.973 304.235 723.919C304.181 723.856 304.154 723.779 304.154 723.689V723.095C303.911 723.41 303.614 723.662 303.263 723.851C302.921 724.041 302.467 724.135 301.9 724.135ZM310.237 724.135C309.598 724.135 309.044 724.014 308.576 723.77C308.117 723.518 307.762 723.163 307.51 722.704C307.258 722.236 307.123 721.678 307.105 721.03C307.096 720.895 307.091 720.715 307.091 720.49C307.091 720.265 307.096 720.085 307.105 719.95C307.123 719.302 307.258 718.748 307.51 718.289C307.762 717.821 308.117 717.466 308.576 717.223C309.044 716.971 309.598 716.845 310.237 716.845C310.759 716.845 311.204 716.917 311.573 717.061C311.951 717.205 312.262 717.389 312.505 717.614C312.748 717.839 312.928 718.082 313.045 718.343C313.171 718.604 313.238 718.852 313.247 719.086C313.256 719.176 313.229 719.248 313.166 719.302C313.103 719.356 313.027 719.383 312.937 719.383H312.289C312.199 719.383 312.131 719.365 312.086 719.329C312.041 719.284 311.996 719.212 311.951 719.113C311.789 718.672 311.569 718.361 311.29 718.181C311.011 718.001 310.664 717.911 310.25 717.911C309.71 717.911 309.269 718.078 308.927 718.411C308.594 718.744 308.414 719.279 308.387 720.017C308.378 720.341 308.378 720.656 308.387 720.962C308.414 721.709 308.594 722.249 308.927 722.582C309.269 722.906 309.71 723.068 310.25 723.068C310.664 723.068 311.011 722.978 311.29 722.798C311.569 722.618 311.789 722.308 311.951 721.867C311.996 721.768 312.041 721.7 312.086 721.664C312.131 721.619 312.199 721.597 312.289 721.597H312.937C313.027 721.597 313.103 721.624 313.166 721.678C313.229 721.732 313.256 721.804 313.247 721.894C313.238 722.083 313.198 722.276 313.126 722.474C313.054 722.672 312.937 722.875 312.775 723.082C312.622 723.28 312.428 723.46 312.194 723.622C311.96 723.775 311.677 723.901 311.344 724C311.02 724.09 310.651 724.135 310.237 724.135ZM317.591 724C317.087 724 316.678 723.905 316.363 723.716C316.048 723.518 315.818 723.244 315.674 722.893C315.53 722.533 315.458 722.11 315.458 721.624V718.06H314.405C314.315 718.06 314.239 718.033 314.176 717.979C314.122 717.916 314.095 717.839 314.095 717.749V717.29C314.095 717.2 314.122 717.128 314.176 717.074C314.239 717.011 314.315 716.98 314.405 716.98H315.458V714.725C315.458 714.635 315.485 714.563 315.539 714.509C315.602 714.446 315.679 714.415 315.769 714.415H316.403C316.493 714.415 316.565 714.446 316.619 714.509C316.682 714.563 316.714 714.635 316.714 714.725V716.98H318.388C318.478 716.98 318.55 717.011 318.604 717.074C318.667 717.128 318.698 717.2 318.698 717.29V717.749C318.698 717.839 318.667 717.916 318.604 717.979C318.55 718.033 318.478 718.06 318.388 718.06H316.714V721.529C316.714 721.952 316.786 722.285 316.93 722.528C317.074 722.771 317.33 722.893 317.699 722.893H318.523C318.613 722.893 318.685 722.924 318.739 722.987C318.802 723.041 318.833 723.113 318.833 723.203V723.689C318.833 723.779 318.802 723.856 318.739 723.919C318.685 723.973 318.613 724 318.523 724H317.591Z" fill="#F6F8FF"/>
</g>
<defs>
<linearGradient id="paint0_linear_1094_91" x1="0" y1="0" x2="589.496" y2="203.56" gradientUnits="userSpaceOnUse">
<stop stop-color="#1100FF"/>
<stop offset="1" stop-color="#0086FF"/>
</linearGradient>
<linearGradient id="paint1_linear_1094_91" x1="0" y1="0" x2="589.496" y2="203.56" gradientUnits="userSpaceOnUse">
<stop stop-color="#1100FF"/>
<stop offset="1" stop-color="#0086FF"/>
</linearGradient>
<linearGradient id="paint2_linear_1094_91" x1="172.156" y1="138.874" x2="283.336" y2="194.208" gradientUnits="userSpaceOnUse">
<stop stop-color="#1100FF"/>
<stop offset="1" stop-color="#0086FF"/>
</linearGradient>
<linearGradient id="paint3_linear_1094_91" x1="-10" y1="51.7388" x2="198.684" y2="162.877" gradientUnits="userSpaceOnUse">
<stop stop-color="#1100FF"/>
<stop offset="1" stop-color="#0086FF"/>
</linearGradient>
<linearGradient id="paint4_linear_1094_91" x1="48.4529" y1="0" x2="226.258" y2="178.183" gradientUnits="userSpaceOnUse">
<stop stop-color="#1100FF"/>
<stop offset="1" stop-color="#0086FF"/>
</linearGradient>
<linearGradient id="paint5_linear_1094_91" x1="79.7183" y1="142.957" x2="209.067" y2="201.075" gradientUnits="userSpaceOnUse">
<stop stop-color="#1100FF"/>
<stop offset="1" stop-color="#0086FF"/>
</linearGradient>
<linearGradient id="paint6_linear_1094_91" x1="207.432" y1="403.695" x2="249.255" y2="424.51" gradientUnits="userSpaceOnUse">
<stop stop-color="#1100FF"/>
<stop offset="1" stop-color="#0086FF"/>
</linearGradient>
<linearGradient id="paint7_linear_1094_91" x1="138.909" y1="370.917" x2="217.411" y2="412.724" gradientUnits="userSpaceOnUse">
<stop stop-color="#1100FF"/>
<stop offset="1" stop-color="#0086FF"/>
</linearGradient>
<linearGradient id="paint8_linear_1094_91" x1="160.898" y1="351.454" x2="227.784" y2="418.482" gradientUnits="userSpaceOnUse">
<stop stop-color="#1100FF"/>
<stop offset="1" stop-color="#0086FF"/>
</linearGradient>
<linearGradient id="paint9_linear_1094_91" x1="172.659" y1="405.231" x2="221.317" y2="427.094" gradientUnits="userSpaceOnUse">
<stop stop-color="#1100FF"/>
<stop offset="1" stop-color="#0086FF"/>
</linearGradient>
<clipPath id="clip0_1094_91">
<rect width="375" height="812" fill="white"/>
</clipPath>
</defs>
</svg>
