<svg width="335" height="254" viewBox="0 0 335 254" fill="none" xmlns="http://www.w3.org/2000/svg">
<mask id="mask0_1118_91" style="mask-type:alpha" maskUnits="userSpaceOnUse" x="0" y="0" width="335" height="254">
<rect width="335" height="254" rx="12" fill="white"/>
</mask>
<g mask="url(#mask0_1118_91)">
<path d="M54.4083 16.9939C49.58 16.6128 46.7975 15.9868 42.3238 14C41.3145 16.1774 40.8508 18.1914 41.2872 20.396C44.1515 22.0018 48.0796 23.1993 53.4808 24.2608C52.4715 20.9131 52.5261 19.0352 54.4083 16.9939Z" fill="url(#paint0_linear_1118_91)"/>
<path d="M207.148 18.9798C207.748 23.5523 206.739 26.3012 204.611 30.1116C212.167 30.5471 219.778 30.1388 223.024 28.8596C223.351 25.267 222.806 22.1642 221.469 18C217.814 19.4969 213.831 19.4153 207.148 18.9798Z" fill="url(#paint1_linear_1118_91)"/>
<path d="M26.884 79.0079C25.5201 77.6471 24.6199 76.1774 23.7197 74C20.4735 77.6471 18.1276 79.9333 15.0452 82.0018C15.3725 84.533 16.1636 85.7033 17.5548 87.1458C19.8735 85.7033 23.3378 82.7367 26.884 79.0079Z" fill="url(#paint2_linear_1118_91)"/>
<path d="M275.112 213C274.239 215.586 273.53 217.001 271.812 219.151C272.848 219.995 273.912 220.539 275.167 220.594C276.449 219.26 277.622 217.273 278.958 214.497C276.967 214.579 275.958 214.306 275.112 213Z" fill="#BDBDBD"/>
<path d="M310.989 156.505C307.225 155.09 305.561 153.184 303.515 150C300.078 155.552 297.268 161.54 296.886 164.534C299.505 166.276 302.097 167.12 305.834 167.8C306.216 164.398 307.907 161.404 310.989 156.505Z" fill="url(#paint3_linear_1118_91)"/>
<path d="M142.959 33.922C143.914 32.289 145.141 31.0914 147.623 30.4382C144.323 25.1036 141.54 22.137 137.203 18C133.848 19.4153 132.347 20.9939 131.393 22.1914C136.93 25.4575 139.522 28.6691 142.959 33.922Z" fill="url(#paint4_linear_1118_91)"/>
<path d="M273.098 88C269.715 93.1168 268.161 96.655 266.797 101.636C270.807 102.452 273.48 102.262 275.935 101.5C276.071 98.3152 277.353 96.1923 279.645 93.0896C276.235 92.1098 274.762 90.7761 273.098 88Z" fill="url(#paint5_linear_1118_91)"/>
<path d="M30.3734 200C26.9908 205.117 25.436 208.655 24.072 213.636C28.082 214.452 30.7553 214.262 33.2104 213.5C33.3468 210.315 34.6288 208.192 36.9202 205.09C33.5104 204.11 32.0374 202.776 30.3734 200Z" fill="url(#paint6_linear_1118_91)"/>
<path d="M273.329 54.069C277.093 54.3956 279.003 54.8038 281.622 56.6001C282.167 55.2121 282.713 54.4228 283.586 54.0417C280.858 51.8916 278.566 51.1295 274.611 50.4219C273.82 51.565 273.465 52.7353 273.329 54.069Z" fill="url(#paint7_linear_1118_91)"/>
<path d="M28.3359 160.383C31.6911 159.43 35.4557 159.866 42.9573 163.867C44.1303 160.383 44.2122 157.035 42.9846 152.626C36.9833 150.421 33.2461 149.605 27.0811 150.177C28.7178 153.579 28.7723 155.919 28.3359 160.383Z" fill="url(#paint8_linear_1118_91)"/>
</g>
<path d="M112.701 221.917H176.372C181.398 221.917 185.462 217.852 185.462 212.826V76.1027C185.462 71.0768 181.398 67 176.372 67H112.701C107.688 67 103.611 71.0768 103.611 76.0906V212.814C103.611 217.84 107.688 221.917 112.701 221.917Z" fill="url(#paint9_linear_1118_91)"/>
<path d="M180.899 203.322V77.5878C180.899 74.3386 178.27 71.71 175.021 71.71H114.052C110.803 71.71 108.174 74.3386 108.174 77.5878V203.322C108.174 206.571 110.803 209.2 114.052 209.2H175.021C178.27 209.2 180.899 206.571 180.899 203.322Z" fill="url(#paint10_linear_1118_91)"/>
<path d="M235.844 213.813V221.127C235.844 222.307 222.141 223.269 205.25 223.269C188.359 223.269 174.656 222.307 174.656 221.127V213.813H235.844Z" fill="#197CA3"/>
<path d="M213.708 223.195V213.825H235.856V221.139C235.844 222.112 226.485 222.94 213.708 223.195Z" fill="#5DA6C7"/>
<path d="M212.673 223.208C210.3 223.245 207.805 223.269 205.25 223.269C201.429 223.269 197.778 223.22 194.419 223.135V213.813H212.673V223.208Z" fill="#5DA6C7"/>
<path d="M193.19 223.098C182.286 222.77 174.656 222.015 174.656 221.127V213.813H193.19V223.098Z" fill="#5DA6C7"/>
<path d="M205.25 215.882C222.146 215.882 235.844 214.923 235.844 213.74C235.844 212.557 222.146 211.598 205.25 211.598C188.353 211.598 174.656 212.557 174.656 213.74C174.656 214.923 188.353 215.882 205.25 215.882Z" fill="#197CA3"/>
<path d="M241.089 206.073V213.387C241.089 214.567 227.386 215.529 210.495 215.529C193.591 215.529 179.901 214.567 179.901 213.387V206.073H241.089Z" fill="#197CA3"/>
<path d="M218.94 215.455V206.084H241.089V213.398C241.089 214.372 231.73 215.199 218.94 215.455Z" fill="#5DA6C7"/>
<path d="M217.906 215.468C215.533 215.504 213.038 215.528 210.482 215.528C206.661 215.528 203.01 215.48 199.652 215.395V206.073H217.906V215.468Z" fill="#5DA6C7"/>
<path d="M198.423 215.358C187.519 215.029 179.889 214.275 179.889 213.387V206.073H198.423V215.358Z" fill="#5DA6C7"/>
<path d="M210.483 208.142C227.379 208.142 241.076 207.183 241.076 206C241.076 204.817 227.379 203.858 210.483 203.858C193.586 203.858 179.889 204.817 179.889 206C179.889 207.183 193.586 208.142 210.483 208.142Z" fill="#197CA3"/>
<path d="M210.483 207.485C224.402 207.485 235.685 206.82 235.685 206C235.685 205.18 224.402 204.516 210.483 204.516C196.563 204.516 185.28 205.18 185.28 206C185.28 206.82 196.563 207.485 210.483 207.485Z" fill="#F7CC7F"/>
<path d="M237.596 198.125V205.439C237.596 206.62 223.893 207.581 207.002 207.581C190.099 207.581 176.408 206.62 176.408 205.439V198.125H237.596Z" fill="#197CA3"/>
<path d="M215.448 207.507V198.136H237.596V205.45C237.596 206.424 228.238 207.239 215.448 207.507Z" fill="#5DA6C7"/>
<path d="M214.425 207.52C212.052 207.556 209.557 207.58 207.002 207.58C203.181 207.58 199.53 207.532 196.171 207.447V198.125H214.425V207.52Z" fill="#5DA6C7"/>
<path d="M194.93 207.41C184.026 207.081 176.396 206.327 176.396 205.439V198.125H194.93V207.41Z" fill="#5DA6C7"/>
<path d="M176.396 198.052C176.396 199.233 190.099 200.194 206.99 200.194C223.893 200.194 237.584 199.233 237.584 198.052C237.584 196.872 223.881 195.911 206.99 195.911C190.099 195.911 176.396 196.872 176.396 198.052Z" fill="#197CA3"/>
<path d="M207.002 199.537C220.921 199.537 232.205 198.873 232.205 198.053C232.205 197.233 220.921 196.568 207.002 196.568C193.083 196.568 181.799 197.233 181.799 198.053C181.799 198.873 193.083 199.537 207.002 199.537Z" fill="#F7CC7F"/>
<path d="M241.089 190.29V197.604C241.089 198.784 227.386 199.746 210.495 199.746C193.591 199.746 179.901 198.784 179.901 197.604V190.29H241.089Z" fill="#197CA3"/>
<path d="M218.94 199.661V190.291H241.089V197.604C241.089 198.59 231.73 199.405 218.94 199.661Z" fill="#5DA6C7"/>
<path d="M217.906 199.685C215.533 199.722 213.038 199.746 210.482 199.746C206.661 199.746 203.01 199.697 199.652 199.612V190.291H217.906V199.685Z" fill="#5DA6C7"/>
<path d="M198.423 199.576C187.519 199.247 179.889 198.493 179.889 197.604V190.291H198.423V199.576Z" fill="#5DA6C7"/>
<path d="M210.483 192.359C227.379 192.359 241.076 191.4 241.076 190.217C241.076 189.034 227.379 188.075 210.483 188.075C193.586 188.075 179.889 189.034 179.889 190.217C179.889 191.4 193.586 192.359 210.483 192.359Z" fill="#197CA3"/>
<path d="M210.483 191.702C224.402 191.702 235.685 191.037 235.685 190.217C235.685 189.397 224.402 188.732 210.483 188.732C196.563 188.732 185.28 189.397 185.28 190.217C185.28 191.037 196.563 191.702 210.483 191.702Z" fill="#E8F3F7"/>
<path d="M185.621 214.64C185.621 214.64 184.805 219.666 184.805 219.678C184.769 220.177 184.781 221.455 184.671 221.893C184.258 223.548 177.321 219.532 179.146 219.216C179.317 219.191 180.509 217.974 180.777 217.463C181.252 216.575 181.507 214.263 181.507 214.263L185.621 214.64Z" fill="#FDAF91"/>
<path d="M179.487 218.96C179.487 218.96 181.276 219.399 182.189 219.496C183.101 219.581 184.27 218.169 184.927 218.437C185.645 218.729 186.034 223.232 186.034 223.232C186.034 223.232 174.583 223.755 171.881 223.001C170.81 222.709 175.921 220.336 179.487 218.96Z" fill="#333333"/>
<path d="M169.569 214.579C169.569 214.579 168.839 218.437 168.839 218.449C168.802 218.948 168.814 220.226 168.705 220.664C168.291 222.319 161.488 218.571 163.302 218.242C163.472 218.218 164.531 216.746 164.811 216.235C165.285 215.346 165.723 213.679 165.723 213.679L169.569 214.579Z" fill="#FDAF91"/>
<path d="M163.703 217.914C163.703 217.914 165.492 218.352 166.405 218.449C167.318 218.534 168.486 217.123 169.143 217.39C169.861 217.682 170.251 222.185 170.251 222.185C170.251 222.185 158.799 222.708 156.097 221.954C155.027 221.662 160.138 219.277 163.703 217.914Z" fill="#333333"/>
<path d="M209.266 175.942L188.432 171.111C188.432 171.111 179.086 168.64 176.834 171.537C174.583 174.433 165.006 214.446 165.006 214.446C165.006 214.446 169.946 214.872 170.263 214.665L181.824 194.147C182.919 192.2 183.649 190.059 183.953 187.832L184.769 181.954L193.251 184.424C193.251 184.424 203.023 186.566 206.99 184.108C210.982 181.637 209.266 175.942 209.266 175.942Z" fill="#C6383F"/>
<path d="M201.27 140.03C200.942 140.042 200.041 140.347 198.727 142.829C197.048 146.005 194.577 155.583 194.577 155.583L201.927 158.309L202.877 156.313L204.434 140.919C204.422 140.919 201.356 140.03 201.27 140.03Z" fill="#197CA3"/>
<path d="M210.981 138.654C208.876 138.654 203.68 139.262 201.27 140.041C201.27 140.041 199.493 155.216 202.864 166.753C203.619 169.333 202.244 177.45 202.244 177.45L224.003 177.158C224.003 177.158 221.423 157.529 222.396 154.352C223.37 151.176 223.394 140.126 223.394 140.126C223.394 140.126 223.248 140.102 218.502 139.287C216.287 138.922 213.221 138.654 210.981 138.654Z" fill="#5DA6C7"/>
<path d="M223.626 141.818C221.593 141.052 220.595 159.33 220.315 166.851C216.713 167.192 210.434 166.851 208.864 166.741C208.134 166.68 206.43 166.072 205.7 165.975C204.945 165.877 204.276 165.829 203.899 165.889C203.765 165.914 200.005 167.447 199.688 167.776C199.287 168.189 198.216 169.248 198.398 169.698C198.581 170.149 200.467 168.433 200.467 168.433L201.392 167.922C200.248 169.041 198.045 170.514 198.362 171.049C198.666 171.573 200.65 170.076 202.061 169.053C200.857 170.137 199.348 172.096 199.7 172.4C200.017 172.668 201.721 170.416 203.546 169.771C204.227 169.528 204.897 170.197 205.432 170.283C205.822 170.343 206.43 170.465 206.807 170.356L208.645 170.173C209.314 170.234 209.485 170.246 210.154 170.392C210.945 170.562 212.235 170.733 213.245 170.976C219.038 172.388 220.973 173.045 222.737 173.045C228.128 173.045 228.445 143.619 223.626 141.818Z" fill="#FDAF91"/>
<path d="M227.495 158.977C227.872 151.274 227.824 141.782 223.491 140.163C221.788 139.518 218.77 143.364 219.305 159.135C221.617 159.33 225.013 159.476 227.495 158.977Z" fill="#197CA3"/>
<path d="M179.231 154.268L199.737 155.607C200.285 155.644 200.747 155.996 200.917 156.52L206.223 172.328L217.529 173.07C217.845 173.094 218.088 173.362 218.064 173.679C218.04 173.995 217.772 174.238 217.456 174.214L185.28 172.109C184.391 172.048 183.625 171.476 183.32 170.648L177.881 156.082C177.54 155.169 178.258 154.208 179.231 154.268Z" fill="#FCFEFE"/>
<path d="M189.441 164.04C189.478 164.745 190.013 165.293 190.634 165.257C191.255 165.22 191.717 164.624 191.681 163.918C191.644 163.212 191.109 162.664 190.488 162.701C189.867 162.737 189.405 163.334 189.441 164.04Z" fill="#5DA6C7"/>
<path d="M223.99 176.672L201.295 172.753C201.295 172.753 191.486 171.257 189.222 174.153C186.971 177.049 180.789 215.225 180.789 215.225C180.789 215.225 185.377 216.101 185.9 215.991C186.156 215.821 191.9 202.143 194.589 196.496C195.441 194.707 196.037 192.809 196.366 190.849L197.23 185.738L200.09 186.724C205.104 188.452 210.458 189.048 215.727 188.403C217.93 188.123 219.987 187.661 221.265 186.87C225.244 184.387 223.99 176.672 223.99 176.672Z" fill="#FF4F52"/>
<path d="M206.613 117.881C207.319 117.723 208.012 117.528 208.694 117.273C209.46 116.993 210.458 116.677 211.067 116.64C212.357 116.567 214.511 116.908 215.582 118.332C216.92 120.096 219.707 119.025 218.344 127.447C216.799 136.963 211.554 135.393 211.444 135.223C211.335 135.052 207.282 128.627 207.282 128.627C207.282 128.627 205.311 131.998 205.323 131.876C205.323 131.742 198.131 119.828 206.613 117.881Z" fill="#333333"/>
<path d="M210.118 135.88L209.68 139.154C209.68 139.154 208.694 143.875 209.959 144.788C211.237 145.701 215.375 139.02 215.375 139.02L214.937 130.708L210.118 135.88Z" fill="#FDAF91"/>
<path d="M215.083 133.41C214.036 136.246 211.529 137.986 209.752 138.655L210.118 135.881L214.937 130.721L215.083 133.41Z" fill="#FE8D61"/>
<path d="M210.689 120.888C207.915 120.158 205.165 122.166 204.958 124.989C204.873 126.218 204.824 127.751 204.909 129.419C205.128 133.434 207.501 137.183 209.314 137.037C211.14 136.903 215.971 133.933 215.728 128.226C215.594 124.709 213.598 121.642 210.689 120.888Z" fill="#FDAF91"/>
<path d="M214.438 128.773C214.498 129.661 215.143 130.33 215.861 130.282C216.579 130.233 217.115 129.466 217.054 128.578C216.993 127.69 216.348 127.02 215.63 127.069C214.9 127.13 214.365 127.896 214.438 128.773Z" fill="#FDAF91"/>
<path d="M215.618 127.081C215.618 127.081 213.403 127.41 212.734 125.937C212.064 124.477 209.485 121.204 205.724 122.08C201.952 122.968 209.229 119.378 209.521 119.402C209.813 119.427 213.318 119.755 213.318 119.755C213.318 119.755 215.8 122.238 215.873 122.481C215.947 122.737 216.47 125.463 216.47 125.463L215.618 127.081Z" fill="#333333"/>
<path d="M156.365 117.09C154.114 115.046 151.132 113.914 147.968 113.914H140.752C137.588 113.914 134.606 115.046 132.355 117.09C130.055 119.183 128.789 121.982 128.789 124.964V135.722C128.789 136.744 129.617 137.571 130.639 137.571C131.661 137.571 132.489 136.744 132.489 135.722V134.699C132.489 134.566 132.379 134.444 132.233 134.444H131.965C131.698 134.444 131.466 134.225 131.466 133.945V131.243C131.466 130.976 131.685 130.744 131.965 130.744H132.233C132.367 130.744 132.489 130.635 132.489 130.489V124.952C132.489 120.899 136.2 117.601 140.764 117.601H147.98C152.544 117.601 156.255 120.899 156.255 124.952V146.394H159.955V124.964C159.943 121.982 158.665 119.183 156.365 117.09Z" fill="#2E373B"/>
<path d="M163.228 183.109H125.296C123.751 183.109 122.497 181.843 122.51 180.298L122.826 145.834C122.838 144.313 124.079 143.083 125.613 143.083H163.545C165.09 143.083 166.344 144.349 166.332 145.895L166.015 180.358C165.991 181.88 164.75 183.109 163.228 183.109Z" fill="#0E6BE2"/>
<path d="M153.931 183.109H122.619C121.074 183.109 119.82 181.843 119.832 180.298L120.149 145.834C120.161 144.313 121.402 143.083 122.936 143.083H154.247C155.793 143.083 157.046 144.349 157.034 145.895L156.718 180.358C156.706 181.88 155.464 183.109 153.931 183.109Z" fill="#378FFF"/>
<path d="M137.49 160.255C137.49 159.148 138.22 158.198 139.218 157.87C138.975 157.785 138.707 157.748 138.439 157.748C137.052 157.748 135.932 158.868 135.932 160.255C135.932 161.168 136.431 161.971 137.162 162.409L135.421 168.25H136.979L138.719 162.409C137.989 161.971 137.49 161.168 137.49 160.255Z" fill="#002F6A"/>
<path d="M139.717 162.41C140.448 161.972 140.946 161.169 140.946 160.256C140.946 159.112 140.18 158.151 139.133 157.846C139.158 157.859 139.194 157.859 139.218 157.871C138.221 158.199 137.49 159.149 137.49 160.256C137.49 161.169 137.989 161.972 138.719 162.41L136.979 168.251H141.458L139.717 162.41Z" fill="black"/>
<path d="M137.454 142.429C137.442 142.429 137.417 142.429 137.405 142.429C137.417 142.417 137.442 142.429 137.454 142.429Z" fill="url(#paint11_linear_1118_91)"/>
<path d="M137.758 142.477C137.709 142.465 137.649 142.453 137.6 142.44C137.649 142.453 137.709 142.465 137.758 142.477Z" fill="url(#paint12_linear_1118_91)"/>
<path d="M137.575 142.44C137.551 142.44 137.539 142.44 137.515 142.428C137.539 142.44 137.551 142.44 137.575 142.44Z" fill="url(#paint13_linear_1118_91)"/>
<path d="M137.855 142.501C137.831 142.489 137.795 142.489 137.77 142.477C137.795 142.489 137.831 142.489 137.855 142.501Z" fill="url(#paint14_linear_1118_91)"/>
<path d="M122.357 158.577C120.09 158.65 118.298 160.914 118.359 163.64C118.42 166.366 120.302 168.52 122.569 168.447C124.573 168.386 126.193 166.609 126.506 164.321L144.542 163.749C144.714 163.749 144.846 163.567 144.846 163.36L144.826 162.24C144.826 162.033 144.674 161.875 144.502 161.875L126.466 162.447C126.061 160.184 124.361 158.516 122.357 158.577ZM124.29 163.457C124.32 164.674 123.521 165.684 122.509 165.721C121.496 165.757 120.656 164.796 120.626 163.579C120.596 162.362 121.395 161.352 122.407 161.315C123.43 161.279 124.27 162.24 124.29 163.457Z" fill="url(#paint15_linear_1118_91)"/>
<path d="M144.835 162.814C144.835 162.607 144.683 162.449 144.511 162.449L126.486 163.021C126.071 160.758 124.37 159.09 122.377 159.151C120.109 159.224 118.318 161.488 118.379 164.214C118.439 166.94 120.322 169.094 122.589 169.021C124.593 168.96 126.212 167.183 126.526 164.895L136.536 164.579L136.587 167.074C136.587 167.256 136.718 167.402 136.87 167.402L137.346 167.39C137.497 167.39 137.619 167.232 137.619 167.049L137.568 164.554L138.914 164.518L138.945 165.881C138.945 166.063 139.076 166.21 139.228 166.21L139.704 166.197C139.856 166.197 139.977 166.039 139.977 165.857L139.947 164.494L141.556 164.445L141.607 166.94C141.607 167.122 141.738 167.268 141.89 167.268L142.366 167.256C142.517 167.256 142.639 167.098 142.639 166.915L142.588 164.421L144.542 164.36C144.714 164.36 144.845 164.177 144.845 163.97L144.835 162.814ZM122.518 166.283C121.506 166.319 120.666 165.358 120.636 164.141C120.605 162.924 121.405 161.914 122.417 161.877C123.429 161.841 124.269 162.802 124.3 164.019C124.33 165.236 123.53 166.246 122.518 166.283Z" fill="url(#paint16_linear_1118_91)"/>
<path d="M139.692 162.359C141.165 161.77 141.042 160.027 140.796 159.414H141.533H145.583L146.319 162.727L143.742 166.041L141.533 168.25L139.692 162.359Z" fill="#378FFF"/>
<path fill-rule="evenodd" clip-rule="evenodd" d="M132.927 101.256H158.093C163.704 101.256 168.255 96.7047 168.255 91.0946C168.255 85.4845 163.704 80.9331 158.093 80.9331H132.927C127.317 80.9331 122.766 85.4845 122.766 91.0946C122.766 96.7047 127.317 101.256 132.927 101.256Z" fill="url(#paint17_linear_1118_91)"/>
<path d="M130.81 94.9413H145.937C147.823 94.9413 149.356 93.4079 149.356 91.5217C149.356 89.6354 147.823 88.1021 145.937 88.1021H130.81C128.924 88.1021 127.39 89.6354 127.39 91.5217C127.39 93.4201 128.924 94.9413 130.81 94.9413Z" fill="white"/>
<path d="M159.469 88.1026H159.396V86.837C159.396 84.9264 157.85 83.3809 155.94 83.3809C154.029 83.3809 152.484 84.9264 152.484 86.837V88.1026H152.252C151.802 88.1026 151.437 88.4677 151.437 88.9179V94.1264C151.437 94.5767 151.802 94.9418 152.252 94.9418H159.469C159.919 94.9418 160.284 94.5767 160.284 94.1264V88.9179C160.284 88.4677 159.919 88.1026 159.469 88.1026ZM155.587 93.2259L153.64 91.2788L154.212 90.7068L155.587 92.082L157.85 89.8185L158.422 90.3904L155.587 93.2259ZM158.422 86.8491V88.1148H153.445V86.8491C153.445 85.474 154.565 84.3544 155.94 84.3544C157.315 84.3544 158.422 85.474 158.422 86.8491Z" fill="white"/>
<path d="M146.156 92.6539L146.497 92.1184L145.535 91.5343L146.497 90.9502L146.156 90.4147L145.231 90.9502V89.8306H144.537V90.9502L143.612 90.4147L143.272 90.9502L144.233 91.5343L143.272 92.1184L143.612 92.6539L144.537 92.1184V93.238H145.231V92.1184L146.156 92.6539Z" fill="#3A4D63"/>
<path d="M141.811 92.6539L142.152 92.1184L141.191 91.5343L142.152 90.9502L141.811 90.4147L140.886 90.9502V89.8306H140.193V90.9502L139.268 90.4147L138.927 90.9502L139.888 91.5343L138.927 92.1184L139.268 92.6539L140.193 92.1184V93.238H140.886V92.1184L141.811 92.6539Z" fill="#3A4D63"/>
<path d="M137.479 92.6539L137.82 92.1184L136.858 91.5343L137.82 90.9502L137.479 90.4147L136.554 90.9502V89.8306H135.86V90.9502L134.935 90.4147L134.595 90.9502L135.556 91.5343L134.595 92.1184L134.935 92.6539L135.86 92.1184V93.238H136.554V92.1184L137.479 92.6539Z" fill="#3A4D63"/>
<path d="M133.134 92.6539L133.475 92.1184L132.514 91.5343L133.475 90.9502L133.134 90.4147L132.21 90.9502V89.8306H131.516V90.9502L130.591 90.4147L130.25 90.9502L131.212 91.5343L130.25 92.1184L130.591 92.6539L131.516 92.1184V93.238H132.21V92.1184L133.134 92.6539Z" fill="#3A4D63"/>
<path fill-rule="evenodd" clip-rule="evenodd" d="M157.838 99.5405L158.142 100.149L160.223 104.274L156.317 102.084L154.211 100.904C155.526 100.709 156.877 100.405 157.838 99.5405Z" fill="url(#paint18_linear_1118_91)"/>
<defs>
<linearGradient id="paint0_linear_1118_91" x1="48.6331" y1="15.2619" x2="46.5471" y2="24.1873" gradientUnits="userSpaceOnUse">
<stop stop-color="#FF5C5C"/>
<stop offset="0.3013" stop-color="#F44444"/>
<stop offset="0.935" stop-color="#D60707"/>
<stop offset="1" stop-color="#D30000"/>
</linearGradient>
<linearGradient id="paint1_linear_1118_91" x1="213.647" y1="17.3844" x2="213.991" y2="33.1193" gradientUnits="userSpaceOnUse">
<stop stop-color="#FF5C5C"/>
<stop offset="0.3013" stop-color="#F44444"/>
<stop offset="0.935" stop-color="#D60707"/>
<stop offset="1" stop-color="#D30000"/>
</linearGradient>
<linearGradient id="paint2_linear_1118_91" x1="17.2713" y1="76.6056" x2="23.3826" y2="83.8414" gradientUnits="userSpaceOnUse">
<stop stop-color="#4D8EFF"/>
<stop offset="0.4282" stop-color="#3F76FF"/>
<stop offset="1" stop-color="#2850FF"/>
</linearGradient>
<linearGradient id="paint3_linear_1118_91" x1="309.541" y1="162.102" x2="297.378" y2="155.868" gradientUnits="userSpaceOnUse">
<stop stop-color="#4D8EFF"/>
<stop offset="0.4282" stop-color="#3F76FF"/>
<stop offset="1" stop-color="#2850FF"/>
</linearGradient>
<linearGradient id="paint4_linear_1118_91" x1="136.932" y1="28.5114" x2="144.059" y2="22.0471" gradientUnits="userSpaceOnUse">
<stop stop-color="#FC9512"/>
<stop offset="0.00696701" stop-color="#FC9612"/>
<stop offset="0.68" stop-color="#FED319"/>
<stop offset="1" stop-color="#FFEB1C"/>
</linearGradient>
<linearGradient id="paint5_linear_1118_91" x1="267.937" y1="94.0672" x2="278.169" y2="97.8971" gradientUnits="userSpaceOnUse">
<stop stop-color="#FF3EB9"/>
<stop offset="0.0433" stop-color="#FF44BC"/>
<stop offset="0.7006" stop-color="#FF98E3"/>
<stop offset="1" stop-color="#FFB9F2"/>
</linearGradient>
<linearGradient id="paint6_linear_1118_91" x1="25.2127" y1="206.067" x2="35.4443" y2="209.897" gradientUnits="userSpaceOnUse">
<stop stop-color="#FF3EB9"/>
<stop offset="0.0433" stop-color="#FF44BC"/>
<stop offset="0.7006" stop-color="#FF98E3"/>
<stop offset="1" stop-color="#FFB9F2"/>
</linearGradient>
<linearGradient id="paint7_linear_1118_91" x1="279.458" y1="50.726" x2="277.421" y2="56.8722" gradientUnits="userSpaceOnUse">
<stop stop-color="#00EE98"/>
<stop offset="0.2798" stop-color="#00D685"/>
<stop offset="0.8679" stop-color="#009955"/>
<stop offset="1" stop-color="#008A49"/>
</linearGradient>
<linearGradient id="paint8_linear_1118_91" x1="34.0209" y1="164.57" x2="36.5505" y2="147.63" gradientUnits="userSpaceOnUse">
<stop stop-color="#00EE98"/>
<stop offset="0.2798" stop-color="#00D685"/>
<stop offset="0.8679" stop-color="#009955"/>
<stop offset="1" stop-color="#008A49"/>
</linearGradient>
<linearGradient id="paint9_linear_1118_91" x1="103.611" y1="67" x2="228.181" y2="116.213" gradientUnits="userSpaceOnUse">
<stop stop-color="#00D3FB"/>
<stop offset="1" stop-color="#0086FF"/>
</linearGradient>
<linearGradient id="paint10_linear_1118_91" x1="108.179" y1="140.46" x2="180.899" y2="140.46" gradientUnits="userSpaceOnUse">
<stop offset="0.0614296" stop-color="#DAEAFF"/>
<stop offset="1" stop-color="#F5F9FF"/>
</linearGradient>
<linearGradient id="paint11_linear_1118_91" x1="137.43" y1="142.419" x2="137.43" y2="142.426" gradientUnits="userSpaceOnUse">
<stop stop-color="#E6ECE5"/>
<stop offset="1" stop-color="#B6BEAF"/>
</linearGradient>
<linearGradient id="paint12_linear_1118_91" x1="137.68" y1="142.44" x2="137.681" y2="142.486" gradientUnits="userSpaceOnUse">
<stop stop-color="#E6ECE5"/>
<stop offset="1" stop-color="#B6BEAF"/>
</linearGradient>
<linearGradient id="paint13_linear_1118_91" x1="137.543" y1="142.43" x2="137.543" y2="142.442" gradientUnits="userSpaceOnUse">
<stop stop-color="#E6ECE5"/>
<stop offset="1" stop-color="#B6BEAF"/>
</linearGradient>
<linearGradient id="paint14_linear_1118_91" x1="137.813" y1="142.476" x2="137.813" y2="142.508" gradientUnits="userSpaceOnUse">
<stop stop-color="#E6ECE5"/>
<stop offset="1" stop-color="#B6BEAF"/>
</linearGradient>
<linearGradient id="paint15_linear_1118_91" x1="129.125" y1="161.982" x2="130.638" y2="168.538" gradientUnits="userSpaceOnUse">
<stop stop-color="#F9B546"/>
<stop offset="1" stop-color="#F4642C"/>
</linearGradient>
<linearGradient id="paint16_linear_1118_91" x1="129.137" y1="162.556" x2="130.651" y2="169.111" gradientUnits="userSpaceOnUse">
<stop stop-color="#F9B546"/>
<stop offset="1" stop-color="#F4642C"/>
</linearGradient>
<linearGradient id="paint17_linear_1118_91" x1="122.766" y1="101.256" x2="160.187" y2="71.5718" gradientUnits="userSpaceOnUse">
<stop stop-color="#1239AC"/>
<stop offset="1" stop-color="#22C8EF"/>
</linearGradient>
<linearGradient id="paint18_linear_1118_91" x1="157.216" y1="80.5618" x2="157.216" y2="103.427" gradientUnits="userSpaceOnUse">
<stop stop-color="#FE5757"/>
<stop offset="1" stop-color="#CD0102"/>
</linearGradient>
</defs>
</svg>
