<svg width="21" height="20" viewBox="0 0 21 20" fill="none" xmlns="http://www.w3.org/2000/svg">
<path d="M12.8637 20C12.567 20 12.3003 19.9903 12.0485 19.9717C11.1627 19.9038 10.5711 19.2811 10.5769 18.4215C10.5819 17.5886 11.2159 16.945 12.0826 16.8916C12.3451 16.8754 12.6194 16.8673 12.8977 16.8673C13.1852 16.8673 13.4869 16.8762 13.7943 16.8932C14.3328 16.9231 14.7666 17.1819 15.0832 17.6606C15.1455 17.7552 15.3092 17.8474 15.4255 17.8539C15.6233 17.8652 15.831 17.8709 16.0429 17.8709C16.2781 17.8709 16.5274 17.8636 16.785 17.8498C17.7597 17.7973 18.5408 17.0064 18.5624 16.0498C18.5674 15.8202 18.5665 15.5873 18.5649 15.3617C18.564 15.2776 18.564 15.1935 18.564 15.1102C17.5337 14.7374 17.3093 14.4067 17.3093 13.3118V12.7506C17.3093 11.8595 17.3085 10.9692 17.3093 10.078C17.3101 9.14406 17.6251 8.7171 18.5499 8.41629C18.294 5.78256 17.0675 3.76824 14.9028 2.42672C13.4836 1.54773 12.0161 1.10136 10.5403 1.10136C9.18003 1.10136 7.79648 1.48061 6.42872 2.22779C3.77214 3.67929 2.5282 6.44079 2.48582 8.41952C3.43228 8.7551 3.69403 9.14325 3.69403 10.1815C3.69403 10.505 3.69403 10.8284 3.69486 11.1519C3.6957 11.9468 3.69653 12.7684 3.69237 13.577C3.68822 14.4786 3.07081 15.1086 2.19249 15.1086C2.06286 15.1086 1.92825 15.0948 1.79363 15.0665C0.769057 14.8563 0.0560941 14.0517 0.0203629 13.0635C-0.0120446 12.174 0.000419834 11.2595 0.0153771 10.4726C0.0278415 9.77641 0.366042 9.20632 1.04909 8.73004C1.16376 8.64998 1.26763 8.48259 1.27677 8.36372C1.60749 4.06259 5.02689 0.571706 9.40605 0.0638823C9.77001 0.0210245 10.1398 0 10.5046 0C12.6792 0 14.7965 0.757692 16.4667 2.1348C18.1502 3.52242 19.2712 5.45425 19.6244 7.5745C19.6327 7.62544 19.6368 7.67558 19.6401 7.7249L19.6418 7.74269C19.68 8.24566 19.7133 8.6799 20.2409 8.9888C20.7071 9.2605 20.9788 9.7942 20.9888 10.4524C20.9996 11.2239 21.0079 12.1344 20.9888 13.0417C20.973 13.7727 20.6232 14.3622 19.9758 14.7471C19.764 14.8724 19.7257 15.0034 19.7232 15.2323C19.7224 15.3099 19.7216 15.3875 19.7216 15.466C19.7199 15.8719 19.7183 16.2924 19.6327 16.6927C19.3634 17.955 18.1901 18.9189 16.8423 18.9844C16.6861 18.9916 16.5307 18.9932 16.4135 18.9932C16.3495 18.9932 16.0953 18.9916 16.0321 18.9916C15.8659 18.9916 15.6706 18.9932 15.4754 19.0086C15.3358 19.0191 15.1555 19.1137 15.0906 19.2108C14.7632 19.6968 14.3303 19.9547 13.8027 19.9774C13.5434 19.9871 13.2044 20 12.8637 20ZM12.911 18.0083C12.6634 18.0083 12.4216 18.0124 12.1906 18.0213C11.8939 18.0318 11.7435 18.1725 11.7427 18.4385C11.7419 18.6981 11.8898 18.8348 12.1931 18.8574C12.2762 18.8631 12.3651 18.8663 12.4739 18.8663C12.5487 18.8663 12.6227 18.8647 12.6975 18.8639C12.7731 18.8622 12.8487 18.8614 12.9243 18.8614C13.0074 18.8614 13.0839 18.8622 13.1603 18.8631C13.2359 18.8639 13.3124 18.8655 13.388 18.8655C13.4969 18.8655 13.5858 18.8631 13.6697 18.859C13.8417 18.8501 14.1292 18.7838 14.1276 18.4426C14.1267 18.1878 13.9564 18.0302 13.673 18.0221C13.4046 18.0124 13.1553 18.0083 12.911 18.0083ZM2.18501 9.54919C2.16258 9.54919 2.13931 9.54999 2.11521 9.55242C1.63159 9.59285 1.2103 9.98181 1.19451 10.4023C1.16293 11.2619 1.1621 12.17 1.19285 13.1031C1.20531 13.501 1.57924 13.8835 2.02464 13.9563C2.08363 13.966 2.13765 13.9708 2.18584 13.9708C2.36201 13.9708 2.52487 13.9191 2.5282 13.543C2.53235 13.1234 2.53069 12.6972 2.52986 12.2848V11.8061V9.90579C2.52986 9.65916 2.4235 9.54919 2.18501 9.54919ZM18.7934 9.55161C18.6039 9.55161 18.4768 9.62277 18.4735 9.96968C18.4693 10.3902 18.4701 10.8179 18.471 11.2311C18.471 11.4034 18.4718 11.5748 18.4718 11.7471C18.4718 11.9274 18.4718 12.1077 18.471 12.2872C18.4701 12.7061 18.4693 13.1395 18.4735 13.5649C18.4768 13.8988 18.6131 13.9676 18.8158 13.9676C18.859 13.9676 18.9072 13.9635 18.9596 13.9563C19.4233 13.8899 19.7972 13.5042 19.8113 13.0781C19.8387 12.2411 19.8396 11.3589 19.8146 10.4573C19.8022 10.0198 19.4648 9.66401 18.9745 9.57021C18.9081 9.55808 18.8466 9.55161 18.7934 9.55161Z" fill="#DA126A"/>
<path d="M18.6469 15.0536C17.6024 14.6841 17.3921 14.3881 17.3921 13.3118C17.3921 12.2339 17.3913 11.156 17.3921 10.0781C17.393 9.15947 17.6888 8.76728 18.6386 8.47293C18.4017 5.8667 17.2209 3.76748 14.9466 2.35803C12.1662 0.634822 9.26285 0.586304 6.3869 2.15748C3.74445 3.60171 2.42156 6.35754 2.40078 8.47617C3.36304 8.80528 3.60983 9.15381 3.61066 10.1816C3.61066 11.3137 3.61482 12.445 3.609 13.577C3.60401 14.5822 2.81793 15.1951 1.80997 14.9881C0.841906 14.79 0.137252 14.0234 0.102352 13.0619C0.0707754 12.2007 0.0815778 11.3379 0.097366 10.4759C0.110661 9.74492 0.498719 9.21445 1.09701 8.7972C1.22581 8.70744 1.34713 8.52145 1.35876 8.37185C1.68616 4.12247 5.08312 0.646143 9.41491 0.14398C14.2852 -0.420448 18.7557 2.86504 19.5418 7.58667C19.551 7.64004 19.5543 7.69341 19.5584 7.74759C19.5975 8.26269 19.6374 8.72927 20.1974 9.05677C20.6835 9.3406 20.8971 9.88239 20.9046 10.4525C20.917 11.3145 20.9229 12.1773 20.9046 13.0393C20.8896 13.7493 20.5498 14.3097 19.9315 14.6776C19.6897 14.8215 19.6415 14.9833 19.639 15.2315C19.6332 15.7143 19.6498 16.2083 19.5501 16.6757C19.2842 17.9227 18.1416 18.8397 16.837 18.9035C16.3808 18.9254 15.9222 18.893 15.4676 18.9278C15.3097 18.9399 15.1037 19.041 15.0197 19.1655C14.7239 19.6046 14.33 19.8723 13.7974 19.8957C13.2174 19.9208 12.6324 19.9354 12.0549 19.8909C11.2031 19.8254 10.6547 19.2189 10.6597 18.4224C10.6647 17.6396 11.248 17.0243 12.0873 16.9725C12.6523 16.9377 13.2232 16.9426 13.7891 16.9741C14.3151 17.004 14.7198 17.262 15.0123 17.7051C15.0895 17.8224 15.2765 17.9275 15.4194 17.9356C15.8748 17.9615 16.3335 17.9558 16.7888 17.9316C17.8084 17.8766 18.6219 17.0461 18.6452 16.0523C18.6535 15.7159 18.6469 15.3803 18.6469 15.0536ZM2.61268 11.8053C2.61268 11.1722 2.61268 10.539 2.61268 9.90503C2.61268 9.5751 2.42571 9.44411 2.10829 9.47079C1.60306 9.51284 1.12942 9.91311 1.11197 10.3983C1.07873 11.2991 1.08122 12.2032 1.11031 13.1048C1.12526 13.5682 1.55071 13.9595 2.0119 14.0355C2.42405 14.1027 2.60852 13.9563 2.61268 13.5439C2.61683 12.9649 2.61351 12.3851 2.61268 11.8053ZM18.3893 11.7479C18.3893 12.3544 18.3843 12.9609 18.3909 13.5665C18.3951 13.9547 18.5762 14.0938 18.9726 14.0372C19.4512 13.9684 19.8792 13.5673 19.895 13.0822C19.9241 12.2072 19.9232 11.3307 19.8983 10.4565C19.8842 9.96406 19.4953 9.58804 18.9917 9.49181C18.5771 9.41257 18.3943 9.55246 18.3901 9.96891C18.3851 10.5624 18.3893 11.1552 18.3893 11.7479ZM12.9299 18.9407C13.1775 18.9407 13.426 18.9512 13.6736 18.9383C13.9902 18.9213 14.2112 18.7539 14.2104 18.441C14.2087 18.1313 13.9918 17.9493 13.6752 17.9396C13.18 17.9243 12.6831 17.9218 12.1878 17.9404C11.8804 17.9518 11.661 18.1022 11.6602 18.4378C11.6593 18.7733 11.8787 18.9149 12.187 18.9367C12.433 18.9545 12.6822 18.9407 12.9299 18.9407Z" fill="#DA126A"/>
<path d="M8.36588 15.2711C8.22794 15.2711 8.08502 15.2444 7.94043 15.1911C7.47842 15.0204 7.23578 14.6557 7.2391 14.1342C7.2391 14.0808 7.2391 14.0274 7.23827 13.9749C7.23661 13.8932 7.24408 13.8075 7.25073 13.7242C7.26486 13.5503 7.27982 13.3708 7.21085 13.2706C7.156 13.1913 6.98815 13.1582 6.82528 13.1258C6.73637 13.108 6.64496 13.0902 6.5627 13.0635C5.69352 12.7773 5.10353 12.0018 5.09439 11.1325C5.07777 9.45945 5.07777 8.07264 5.09522 6.7675C5.11018 5.66048 6.03255 4.76612 7.19506 4.73297C7.22331 4.73216 7.25239 4.73135 7.28065 4.73135H10.5189C10.8355 4.73135 11.1513 4.73054 11.4679 4.73054C11.7994 4.72974 12.131 4.72974 12.4625 4.72974C12.8664 4.72974 13.2702 4.73054 13.674 4.73297C14.9803 4.74187 15.8994 5.62651 15.9093 6.88556C15.9201 8.24003 15.9201 9.62684 15.9093 11.008C15.8994 12.2816 15.0036 13.1501 13.6815 13.1695C13.4995 13.1719 13.3176 13.1727 13.1356 13.1727C12.9802 13.1727 12.8256 13.1719 12.6702 13.1711C12.5157 13.1703 12.3603 13.1703 12.2057 13.1703C11.8301 13.1703 11.5435 13.1743 11.2759 13.1824C11.1047 13.1881 10.8928 13.2754 10.7607 13.3943C10.2821 13.8253 9.8159 14.2862 9.36469 14.7326L9.1985 14.8967C8.94672 15.145 8.66586 15.2711 8.36588 15.2711ZM8.40327 14.1002C8.55783 13.9474 8.71239 13.7962 8.86695 13.6441C9.27163 13.2479 9.6896 12.8371 10.0876 12.4231C10.3461 12.1538 10.6369 12.0333 11.0291 12.0333H11.0665C11.4762 12.0414 11.9074 12.0455 12.347 12.0455C12.7866 12.0455 13.2353 12.0414 13.7189 12.0341C14.3496 12.0244 14.7435 11.6339 14.7468 11.0153C14.7551 9.53384 14.7551 8.17372 14.746 6.85726C14.7418 6.26615 14.3355 5.86749 13.7355 5.86587C12.6619 5.86264 11.5792 5.86021 10.5164 5.86021C9.43117 5.86021 8.3368 5.86183 7.2632 5.86587C6.66408 5.8683 6.25857 6.26776 6.25524 6.85968C6.2461 8.31119 6.2461 9.72387 6.25607 11.0581C6.26023 11.6217 6.64912 12.005 7.24658 12.035C7.31305 12.0382 7.38036 12.0382 7.44767 12.0382H7.47343C7.5075 12.0382 7.54157 12.0382 7.57564 12.039C8.20384 12.0471 8.39663 12.2347 8.40244 12.8395C8.40493 13.142 8.4041 13.4444 8.4041 13.7468C8.4041 13.8641 8.40327 13.9813 8.40327 14.0986V14.1002Z" fill="#DA126A"/>
<path d="M10.5215 4.81142C11.5734 4.81142 12.6246 4.80576 13.6766 4.81304C14.9422 4.82113 15.8197 5.66049 15.8296 6.88558C15.8413 8.25945 15.8404 9.63251 15.8296 11.0064C15.8197 12.2355 14.9571 13.0692 13.6833 13.0878C12.8805 13.0999 12.0778 13.0757 11.276 13.1016C11.0815 13.108 10.8505 13.2051 10.7068 13.3344C10.1691 13.8188 9.65643 14.3307 9.14206 14.8393C8.80719 15.1701 8.41747 15.28 7.97207 15.1159C7.51754 14.9485 7.32143 14.5992 7.32392 14.1358C7.32392 14.0816 7.32392 14.0283 7.32309 13.9741C7.31811 13.7186 7.40453 13.4032 7.28154 13.2253C7.17186 13.0668 6.8295 13.0652 6.59185 12.9867C5.76504 12.715 5.18919 11.9808 5.18005 11.1317C5.16592 9.6778 5.16177 8.22306 5.18088 6.76832C5.19501 5.68879 6.08746 4.84539 7.20011 4.81385C7.22753 4.81304 7.25578 4.81223 7.28321 4.81223C8.36262 4.81142 9.44204 4.81142 10.5215 4.81142ZM8.32107 14.1512C8.35514 14.1665 8.39004 14.1819 8.42411 14.1965C9.00163 13.6247 9.58912 13.0627 10.1508 12.4773C10.4093 12.208 10.6951 12.1069 11.0674 12.1142C11.9524 12.1312 12.8382 12.1288 13.7231 12.1142C14.4045 12.1037 14.8291 11.6808 14.8325 11.0153C14.8408 9.62928 14.8416 8.24247 14.8316 6.85646C14.8275 6.21926 14.3871 5.78664 13.7381 5.78502C11.5801 5.77774 9.42293 5.77774 7.26493 5.78502C6.61595 5.78745 6.17803 6.22088 6.17388 6.85889C6.16474 8.25864 6.1639 9.65839 6.17471 11.0581C6.17886 11.6711 6.61345 12.0835 7.24415 12.1158C7.35467 12.1215 7.46519 12.1183 7.5757 12.1199C8.15571 12.128 8.31526 12.28 8.32024 12.8404C8.3244 13.2778 8.32107 13.7145 8.32107 14.1512Z" fill="#DA126A"/>
<path d="M8.07859 9.82806C7.63984 9.82806 7.26591 9.46417 7.26175 9.03398C7.2576 8.60055 7.62738 8.23019 8.07028 8.22534H8.07859C8.50487 8.22534 8.89791 8.60378 8.9029 9.01861C8.90539 9.21754 8.81731 9.42051 8.66026 9.57657C8.50237 9.73426 8.29297 9.82563 8.08606 9.82725H8.07859V9.82806Z" fill="#DA126A"/>
<path d="M8.82348 9.01942C8.82846 9.39382 8.47531 9.74234 8.08891 9.74719C7.6967 9.75124 7.35185 9.41889 7.34769 9.03317C7.34354 8.64745 7.68091 8.31025 8.07478 8.3062C8.45952 8.30135 8.81849 8.6434 8.82348 9.01942Z" fill="#DA126A"/>
<path d="M12.9187 9.82806C12.7126 9.82725 12.5032 9.7383 12.3453 9.58304C12.1874 9.42778 12.0968 9.22401 12.0977 9.02347C12.0993 8.6054 12.4924 8.22534 12.9211 8.22534C13.3607 8.22777 13.7413 8.60378 13.7396 9.02913C13.738 9.45447 13.3557 9.82725 12.922 9.82725H12.9187V9.82806Z" fill="#DA126A"/>
<path d="M13.6555 9.02925C13.6538 9.41497 13.3106 9.74813 12.9184 9.74732C12.5312 9.74571 12.178 9.40042 12.1797 9.0244C12.1814 8.64839 12.537 8.30472 12.9242 8.30714C13.3173 8.30876 13.6571 8.64434 13.6555 9.02925Z" fill="#DA126A"/>
<path d="M10.4885 9.82806C10.049 9.82159 9.66922 9.44234 9.67587 9.01619C9.68251 8.59489 10.0664 8.22534 10.4985 8.22534H10.5102C10.7187 8.22858 10.9273 8.31914 11.0835 8.4744C11.2397 8.62966 11.327 8.83505 11.3237 9.0364C11.317 9.4577 10.9323 9.82806 10.501 9.82806H10.4885Z" fill="#DA126A"/>
<path d="M10.493 9.74721C10.1008 9.74155 9.75597 9.39707 9.76179 9.01782C9.76761 8.63534 10.1208 8.30056 10.5113 8.30622C10.9035 8.31188 11.2492 8.65636 11.2426 9.03561C11.2367 9.41648 10.8819 9.75287 10.493 9.74721Z" fill="#DA126A"/>
</svg>
