<svg width="40" height="39" viewBox="0 0 40 39" fill="none" xmlns="http://www.w3.org/2000/svg">
<path d="M4.75104 38.3647C2.23464 35.7684 0.770575 32.331 0.642052 28.7177C0.513528 25.1043 1.72968 21.5716 4.05526 18.8031C6.38083 16.0346 9.65054 14.2269 13.2319 13.7298C16.8132 13.2327 20.4516 14.0815 23.4433 16.112L26.5763 18.9846C27.2947 19.866 27.9077 20.8284 28.4028 21.852L27.3117 36.4371C26.8429 37.1231 26.3166 37.7679 25.7386 38.3647H4.75104Z" fill="#2D9739"/>
<path d="M28.4019 21.8521C27.9068 20.8284 27.2938 19.866 26.5753 18.9846L23.4424 16.1114L23.3871 16.0739C21.5412 14.8431 19.3723 14.1863 17.1536 14.1863C14.935 14.1863 12.766 14.8431 10.9201 16.0739C9.14475 17.2646 7.65237 18.8305 6.5483 20.661C5.44423 22.4915 4.75538 24.542 4.53037 26.6678C4.30536 28.7937 4.54967 30.9429 5.24607 32.964C5.94246 34.9851 7.07397 36.8287 8.56072 38.3647H25.7376C26.3157 37.7679 26.842 37.1231 27.3108 36.4372L28.4019 21.8521Z" fill="#44BC59"/>
<path d="M27.6112 20.4306C27.2955 19.9283 26.9496 19.4456 26.5754 18.9852L25.1737 17.6997C24.499 18.1604 23.7674 18.5317 22.9972 18.8041L20.2206 19.7504C20.0644 19.8051 19.9292 19.9072 19.834 20.0425C19.7388 20.1778 19.6883 20.3395 19.6896 20.5049V24.8681C19.6868 25.0073 19.7215 25.1448 19.79 25.266C19.8586 25.3873 19.9586 25.4878 20.0794 25.5571C20.2002 25.6264 20.3374 25.6619 20.4767 25.6599C20.616 25.6579 20.7521 25.6185 20.8709 25.5457L23.6609 23.8018C25.1309 22.8711 26.461 21.736 27.6112 20.4306Z" fill="#2D9739"/>
<path d="M18.4191 11.0552H12.0681C11.3665 11.0552 10.7979 11.6239 10.7979 12.3254C10.7979 13.0269 11.3665 13.5956 12.0681 13.5956H18.4191C19.1206 13.5956 19.6893 13.0269 19.6893 12.3254C19.6893 11.6239 19.1206 11.0552 18.4191 11.0552Z" fill="#FFC239"/>
<path d="M15.2443 33.9187C19.4533 33.9187 22.8655 30.5066 22.8655 26.2975C22.8655 22.0884 19.4533 18.6763 15.2443 18.6763C11.0352 18.6763 7.62305 22.0884 7.62305 26.2975C7.62305 30.5066 11.0352 33.9187 15.2443 33.9187Z" fill="#ABE4A3"/>
<path d="M15.2432 18.6763C13.7658 18.6751 12.3202 19.106 11.0846 19.916C10.1264 21.3798 9.70141 23.1289 9.88111 24.8692C10.0608 26.6094 10.8342 28.2348 12.0714 29.4719C13.3085 30.709 14.9338 31.4824 16.6741 31.6621C18.4144 31.8418 20.1635 31.4169 21.6273 30.4587C22.3787 29.3091 22.8053 27.9777 22.8619 26.6055C22.9185 25.2333 22.6029 23.8713 21.9487 22.6638C21.2944 21.4563 20.3258 20.4482 19.1453 19.7462C17.9649 19.0442 16.6166 18.6745 15.2432 18.6763Z" fill="#CDF8C8"/>
<path d="M12.0687 11.0557L10.3031 7.88025C9.86807 6.82471 10.4613 5.33984 11.4336 5.33984H19.0548C20.0271 5.33984 20.6203 6.82471 20.1853 7.88025L18.4197 11.0557H12.0687Z" fill="#2D9739"/>
<path d="M15.2435 25.6627C14.9923 25.6627 14.7467 25.5883 14.5378 25.4487C14.329 25.3091 14.1662 25.1107 14.07 24.8786C13.9739 24.6465 13.9487 24.3911 13.9977 24.1447C14.0467 23.8983 14.1677 23.672 14.3454 23.4944C14.523 23.3167 14.7493 23.1958 14.9957 23.1467C15.2421 23.0977 15.4975 23.1229 15.7296 23.219C15.9617 23.3152 16.1601 23.478 16.2997 23.6869C16.4392 23.8957 16.5137 24.1413 16.5137 24.3925H17.7839C17.7818 23.831 17.5937 23.2859 17.249 22.8426C16.9043 22.3993 16.4224 22.0827 15.8786 21.9423V21.217H14.6084V21.9423C14.0104 22.0962 13.4891 22.4631 13.1424 22.9741C12.7957 23.4851 12.6474 24.1051 12.7253 24.7177C12.8033 25.3303 13.1021 25.8933 13.5658 26.3012C14.0294 26.7091 14.626 26.9337 15.2435 26.9329C15.4947 26.9329 15.7403 27.0074 15.9492 27.147C16.1581 27.2866 16.3209 27.485 16.417 27.7171C16.5132 27.9492 16.5383 28.2046 16.4893 28.451C16.4403 28.6973 16.3193 28.9237 16.1417 29.1013C15.9641 29.279 15.7377 29.3999 15.4913 29.4489C15.2449 29.498 14.9895 29.4728 14.7574 29.3767C14.5253 29.2805 14.327 29.1177 14.1874 28.9088C14.0478 28.7 13.9733 28.4544 13.9733 28.2031H12.7031C12.7052 28.7647 12.8933 29.3098 13.2381 29.7531C13.5828 30.1964 14.0647 30.513 14.6084 30.6534V31.3787H15.8786V30.6534C16.4767 30.4994 16.998 30.1326 17.3447 29.6216C17.6914 29.1106 17.8397 28.4906 17.7617 27.878C17.6838 27.2654 17.3849 26.7024 16.9213 26.2945C16.4576 25.8866 15.861 25.662 15.2435 25.6627Z" fill="#2D9739"/>
<path d="M22.8652 26.2983H25.4056V36.4599H22.8652V26.2983Z" fill="#FFC239"/>
<path d="M27.3105 21.8525H29.8509V36.4599H27.3105V21.8525Z" fill="#FFC239"/>
<path d="M31.7568 17.4067H34.2972V36.4598H31.7568V17.4067Z" fill="#FFC239"/>
<path d="M22.6289 24.4464C22.1998 22.7348 21.1896 21.2254 19.771 20.176C19.7211 20.2787 19.694 20.3909 19.6916 20.505V24.8681C19.6887 25.0074 19.7234 25.1449 19.792 25.2661C19.8606 25.3873 19.9605 25.4879 20.0813 25.5572C20.2021 25.6265 20.3394 25.662 20.4786 25.66C20.6179 25.658 20.7541 25.6185 20.8729 25.5458L22.6289 24.4464Z" fill="#ABE4A3"/>
<path d="M36.2021 13.5959H38.7426V36.4596H36.2021V13.5959Z" fill="#FFC239"/>
<path d="M18.4189 28.8381H20.9593V36.4593H18.4189V28.8381Z" fill="#FFC239"/>
<path d="M12.0678 11.0552C11.8506 11.0565 11.6375 11.114 11.4492 11.2222C11.4896 11.5265 11.6388 11.806 11.8693 12.0088C12.0998 12.2116 12.3959 12.3241 12.7029 12.3254H19.0539C19.2711 12.3241 19.4842 12.2665 19.6725 12.1583C19.6321 11.854 19.4829 11.5746 19.2524 11.3718C19.0219 11.169 18.7258 11.0565 18.4188 11.0552H12.0678Z" fill="#FFD55D"/>
<path d="M20.1854 7.87971C20.6204 6.82417 20.0273 5.33931 19.0549 5.33931H12.4734C12.3207 5.3362 12.1695 5.37009 12.0328 5.43808C11.896 5.50607 11.7778 5.60615 11.6881 5.72977C11.5985 5.85338 11.54 5.99686 11.5178 6.14796C11.4957 6.29905 11.5104 6.45327 11.5607 6.59744L11.5658 6.60951L12.5064 8.30142C12.7567 8.75148 13.1228 9.12638 13.5668 9.38725C14.0109 9.64812 14.5166 9.78546 15.0316 9.78501H19.1261L20.1854 7.87971Z" fill="#44BC59"/>
<path d="M19.6895 28.8389V34.5548C19.6895 34.8917 19.8233 35.2147 20.0615 35.4529C20.2997 35.6912 20.6228 35.825 20.9597 35.825V28.8389H19.6895Z" fill="#FFD55D"/>
<path d="M24.1357 26.2983V34.5546C24.1357 34.8915 24.2696 35.2146 24.5078 35.4528C24.746 35.691 25.0691 35.8248 25.4059 35.8248V26.2983H24.1357Z" fill="#FFD55D"/>
<path d="M28.5811 21.8525V34.5546C28.5811 34.8914 28.7149 35.2145 28.9531 35.4527C29.1913 35.6909 29.5144 35.8248 29.8513 35.8248V21.8525H28.5811Z" fill="#FFD55D"/>
<path d="M33.0273 17.4067V34.5545C33.0273 34.8913 33.1612 35.2144 33.3994 35.4526C33.6376 35.6908 33.9607 35.8247 34.2975 35.8247V17.4067H33.0273Z" fill="#FFD55D"/>
<path d="M37.4727 13.5967V34.555C37.4727 34.8919 37.6065 35.215 37.8447 35.4532C38.0829 35.6914 38.406 35.8252 38.7429 35.8252V13.5967H37.4727Z" fill="#FFD55D"/>
<path d="M37.1581 8.05076C37.1891 8.15963 37.1905 8.27484 37.1621 8.38443C37.1337 8.49403 37.0765 8.59404 36.9964 8.6741C36.9164 8.75416 36.8163 8.81136 36.7068 8.83978C36.5972 8.8682 36.482 8.86681 36.3731 8.83574L33.0267 7.87992C31.4263 13.2002 28.3054 18.373 23.6609 21.2755L20.8709 23.0194C20.7521 23.0922 20.616 23.1316 20.4767 23.1336C20.3374 23.1356 20.2002 23.1001 20.0794 23.0308C19.9586 22.9615 19.8586 22.861 19.79 22.7397C19.7215 22.6185 19.6868 22.481 19.6896 22.3418V17.978C19.6886 17.8128 19.7392 17.6514 19.8344 17.5163C19.9296 17.3813 20.0646 17.2793 20.2206 17.2248L22.9972 16.2785C26.7126 15.0127 30.3536 11.1723 31.1214 7.24481L28.2895 5.82918C28.19 5.77942 28.1052 5.70438 28.0438 5.61157C27.9824 5.51875 27.9464 5.41143 27.9395 5.30034C27.9327 5.18926 27.9551 5.07832 28.0046 4.97863C28.0541 4.87895 28.1289 4.79402 28.2216 4.73236L34.2074 0.741384C34.2906 0.685949 34.3856 0.65093 34.4849 0.639174C34.5842 0.627417 34.6848 0.639257 34.7786 0.67373C34.8725 0.708202 34.9568 0.764334 35.0249 0.837559C35.0929 0.910785 35.1427 0.999036 35.1702 1.09514L37.1581 8.05076Z" fill="#F3A606"/>
<path d="M20.8709 21.3733L23.6609 19.6293C27.9751 16.9333 30.9747 12.2774 32.6628 7.36421C32.7696 7.05965 32.989 6.80759 33.276 6.65991C33.5629 6.51224 33.8956 6.48018 34.2055 6.57034L36.3731 7.18956C36.4598 7.21464 36.5509 7.22058 36.6402 7.20698C36.7295 7.19339 36.8147 7.16057 36.89 7.11081L35.1702 1.09514C35.1427 0.999036 35.0929 0.910785 35.0248 0.837559C34.9568 0.764334 34.8724 0.708202 34.7786 0.67373C34.6848 0.639257 34.5842 0.627417 34.4849 0.639174C34.3856 0.65093 34.2905 0.685949 34.2074 0.741384L28.2215 4.73236C28.1289 4.79402 28.0541 4.87895 28.0046 4.97863C27.9551 5.07832 27.9326 5.18926 27.9395 5.30034C27.9464 5.41143 27.9824 5.51875 28.0438 5.61156C28.1052 5.70438 28.1899 5.77942 28.2895 5.82917L31.1214 7.24481C30.3536 11.1723 26.7125 15.0127 22.9972 16.2791L20.2205 17.2254C20.0647 17.2799 19.9297 17.3818 19.8345 17.5167C19.7394 17.6516 19.6887 17.8129 19.6896 17.978V20.6962C19.6869 20.8354 19.7216 20.9728 19.7903 21.094C19.8589 21.2151 19.9588 21.3155 20.0796 21.3848C20.2004 21.454 20.3376 21.4895 20.4768 21.4874C20.6161 21.4854 20.7522 21.446 20.8709 21.3733Z" fill="#FFC239"/>
<path d="M15.2435 23.1223C15.5804 23.1223 15.9035 23.2562 16.1417 23.4944C16.3799 23.7326 16.5137 24.0557 16.5137 24.3925H17.7839C17.7818 23.831 17.5937 23.2859 17.249 22.8426C16.9043 22.3993 16.4224 22.0827 15.8786 21.9423V21.217H14.6084V21.9423C14.0104 22.0962 13.4891 22.4631 13.1424 22.9741C12.7957 23.4851 12.6474 24.1051 12.7253 24.7177C12.8033 25.3303 13.1021 25.8933 13.5658 26.3012C14.0294 26.7091 14.626 26.9337 15.2435 26.9329C15.4947 26.9329 15.7403 27.0074 15.9492 27.147C16.1581 27.2866 16.3209 27.485 16.417 27.7171C16.5132 27.9492 16.5383 28.2046 16.4893 28.451C16.4403 28.6973 16.3193 28.9237 16.1417 29.1013C15.9641 29.279 15.7377 29.3999 15.4913 29.4489C15.2449 29.498 14.9895 29.4728 14.7574 29.3767C14.5253 29.2805 14.327 29.1177 14.1874 28.9088C14.0478 28.7 13.9733 28.4544 13.9733 28.2031H12.7031C12.7052 28.7647 12.8933 29.3098 13.2381 29.7531C13.5828 30.1964 14.0647 30.513 14.6084 30.6534V31.3787H15.8786V30.6534C16.4767 30.4994 16.998 30.1326 17.3447 29.6216C17.6914 29.1106 17.8397 28.4906 17.7617 27.878C17.6838 27.2654 17.3849 26.7024 16.9213 26.2945C16.4576 25.8866 15.861 25.662 15.2435 25.6627C14.9066 25.6627 14.5836 25.5289 14.3454 25.2907C14.1072 25.0525 13.9733 24.7294 13.9733 24.3925C13.9733 24.0557 14.1072 23.7326 14.3454 23.4944C14.5836 23.2562 14.9066 23.1223 15.2435 23.1223Z" fill="black"/>
<path d="M31.7572 16.7712C31.5887 16.7712 31.4272 16.8382 31.3081 16.9573C31.189 17.0764 31.1221 17.2379 31.1221 17.4063V36.4594C31.1221 36.6278 31.189 36.7893 31.3081 36.9084C31.4272 37.0275 31.5887 37.0945 31.7572 37.0945H34.2976C34.466 37.0945 34.6276 37.0275 34.7467 36.9084C34.8658 36.7893 34.9327 36.6278 34.9327 36.4594V17.4063C34.9327 17.2379 34.8658 17.0764 34.7467 16.9573C34.6276 16.8382 34.466 16.7712 34.2976 16.7712H31.7572ZM33.6625 35.8243H32.3923V18.0414H33.6625V35.8243Z" fill="black"/>
<path d="M38.7429 12.9612H36.2025C36.034 12.9612 35.8725 13.0281 35.7534 13.1472C35.6343 13.2663 35.5674 13.4278 35.5674 13.5963V36.4599C35.5674 36.6283 35.6343 36.7899 35.7534 36.909C35.8725 37.0281 36.034 37.095 36.2025 37.095H38.7429C38.9113 37.095 39.0729 37.0281 39.192 36.909C39.3111 36.7899 39.378 36.6283 39.378 36.4599V13.5963C39.378 13.4278 39.3111 13.2663 39.192 13.1472C39.0729 13.0281 38.9113 12.9612 38.7429 12.9612ZM38.1078 35.8248H36.8376V14.2314H38.1078V35.8248Z" fill="black"/>
<path d="M27.6119 37.0947H29.8512C30.0197 37.0947 30.1812 37.0278 30.3003 36.9087C30.4194 36.7896 30.4863 36.628 30.4863 36.4596V21.8523C30.4863 21.6838 30.4194 21.5223 30.3003 21.4032C30.1812 21.2841 30.0197 21.2172 29.8512 21.2172H28.7868C28.3923 20.4543 27.9343 19.726 27.4175 19.0401C30.2048 16.0938 32.2701 12.5407 33.451 8.66061L36.2022 9.4475C36.4195 9.50868 36.6492 9.51086 36.8676 9.45379C37.086 9.39673 37.2853 9.28249 37.4449 9.12283C37.6045 8.96317 37.7186 8.76387 37.7756 8.54544C37.8326 8.32701 37.8303 8.09734 37.769 7.88007L35.7812 0.921273C35.7262 0.72902 35.6267 0.552449 35.4907 0.405926C35.3546 0.259402 35.1859 0.147066 34.9982 0.0780553C34.8106 0.00904507 34.6093 -0.0146893 34.4107 0.00878331C34.2121 0.0322559 34.0219 0.102272 33.8555 0.213136L27.8691 4.20411C27.684 4.32752 27.5345 4.4974 27.4356 4.69673C27.3368 4.89607 27.2921 5.11786 27.3059 5.33993C27.3197 5.56199 27.3916 5.77652 27.5144 5.96206C27.6372 6.14759 27.8066 6.29761 28.0056 6.39711L30.3923 7.59046C29.5667 10.773 26.6935 14.0151 23.5021 15.4022C22.348 14.6528 21.0972 14.0642 19.7842 13.6525C19.9876 13.445 20.1405 13.1933 20.2308 12.9172C20.3212 12.641 20.3467 12.3477 20.3054 12.0601C20.264 11.7725 20.157 11.4982 19.9925 11.2587C19.8279 11.0192 19.6104 10.8208 19.3568 10.679L20.7401 8.19063C20.7521 8.16904 20.763 8.14678 20.7725 8.12395C20.9339 7.70403 20.994 7.25193 20.9478 6.80442C20.9015 6.35691 20.7503 5.92664 20.5064 5.54862C20.3537 5.29821 20.141 5.08986 19.8875 4.94247C19.634 4.79508 19.3476 4.71331 19.0545 4.70457H11.4333C11.1404 4.7131 10.8542 4.79459 10.6007 4.94164C10.3471 5.08869 10.1343 5.29666 9.98147 5.54671C9.73754 5.92474 9.58631 6.35501 9.54006 6.80252C9.49382 7.25002 9.55389 7.70213 9.71536 8.12204C9.72487 8.14487 9.73569 8.16714 9.74775 8.18873L11.131 10.6745C10.8773 10.8164 10.6598 11.0148 10.4953 11.2545C10.3307 11.4941 10.2237 11.7684 10.1824 12.0561C10.1411 12.3438 10.1667 12.6372 10.2572 12.9134C10.3477 13.1896 10.5007 13.4412 10.7042 13.6487C8.33538 14.3875 6.18274 15.6934 4.43324 17.4531C2.68373 19.2127 1.39029 21.3729 0.665228 23.746C-0.0598296 26.1191 -0.19457 28.6333 0.27271 31.0702C0.73999 33.5072 1.79516 35.7932 3.34657 37.7298H0.6366V39H38.7426V37.7298H27.1368C27.3026 37.5234 27.4575 37.3094 27.6119 37.0947ZM29.2161 35.8245H27.9459V22.4874H29.2161V35.8245ZM31.7445 7.36627C31.7711 7.23004 31.7523 7.08885 31.6911 6.96429C31.6298 6.83973 31.5294 6.73866 31.4053 6.67655L28.5734 5.26092L34.5592 1.26994L36.5471 8.22556L33.2007 7.2691C33.0402 7.22333 32.8682 7.24257 32.7217 7.32268C32.5753 7.40278 32.4663 7.53731 32.4183 7.69716C30.6603 13.5401 27.4302 18.1706 23.3243 20.7377L20.5337 22.481C20.515 22.4936 20.4932 22.5007 20.4707 22.5014C20.4482 22.502 20.426 22.4963 20.4066 22.4848C20.3809 22.4711 20.3596 22.4505 20.3451 22.4252C20.3306 22.3999 20.3236 22.3711 20.3247 22.3419V17.9782C20.3239 17.9456 20.3331 17.9135 20.351 17.8863C20.369 17.859 20.3948 17.8379 20.4251 17.8257L23.2017 16.8794C27.2841 15.4886 30.9563 11.3985 31.7445 7.36627ZM24.7704 26.9331V35.8245H23.5002V26.9331H24.7704ZM22.23 26.298C22.2286 27.2986 22.012 28.2871 21.5949 29.1966V28.8384C21.5949 28.67 21.528 28.5084 21.4089 28.3893C21.2898 28.2702 21.1283 28.2033 20.9598 28.2033H18.4194C18.251 28.2033 18.0894 28.2702 17.9703 28.3893C17.8512 28.5084 17.7843 28.67 17.7843 28.8384V32.7976C16.6687 33.2356 15.4592 33.3791 14.2721 33.2146C13.085 33.05 11.9602 32.5828 11.0058 31.8579C10.0514 31.1329 9.29955 30.1747 8.82254 29.0752C8.34553 27.9758 8.15938 26.7721 8.28199 25.5799C8.40461 24.3877 8.83186 23.2471 9.52268 22.2678C10.2135 21.2884 11.1446 20.5033 12.2266 19.9878C13.3086 19.4723 14.5049 19.2438 15.7007 19.3243C16.8965 19.4048 18.0514 19.7916 19.0545 20.4474V22.3419C19.0538 22.5974 19.1214 22.8483 19.2504 23.0688C19.3794 23.2892 19.565 23.4712 19.7881 23.5956C20.006 23.7183 20.253 23.7795 20.503 23.7729C20.7529 23.7663 20.9964 23.6921 21.2075 23.5582L21.5594 23.3378C21.9973 24.2634 22.2262 25.274 22.23 26.298ZM20.3247 29.4735V35.8245H19.0545V29.4735H20.3247ZM11.037 6.25358C11.0773 6.17984 11.134 6.11634 11.2027 6.068C11.2714 6.01966 11.3503 5.98776 11.4333 5.97477H19.0545C19.1375 5.98776 19.2164 6.01966 19.2852 6.068C19.3539 6.11634 19.4106 6.17984 19.4508 6.25358C19.5763 6.45327 19.6557 6.6784 19.6833 6.91261C19.7108 7.14683 19.6859 7.38424 19.6102 7.60761L18.046 10.4205H12.4418L10.8776 7.60761C10.8019 7.38424 10.777 7.14683 10.8046 6.91261C10.8321 6.6784 10.9115 6.45327 11.037 6.25358ZM12.0684 12.9609C11.9 12.9609 11.7384 12.894 11.6193 12.7749C11.5002 12.6558 11.4333 12.4942 11.4333 12.3258C11.4333 12.1573 11.5002 11.9958 11.6193 11.8767C11.7384 11.7576 11.9 11.6907 12.0684 11.6907H18.4194C18.5879 11.6907 18.7494 11.7576 18.8685 11.8767C18.9876 11.9958 19.0545 12.1573 19.0545 12.3258C19.0545 12.4942 18.9876 12.6558 18.8685 12.7749C18.7494 12.894 18.5879 12.9609 18.4194 12.9609H12.0684ZM1.2717 28.2033C1.27037 25.7759 1.9018 23.39 3.10373 21.2811C4.30566 19.1721 6.03657 17.4129 8.12574 16.1769C10.2149 14.9409 12.5902 14.2708 15.0173 14.2327C17.4444 14.1947 19.8395 14.7899 21.9665 15.9598L20.0161 16.6248C19.7345 16.7216 19.4903 16.9043 19.3179 17.147C19.1454 17.3897 19.0533 17.6804 19.0545 17.9782V18.9753C17.8478 18.3472 16.5046 18.027 15.1444 18.0432C13.7841 18.0593 12.4489 18.4114 11.2575 19.068C10.0661 19.7246 9.05535 20.6654 8.31519 21.8068C7.57504 22.9482 7.12839 24.2548 7.01495 25.6104C6.90151 26.966 7.12479 28.3287 7.66495 29.5772C8.20511 30.8257 9.0454 31.9214 10.1111 32.7669C11.1768 33.6124 12.435 34.1815 13.7736 34.4235C15.1123 34.6655 16.49 34.573 17.7843 34.1542V36.4596C17.7843 36.628 17.8512 36.7896 17.9703 36.9087C18.0894 37.0278 18.251 37.0947 18.4194 37.0947H20.9598C21.1283 37.0947 21.2898 37.0278 21.4089 36.9087C21.528 36.7896 21.5949 36.628 21.5949 36.4596V31.5623C21.8255 31.2853 22.0377 30.9933 22.23 30.6884V36.4596C22.23 36.628 22.2969 36.7896 22.416 36.9087C22.5351 37.0278 22.6967 37.0947 22.8651 37.0947H25.4055C25.574 37.0947 25.7355 37.0278 25.8546 36.9087C25.9737 36.7896 26.0406 36.628 26.0406 36.4596V26.298C26.0406 26.1295 25.9737 25.968 25.8546 25.8489C25.7355 25.7298 25.574 25.6629 25.4055 25.6629H23.4735C23.3933 24.6172 23.1146 23.5964 22.6524 22.6551L23.9975 21.8142C24.8829 21.2566 25.7186 20.6239 26.4954 19.9228C26.8009 20.3384 27.0833 20.7705 27.3413 21.2172H27.3108C27.1424 21.2172 26.9808 21.2841 26.8617 21.4032C26.7426 21.5223 26.6757 21.6838 26.6757 21.8523V36.2265C26.3033 36.7551 25.8948 37.2574 25.4532 37.7298H5.03658C2.61374 35.1499 1.26711 31.7425 1.2717 28.2033Z" fill="black"/>
</svg>
