<svg width="39" height="39" viewBox="0 0 39 39" fill="none" xmlns="http://www.w3.org/2000/svg">
<mask id="mask0_1957_3339" style="mask-type:luminance" maskUnits="userSpaceOnUse" x="0" y="0" width="39" height="39">
<path d="M0 0.00012207H38.9999V39H0V0.00012207Z" fill="white"/>
</mask>
<g mask="url(#mask0_1957_3339)">
<path d="M24.5273 31.3831H27.8141L34.5218 25.8218C35.4991 25.0525 36.9098 25.201 37.7058 26.1562C38.5276 27.1418 38.3814 28.6104 37.3805 29.4148L29.074 35.9092C27.2611 37.4143 24.9782 38.2385 22.6215 38.2385C21.2154 38.2385 21.5396 38.1555 7.61719 35.9534V26.8128C7.61719 26.8128 9.66316 24.5276 12.1875 24.5276C14.7118 24.5276 16.7578 26.8128 16.7578 26.8128H24.5273C25.7895 26.8128 26.8124 27.8358 26.8124 29.0979C26.8124 30.3601 25.7895 31.3831 24.5273 31.3831Z" fill="#FFD0C7"/>
<path d="M21.7851 0.762018C16.7372 0.762018 12.6445 4.85396 12.6445 9.90262C12.6445 14.9505 16.7372 19.0432 21.7851 19.0432C26.833 19.0432 30.9257 14.9505 30.9257 9.90262C30.9257 4.85396 26.833 0.762018 21.7851 0.762018Z" fill="#FFCD69"/>
<path d="M7.61717 38.2385H0.761719V24.5276H5.33202C6.59418 24.5276 7.61717 25.5506 7.61717 26.8128V38.2385Z" fill="#27AE60"/>
<path fill-rule="evenodd" clip-rule="evenodd" d="M8.07422 6.09424C8.4949 6.09424 8.83593 5.75321 8.83593 5.33252V0.762224C8.83593 0.341539 8.4949 0.000506878 8.07422 0.000506878C7.65353 0.000506878 7.3125 0.341539 7.3125 0.762224V5.33252C7.3125 5.75321 7.65353 6.09424 8.07422 6.09424Z" fill="black"/>
<path fill-rule="evenodd" clip-rule="evenodd" d="M5.02734 3.04737C5.02734 3.46805 5.36838 3.80908 5.78906 3.80908H10.3594C10.78 3.80908 11.1211 3.46805 11.1211 3.04737C11.1211 2.62668 10.78 2.28565 10.3594 2.28565H5.78906C5.36838 2.28565 5.02734 2.62668 5.02734 3.04737Z" fill="black"/>
<path fill-rule="evenodd" clip-rule="evenodd" d="M35.9531 19.8052C36.3738 19.8052 36.7148 19.4641 36.7148 19.0435V14.4732C36.7148 14.0525 36.3738 13.7114 35.9531 13.7114C35.5324 13.7114 35.1914 14.0525 35.1914 14.4732V19.0435C35.1914 19.4641 35.5324 19.8052 35.9531 19.8052Z" fill="black"/>
<path fill-rule="evenodd" clip-rule="evenodd" d="M32.9062 16.7583C32.9062 17.179 33.2473 17.52 33.668 17.52H38.2383C38.6589 17.52 39 17.179 39 16.7583C39 16.3376 38.6589 15.9966 38.2383 15.9966H33.668C33.2473 15.9966 32.9062 16.3376 32.9062 16.7583Z" fill="black"/>
<path fill-rule="evenodd" clip-rule="evenodd" d="M21.7861 13.7112C20.9446 13.7112 20.2627 13.0292 20.2627 12.1878C20.2627 11.7671 19.9217 11.426 19.501 11.426C19.0803 11.426 18.7393 11.7671 18.7393 12.1878C18.7393 13.8706 20.1033 15.2346 21.7861 15.2346C23.469 15.2346 24.833 13.8706 24.833 12.1878C24.833 10.5049 23.469 9.14089 21.7861 9.14089C20.9446 9.14089 20.2627 8.45893 20.2627 7.61746C20.2627 6.77598 20.9446 6.09402 21.7861 6.09402C22.6276 6.09402 23.3096 6.77598 23.3096 7.61746C23.3096 8.03814 23.6506 8.37917 24.0713 8.37917C24.492 8.37917 24.833 8.03814 24.833 7.61746C24.833 5.93461 23.469 4.57059 21.7861 4.57059C20.1033 4.57059 18.7393 5.93461 18.7393 7.61746C18.7393 9.3003 20.1033 10.6643 21.7861 10.6643C22.6276 10.6643 23.3096 11.3463 23.3096 12.1878C23.3096 13.0292 22.6276 13.7112 21.7861 13.7112Z" fill="black"/>
<path fill-rule="evenodd" clip-rule="evenodd" d="M21.7861 6.09399C22.2068 6.09399 22.5478 5.75296 22.5478 5.33228V0.76198C22.5478 0.341295 22.2068 0.000262737 21.7861 0.000262737C21.3654 0.000262737 21.0244 0.341295 21.0244 0.76198V5.33228C21.0244 5.75296 21.3654 6.09399 21.7861 6.09399Z" fill="black"/>
<path fill-rule="evenodd" clip-rule="evenodd" d="M21.7861 19.8049C22.2068 19.8049 22.5478 19.4639 22.5478 19.0432V14.4729C22.5478 14.0522 22.2068 13.7112 21.7861 13.7112C21.3654 13.7112 21.0244 14.0522 21.0244 14.4729V19.0432C21.0244 19.4639 21.3654 19.8049 21.7861 19.8049Z" fill="black"/>
<path fill-rule="evenodd" clip-rule="evenodd" d="M23.7656 31.3828C23.7656 31.8035 24.1066 32.1445 24.5273 32.1445C26.2101 32.1445 27.5742 30.7805 27.5742 29.0977C27.5742 27.4148 26.2101 26.0508 24.5273 26.0508H17.0785C17.0309 26.0043 16.9767 25.9526 16.9163 25.8967C16.6648 25.6637 16.3019 25.3539 15.8522 25.0432C14.9672 24.4319 13.6713 23.7657 12.1875 23.7657C10.7037 23.7657 9.40774 24.4319 8.52279 25.0432C8.07307 25.3539 7.71014 25.6637 7.45866 25.8967C7.33254 26.0135 7.23345 26.112 7.16444 26.1828C7.12991 26.2182 7.10284 26.2468 7.0836 26.2675C7.07398 26.2778 7.06632 26.2861 7.06065 26.2923C7.05782 26.2954 7.05549 26.298 7.05366 26.3L7.0513 26.3026L7.0504 26.3036L7.05003 26.3041C7.04986 26.3042 7.0497 26.3044 7.5925 26.7904L7.0497 26.3044C6.76908 26.6178 6.79568 27.0994 7.1091 27.38C7.42217 27.6603 7.903 27.6341 8.18375 27.3217C8.18387 27.3215 8.18399 27.3214 8.18411 27.3213C8.18417 27.3212 8.18422 27.3211 8.18427 27.3211L8.1844 27.3209L8.18562 27.3196C8.18786 27.3172 8.19199 27.3127 8.19797 27.3062C8.20994 27.2934 8.22929 27.2729 8.25563 27.2459C8.30837 27.1917 8.38884 27.1116 8.49398 27.0142C8.705 26.8188 9.01133 26.5573 9.38864 26.2967C10.1578 25.7654 11.147 25.2891 12.1875 25.2891C13.228 25.2891 14.2172 25.7654 14.9863 26.2967C15.3637 26.5573 15.67 26.8188 15.881 27.0142C15.9861 27.1116 16.0666 27.1917 16.1193 27.2459C16.1457 27.2729 16.165 27.2934 16.177 27.3062C16.183 27.3127 16.1871 27.3172 16.1894 27.3196L16.1903 27.3206C16.1904 27.3207 16.1905 27.3208 16.1906 27.3209C16.1904 27.3208 16.1903 27.3206 16.7578 26.8125M16.1906 27.3209C16.1907 27.3211 16.1908 27.3212 16.1909 27.3213C16.3354 27.4823 16.5415 27.5742 16.7578 27.5742H24.5273C25.3688 27.5742 26.0507 28.2562 26.0507 29.0977C26.0507 29.9391 25.3688 30.6211 24.5273 30.6211C24.1066 30.6211 23.7656 30.9621 23.7656 31.3828" fill="black"/>
<path fill-rule="evenodd" clip-rule="evenodd" d="M11.8828 9.90286C11.8828 15.3714 16.3165 19.8052 21.7851 19.8052C27.2537 19.8052 31.6874 15.3714 31.6874 9.90286C31.6874 4.43348 27.2537 0.000547409 21.7851 0.000547409C16.3166 0.000547409 11.8828 4.43348 11.8828 9.90286ZM21.7851 18.2817C17.1579 18.2817 13.4062 14.5301 13.4062 9.90286C13.4062 5.27493 17.1579 1.52398 21.7851 1.52398C26.4124 1.52398 30.164 5.27493 30.164 9.90286C30.164 14.5301 26.4123 18.2817 21.7851 18.2817Z" fill="black"/>
<path d="M15.9961 37.1721C15.9961 37.5927 15.655 37.9338 15.2344 37.9338C14.8137 37.9338 14.4727 37.5927 14.4727 37.1721C14.4727 36.7514 14.8137 36.4104 15.2344 36.4104C15.655 36.4104 15.9961 36.7514 15.9961 37.1721Z" fill="black"/>
<path fill-rule="evenodd" clip-rule="evenodd" d="M20.8382 38.8529C21.4282 38.951 22.0246 39 22.6225 39C25.1531 39 27.6046 38.1163 29.5528 36.5023L37.8507 30.0146C37.8533 30.0125 37.856 30.0104 37.8587 30.0083C39.1916 28.9371 39.3865 26.9812 38.2919 25.6683C38.2919 25.6682 38.2918 25.6682 38.2918 25.6681C37.2319 24.3964 35.3531 24.1985 34.0516 25.223C34.0466 25.227 34.0416 25.2311 34.0366 25.2352L27.5404 30.6211H17.9014C17.4807 30.6211 17.1396 30.9622 17.1396 31.3828C17.1396 31.8035 17.4807 32.1446 17.9014 32.1446H27.8151C27.9926 32.1446 28.1646 32.0825 28.3013 31.9692L35.0008 26.4147C35.6536 25.9067 36.5913 26.0073 37.1216 26.6436L37.1217 26.6438C37.6698 27.301 37.5735 28.2798 36.9079 28.8179L28.6058 35.3089C28.5999 35.3135 28.5941 35.3181 28.5884 35.3229C26.9123 36.7145 24.8015 37.4766 22.6225 37.4766C22.1074 37.4766 21.5939 37.4343 21.0862 37.3498L21.0822 37.3491L18.7397 36.972C18.3243 36.9052 17.9334 37.1876 17.8666 37.603C17.7997 38.0183 18.0822 38.4092 18.4975 38.4761L20.8382 38.8529Z" fill="black"/>
<path fill-rule="evenodd" clip-rule="evenodd" d="M0 38.2383C0 38.659 0.341032 39 0.761716 39H7.61716C8.03785 39 8.37888 38.659 8.37888 38.2383V36.8473L11.7277 37.3864C12.143 37.4532 12.5339 37.1707 12.6008 36.7554C12.6676 36.3401 12.3851 35.9492 11.9698 35.8823L8.37888 35.3042V26.8125C8.37888 25.1296 7.01494 23.7657 5.33201 23.7657H0.761716C0.341032 23.7657 0 24.1067 0 24.5274V38.2383ZM1.52343 37.4766V25.2891H5.33201C6.17357 25.2891 6.85545 25.971 6.85545 26.8125V37.4766H1.52343Z" fill="black"/>
</g>
</svg>
