<svg width="15" height="15" viewBox="0 0 15 15" fill="none" xmlns="http://www.w3.org/2000/svg">
<path d="M12.2729 11.5911V0.681828C12.2729 0.500996 12.2011 0.32757 12.0732 0.199703C11.9453 0.0718352 11.7719 0 11.5911 0H0.681828C0.500996 0 0.32757 0.0718352 0.199703 0.199703C0.0718352 0.32757 0 0.500996 0 0.681828V11.5911C0 11.7719 0.0718352 11.9453 0.199703 12.0732C0.32757 12.2011 0.500996 12.2729 0.681828 12.2729H11.5911C11.7719 12.2729 11.9453 12.2011 12.0732 12.0732C12.2011 11.9453 12.2729 11.7719 12.2729 11.5911ZM10.9092 10.9092H1.36366V1.36366H10.9092V10.9092Z" fill="#162B49"/>
<path d="M14.3186 2.72705H12.955V4.09071H13.6368V13.6363H4.09119V12.9545H2.72754V14.3181C2.72754 14.499 2.79937 14.6724 2.92724 14.8002C3.05511 14.9281 3.22853 15 3.40937 15H14.3186C14.4994 15 14.6729 14.9281 14.8007 14.8002C14.9286 14.6724 15.0004 14.499 15.0004 14.3181V3.40888C15.0004 3.22805 14.9286 3.05462 14.8007 2.92675C14.6729 2.79889 14.4994 2.72705 14.3186 2.72705Z" fill="#162B49"/>
<path d="M5.4545 9.15633H6.81816V6.81834H9.15615V5.45469H6.81816V3.1167H5.4545V5.45469H3.11652V6.81834H5.4545V9.15633Z" fill="#162B49"/>
</svg>
